<?xml version="1.0" encoding="UTF-8" standalone="no"?>
<!-- Created with Inkscape (http://www.inkscape.org/) -->

<svg
   xmlns:dc="http://purl.org/dc/elements/1.1/"
   xmlns:cc="http://creativecommons.org/ns#"
   xmlns:rdf="http://www.w3.org/1999/02/22-rdf-syntax-ns#"
   xmlns:svg="http://www.w3.org/2000/svg"
   xmlns="http://www.w3.org/2000/svg"
   xmlns:sodipodi="http://sodipodi.sourceforge.net/DTD/sodipodi-0.dtd"
   xmlns:inkscape="http://www.inkscape.org/namespaces/inkscape"
   width="800"
   height="600"
   id="svg2"
   version="1.1"
   inkscape:version="0.48.3.1 r9886"
   sodipodi:docname="vector_graph3.svg">
  <defs
     id="defs4" />
  <sodipodi:namedview
     id="base"
     pagecolor="#ffffff"
     bordercolor="#666666"
     borderopacity="1.0"
     inkscape:pageopacity="1"
     inkscape:pageshadow="2"
     inkscape:zoom="2.8"
     inkscape:cx="684.87885"
     inkscape:cy="210.74337"
     inkscape:document-units="px"
     inkscape:current-layer="layer1"
     showgrid="false"
     units="px"
     inkscape:window-width="1122"
     inkscape:window-height="932"
     inkscape:window-x="178"
     inkscape:window-y="56"
     inkscape:window-maximized="0" />
  <metadata
     id="metadata7">
    <rdf:RDF>
      <cc:Work
         rdf:about="">
        <dc:format>image/svg+xml</dc:format>
        <dc:type
           rdf:resource="http://purl.org/dc/dcmitype/StillImage" />
        <dc:title />
      </cc:Work>
    </rdf:RDF>
  </metadata>
  <g
     inkscape:label="Layer 1"
     inkscape:groupmode="layer"
     id="layer1"
     transform="translate(0,-452.3627)">
    <rect
       style="opacity:0.22222224;fill:#d20000;fill-opacity:1;stroke-width:1;stroke-miterlimit:4;stroke-dasharray:12, 12;stroke-dashoffset:0"
       id="rect3943"
       width="184.55565"
       height="187.58279"
       x="351.49792"
       y="589.80988" />
    <rect
       style="opacity:0.222;fill:#0000d2;fill-opacity:1;stroke-width:1;stroke-miterlimit:4;stroke-dasharray:12, 12;stroke-dashoffset:0"
       id="rect3943-7"
       width="221.16502"
       height="242.35741"
       x="308.35831"
       y="760.78082"
       transform="matrix(0.99989611,0.01441452,0.0065552,0.99997851,0,0)" />
    <path
       style="fill:none;stroke:#000000;stroke-width:0.61172217px;stroke-linecap:butt;stroke-linejoin:miter;stroke-opacity:1"
       d="m 323.08526,792.04876 c 9.33912,1.88376 16.09979,4.65414 26.21667,5.24333 7.92909,0.13657 16.17777,-0.49842 23.595,0.87389 9.25857,-1.42355 18.88822,-2.11141 27.96443,-4.36944 11.12572,-2.90087 22.06851,-5.45955 33.20778,-8.73889 9.89836,-2.83607 14.74724,-6.93224 24.38732,-11.31977 17.75241,-10.0676 36.33247,-18.46052 50.76712,-33.24856 9.61137,-10.137 19.39433,-22.43751 21.84721,-36.70333 4.15828,-10.12437 4.29727,-22.08938 2.62167,-33.20777 -2.95945,-8.15652 -5.19213,-13.67462 -10.48666,-20.97333 -6.31851,-5.63474 -10.86141,-13.32515 -18.35167,-18.35167 -8.34082,-8.88317 -16.39081,-18.29026 -27.96444,-24.46888 -13.42414,-3.94604 -24.39849,-9.37319 -38.45111,-10.48667 -15.67411,-2.97291 -31.12448,1.21231 -45.4122,7.06546 -10.35119,5.68873 -20.22227,14.60888 -27.99446,23.52065 -6.996,10.21694 -7.81564,23.0434 -10.48666,34.95555 -0.90045,10.00758 -0.20665,19.51796 3.49555,28.83833 2.41454,8.52767 4.03871,19.6811 9.61278,28.83833 5.60872,9.49906 13.43403,18.43543 20.83041,26.25973 6.1639,8.48124 15.8397,14.21355 23.73792,18.3086 8.00687,4.12727 17.05182,9.66829 24.46889,13.10833 8.99251,3.81955 16.92045,8.64516 25.40567,10.49084 9.35,5.68162 25.04719,9.18238 31.93733,14.77229 9.57486,5.51322 14.65842,15.28926 23.05477,22.80075 8.93284,11.13189 10.60835,25.17219 13.98221,38.45111 1.76513,12.08854 2.29901,24.66932 0.8739,36.99277 0.9338,21.11925 -5.45875,42.30968 -18.35167,59.135 -12.01811,11.90728 -25.08717,24.01706 -40.19888,33.20778 -23.60517,14.04131 -53.60907,17.28601 -79.52389,7.86501 -18.3127,-5.82266 -34.29538,-18.6851 -48.06388,-34.08168 -12.09197,-8.8814 -23.91718,-30.49518 -27.96444,-48.93777 -3.12621,-15.96188 -3.70033,-32.08275 -1.74778,-48.06388 3.21694,-8.71943 6.27253,-21.08259 9.75155,-26.66689 3.11974,-5.25016 13.98899,-19.4133 24.70634,-24.85207 19.86406,-15.15894 44.64492,-22.63533 69.53488,-21.01382 18.46514,2.04664 38.84953,7.52086 49.9838,23.73821 7.4025,10.7145 16.99366,27.95776 15.55786,43.55123 -2.39579,20.16152 -8.40117,39.96768 -18.60386,57.69651 0.0508,1.99981 -11.34921,19.59324 -17.22558,27.07071 -11.9213,13.93808 -28.33587,27.92827 -48.06389,24.46888 -15.69197,-3.64025 -29.74453,-12.85904 -41.07277,-24.46888 -6.4207,-12.22687 -12.98532,-24.25877 -12.23444,-38.74055 0.17289,-14.1718 6.87518,-27.52172 13.10833,-39.90945 17.10406,-18.86347 35.31048,-37.73772 58.55055,-48.93777 21.54206,-15.13147 46.00341,-25.62573 68.34935,-39.36951 -3.24226,3.97028 16.08143,-12.66605 23.1028,-17.42211 12.78126,-9.39367 24.8084,-23.77927 31.76617,-35.84059 14.58095,-20.20057 21.27047,-45.16433 20.97333,-69.91111 -3.55979,-29.80868 -14.27863,-58.57502 -30.58611,-83.89333 -7.79543,-15.27056 -20.32027,-29.02579 -34.08166,-39.32499 -16.03066,-13.2041 -36.66824,-19.38242 -56.80277,-21.84722 -26.92146,-1.41906 -56.49144,4.3755 -74.28055,26.21666 -12.41391,10.87991 -19.28136,27.2792 -21.84722,43.69444 -2.57489,21.32844 -0.5733,43.58202 9.61278,62.92 5.7926,13.47706 10.5301,23.38371 19.22555,34.95555 9.81367,12.88486 22.40839,23.6578 33.20777,35.82944 14.47694,12.1744 27.23673,26.62289 44.56834,34.95555 16.7522,8.98409 34.11759,16.7006 49.79942,27.54931 26.70248,13.77035 53.38019,27.50384 77.78834,44.98347 15.66833,9.17832 28.3423,23.28205 41.94665,33.20777"
       id="path3047"
       inkscape:connector-curvature="0" />
    <path
       style="fill:none;stroke:#000000;stroke-width:0.61172217px;stroke-linecap:butt;stroke-linejoin:miter;stroke-opacity:1"
       d="m 383.38359,477.44879 c 0,561.03661 0,561.03661 0,561.03661"
       id="path3049"
       inkscape:connector-curvature="0" />
    <path
       style="fill:none;stroke:#000000;stroke-width:0.61172217px;stroke-linecap:butt;stroke-linejoin:miter;stroke-opacity:1"
       d="m 184.13694,798.69031 c 497.24275,0 497.24275,0 497.24275,0"
       id="path3051"
       inkscape:connector-curvature="0" />
    <path
       style="fill:none;stroke:#000000;stroke-width:0.61172217px;stroke-linecap:butt;stroke-linejoin:miter;stroke-opacity:1"
       d="M 519.71025,784.18376 C 671.76691,713.39877 671.76691,713.39877 671.76691,713.39877"
       id="path3055"
       inkscape:connector-curvature="0" />
    <rect
       style="opacity:0.22222224;fill:#d20000;fill-opacity:1;stroke-width:1;stroke-miterlimit:4;stroke-dasharray:12, 12;stroke-dashoffset:0"
       id="rect3943-2"
       width="223.00676"
       height="251.37666"
       x="344.41296"
       y="512.11908" />
    <path
       style="fill:none;stroke:#000000;stroke-width:0.61172217px;stroke-linecap:butt;stroke-linejoin:miter;stroke-opacity:1"
       d="m 685.7491,699.41655 c -0.70671,1.44137 6.38893,7.84602 13.98226,13.10833 1.83302,0.35596 -0.0854,2.26578 1.74775,2.62167"
       id="path3075"
       inkscape:connector-curvature="0" />
    <path
       style="fill:none;stroke:#000000;stroke-width:0.61172217px;stroke-linecap:butt;stroke-linejoin:miter;stroke-opacity:1"
       d="m 700.6052,697.66877 c -4.2839,1.15449 -3.11748,2.6203 -11.36054,12.23445 0.99093,2.86149 -7.3078,1.87505 -0.8739,6.99111"
       id="path3077"
       inkscape:connector-curvature="0" />
    <path
       style="fill:none;stroke:#000000;stroke-width:0.61172217px;stroke-linecap:butt;stroke-linejoin:miter;stroke-opacity:1"
       d="m 710.21799,712.52488 c 5.79965,-13.97984 7.37936,1.48878 6.11722,6.99111"
       id="path3079"
       inkscape:connector-curvature="0" />
    <path
       style="fill:none;stroke:#000000;stroke-width:0.61172217px;stroke-linecap:butt;stroke-linejoin:miter;stroke-opacity:1"
       d="m 376.39248,486.18768 c 3.97121,-3.45628 8.52233,-18.04236 8.73889,-11.36055 0.10481,5.70095 4.02126,6.48905 5.24333,11.36055"
       id="path3087"
       inkscape:connector-curvature="0" />
    <path
       style="fill:none;stroke:#000000;stroke-width:0.61172217px;stroke-linecap:butt;stroke-linejoin:miter;stroke-opacity:1"
       d="m 664.77578,790.30099 c 3.37791,5.5258 18.43985,4.30366 12.23444,7.86499 -3.97271,3.63873 -7.26219,4.76392 -8.73888,7.865"
       id="path3089"
       inkscape:connector-curvature="0" />
    <path
       style="fill:none;stroke:#000000;stroke-width:0.6436978;stroke-linecap:butt;stroke-linejoin:miter;stroke-miterlimit:4;stroke-opacity:1;stroke-dasharray:7.72437397, 7.72437397;stroke-dashoffset:0"
       d="M 243.03743,772.68333 C 380.27806,722.25735 380.27806,722.25735 380.27806,722.25735"
       id="path3068-9"
       inkscape:connector-curvature="0" />
    <path
       style="fill:none;stroke:#000000;stroke-width:0.6436978;stroke-linecap:butt;stroke-linejoin:miter;stroke-miterlimit:4;stroke-opacity:1;stroke-dasharray:7.72437397, 7.72437397;stroke-dashoffset:0"
       d="M 235.00853,743.91362 C 372.24914,693.48767 372.24914,693.48767 372.24914,693.48767"
       id="path3068-2-5"
       inkscape:connector-curvature="0" />
    <path
       style="fill:none;stroke:#000000;stroke-width:0.61172217px;stroke-linecap:butt;stroke-linejoin:miter;stroke-opacity:1"
       d="M 257.5436,839.23876 C 368.52748,800.78765 368.52748,800.78765 368.52748,800.78765"
       id="path3124"
       inkscape:connector-curvature="0" />
    <path
       style="fill:none;stroke:#000000;stroke-width:0.61172217px;stroke-linecap:butt;stroke-linejoin:miter;stroke-opacity:1"
       d="m 230.45305,743.98488 c -10.80372,-1.52592 -2.42452,9.82788 -0.87389,13.98222 -7.1524,10.64569 2.62391,2.42259 3.49556,15.73 2.25766,1.18757 3.46669,3.56684 7.86499,2.62167"
       id="path3126"
       inkscape:connector-curvature="0" />
    <path
       style="fill:none;stroke:#000000;stroke-width:0.61172217px;stroke-linecap:butt;stroke-linejoin:miter;stroke-opacity:1"
       d="m 178.89361,767.57988 c 1.11231,-4.10704 7.01176,-17.96064 7.70566,-10.56883 1.93229,3.46537 5.46315,8.57543 7.15045,10.56883"
       id="path3128"
       inkscape:connector-curvature="0" />
    <path
       style="fill:none;stroke:#000000;stroke-width:0.61172217px;stroke-linecap:butt;stroke-linejoin:miter;stroke-opacity:1"
       d="m 174.52416,768.45376 c 4.61758,-1.61237 10.42958,1.77387 15.73,-0.87388"
       id="path3130"
       inkscape:connector-curvature="0" />
    <path
       style="fill:none;stroke:#000000;stroke-width:0.61172217px;stroke-linecap:butt;stroke-linejoin:miter;stroke-opacity:1"
       d="m 198.99305,761.46265 c 5.35693,5.67193 9.0342,5.30601 15.73,10.48667"
       id="path3132"
       inkscape:connector-curvature="0" />
    <path
       style="fill:none;stroke:#000000;stroke-width:0.61172217px;stroke-linecap:butt;stroke-linejoin:miter;stroke-opacity:1"
       d="m 212.10138,759.71488 c -1.87877,5.40315 -7.76115,11.30152 -8.73889,18.35166"
       id="path3134"
       inkscape:connector-curvature="0" />
    <path
       style="fill:none;stroke:#000000;stroke-width:0.61172217px;stroke-linecap:butt;stroke-linejoin:miter;stroke-opacity:1"
       d="m 228.70527,829.62598 c 4.376,5.79918 10.14503,12.38677 13.98222,17.47778"
       id="path3136"
       inkscape:connector-curvature="0" />
    <path
       style="fill:none;stroke:#000000;stroke-width:0.61172217px;stroke-linecap:butt;stroke-linejoin:miter;stroke-opacity:1"
       d="m 240.93971,827.8782 c -3.89987,5.59459 -8.68267,12.02051 -11.36055,18.35167"
       id="path3138"
       inkscape:connector-curvature="0" />
    <path
       style="fill:none;stroke:#000000;stroke-width:0.61172217px;stroke-linecap:butt;stroke-linejoin:miter;stroke-opacity:1"
       d="m 250.55249,847.10376 c -8.37019,16.94785 16.72813,8.41344 0,0 z"
       id="path3140"
       inkscape:connector-curvature="0" />
  </g>
</svg>
