<?xml version="1.0" encoding="UTF-8" standalone="no"?>
<!-- Created with Inkscape (http://www.inkscape.org/) -->

<svg
   xmlns:dc="http://purl.org/dc/elements/1.1/"
   xmlns:cc="http://creativecommons.org/ns#"
   xmlns:rdf="http://www.w3.org/1999/02/22-rdf-syntax-ns#"
   xmlns:svg="http://www.w3.org/2000/svg"
   xmlns="http://www.w3.org/2000/svg"
   xmlns:sodipodi="http://sodipodi.sourceforge.net/DTD/sodipodi-0.dtd"
   xmlns:inkscape="http://www.inkscape.org/namespaces/inkscape"
   width="800"
   height="600"
   id="svg2"
   version="1.1"
   inkscape:version="0.48.3.1 r9886"
   sodipodi:docname="extraction_sequence.svg">
  <defs
     id="defs4" />
  <sodipodi:namedview
     id="base"
     pagecolor="#ffffff"
     bordercolor="#666666"
     borderopacity="1.0"
     inkscape:pageopacity="1"
     inkscape:pageshadow="2"
     inkscape:zoom="5.6"
     inkscape:cx="438.83967"
     inkscape:cy="570.30293"
     inkscape:document-units="px"
     inkscape:current-layer="layer1"
     showgrid="false"
     units="px"
     inkscape:window-width="1282"
     inkscape:window-height="993"
     inkscape:window-x="137"
     inkscape:window-y="178"
     inkscape:window-maximized="0" />
  <metadata
     id="metadata7">
    <rdf:RDF>
      <cc:Work
         rdf:about="">
        <dc:format>image/svg+xml</dc:format>
        <dc:type
           rdf:resource="http://purl.org/dc/dcmitype/StillImage" />
        <dc:title />
      </cc:Work>
    </rdf:RDF>
  </metadata>
  <g
     inkscape:label="Layer 1"
     inkscape:groupmode="layer"
     id="layer1"
     transform="translate(0,-452.3627)">
    <path
       style="fill:none;stroke:#000000;stroke-width:0.76889908;stroke-linecap:butt;stroke-linejoin:miter;stroke-miterlimit:4;stroke-opacity:1;stroke-dasharray:none"
       d="m 177.02545,810.46247 c 465.32827,0 465.32827,0 465.32827,0"
       id="path3064"
       inkscape:connector-curvature="0" />
    <path
       style="fill:none;stroke:#000000;stroke-width:0.76889908;stroke-linecap:butt;stroke-linejoin:miter;stroke-miterlimit:4;stroke-opacity:1;stroke-dasharray:none"
       d="m 380.84439,471.01352 c 0,569.51978 0,569.51978 0,569.51978"
       id="path3066"
       inkscape:connector-curvature="0" />
    <path
       style="fill:none;stroke:#000000;stroke-width:0.74641383px;stroke-linecap:butt;stroke-linejoin:miter;stroke-opacity:1"
       d="m 335.98889,791.02362 c 30.94543,25.36579 74.89457,21.73124 111.3966,13.11049 23.19699,-7.67467 50.35749,-16.5823 62.17727,-39.8514 6.30239,-17.36364 -3.03185,-35.79312 -17.02915,-46.25751 -15.31166,-14.61263 -32.04321,-27.33787 -50.75042,-37.29852 -19.07515,-8.66632 -35.61145,-31.41464 -18.58017,-50.31564 13.11593,-16.20367 29.12437,-31.12558 47.86031,-40.56355 21.85617,-9.46737 47.59658,-15.66418 69.91559,-3.88348 24.90841,12.3107 25.49245,45.0687 19.39801,68.52981 -5.64613,24.18928 -31.8198,39.35274 -55.75649,34.21804 -31.67476,-3.27879 -64.26709,-9.59041 -95.8695,-2.17472 -23.19119,4.80265 -38.15061,28.79246 -39.83804,51.17496 -2.76681,29.87976 20.94232,52.14467 43.69705,67.18992 25.15036,16.78997 51.76188,34.922 67.04707,61.731 8.44927,20.18007 15.2382,41.12469 21.08182,62.20445"
       id="path3030"
       inkscape:connector-curvature="0" />
    <path
       style="fill:none;stroke:#000000;stroke-width:0.61218077px;stroke-linecap:butt;stroke-linejoin:miter;stroke-opacity:1"
       d="m 630.36679,802.29594 c 4.97495,1.4495 22.00496,2.02218 17.49087,6.99635 -2.04425,2.24452 -6.4906,4.68962 -8.74544,7.87089 -0.84956,-0.55098 -5.38887,3.13426 -2.62362,2.62364"
       id="path3025"
       inkscape:connector-curvature="0" />
    <path
       style="fill:none;stroke:#000000;stroke-width:0.61218077px;stroke-linecap:butt;stroke-linejoin:miter;stroke-opacity:1"
       d="m 600.63232,769.06327 c 0.53959,5.85103 1.47518,11.84499 2.62362,17.49088"
       id="path3027"
       inkscape:connector-curvature="0" />
    <path
       style="fill:none;stroke:#000000;stroke-width:0.61218077px;stroke-linecap:butt;stroke-linejoin:miter;stroke-opacity:1"
       d="m 598.00869,765.56509 c 8.41689,-5.60549 18.0393,1.48901 9.61993,6.99635 -10.20693,5.15227 -1.08588,3.67311 5.24731,8.74545 2.72066,3.55499 9.35973,2.53589 10.49449,5.24726"
       id="path3029"
       inkscape:connector-curvature="0" />
    <path
       style="fill:none;stroke:#000000;stroke-width:0.61218077px;stroke-linecap:butt;stroke-linejoin:miter;stroke-opacity:1"
       d="m 626.86861,776.05962 c 1.37895,1.31711 6.89647,-1.03916 6.12181,-6.99635 -10.01298,-0.72473 -4.91218,17.8195 2.62362,13.11816 -0.0854,-1.90519 2.60901,0.20613 1.74912,-1.74909"
       id="path3031"
       inkscape:connector-curvature="0" />
    <path
       style="fill:none;stroke:#000000;stroke-width:0.61218077px;stroke-linecap:butt;stroke-linejoin:miter;stroke-opacity:1"
       d="m 649.60678,758.56874 c -3.26542,0.86965 -5.77384,15.82254 5.24725,24.48723 l 0.95185,0.032 0.79721,0.84253"
       id="path3033"
       inkscape:connector-curvature="0" />
    <path
       style="fill:none;stroke:#000000;stroke-width:0.61218077px;stroke-linecap:butt;stroke-linejoin:miter;stroke-opacity:1"
       d="m 661.85039,763.81601 c 14.02383,-5.09517 1.22404,7.07762 4.37269,12.24361 3.63257,0.52469 6.00039,-1.59987 8.74543,-1.74909"
       id="path3035"
       inkscape:connector-curvature="0" />
    <path
       style="fill:none;stroke:#000000;stroke-width:0.61218077px;stroke-linecap:butt;stroke-linejoin:miter;stroke-opacity:1"
       d="m 660.97583,771.6869 c 4.23127,-1.46518 7.85772,-2.47376 12.24358,-2.62363"
       id="path3037"
       inkscape:connector-curvature="0" />
    <path
       style="fill:none;stroke:#000000;stroke-width:0.61218077px;stroke-linecap:butt;stroke-linejoin:miter;stroke-opacity:1"
       d="m 668.84671,750.69785 c 6.81237,3.01473 20.41282,19.02733 15.7418,30.60904"
       id="path3039"
       inkscape:connector-curvature="0" />
    <path
       style="fill:none;stroke:#000000;stroke-width:0.61218077px;stroke-linecap:butt;stroke-linejoin:miter;stroke-opacity:1"
       d="m 373.42577,480.46376 c 3.73823,-5.04489 6.94392,-10.73776 7.8709,-13.99271 1.98145,3.59329 3.92141,9.34909 5.24726,12.24362"
       id="path3041"
       inkscape:connector-curvature="0" />
    <path
       style="fill:none;stroke:#000000;stroke-width:0.61218077px;stroke-linecap:butt;stroke-linejoin:miter;stroke-opacity:1"
       d="m 404.73445,461.22379 c -1.60372,6.14169 -4.5578,14.15365 -2.62363,20.11451"
       id="path3043"
       inkscape:connector-curvature="0" />
    <path
       style="fill:none;stroke:#000000;stroke-width:0.61218077px;stroke-linecap:butt;stroke-linejoin:miter;stroke-opacity:1"
       d="m 445.83801,462.97288 c -4.30587,5.23714 -14.06145,25.34823 0.87455,26.23632"
       id="path3047"
       inkscape:connector-curvature="0" />
    <path
       style="fill:none;stroke:#000000;stroke-width:0.61218077px;stroke-linecap:butt;stroke-linejoin:miter;stroke-opacity:1"
       d="m 452.83437,470.84377 c 14.38082,-4.86211 8.95831,5.41079 3.49817,13.11816 1.97266,1.07763 9.32296,1.77192 10.49453,0"
       id="path3049"
       inkscape:connector-curvature="0" />
    <path
       style="fill:none;stroke:#000000;stroke-width:0.61218077px;stroke-linecap:butt;stroke-linejoin:miter;stroke-opacity:1"
       d="m 455.45799,477.84012 c 3.90854,-0.57126 6.87046,0.7762 10.49453,0.87455"
       id="path3051"
       inkscape:connector-curvature="0" />
    <path
       style="fill:none;stroke:#000000;stroke-width:0.61218077px;stroke-linecap:butt;stroke-linejoin:miter;stroke-opacity:1"
       d="m 466.82707,462.97288 c 9.22166,5.99475 11.87607,18.77032 6.12181,27.9854"
       id="path3053"
       inkscape:connector-curvature="0" />
    <path
       style="fill:none;stroke:#000000;stroke-width:0.61218077px;stroke-linecap:butt;stroke-linejoin:miter;stroke-opacity:1"
       d="m 409.98171,470.84377 c 0.81685,6.14517 -4.81468,20.52127 0.87454,9.61998 4.18835,-10.61097 9.65315,-0.77835 7.90292,0.91595 4.3912,-10.7598 12.73875,-8.20774 8.71342,3.45677 l 0,0.87455"
       id="path3095"
       inkscape:connector-curvature="0" />
    <path
       sodipodi:type="arc"
       style="opacity:0.222;fill:#0000d2;fill-opacity:1;stroke-width:1;stroke-miterlimit:4;stroke-dasharray:12, 12;stroke-dashoffset:0"
       id="path3028"
       sodipodi:cx="554.28571"
       sodipodi:cy="691.56348"
       sodipodi:rx="17.142857"
       sodipodi:ry="17.142857"
       d="m 571.42856,691.56348 c 0,9.46773 -7.67512,17.14285 -17.14285,17.14285 -9.46774,0 -17.14286,-7.67512 -17.14286,-17.14285 0,-9.46774 7.67512,-17.14286 17.14286,-17.14286 9.46773,0 17.14285,7.67512 17.14285,17.14286 z"
       transform="matrix(0.51301137,0.33404287,-0.33404287,0.51301137,283.64795,252.14446)" />
    <path
       transform="matrix(0.51301137,0.33404287,-0.33404287,0.51301137,411.1652,155.6769)"
       sodipodi:type="arc"
       style="opacity:0.222;fill:#0000d2;fill-opacity:1;stroke-width:1;stroke-miterlimit:4;stroke-dasharray:12, 12;stroke-dashoffset:0"
       id="path3028-5"
       sodipodi:cx="554.28571"
       sodipodi:cy="691.56348"
       sodipodi:rx="17.142857"
       sodipodi:ry="17.142857"
       d="m 571.42856,691.56348 c 0,9.46773 -7.67512,17.14285 -17.14285,17.14285 -9.46774,0 -17.14286,-7.67512 -17.14286,-17.14285 0,-9.46774 7.67512,-17.14286 17.14286,-17.14286 9.46773,0 17.14285,7.67512 17.14285,17.14286 z" />
    <path
       transform="matrix(0.51301137,0.33404287,-0.33404287,0.51301137,406.66556,143.35459)"
       sodipodi:type="arc"
       style="opacity:0.222;fill:#0000d2;fill-opacity:1;stroke-width:1;stroke-miterlimit:4;stroke-dasharray:12, 12;stroke-dashoffset:0"
       id="path3028-1"
       sodipodi:cx="554.28571"
       sodipodi:cy="691.56348"
       sodipodi:rx="17.142857"
       sodipodi:ry="17.142857"
       d="m 571.42856,691.56348 c 0,9.46773 -7.67512,17.14285 -17.14285,17.14285 -9.46774,0 -17.14286,-7.67512 -17.14286,-17.14285 0,-9.46774 7.67512,-17.14286 17.14286,-17.14286 9.46773,0 17.14285,7.67512 17.14285,17.14286 z" />
    <path
       transform="matrix(0.51301137,0.33404287,-0.33404287,0.51301137,393.20348,289.04177)"
       sodipodi:type="arc"
       style="opacity:0.222;fill:#0000d2;fill-opacity:1;stroke-width:1;stroke-miterlimit:4;stroke-dasharray:12, 12;stroke-dashoffset:0"
       id="path3028-4"
       sodipodi:cx="554.28571"
       sodipodi:cy="691.56348"
       sodipodi:rx="17.142857"
       sodipodi:ry="17.142857"
       d="m 571.42856,691.56348 c 0,9.46773 -7.67512,17.14285 -17.14285,17.14285 -9.46774,0 -17.14286,-7.67512 -17.14286,-17.14285 0,-9.46774 7.67512,-17.14286 17.14286,-17.14286 9.46773,0 17.14285,7.67512 17.14285,17.14286 z" />
    <path
       transform="matrix(0.51301137,0.33404287,-0.33404287,0.51301137,456.24596,219.46967)"
       sodipodi:type="arc"
       style="opacity:0.222;fill:#d20000;fill-opacity:1;stroke-width:1;stroke-miterlimit:4;stroke-dasharray:12, 12;stroke-dashoffset:0"
       id="path3028-44"
       sodipodi:cx="554.28571"
       sodipodi:cy="691.56348"
       sodipodi:rx="17.142857"
       sodipodi:ry="17.142857"
       d="m 571.42856,691.56348 c 0,9.46773 -7.67512,17.14285 -17.14285,17.14285 -9.46774,0 -17.14286,-7.67512 -17.14286,-17.14285 0,-9.46774 7.67512,-17.14286 17.14286,-17.14286 9.46773,0 17.14285,7.67512 17.14285,17.14286 z" />
    <path
       transform="matrix(0.51301137,0.33404287,-0.33404287,0.51301137,364.75524,103.54184)"
       sodipodi:type="arc"
       style="opacity:0.222;fill:#d20000;fill-opacity:1;stroke-width:1;stroke-miterlimit:4;stroke-dasharray:12, 12;stroke-dashoffset:0"
       id="path3028-44-2"
       sodipodi:cx="554.28571"
       sodipodi:cy="691.56348"
       sodipodi:rx="17.142857"
       sodipodi:ry="17.142857"
       d="m 571.42856,691.56348 c 0,9.46773 -7.67512,17.14285 -17.14285,17.14285 -9.46774,0 -17.14286,-7.67512 -17.14286,-17.14285 0,-9.46774 7.67512,-17.14286 17.14286,-17.14286 9.46773,0 17.14285,7.67512 17.14285,17.14286 z" />
    <path
       transform="matrix(0.51301137,0.33404287,-0.33404287,0.51301137,501.30728,124.62246)"
       sodipodi:type="arc"
       style="opacity:0.222;fill:#d20000;fill-opacity:1;stroke-width:1;stroke-miterlimit:4;stroke-dasharray:12, 12;stroke-dashoffset:0"
       id="path3028-44-3"
       sodipodi:cx="554.28571"
       sodipodi:cy="691.56348"
       sodipodi:rx="17.142857"
       sodipodi:ry="17.142857"
       d="m 571.42856,691.56348 c 0,9.46773 -7.67512,17.14285 -17.14285,17.14285 -9.46774,0 -17.14286,-7.67512 -17.14286,-17.14285 0,-9.46774 7.67512,-17.14286 17.14286,-17.14286 9.46773,0 17.14285,7.67512 17.14285,17.14286 z" />
    <path
       transform="matrix(0.51301137,0.33404287,-0.33404287,0.51301137,318.50057,177.78359)"
       sodipodi:type="arc"
       style="opacity:0.222;fill:#d20000;fill-opacity:1;stroke-width:1;stroke-miterlimit:4;stroke-dasharray:12, 12;stroke-dashoffset:0"
       id="path3028-44-6"
       sodipodi:cx="554.28571"
       sodipodi:cy="691.56348"
       sodipodi:rx="17.142857"
       sodipodi:ry="17.142857"
       d="m 571.42856,691.56348 c 0,9.46773 -7.67512,17.14285 -17.14285,17.14285 -9.46774,0 -17.14286,-7.67512 -17.14286,-17.14285 0,-9.46774 7.67512,-17.14286 17.14286,-17.14286 9.46773,0 17.14285,7.67512 17.14285,17.14286 z" />
    <path
       transform="matrix(0.51301137,0.33404287,-0.33404287,0.51301137,485.42161,46.44464)"
       sodipodi:type="arc"
       style="opacity:0.222;fill:#0000d2;fill-opacity:1;stroke-width:1;stroke-miterlimit:4;stroke-dasharray:12, 12;stroke-dashoffset:0"
       id="path3028-1-6"
       sodipodi:cx="554.28571"
       sodipodi:cy="691.56348"
       sodipodi:rx="17.142857"
       sodipodi:ry="17.142857"
       d="m 571.42856,691.56348 c 0,9.46773 -7.67512,17.14285 -17.14285,17.14285 -9.46774,0 -17.14286,-7.67512 -17.14286,-17.14285 0,-9.46774 7.67512,-17.14286 17.14286,-17.14286 9.46773,0 17.14285,7.67512 17.14285,17.14286 z" />
    <path
       transform="matrix(0.51301137,0.33404287,-0.33404287,0.51301137,445.44297,386.71671)"
       sodipodi:type="arc"
       style="opacity:0.222;fill:#0000d2;fill-opacity:1;stroke-width:1;stroke-miterlimit:4;stroke-dasharray:12, 12;stroke-dashoffset:0"
       id="path3028-1-0"
       sodipodi:cx="554.28571"
       sodipodi:cy="691.56348"
       sodipodi:rx="17.142857"
       sodipodi:ry="17.142857"
       d="m 571.42856,691.56348 c 0,9.46773 -7.67512,17.14285 -17.14285,17.14285 -9.46774,0 -17.14286,-7.67512 -17.14286,-17.14285 0,-9.46774 7.67512,-17.14286 17.14286,-17.14286 9.46773,0 17.14285,7.67512 17.14285,17.14286 z" />
    <path
       transform="matrix(0.51301137,0.33404287,-0.33404287,0.51301137,425.14337,326.53677)"
       sodipodi:type="arc"
       style="opacity:0.222;fill:#d20000;fill-opacity:1;stroke-width:1;stroke-miterlimit:4;stroke-dasharray:12, 12;stroke-dashoffset:0"
       id="path3028-44-8"
       sodipodi:cx="554.28571"
       sodipodi:cy="691.56348"
       sodipodi:rx="17.142857"
       sodipodi:ry="17.142857"
       d="m 571.42856,691.56348 c 0,9.46773 -7.67512,17.14285 -17.14285,17.14285 -9.46774,0 -17.14286,-7.67512 -17.14286,-17.14285 0,-9.46774 7.67512,-17.14286 17.14286,-17.14286 9.46773,0 17.14285,7.67512 17.14285,17.14286 z" />
    <path
       style="fill:none;stroke:#000000;stroke-width:0.61218077px;stroke-linecap:butt;stroke-linejoin:miter;stroke-opacity:1"
       d="m 323.52617,758.26569 c -1.09482,0.99644 -3.41848,6.6599 -10.27696,14.18026 l 1.21008,-0.25566"
       id="path3032"
       inkscape:connector-curvature="0" />
    <path
       style="fill:none;stroke:#000000;stroke-width:0.61218077px;stroke-linecap:butt;stroke-linejoin:miter;stroke-opacity:1"
       d="m 320.33901,755.1468 c 2.37852,-0.14289 9.14225,4.28424 4.49965,12.3223 -1.98519,1.81429 -7.60751,0.55677 -6.30606,0.0683"
       id="path3034"
       inkscape:connector-curvature="0" />
    <path
       style="fill:none;stroke:#000000;stroke-width:0.61218077px;stroke-linecap:butt;stroke-linejoin:miter;stroke-opacity:1"
       d="m 331.40038,768.61092 c 4.8132,-3.38282 -0.28846,0.94669 7.00479,-2.7441 -0.77022,1.27163 -7.35877,9.66209 -9.06687,13.92459"
       id="path3036"
       inkscape:connector-curvature="0" />
    <path
       style="fill:none;stroke:#000000;stroke-width:0.61218077px;stroke-linecap:butt;stroke-linejoin:miter;stroke-opacity:1"
       d="m 535.85261,743.1109 c -3.23653,1.73915 -7.68266,10.62674 -7.15806,10.9931"
       id="path3038"
       inkscape:connector-curvature="0" />
    <path
       style="fill:none;stroke:#000000;stroke-width:0.61218077px;stroke-linecap:butt;stroke-linejoin:miter;stroke-opacity:1"
       d="m 532.88698,738.04905 c 4.07799,1.54744 3.28183,-2.00518 8.76035,2.57342 1.25765,3.97788 -0.27129,7.0712 -7.22633,4.68704"
       id="path3040"
       inkscape:connector-curvature="0" />
    <path
       style="fill:none;stroke:#000000;stroke-width:0.61218077px;stroke-linecap:butt;stroke-linejoin:miter;stroke-opacity:1"
       d="m 546.0787,746.63873 c -1.80839,-3.81266 12.63915,-4.98765 3.92004,3.5961 -8.24359,9.00762 -11.62082,6.11047 -0.852,10.92482"
       id="path3042"
       inkscape:connector-curvature="0" />
    <path
       style="fill:none;stroke:#000000;stroke-width:0.61218077px;stroke-linecap:butt;stroke-linejoin:miter;stroke-opacity:1"
       d="m 445.24938,709.16181 c -3.46559,2.00105 -5.4813,10.05638 -4.70377,13.6348"
       id="path3044"
       inkscape:connector-curvature="0" />
    <path
       style="fill:none;stroke:#000000;stroke-width:0.61218077px;stroke-linecap:butt;stroke-linejoin:miter;stroke-opacity:1"
       d="m 440.15341,708.97441 c 3.7208,-5.36028 10.95971,-1.87821 10.7033,2.79496 -1.17401,2.61894 -7.71217,1.4656 -7.0048,2.74409"
       id="path3046"
       inkscape:connector-curvature="0" />
    <path
       style="fill:none;stroke:#000000;stroke-width:0.61218077px;stroke-linecap:butt;stroke-linejoin:miter;stroke-opacity:1"
       d="m 456.90709,710.49102 c 13.59315,-0.93005 -8.2118,8.57212 2.52256,8.94776 5.44611,6.34843 -6.32361,7.77297 -5.50491,6.85152"
       id="path3048"
       inkscape:connector-curvature="0" />
    <path
       style="fill:none;stroke:#000000;stroke-width:0.61218077px;stroke-linecap:butt;stroke-linejoin:miter;stroke-opacity:1"
       d="m 398.83875,612.15149 c 3.23637,-3.57776 1.70738,-14.02238 6.96457,-20.12998 7.33616,-6.33032 10.27172,7.394 3.10455,6.76661 -1.8816,0.52781 -6.08746,2.16674 -5.84262,0.46145"
       id="path3054"
       inkscape:connector-curvature="0" />
    <path
       style="fill:none;stroke:#000000;stroke-width:0.61218077px;stroke-linecap:butt;stroke-linejoin:miter;stroke-opacity:1"
       d="m 419.75073,594.46012 c -4.03249,7.70234 -11.51114,15.13137 -0.59634,12.13491 0.58969,0.007 7.88107,2.22986 6.56173,1.14181"
       id="path3056"
       inkscape:connector-curvature="0" />
    <path
       style="fill:none;stroke:#000000;stroke-width:0.61218077px;stroke-linecap:butt;stroke-linejoin:miter;stroke-opacity:1"
       d="m 423.44923,599.99917 c -4.81595,4.35531 -6.34132,11.69305 -8.29987,17.55483"
       id="path3058"
       inkscape:connector-curvature="0" />
    <path
       style="fill:none;stroke:#000000;stroke-width:0.61218077px;stroke-linecap:butt;stroke-linejoin:miter;stroke-opacity:1"
       d="m 541.50806,548.50928 c -1.19351,5.65783 -4.24702,10.97985 -4.44809,14.84486"
       id="path3060"
       inkscape:connector-curvature="0" />
    <path
       style="fill:none;stroke:#000000;stroke-width:0.61218077px;stroke-linecap:butt;stroke-linejoin:miter;stroke-opacity:1"
       d="m 538.32092,545.39038 c 10.12624,-3.75766 13.26035,9.6523 4.20985,7.9592 0.10362,1.48401 -3.71569,-1.16962 -1.6873,0.98855"
       id="path3062"
       inkscape:connector-curvature="0" />
    <path
       style="fill:none;stroke:#000000;stroke-width:0.61218077px;stroke-linecap:butt;stroke-linejoin:miter;stroke-opacity:1"
       d="m 551.87071,564.64922 c -0.63379,5.03894 16.51527,0.89689 6.97065,-5.89712 -10.053,4.28909 -4.30315,-6.2092 1.91196,-8.97769 1.99731,4.12423 6.09818,0.45254 8.21173,3.04644"
       id="path3067"
       inkscape:connector-curvature="0" />
    <path
       style="fill:none;stroke:#000000;stroke-width:0.61218077px;stroke-linecap:butt;stroke-linejoin:miter;stroke-opacity:1"
       d="m 572.27337,679.16352 c 4.28833,-6.92764 9.96029,-31.16915 17.75897,-17.65724 4.80712,5.53223 -9.789,9.36475 -11.33379,6.18692"
       id="path3070"
       inkscape:connector-curvature="0" />
    <path
       style="fill:none;stroke:#000000;stroke-width:0.61218077px;stroke-linecap:butt;stroke-linejoin:miter;stroke-opacity:1"
       d="m 604.03543,663.79211 c -5.84088,4.71636 -19.06044,16.35973 -6.50705,16.46925 8.53176,-3.79345 0.43648,-13.89709 -3.3993,-5.38334"
       id="path3072"
       inkscape:connector-curvature="0" />
    <path
       style="fill:none;stroke:#000000;stroke-width:0.61218077px;stroke-linecap:butt;stroke-linejoin:miter;stroke-opacity:1"
       d="m 462.30892,649.30514 c -1.25944,4.41486 -2.52782,11.52694 -2.24948,16.27647"
       id="path3080"
       inkscape:connector-curvature="0" />
    <path
       style="fill:none;stroke:#000000;stroke-width:0.61218077px;stroke-linecap:butt;stroke-linejoin:miter;stroke-opacity:1"
       d="m 458.16735,647.65199 c 5.11379,-6.21378 20.51741,4.82613 11.72598,7.63526 -0.3147,1.31715 -5.51521,0.71671 -4.10743,1.49988"
       id="path3082"
       inkscape:connector-curvature="0" />
    <path
       style="fill:none;stroke:#000000;stroke-width:0.61218077px;stroke-linecap:butt;stroke-linejoin:miter;stroke-opacity:1"
       d="m 477.34119,648.65726 c 14.65186,-1.00124 0.39241,12.23796 0.46048,20.12825"
       id="path3084"
       inkscape:connector-curvature="0" />
    <path
       style="fill:none;stroke:#000000;stroke-width:0.61218077px;stroke-linecap:butt;stroke-linejoin:miter;stroke-opacity:1"
       d="m 474.29057,658.15048 c 8.7376,-1.01746 -4.92681,1.2821 7.51613,-0.32394 0.96846,0.83453 5.61612,0.83172 4.14157,1.65315"
       id="path3086"
       inkscape:connector-curvature="0" />
    <path
       style="fill:none;stroke:#000000;stroke-width:0.61218077px;stroke-linecap:butt;stroke-linejoin:miter;stroke-opacity:1"
       d="m 345.39189,694.23331 c 1.98689,-7.35702 -1.48987,-33.68169 11.41873,-20.742 1.15336,4.29331 -1.93359,5.41471 -7.44787,6.63"
       id="path3088"
       inkscape:connector-curvature="0" />
    <path
       style="fill:none;stroke:#000000;stroke-width:0.61218077px;stroke-linecap:butt;stroke-linejoin:miter;stroke-opacity:1"
       d="m 367.73548,674.34332 c -2.58669,-1.09258 -4.16859,-0.65658 -8.14598,4.66859 1.96613,5.71877 12.51471,5.0547 9.04952,11.57376 -8.02181,6.98798 -12.49446,-6.60026 -2.99976,-8.21488 2.79861,-2.38085 0.65816,-4.74525 2.09622,-8.02747 z"
       id="path3090"
       inkscape:connector-curvature="0" />
    <path
       style="fill:none;stroke:#000000;stroke-width:0.61218077px;stroke-linecap:butt;stroke-linejoin:miter;stroke-opacity:1"
       d="m 465.00419,808.64384 c -0.47943,5.56271 -1.18769,-0.40313 1.31248,9.20341 -0.0766,1.15508 -0.77736,4.19818 0.0683,6.30606"
       id="path3092"
       inkscape:connector-curvature="0" />
    <path
       style="fill:none;stroke:#000000;stroke-width:0.61218077px;stroke-linecap:butt;stroke-linejoin:miter;stroke-opacity:1"
       d="m 459.90821,808.45644 c 1.39325,-3.95949 13.29292,-9.25364 16.17346,-2.57237 3.64882,3.73938 -13.47407,6.61838 -9.10039,6.13433"
       id="path3094"
       inkscape:connector-curvature="0" />
    <path
       style="fill:none;stroke:#000000;stroke-width:0.61218077px;stroke-linecap:butt;stroke-linejoin:miter;stroke-opacity:1"
       d="m 491.88156,804.22919 c 1.37921,-5.74113 -15.82869,4.67885 -6.45931,8.31728 9.52686,-1.81429 6.00489,-13.42033 6.08451,1.87468 4.63355,9.61039 -11.16204,10.34405 -5.98212,7.5844"
       id="path3106"
       inkscape:connector-curvature="0" />
    <path
       style="fill:none;stroke:#000000;stroke-width:0.61218077px;stroke-linecap:butt;stroke-linejoin:miter;stroke-opacity:1"
       d="m 496.21121,845.66163 c -1.04927,6.91989 3.64512,15.52166 2.88063,19.61691"
       id="path3116"
       inkscape:connector-curvature="0" />
    <path
       style="fill:none;stroke:#000000;stroke-width:0.61218077px;stroke-linecap:butt;stroke-linejoin:miter;stroke-opacity:1"
       d="m 491.11523,845.47423 c 5.14756,-8.3337 19.86559,-1.23285 10.95897,4.00503 2.40794,4.33981 -8.03688,-2.11358 -4.10744,1.49988"
       id="path3118"
       inkscape:connector-curvature="0" />
    <path
       style="fill:none;stroke:#000000;stroke-width:0.61218077px;stroke-linecap:butt;stroke-linejoin:miter;stroke-opacity:1"
       d="m 508.41439,852.56402 c 6.46888,-9.31633 8.7908,-11.44278 6.56173,1.14181 1.08057,0.90055 -1.64151,6.31689 0.76701,3.63023"
       id="path3120"
       inkscape:connector-curvature="0" />
    <path
       style="fill:none;stroke:#000000;stroke-width:0.61218077px;stroke-linecap:butt;stroke-linejoin:miter;stroke-opacity:1"
       d="m 528.44024,842.64446 c -13.14942,-1.14747 -3.77763,24.32134 0.1024,9.45909 1.13979,-1.89092 0.36636,-16.30344 -1.75555,-5.31751"
       id="path3122"
       inkscape:connector-curvature="0" />
    <path
       style="fill:none;stroke:#000000;stroke-width:0.61218077px;stroke-linecap:butt;stroke-linejoin:miter;stroke-opacity:1"
       d="m 515.71035,943.93357 c -0.45461,-0.77932 -4.00637,-20.97807 6.83413,-18.50923 11.66301,5.9716 -10.0872,8.72586 -3.78351,9.01602"
       id="path3124"
       inkscape:connector-curvature="0" />
    <path
       style="fill:none;stroke:#000000;stroke-width:0.61218077px;stroke-linecap:butt;stroke-linejoin:miter;stroke-opacity:1"
       d="m 529.46427,937.23531 c 3.99833,-3.65493 11.61275,-15.74184 6.52759,-2.01122 0.0512,1.84695 -1.92289,13.62445 -1.10767,9.71477"
       id="path3126"
       inkscape:connector-curvature="0" />
    <path
       style="fill:none;stroke:#000000;stroke-width:0.61218077px;stroke-linecap:butt;stroke-linejoin:miter;stroke-opacity:1"
       d="m 543.28646,936.84311 c 9.36167,-13.82706 6.25918,-7.15998 6.59587,4.29484 -1.2608,1.49194 0.28277,3.17202 -0.44308,3.88589"
       id="path3128"
       inkscape:connector-curvature="0" />
    <path
       style="fill:none;stroke:#000000;stroke-width:0.56667662px;stroke-linecap:butt;stroke-linejoin:miter;stroke-opacity:1"
       d="m 446.4065,836.15277 c 43.41298,138.38597 43.41298,138.38597 43.41298,138.38597"
       id="path3903"
       inkscape:connector-curvature="0" />
    <path
       style="fill:none;stroke:#000000;stroke-width:0.64118975px;stroke-linecap:butt;stroke-linejoin:miter;stroke-opacity:1"
       d="M 383.35562,819.85734 C 432.47704,976.4399 432.47704,976.4399 432.47704,976.4399"
       id="path3903-3"
       inkscape:connector-curvature="0" />
    <path
       style="fill:none;stroke:#000000;stroke-width:0.61218077px;stroke-linecap:butt;stroke-linejoin:miter;stroke-opacity:1"
       d="m 425.68519,981.64885 c 1.30182,6.11191 11.31606,15.78338 8.63494,18.18781"
       id="path3069"
       inkscape:connector-curvature="0" />
    <path
       style="fill:none;stroke:#000000;stroke-width:0.61218077px;stroke-linecap:butt;stroke-linejoin:miter;stroke-opacity:1"
       d="m 439.53678,985.66961 c -4.90659,3.73395 -12.26147,7.32338 -16.48577,12.66281"
       id="path3071"
       inkscape:connector-curvature="0" />
    <path
       style="fill:none;stroke:#000000;stroke-width:0.61218077px;stroke-linecap:butt;stroke-linejoin:miter;stroke-opacity:1"
       d="m 444.70882,1002.8522 c -6.23624,2.584 2.42371,-2.2637 -7.42484,5.7959 1.08744,11.9522 15.89867,3.6262 7.42484,-5.7959 z"
       id="path3073"
       inkscape:connector-curvature="0" />
    <path
       style="fill:none;stroke:#000000;stroke-width:0.61218077px;stroke-linecap:butt;stroke-linejoin:miter;stroke-opacity:1"
       d="m 489.69292,983.26838 c 1.64098,3.10173 0.2225,3.15184 6.30199,11.76812 0.23727,2.51421 1.42479,0.71968 1.38658,2.83201"
       id="path3075"
       inkscape:connector-curvature="0" />
    <path
       style="fill:none;stroke:#000000;stroke-width:0.61218077px;stroke-linecap:butt;stroke-linejoin:miter;stroke-opacity:1"
       d="m 500.39707,987.47984 c -5.81956,2.46292 -10.56817,5.59571 -15.16514,10.39578"
       id="path3079"
       inkscape:connector-curvature="0" />
    <path
       style="fill:none;stroke:#000000;stroke-width:0.61218077px;stroke-linecap:butt;stroke-linejoin:miter;stroke-opacity:1"
       d="m 502.86185,1004.0975 c 13.40093,-7.21434 6.03456,2.4865 3.40409,8.0557 l -0.44021,0.7557"
       id="path3081"
       inkscape:connector-curvature="0" />
    <path
       style="fill:none;stroke:#000000;stroke-width:0.61218077px;stroke-linecap:butt;stroke-linejoin:miter;stroke-opacity:1"
       d="M 513.1779,915.98666 C 605.005,873.134 605.005,873.134 605.005,873.134"
       id="path3853"
       inkscape:connector-curvature="0" />
    <path
       style="fill:none;stroke:#000000;stroke-width:0.61218077px;stroke-linecap:butt;stroke-linejoin:miter;stroke-opacity:1"
       d="m 325.15094,805.79412 c -48.09992,69.96351 -48.09992,69.96351 -48.09992,69.96351"
       id="path3855"
       inkscape:connector-curvature="0" />
    <path
       style="fill:none;stroke:#000000;stroke-width:0.61218077px;stroke-linecap:butt;stroke-linejoin:miter;stroke-opacity:1"
       d="m 614.62499,874.88309 c 4.16164,0.54751 12.2592,-8.48478 1.65929,-7.05802 -5.02389,7.03353 0.13132,18.03103 7.96071,9.68165"
       id="path3889"
       inkscape:connector-curvature="0" />
    <path
       style="fill:none;stroke:#000000;stroke-width:0.61218077px;stroke-linecap:butt;stroke-linejoin:miter;stroke-opacity:1"
       d="m 633.86498,867.88674 c -2.77939,19.15477 2.92584,3.12684 8.74155,1.50004 1.49719,1.67819 1.26394,5.89556 3.50206,6.37085"
       id="path3891"
       inkscape:connector-curvature="0" />
    <path
       style="fill:none;stroke:#000000;stroke-width:0.61218077px;stroke-linecap:butt;stroke-linejoin:miter;stroke-opacity:1"
       d="m 666.22308,870.51037 c -4.75439,-1.9442 1.99265,-1.19094 -8.74543,-0.87454 -9.27762,8.63002 8.29514,15.94444 8.05705,3.09111 -0.34162,-9.79529 -3.74902,-31.65682 -0.18612,-7.46384 1.04315,4.70831 1.02072,10.21477 3.49813,13.99271"
       id="path3893"
       inkscape:connector-curvature="0" />
    <path
       style="fill:none;stroke:#000000;stroke-width:0.61218077px;stroke-linecap:butt;stroke-linejoin:miter;stroke-opacity:1"
       d="m 237.69655,885.37762 c -2.4902,8.46196 -4.59355,27.23695 0,10.49452 7.16846,-6.98195 11.39571,11.52381 2.46646,9.56244 l -0.71738,-1.69154"
       id="path3962"
       inkscape:connector-curvature="0" />
    <path
       style="fill:none;stroke:#000000;stroke-width:0.61218077px;stroke-linecap:butt;stroke-linejoin:miter;stroke-opacity:1"
       d="m 252.56379,901.11941 c 9.17261,2.76393 8.03909,-9.91576 1.74909,-6.12181 -5.85366,6.35028 -0.53443,16.27846 7.8709,10.49453"
       id="path3966"
       inkscape:connector-curvature="0" />
    <path
       style="fill:none;stroke:#000000;stroke-width:0.61218077px;stroke-linecap:butt;stroke-linejoin:miter;stroke-opacity:1"
       d="m 276.17648,898.49578 c -7.33861,-4.89138 6.05897,1.90446 -7.87089,-2.62364 -6.51808,13.39111 11.04946,15.86493 7.87089,2.62364 1.05294,6.27239 2.05891,17.00572 -1.74909,22.73814 -2.21585,2.41961 -5.36274,1.89073 -5.24726,-1.74909"
       id="path3972"
       inkscape:connector-curvature="0" />
    <path
       style="fill:none;stroke:#000000;stroke-width:0.61218077px;stroke-linecap:butt;stroke-linejoin:miter;stroke-opacity:1"
       d="m 284.04737,895.87214 c -2.20464,6.67652 1.04324,-5.48138 0,9.61999 0.29151,0.58303 -0.72879,2.47788 0.87455,1.74909"
       id="path3974"
       inkscape:connector-curvature="0" />
    <path
       style="fill:none;stroke:#000000;stroke-width:0.61218077px;stroke-linecap:butt;stroke-linejoin:miter;stroke-opacity:1"
       d="m 291.04373,896.74669 c 0.52812,11.24072 -1.50777,13.10613 4.37272,3.49818 6.34429,-9.63507 5.19489,4.4713 7.8709,6.99635"
       id="path3980"
       inkscape:connector-curvature="0" />
    <path
       style="fill:none;stroke:#000000;stroke-width:0.61218077px;stroke-linecap:butt;stroke-linejoin:miter;stroke-opacity:1"
       d="m 281.42375,887.12671 c 0.58303,0.87454 1.16605,1.74909 1.74908,2.62363"
       id="path3982"
       inkscape:connector-curvature="0" />
  </g>
</svg>
