<?xml version="1.0" encoding="UTF-8" standalone="no"?>
<!-- Created with Inkscape (http://www.inkscape.org/) -->

<svg
   xmlns:dc="http://purl.org/dc/elements/1.1/"
   xmlns:cc="http://creativecommons.org/ns#"
   xmlns:rdf="http://www.w3.org/1999/02/22-rdf-syntax-ns#"
   xmlns:svg="http://www.w3.org/2000/svg"
   xmlns="http://www.w3.org/2000/svg"
   xmlns:sodipodi="http://sodipodi.sourceforge.net/DTD/sodipodi-0.dtd"
   xmlns:inkscape="http://www.inkscape.org/namespaces/inkscape"
   width="800"
   height="600"
   id="svg2"
   version="1.1"
   inkscape:version="0.48.3.1 r9886"
   sodipodi:docname="vector_graph.svg">
  <defs
     id="defs4" />
  <sodipodi:namedview
     id="base"
     pagecolor="#ffffff"
     bordercolor="#666666"
     borderopacity="1.0"
     inkscape:pageopacity="1"
     inkscape:pageshadow="2"
     inkscape:zoom="1"
     inkscape:cx="481.9746"
     inkscape:cy="201.61752"
     inkscape:document-units="px"
     inkscape:current-layer="layer1"
     showgrid="true"
     units="px"
     inkscape:window-width="1533"
     inkscape:window-height="1022"
     inkscape:window-x="65"
     inkscape:window-y="149"
     inkscape:window-maximized="0" />
  <metadata
     id="metadata7">
    <rdf:RDF>
      <cc:Work
         rdf:about="">
        <dc:format>image/svg+xml</dc:format>
        <dc:type
           rdf:resource="http://purl.org/dc/dcmitype/StillImage" />
        <dc:title />
      </cc:Work>
    </rdf:RDF>
  </metadata>
  <g
     inkscape:label="Layer 1"
     inkscape:groupmode="layer"
     id="layer1"
     transform="translate(0,-452.3627)">
    <rect
       style="opacity:0.222;fill:#0000d2;fill-opacity:1;stroke-width:1;stroke-miterlimit:4;stroke-dasharray:12, 12;stroke-dashoffset:0"
       id="rect3050"
       width="210.68484"
       height="161.16907"
       x="626.13397"
       y="281.54352"
       transform="matrix(0.81798918,0.5752336,-0.5752336,0.81798918,0,0)" />
    <path
       style="fill:none;stroke:#000000;stroke-width:0.97613752px;stroke-linecap:butt;stroke-linejoin:miter;stroke-opacity:1"
       d="m 24.363273,807.73136 c 711.730567,0 711.730567,0 711.730567,0"
       id="path3064"
       inkscape:connector-curvature="0" />
    <path
       style="fill:none;stroke:#000000;stroke-width:1.28963828px;stroke-linecap:butt;stroke-linejoin:miter;stroke-opacity:1"
       d="m 110.14209,488.91799 c 0,529.80811 0,529.80811 0,529.80811"
       id="path3066"
       inkscape:connector-curvature="0" />
    <rect
       style="opacity:0.22222224;fill:#d20000;fill-opacity:1;stroke-width:1;stroke-miterlimit:4;stroke-dasharray:12, 12;stroke-dashoffset:0"
       id="rect3943"
       width="136.58611"
       height="124.5219"
       x="110.73452"
       y="682.25262" />
    <rect
       style="opacity:0.222;fill:#d20000;fill-opacity:1;stroke-width:1;stroke-miterlimit:4;stroke-dasharray:12, 12;stroke-dashoffset:0"
       id="rect3943-7-1"
       width="246.14714"
       height="124.67368"
       x="396.38315"
       y="842.11755" />
    <path
       style="fill:none;stroke:#000000;stroke-width:0.67833382;stroke-linecap:butt;stroke-linejoin:miter;stroke-miterlimit:4;stroke-opacity:1;stroke-dasharray:8.14000614, 8.14000614;stroke-dashoffset:0"
       d="m 144.24947,680.58931 c 93.90819,122.1536 93.90819,122.1536 93.90819,122.1536"
       id="path3068-9"
       inkscape:connector-curvature="0" />
    <path
       style="fill:none;stroke:#000000;stroke-width:0.67833382;stroke-linecap:butt;stroke-linejoin:miter;stroke-miterlimit:4;stroke-opacity:1;stroke-dasharray:8.14000614, 8.14000614;stroke-dashoffset:0"
       d="m 170.6565,663.45976 c 93.90816,122.15357 93.90816,122.15357 93.90816,122.15357"
       id="path3068-2-5"
       inkscape:connector-curvature="0" />
    <path
       style="fill:none;stroke:#000000;stroke-width:0.64463764px;stroke-linecap:butt;stroke-linejoin:miter;stroke-opacity:1"
       d="m 43.207663,787.16001 c 30.92932,13.05132 21.52783,9.01114 44.48894,16.59834 27.976587,7.41176 58.493887,0.91279 80.519427,-18.02632 28.46801,-18.70089 54.84767,-40.84956 83.64391,-58.77103 46.92846,-18.41842 105.28883,-26.54038 148.43398,5.4017 20.64439,14.34175 37.40005,37.54649 33.26614,63.9494 1.4486,33.67957 -12.49265,68.65569 0.64919,101.05173 21.9242,45.87629 76.34563,68.68866 125.39898,62.62907 35.90878,-5.03714 71.67598,-14.51905 104.71024,-29.64302 13.18397,-6.715 25.35537,-15.70054 40.10327,-18.86687"
       id="path3028"
       inkscape:connector-curvature="0"
       sodipodi:nodetypes="cccccccccc" />
    <path
       style="fill:none;stroke:#000000;stroke-width:0.64463764px;stroke-linecap:butt;stroke-linejoin:miter;stroke-opacity:1"
       d="M 682.31984,1010.0205 C 594.61877,858.11769 594.61877,858.11769 594.61877,858.11769"
       id="path3033"
       inkscape:connector-curvature="0" />
    <path
       style="fill:none;stroke:#000000;stroke-width:0.64463764px;stroke-linecap:butt;stroke-linejoin:miter;stroke-opacity:1"
       d="m 139.53495,670.75687 c -2.62908,2.47376 -9.21334,-9.30908 -1.84182,-13.81366 7.15007,-0.57547 0.25548,-12.867 1.84182,-9.20911 6.31501,6.48535 9.77285,-2.15083 17.49731,-1.84183 1.46923,1.05891 8.95032,8.04386 7.36729,4.60456"
       id="path3035"
       inkscape:connector-curvature="0" />
    <path
       style="fill:none;stroke:#000000;stroke-width:0.64463764px;stroke-linecap:butt;stroke-linejoin:miter;stroke-opacity:1"
       d="m 120.19582,623.79041 c -0.99424,2.86958 -1.02238,1.76516 -0.92091,12.89276"
       id="path3037"
       inkscape:connector-curvature="0" />
    <path
       style="fill:none;stroke:#000000;stroke-width:0.64463764px;stroke-linecap:butt;stroke-linejoin:miter;stroke-opacity:1"
       d="m 119.27491,619.18586 c 2.84897,3.04841 5.88869,3.34992 11.97184,9.20911 1.03715,-0.93182 3.04788,2.63558 0.92091,0"
       id="path3039"
       inkscape:connector-curvature="0" />
    <path
       style="fill:none;stroke:#000000;stroke-width:0.64463764px;stroke-linecap:butt;stroke-linejoin:miter;stroke-opacity:1"
       d="m 115.59127,638.52499 c 2.40982,-1.44083 8.22744,-3.96963 15.65548,-8.2882 3.6069,5.75569 2.60925,-3.83712 2.76273,0"
       id="path3041"
       inkscape:connector-curvature="0" />
    <path
       style="fill:none;stroke:#000000;stroke-width:0.64463764px;stroke-linecap:butt;stroke-linejoin:miter;stroke-opacity:1"
       d="m 136.77222,617.34404 c 4.78807,3.16905 14.08049,-0.26676 16.57639,3.68364"
       id="path3043"
       inkscape:connector-curvature="0" />
    <path
       style="fill:none;stroke:#000000;stroke-width:0.64463764px;stroke-linecap:butt;stroke-linejoin:miter;stroke-opacity:1"
       d="m 147.82315,607.21402 c -3.59598,6.3491 -4.12363,18.7451 -3.68364,23.02277"
       id="path3045"
       inkscape:connector-curvature="0" />
    <path
       style="fill:none;stroke:#000000;stroke-width:0.64463764px;stroke-linecap:butt;stroke-linejoin:miter;stroke-opacity:1"
       d="m 720.99814,801.89458 c 1.2664,-2.01973 12.10071,2.44595 19.3391,5.52547 -4.60138,3.00327 -10.51626,3.96709 -12.8928,7.36729"
       id="path3059"
       inkscape:connector-curvature="0" />
    <path
       style="fill:none;stroke:#000000;stroke-width:0.64463764px;stroke-linecap:butt;stroke-linejoin:miter;stroke-opacity:1"
       d="m 104.9087,501.67763 c -0.21229,-4.20781 10.43163,-15.0834 7.36729,-15.65549 1.69702,3.24038 3.80139,8.74073 6.44638,11.05093"
       id="path3073"
       inkscape:connector-curvature="0" />
    <path
       style="fill:none;stroke:#000000;stroke-width:0.64463764px;stroke-linecap:butt;stroke-linejoin:miter;stroke-opacity:1"
       d="m 689.68714,998.96951 c 8.55002,4.39249 14.12055,9.74429 19.3391,12.89279"
       id="path3103"
       inkscape:connector-curvature="0" />
    <path
       style="fill:none;stroke:#000000;stroke-width:0.64463764px;stroke-linecap:butt;stroke-linejoin:miter;stroke-opacity:1"
       d="m 696.13354,1018.3087 c 2.44989,-5.2096 3.6393,-15.7138 7.3673,-21.18098"
       id="path3105"
       inkscape:connector-curvature="0" />
    <path
       style="fill:none;stroke:#000000;stroke-width:0.64463764px;stroke-linecap:butt;stroke-linejoin:miter;stroke-opacity:1"
       d="m 714.55174,1005.4159 c 1.44006,-1.2314 4.79906,-14.03044 6.4464,-1.8418 0.64861,2.6976 1.2239,5.8603 1.8418,9.2091"
       id="path3029"
       inkscape:connector-curvature="0" />
    <path
       style="fill:none;stroke:#000000;stroke-width:0.64463764px;stroke-linecap:butt;stroke-linejoin:miter;stroke-opacity:1"
       d="m 45.970413,924.37576 c 7.641542,5.60559 14.680248,6.57806 17.49731,11.97182"
       id="path3047-4"
       inkscape:connector-curvature="0" />
    <path
       style="fill:none;stroke:#000000;stroke-width:0.64463764px;stroke-linecap:butt;stroke-linejoin:miter;stroke-opacity:1"
       d="m 59.784073,919.77118 c -1.498053,1.31741 -3.540341,10.10574 -3.68365,20.26006"
       id="path3049-6"
       inkscape:connector-curvature="0" />
    <path
       style="fill:none;stroke:#000000;stroke-width:0.64463764px;stroke-linecap:butt;stroke-linejoin:miter;stroke-opacity:1"
       d="m 71.755913,931.743 c -1.542227,0.43212 -4.70758,10.60958 3.68364,10.13003 5.403822,-1.76051 4.902009,-10.49476 -3.68364,-10.13003 z"
       id="path3051-8"
       inkscape:connector-curvature="0" />
    <path
       style="fill:none;stroke:#000000;stroke-width:0.64463764px;stroke-linecap:butt;stroke-linejoin:miter;stroke-opacity:1"
       d="M 105.82961,812.02461 C 66.230443,912.4039 66.230443,912.4039 66.230443,912.4039"
       id="path4634"
       inkscape:connector-curvature="0" />
  </g>
</svg>
