<?xml version="1.0" encoding="UTF-8" standalone="no"?>
<!-- Created with Inkscape (http://www.inkscape.org/) -->

<svg
   xmlns:dc="http://purl.org/dc/elements/1.1/"
   xmlns:cc="http://creativecommons.org/ns#"
   xmlns:rdf="http://www.w3.org/1999/02/22-rdf-syntax-ns#"
   xmlns:svg="http://www.w3.org/2000/svg"
   xmlns="http://www.w3.org/2000/svg"
   xmlns:sodipodi="http://sodipodi.sourceforge.net/DTD/sodipodi-0.dtd"
   xmlns:inkscape="http://www.inkscape.org/namespaces/inkscape"
   width="800"
   height="600"
   id="svg2"
   version="1.1"
   inkscape:version="0.48.3.1 r9886"
   sodipodi:docname="vector_graph2.svg">
  <defs
     id="defs4" />
  <sodipodi:namedview
     id="base"
     pagecolor="#ffffff"
     bordercolor="#666666"
     borderopacity="1.0"
     inkscape:pageopacity="1"
     inkscape:pageshadow="2"
     inkscape:zoom="2.8"
     inkscape:cx="537.65838"
     inkscape:cy="323.95872"
     inkscape:document-units="px"
     inkscape:current-layer="layer1"
     showgrid="false"
     units="px"
     inkscape:window-width="1271"
     inkscape:window-height="1018"
     inkscape:window-x="198"
     inkscape:window-y="98"
     inkscape:window-maximized="0" />
  <metadata
     id="metadata7">
    <rdf:RDF>
      <cc:Work
         rdf:about="">
        <dc:format>image/svg+xml</dc:format>
        <dc:type
           rdf:resource="http://purl.org/dc/dcmitype/StillImage" />
        <dc:title />
      </cc:Work>
    </rdf:RDF>
  </metadata>
  <g
     inkscape:label="Layer 1"
     inkscape:groupmode="layer"
     id="layer1"
     transform="translate(0,-452.3627)">
    <path
       style="fill:none;stroke:#000000;stroke-width:0.77501714;stroke-linecap:butt;stroke-linejoin:miter;stroke-miterlimit:4;stroke-opacity:1;stroke-dasharray:none"
       d="m 177.02858,810.46023 c 465.32601,0 465.32601,0 465.32601,0"
       id="path3064"
       inkscape:connector-curvature="0" />
    <path
       style="fill:none;stroke:#000000;stroke-width:0.77501714;stroke-linecap:butt;stroke-linejoin:miter;stroke-miterlimit:4;stroke-opacity:1;stroke-dasharray:none"
       d="m 380.84653,471.01293 c 0,569.51697 0,569.51697 0,569.51697"
       id="path3066"
       inkscape:connector-curvature="0" />
    <path
       style="fill:none;stroke:#000000;stroke-width:0.56667387px;stroke-linecap:butt;stroke-linejoin:miter;stroke-opacity:1"
       d="m 446.40833,836.1504 c 43.41276,138.3853 43.41276,138.3853 43.41276,138.3853"
       id="path3903"
       inkscape:connector-curvature="0" />
    <rect
       style="opacity:0.22222224;fill:#d20000;fill-opacity:1;stroke-width:1;stroke-miterlimit:4;stroke-dasharray:12, 12;stroke-dashoffset:0"
       id="rect3943"
       width="75.48703"
       height="118.25178"
       x="743.53735"
       y="367.66565"
       transform="matrix(0.86407353,0.50336561,-0.50336561,0.86407353,0,0)" />
    <rect
       style="opacity:0.222;fill:#d20000;fill-opacity:1;stroke-width:1;stroke-miterlimit:4;stroke-dasharray:12, 12;stroke-dashoffset:0"
       id="rect3943-7-1"
       width="68.464737"
       height="128.89038"
       x="669.35931"
       y="357.69098"
       transform="matrix(0.86407353,0.50336561,-0.50336561,0.86407353,0,0)" />
    <path
       style="fill:none;stroke:#000000;stroke-width:0.74641019px;stroke-linecap:butt;stroke-linejoin:miter;stroke-opacity:1"
       d="m 333.12927,794.18721 c 32.16694,23.79739 75.8811,17.98453 111.90974,7.56151 22.78707,-8.81729 49.4715,-19.06286 60.12093,-42.89019 5.43218,-17.65515 -4.80583,-35.59818 -19.30552,-45.3544 -16.01846,-13.83405 -33.36129,-25.71251 -52.54005,-34.73168 -19.48194,-7.70818 -37.1276,-29.60701 -21.05617,-49.33049 12.29488,-16.83501 27.54237,-32.53352 45.78634,-42.89036 21.35888,-10.54117 46.75961,-18.00875 69.63608,-7.35117 25.48899,11.05832 27.6993,43.74673 22.77763,67.48146 -4.43771,24.43973 -29.82583,40.88437 -53.98788,36.9449 -31.79837,-1.70153 -64.66379,-6.38657 -95.85873,2.58953 -22.92392,5.94853 -36.67329,30.6516 -37.24697,53.09018 -1.27934,29.98016 23.50624,51.03992 46.98003,64.93637 25.95311,15.52002 53.43221,32.30787 70.02998,58.32449 9.4411,19.73541 17.26187,40.3169 24.14522,61.0803"
       id="path3030"
       inkscape:connector-curvature="0" />
    <path
       style="fill:none;stroke:#000000;stroke-width:0.64118665px;stroke-linecap:butt;stroke-linejoin:miter;stroke-opacity:1"
       d="m 383.35775,819.85505 c 49.12118,156.58181 49.12118,156.58181 49.12118,156.58181"
       id="path3903-3"
       inkscape:connector-curvature="0" />
    <path
       style="fill:none;stroke:#000000;stroke-width:0.64417726;stroke-linecap:butt;stroke-linejoin:miter;stroke-miterlimit:4;stroke-opacity:1;stroke-dasharray:7.73012748, 7.73012748;stroke-dashoffset:0"
       d="M 481.46922,763.65475 C 618.81207,713.19122 618.81207,713.19122 618.81207,713.19122"
       id="path3068-9"
       inkscape:connector-curvature="0" />
    <path
       style="fill:none;stroke:#000000;stroke-width:0.64417726;stroke-linecap:butt;stroke-linejoin:miter;stroke-miterlimit:4;stroke-opacity:1;stroke-dasharray:7.73012748, 7.73012748;stroke-dashoffset:0"
       d="M 473.43435,734.86361 C 610.77717,684.4001 610.77717,684.4001 610.77717,684.4001"
       id="path3068-2-5"
       inkscape:connector-curvature="0" />
    <path
       style="fill:none;stroke:#000000;stroke-width:0.61217779px;stroke-linecap:butt;stroke-linejoin:miter;stroke-opacity:1"
       d="m 630.36772,802.29374 c 4.97491,1.44949 22.00486,2.02217 17.49078,6.99632 -2.04423,2.2445 -6.49058,4.68959 -8.74539,7.87085 -0.84956,-0.55098 -5.38886,3.13425 -2.62361,2.62363"
       id="path3025"
       inkscape:connector-curvature="0" />
    <path
       style="fill:none;stroke:#000000;stroke-width:0.61217779px;stroke-linecap:butt;stroke-linejoin:miter;stroke-opacity:1"
       d="m 373.42795,480.46312 c 3.70639,-5.03102 6.96167,-10.7451 7.87086,-13.99264 1.96769,3.60301 3.94231,9.32717 5.24724,12.24356"
       id="path3041"
       inkscape:connector-curvature="0" />
    <path
       style="fill:none;stroke:#000000;stroke-width:0.61217779px;stroke-linecap:butt;stroke-linejoin:miter;stroke-opacity:1"
       d="m 619.22088,682.91004 c 3.01221,-3.88062 0.3568,0.53069 7.74025,-4.59993 10.19145,-1.76856 8.15383,4.04642 4.03493,10.44747 2.32912,6.92767 15.76369,-1.43201 6.04532,3.5217 -6.75117,5.97717 7.60019,11.31187 -1.03089,16.70026 3.97044,-0.10738 -6.21217,5.52365 -4.24456,4.51723"
       id="path3055"
       inkscape:connector-curvature="0" />
    <path
       style="fill:none;stroke:#000000;stroke-width:0.61217779px;stroke-linecap:butt;stroke-linejoin:miter;stroke-opacity:1"
       d="m 665.80126,677.65788 c -3.95053,-0.18978 -12.07124,11.89627 -14.09388,12.03184"
       id="path3059"
       inkscape:connector-curvature="0" />
    <path
       style="fill:none;stroke:#000000;stroke-width:0.61217779px;stroke-linecap:butt;stroke-linejoin:miter;stroke-opacity:1"
       d="m 662.46322,674.70114 c 1.95225,7.51626 2.10217,14.86772 3.09564,19.00932"
       id="path3061"
       inkscape:connector-curvature="0" />
    <path
       style="fill:none;stroke:#000000;stroke-width:0.61217779px;stroke-linecap:butt;stroke-linejoin:miter;stroke-opacity:1"
       d="m 649.44037,688.36908 c 5.34848,1.1472 10.27501,4.1639 15.23809,6.85272"
       id="path3063"
       inkscape:connector-curvature="0" />
    <path
       style="fill:none;stroke:#000000;stroke-width:0.61217779px;stroke-linecap:butt;stroke-linejoin:miter;stroke-opacity:1"
       d="m 675.69096,688.47962 c 1.50241,1.64872 4.56006,4.20597 5.79674,7.58288 0.70805,1.30928 11.24752,13.657 5.98556,10.41415"
       id="path3065"
       inkscape:connector-curvature="0" />
    <path
       style="fill:none;stroke:#000000;stroke-width:0.61217779px;stroke-linecap:butt;stroke-linejoin:miter;stroke-opacity:1"
       d="m 691.49396,692.62513 c -6.55764,2.19126 -11.90903,6.7154 -15.2898,12.34729"
       id="path3067"
       inkscape:connector-curvature="0" />
    <path
       style="fill:none;stroke:#000000;stroke-width:0.61217779px;stroke-linecap:butt;stroke-linejoin:miter;stroke-opacity:1"
       d="m 425.68711,981.64578 c 1.30181,6.1119 11.31598,15.78322 8.6349,18.18772"
       id="path3069"
       inkscape:connector-curvature="0" />
    <path
       style="fill:none;stroke:#000000;stroke-width:0.61217779px;stroke-linecap:butt;stroke-linejoin:miter;stroke-opacity:1"
       d="m 439.53864,985.66652 c -4.90552,3.64718 -12.35769,7.31552 -16.4857,12.66275"
       id="path3071"
       inkscape:connector-curvature="0" />
    <path
       style="fill:none;stroke:#000000;stroke-width:0.61217779px;stroke-linecap:butt;stroke-linejoin:miter;stroke-opacity:1"
       d="m 444.71065,1002.849 c -8.06896,3.346 4.96634,-3.04297 -6.53755,4.3364 -4.37261,11.2498 17.04936,6.5073 6.53755,-4.3364 l 0,0 z"
       id="path3073"
       inkscape:connector-curvature="0" />
    <path
       style="fill:none;stroke:#000000;stroke-width:0.61217779px;stroke-linecap:butt;stroke-linejoin:miter;stroke-opacity:1"
       d="m 489.69453,983.2653 c 3.01031,6.03263 -1.74701,-1.74523 4.15972,8.49592 0.70014,2.99123 2.94148,3.59967 3.52881,6.10414"
       id="path3075"
       inkscape:connector-curvature="0" />
    <path
       style="fill:none;stroke:#000000;stroke-width:0.61217779px;stroke-linecap:butt;stroke-linejoin:miter;stroke-opacity:1"
       d="m 500.39863,987.47674 c -5.78682,2.38317 -10.58153,5.63196 -15.16506,10.39572"
       id="path3079"
       inkscape:connector-curvature="0" />
    <path
       style="fill:none;stroke:#000000;stroke-width:0.61217779px;stroke-linecap:butt;stroke-linejoin:miter;stroke-opacity:1"
       d="m 502.8634,1004.0943 c 13.13109,-7.14611 6.16271,2.2419 3.84428,7.3 l -0.44021,0.7557 -0.44021,0.7556"
       id="path3081"
       inkscape:connector-curvature="0" />
    <rect
       style="opacity:0.222;fill:#0000d2;fill-opacity:1;stroke-width:1.26600003;stroke-miterlimit:4;stroke-dasharray:none;stroke-dashoffset:0"
       id="rect3788"
       width="154.59824"
       height="117.49467"
       x="664.33368"
       y="216.7758"
       transform="matrix(0.85448225,0.51948059,-0.51948059,0.85448225,0,0)" />
  </g>
</svg>
