<?xml version="1.0" encoding="UTF-8" standalone="no"?>
<!-- Created with Inkscape (http://www.inkscape.org/) -->

<svg
   xmlns:dc="http://purl.org/dc/elements/1.1/"
   xmlns:cc="http://creativecommons.org/ns#"
   xmlns:rdf="http://www.w3.org/1999/02/22-rdf-syntax-ns#"
   xmlns:svg="http://www.w3.org/2000/svg"
   xmlns="http://www.w3.org/2000/svg"
   xmlns:sodipodi="http://sodipodi.sourceforge.net/DTD/sodipodi-0.dtd"
   xmlns:inkscape="http://www.inkscape.org/namespaces/inkscape"
   width="1417.3228"
   height="1062.9921"
   id="svg2"
   version="1.1"
   inkscape:version="0.48.3.1 r9886"
   sodipodi:docname="extraction.svg">
  <defs
     id="defs4" />
  <sodipodi:namedview
     id="base"
     pagecolor="#ffffff"
     bordercolor="#666666"
     borderopacity="1.0"
     inkscape:pageopacity="0.0"
     inkscape:pageshadow="2"
     inkscape:zoom="0.7"
     inkscape:cx="660.16234"
     inkscape:cy="531.91796"
     inkscape:document-units="px"
     inkscape:current-layer="layer1"
     showgrid="false"
     units="cm"
     inkscape:window-width="1282"
     inkscape:window-height="993"
     inkscape:window-x="143"
     inkscape:window-y="101"
     inkscape:window-maximized="0" />
  <metadata
     id="metadata7">
    <rdf:RDF>
      <cc:Work
         rdf:about="">
        <dc:format>image/svg+xml</dc:format>
        <dc:type
           rdf:resource="http://purl.org/dc/dcmitype/StillImage" />
        <dc:title />
      </cc:Work>
    </rdf:RDF>
  </metadata>
  <g
     inkscape:label="Layer 1"
     inkscape:groupmode="layer"
     id="layer1"
     transform="translate(0,10.629368)">
    <path
       style="fill:none;stroke:#000000;stroke-width:1.25642121px;stroke-linecap:butt;stroke-linejoin:miter;stroke-opacity:1"
       d="m 349.46492,629.98848 c 760.11578,0 760.11578,0 760.11578,0"
       id="path3064"
       inkscape:connector-curvature="0" />
    <path
       style="fill:none;stroke:#000000;stroke-width:2.12845922px;stroke-linecap:butt;stroke-linejoin:miter;stroke-opacity:1"
       d="m 682.40406,75.497123 c 0,930.312977 0,930.312977 0,930.312977"
       id="path3066"
       inkscape:connector-curvature="0" />
    <path
       style="fill:none;stroke:#000000;stroke-width:1.26620018px;stroke-linecap:butt;stroke-linejoin:miter;stroke-opacity:1"
       d="m 734.32828,635.39581 c 239.4657,218.3555 239.4657,218.3555 239.4657,218.3555"
       id="path3903"
       inkscape:connector-curvature="0" />
    <path
       style="fill:none;stroke:#000000;stroke-width:1.21927023px;stroke-linecap:butt;stroke-linejoin:miter;stroke-opacity:1"
       d="m 551.97276,680.38182 c 64.97031,7.14003 121.8921,-37.00882 164.17524,-81.34534 24.91334,-31.18214 54.15327,-67.58488 49.59256,-109.97309 -6.84963,-29.38642 -36.05405,-46.29433 -64.54209,-48.14255 -33.98475,-6.35517 -68.23084,-8.86111 -102.71722,-5.82163 -33.83634,5.1392 -76.74914,-11.26123 -70.28243,-52.31522 3.51126,-33.87171 12.12454,-68.56707 29.35949,-98.18666 21.48,-32.44101 51.19225,-63.86717 92.24504,-67.63453 45.06982,-5.34989 75.06779,38.97154 87.63695,76.51939 13.83194,38.14498 -8.48107,82.23165 -45.82445,96.53853 -46.28168,23.74466 -96.52268,44.15557 -133.17292,82.47528 -27.46533,27.24548 -26.56003,73.41872 -8.91955,105.56191 22.84554,43.36819 75.14624,52.71347 119.70531,53.02654 49.39356,0.56607 101.9835,1.6669 146.80309,24.74111 29.55339,20.09306 57.51542,42.71266 84.30388,66.35981"
       id="path3030"
       inkscape:connector-curvature="0" />
    <path
       style="fill:none;stroke:#000000;stroke-width:1.26620018px;stroke-linecap:butt;stroke-linejoin:miter;stroke-opacity:1"
       d="M 631.85184,664.21696 C 871.31757,882.57247 871.31757,882.57247 871.31757,882.57247"
       id="path3903-3"
       inkscape:connector-curvature="0" />
    <path
       style="fill:none;stroke:#000000;stroke-width:1px;stroke-linecap:butt;stroke-linejoin:miter;stroke-opacity:1"
       d="m 1090,627.27778 c 1.3755,4.25918 5.0133,-1.06479 7.1429,0 0.6023,0.30117 0.8262,1.1274 1.4285,1.42857 1.1429,0.57143 3.1429,-0.57143 4.2857,0 0.6024,0.30117 0.8263,1.1274 1.4286,1.42857 0.8518,0.42592 2.0053,-0.42592 2.8572,0 0.6023,0.30117 0.8262,1.1274 1.4285,1.42857 0.8519,0.42592 2.1837,-0.67343 2.8572,0 0.3367,0.33672 -0.3367,1.09186 0,1.42858 0.4423,0.44235 6.7005,-0.44236 7.1428,0 0.3367,0.33671 -0.3367,1.09185 0,1.42857 0.6735,0.67343 2.1837,-0.67344 2.8572,0 0.3367,0.33671 0.3367,1.09185 0,1.42857 -0.3367,0.33672 -1.0919,-0.33672 -1.4286,0 -0.3367,0.33672 0.3367,1.09185 0,1.42857 -0.3367,0.33672 -1.0919,-0.33672 -1.4286,0 -0.3367,0.33672 0.3367,1.09185 0,1.42857 -0.3367,0.33672 -1.0918,-0.33672 -1.4285,0 -2.9558,2.95577 4.5168,-0.11554 -1.4286,2.85714 -3.8095,0 0.4762,-0.47619 -1.4286,1.42858 -0.3367,0.33671 -1.0918,-0.33672 -1.4286,0 -0.3367,0.33671 0.3368,1.09185 0,1.42857 -0.3367,0.33671 -1.0918,-0.33672 -1.4285,0 -0.3367,0.33671 0.3367,1.09185 0,1.42857 -0.3367,0.33672 -1.0027,-0.21296 -1.4286,0 -0.6023,0.30117 -0.8262,1.1274 -1.4286,1.42857 -0.4259,0.21296 -1.0918,-0.33672 -1.4285,0 -0.3368,0.33672 0.3367,1.09185 0,1.42857 -0.3368,0.33672 -0.9524,0 -1.4286,0 0,0.47619 0.3367,1.09186 0,1.42857 -0.3367,0.33672 -1.0919,-0.33671 -1.4286,0 -0.3367,0.33672 0.3367,1.09186 0,1.42857 -0.3367,0.33672 -1.0026,-0.21295 -1.4286,0 -0.9142,0.45715 -1.9428,2.4 -2.8571,2.85715 -0.4259,0.21296 -1.0919,-0.33672 -1.4286,0 -0.3367,0.33671 -0.3367,1.09185 0,1.42857 0.3367,0.33672 0.9524,0 1.4286,0"
       id="path3025"
       inkscape:connector-curvature="0"
       transform="translate(0,-10.629368)" />
    <path
       style="fill:none;stroke:#000000;stroke-width:1px;stroke-linecap:butt;stroke-linejoin:miter;stroke-opacity:1"
       d="m 1041.4286,572.99207 c 0,1.90476 -0.3736,3.84651 0,5.71428 0.132,0.66036 1.2156,0.7897 1.4285,1.42857 0.3012,0.90351 0,1.90476 0,2.85715 0,1.65952 -0.3237,5.84779 0,7.14285 0.2583,1.033 1.0919,1.84699 1.4286,2.85715 0.3012,0.9035 -0.4259,2.0053 0,2.85714 0.3012,0.60234 1.1274,0.82623 1.4286,1.42857 0.2174,0.43476 0,3.64235 0,4.28571"
       id="path3027"
       inkscape:connector-curvature="0"
       transform="translate(0,-10.629368)" />
    <path
       style="fill:none;stroke:#000000;stroke-width:1px;stroke-linecap:butt;stroke-linejoin:miter;stroke-opacity:1"
       d="m 1037.1429,567.27778 c 6.2328,-3.53406 5.5645,-2.85714 11.4285,-2.85714 0.4762,0 0.9524,0 1.4286,0 0.4762,0 1.0027,-0.21296 1.4286,0 0.6023,0.30117 0.8262,1.1274 1.4285,1.42857 0.5665,0.28321 3.9937,-0.29205 4.2858,0 0.3367,0.33672 -0.3368,1.09185 0,1.42857 1.9047,1.90476 1.4285,-2.38095 1.4285,1.42857 0,0.47619 0,0.95238 0,1.42857 0,0.47619 0.213,1.00266 0,1.42857 -0.3011,0.60234 -1.1274,0.82624 -1.4285,1.42858 -0.213,0.42591 0.3367,1.09185 0,1.42857 -0.3368,0.33671 -1.0919,-0.33672 -1.4286,0 -0.3367,0.33671 0.3367,1.09185 0,1.42857 -0.3367,0.33672 -1.0919,-0.33672 -1.4286,0 -0.3367,0.33672 0.213,1.00265 0,1.42857 -0.3012,0.60234 -0.9524,0.95238 -1.4286,1.42857 -0.4761,0.47619 -0.8262,1.1274 -1.4285,1.42857 -0.4259,0.21296 -1.0919,-0.33671 -1.4286,0 -0.3367,0.33672 0.3367,1.09186 0,1.42857 -0.3367,0.33672 -0.9524,0 -1.4286,0 0,0.47619 0.3367,1.09186 0,1.42858 -0.6734,0.67343 -2.1837,-0.67344 -2.8571,0 -0.3367,0.33671 0.3367,1.09185 0,1.42857 -0.6734,0.67343 -2.8572,-0.95238 -2.8572,0 0,2.8131 4.9287,0.64296 5.7143,1.42857 0.3367,0.33672 -0.3367,1.09185 0,1.42857 0.2921,0.29205 3.7193,-0.28321 4.2857,0 4.738,4.73797 -1.3468,-0.67344 2.8572,1.42857 1.7143,0.85714 2.5714,3.42857 4.2857,4.28572 0.4259,0.21295 1.0027,-0.21296 1.4286,0 1.5208,0.76039 1.3363,2.09674 2.8571,2.85714 0.4259,0.21296 0.9768,-0.15059 1.4286,0 1.0101,0.33672 1.847,1.09185 2.8571,1.42857 0.9035,0.30117 2.0053,-0.42592 2.8572,0 0.6023,0.30117 0.8262,1.1274 1.4285,1.42857 0.8519,0.42592 2.1838,-0.67343 2.8572,0 0.3367,0.33672 -0.3367,1.09186 0,1.42857 1.4092,1.40926 2.8571,-2.92725 2.8571,1.42857"
       id="path3029"
       inkscape:connector-curvature="0"
       transform="translate(0,-10.629368)" />
    <path
       style="fill:none;stroke:#000000;stroke-width:1px;stroke-linecap:butt;stroke-linejoin:miter;stroke-opacity:1"
       d="m 1084.2857,584.42064 c 1.9048,0 5.7143,-1.90477 5.7143,0 0,1.90476 -7.0612,1.34687 -5.7143,0 1.7169,-1.71693 4.8394,-0.66074 7.1429,-1.42857 4.459,-1.48635 -0.4762,-0.95239 1.4285,-2.85715 0.3368,-0.33671 1.0919,0.33672 1.4286,0 0.6734,-0.67343 -0.6734,-2.18371 0,-2.85714 0.3367,-0.33672 1.0919,0.33672 1.4286,0 0.3367,-0.33672 0,-0.95238 0,-1.42857 0,-0.47619 0.3367,-1.09186 0,-1.42857 -0.3367,-0.33672 -1.0919,0.33671 -1.4286,0 -0.3367,-0.33672 0.3367,-1.09186 0,-1.42857 -0.2015,-0.20147 -3.9927,-0.14652 -4.2857,0 -0.6023,0.30116 -1.1274,0.82623 -1.4286,1.42857 -0.2129,0.42591 0.3367,1.09185 0,1.42857 -0.3367,0.33672 -1.0918,-0.33672 -1.4285,0 -0.3368,0.33672 0.3367,1.09185 0,1.42857 -0.3368,0.33672 -1.2518,-0.44213 -1.4286,0 -0.9018,2.25444 -1.9048,4.7619 -1.4286,7.14286 0.5446,2.72272 3.044,4.65935 4.2857,7.14285 0.213,0.42592 -0.3367,1.09186 0,1.42858 0.3367,0.33671 1.0919,-0.33672 1.4286,0 0.3367,0.33671 -0.3367,1.09185 0,1.42857 0.3367,0.33671 1.0027,-0.21296 1.4286,0 0.6023,0.30117 0.8262,1.1274 1.4285,1.42857 0.426,0.21296 0.9524,0 1.4286,0 0.4762,0 1.0919,0.33672 1.4286,0 0.3367,-0.33672 -0.3367,-1.09186 0,-1.42857 0.6734,-0.67344 2.0053,0.42591 2.8571,0 0.6024,-0.30117 0.8263,-1.12741 1.4286,-1.42857 1.9048,-0.95239 1.4286,1.42857 1.4286,-1.42858"
       id="path3031"
       inkscape:connector-curvature="0"
       transform="translate(0,-10.629368)" />
    <path
       style="fill:none;stroke:#000000;stroke-width:1px;stroke-linecap:butt;stroke-linejoin:miter;stroke-opacity:1"
       d="m 1121.4286,555.84921 c -0.9524,1.90476 -0.9524,6.66666 -2.8572,5.71428 -1.9047,-0.95238 4.363,-7.22013 2.8572,-5.71428 -4.5307,4.53071 -4.2857,4.88422 -4.2857,8.57143 0,0.47619 0.1505,0.97681 0,1.42857 -0.3368,1.01015 -1.0919,1.84699 -1.4286,2.85714 -0.1,0.29877 -0.1,6.84409 0,7.14286 0.3367,1.01015 1.0918,1.84699 1.4286,2.85714 0.1505,0.45176 -0.213,1.00265 0,1.42857 0.3011,0.60234 0.9523,0.95238 1.4285,1.42857 1.1226,1.12253 6.6879,6.2329 7.1429,7.14286 0.2129,0.42592 -0.213,1.00265 0,1.42857 0.8571,1.71429 3.4286,2.57143 4.2857,4.28572 0.213,0.42591 -0.3367,1.09185 0,1.42857 2.102,0 1.0919,-0.33672 2.8571,1.42857"
       id="path3033"
       inkscape:connector-curvature="0"
       transform="translate(0,-10.629368)" />
    <path
       style="fill:none;stroke:#000000;stroke-width:1px;stroke-linecap:butt;stroke-linejoin:miter;stroke-opacity:1"
       d="m 1141.4286,564.42064 c 6.1762,-1.54407 3.7509,-1.42857 7.1428,-1.42857 0.4762,0 1.0027,0.21295 1.4286,0 0.6023,-0.30117 0.7551,-1.42858 1.4286,-1.42858 0.4762,0 -0.3367,1.09186 0,1.42858 0.3367,0.33671 1.0918,-0.33672 1.4285,0 0.046,0.0459 0,3.93924 0,4.28571 0,3.80952 0.4762,-0.47619 -1.4285,1.42857 -0.6735,0.67344 0.6734,2.18371 0,2.85714 -0.3367,0.33672 -1.0919,-0.33671 -1.4286,0 -0.3367,0.33672 0.213,1.00266 0,1.42858 -0.3012,0.60233 -1.1274,0.82623 -1.4286,1.42857 -0.2129,0.42591 0.213,1.00265 0,1.42857 -0.3011,0.60234 -1.1274,0.82623 -1.4285,1.42857 -0.2174,0.43476 0,3.64235 0,4.28571 0,0.47619 0,0.95238 0,1.42858 0,0.47619 -0.3368,1.09185 0,1.42857 0.3367,0.33671 0.9523,0 1.4285,0 0.7471,0 5.3387,0.18781 5.7143,0 0.6024,-0.30117 0.8262,-1.12741 1.4286,-1.42857 0.5664,-0.28321 3.9936,0.29205 4.2857,0 0.3367,-0.33672 -0.3367,-1.09186 0,-1.42858 0.3367,-0.33671 0.9524,0 1.4286,0 0.4762,0 0.9524,0 1.4285,0"
       id="path3035"
       inkscape:connector-curvature="0"
       transform="translate(0,-10.629368)" />
    <path
       style="fill:none;stroke:#000000;stroke-width:1px;stroke-linecap:butt;stroke-linejoin:miter;stroke-opacity:1"
       d="m 1140,577.27778 c 1.9048,-0.47619 3.8913,-0.69939 5.7143,-1.42857 0.6253,-0.25011 0.8262,-1.1274 1.4286,-1.42857 0.8978,-0.44895 4.8164,0.44894 5.7142,0 0.6024,-0.30117 0.8263,-1.12741 1.4286,-1.42857 0.3756,-0.18782 4.9673,0 5.7143,0"
       id="path3037"
       inkscape:connector-curvature="0"
       transform="translate(0,-10.629368)" />
    <path
       style="fill:none;stroke:#000000;stroke-width:1px;stroke-linecap:butt;stroke-linejoin:miter;stroke-opacity:1"
       d="m 1152.8571,542.99207 c 16.1905,8.09523 0,-1.42858 7.1429,5.71428 0.7529,0.75292 2.1042,0.67565 2.8571,1.42857 0.753,0.75293 0.6757,2.10422 1.4286,2.85715 0.7529,0.75292 2.1042,0.67564 2.8572,1.42857 0.7529,0.75292 0.7897,2.0053 1.4285,2.85714 0.8082,1.0775 2.049,1.77965 2.8572,2.85714 0.6388,0.85184 0.9524,1.90476 1.4285,2.85715 0.9524,1.90476 1.9048,3.80952 2.8572,5.71428 0.4762,0.95238 0.9524,1.90476 1.4286,2.85714 0.4761,0.95238 1.1703,1.82414 1.4285,2.85715 0.231,0.92394 -0.231,1.93319 0,2.85714 0.2583,1.033 1.1703,1.82414 1.4286,2.85714 0.3238,1.29507 0,5.48333 0,7.14286 0,0.95238 0,1.90476 0,2.85714 0,0.47619 0.213,1.00266 0,1.42857 -0.3012,0.60234 -0.9524,0.95238 -1.4286,1.42858"
       id="path3039"
       inkscape:connector-curvature="0"
       transform="translate(0,-10.629368)" />
    <path
       style="fill:none;stroke:#000000;stroke-width:1px;stroke-linecap:butt;stroke-linejoin:miter;stroke-opacity:1"
       d="m 670.28571,90.934126 c 1.42858,-1.904762 2.85715,-3.809524 4.28572,-5.714286 0,-0.47619 -0.21296,-1.002653 0,-1.428571 0.30117,-0.602339 1.1274,-0.826233 1.42857,-1.428572 0.21296,-0.425917 -0.21296,-1.002653 0,-1.428571 2.97269,-5.945372 -0.0986,1.527194 2.85714,-1.428571 0.33672,-0.336718 -0.21296,-1.002654 0,-1.428572 0.30117,-0.602338 1.1274,-0.826233 1.42857,-1.428571 0.42592,-0.851836 -0.42591,-2.005308 0,-2.857143 0.30117,-0.602339 1.12741,-0.826233 1.42858,-1.428572 0.21295,-0.425917 -0.21296,-1.002653 0,-1.428571 1.76528,-3.530578 1.42857,0.493111 1.42857,-2.857143 0,-0.47619 -0.47619,-1.428571 0,-1.428571 0.47619,0 -0.33672,1.091854 0,1.428571 0.33671,0.336718 1.09185,-0.336717 1.42857,0 0.33672,0.336718 0,0.952381 0,1.428572 0,0.47619 0,0.952381 0,1.428571 0,3.350254 -0.33672,-0.673435 1.42857,2.857143 0.21296,0.425918 -0.21296,1.002654 0,1.428571 0.30117,0.602339 1.1274,0.826233 1.42857,1.428572 0.42592,0.851835 -0.67343,2.183708 0,2.857143 0.33672,0.336717 1.09186,-0.336718 1.42857,0 0.67344,0.673435 -0.67343,2.183707 0,2.857142 0.33672,0.336718 1.09186,-0.336717 1.42857,0 0.71429,0.714286 -0.71428,3.571429 0,4.285715 1.90477,1.904762 1.42858,-2.380953 1.42858,1.428571"
       id="path3041"
       inkscape:connector-curvature="0" />
    <path
       style="fill:none;stroke:#000000;stroke-width:1px;stroke-linecap:butt;stroke-linejoin:miter;stroke-opacity:1"
       d="m 721.42857,70.134923 c -0.47619,1.904761 -0.69939,3.891329 -1.42857,5.714285 -0.25011,0.625269 -1.1274,0.826233 -1.42857,1.428572 -0.3777,0.75539 0.174,5.018297 0,5.714285 -0.25825,1.033003 -1.17032,1.824141 -1.42857,2.857143 -0.62009,2.480351 0.62008,6.091078 0,8.571429 -0.25825,1.033002 -1.09186,1.84699 -1.42857,2.857143 -0.15059,0.451754 0,0.952381 0,1.428571 0,0.476191 -0.21296,1.002654 0,1.428569 1.76528,3.53058 1.42857,-0.493109 1.42857,2.85715"
       id="path3043"
       inkscape:connector-curvature="0"
       transform="translate(0,-10.629368)" />
    <path
       style="fill:none;stroke:#000000;stroke-width:1px;stroke-linecap:butt;stroke-linejoin:miter;stroke-opacity:1"
       d="m 788.57143,72.992065 c 2.90436,5.476906 -4.75007,4.250221 -5.71429,7.142858 -0.30117,0.903507 0.30117,1.953635 0,2.857142 -0.21296,0.638877 -1.05501,0.86824 -1.42857,1.428572 -0.59064,0.885962 -1.03312,1.868506 -1.42857,2.857143 -4.14319,10.357973 0.0978,-0.489138 -1.42857,7.142857 -0.29532,1.476604 -1.18101,2.800356 -1.42857,4.285714 -0.23486,1.409139 0,2.857139 0,4.285719 0,0.95238 -0.23099,1.93319 0,2.85714 0.25825,1.033 0.95238,1.90476 1.42857,2.85714 0.47619,0.95238 0.95238,1.90476 1.42857,2.85714 0.35004,0.70009 1.54825,3.84942 2.85714,4.28572 0.81856,0.27285 5.80169,0 7.14286,0"
       id="path3047"
       inkscape:connector-curvature="0"
       transform="translate(0,-10.629368)" />
    <path
       style="fill:none;stroke:#000000;stroke-width:1px;stroke-linecap:butt;stroke-linejoin:miter;stroke-opacity:1"
       d="m 800,85.849208 c 6.1402,-3.070101 3.5847,-2.857143 7.14286,-2.857143 0.47619,0 1.00265,-0.212958 1.42857,0 0.60234,0.30117 0.82623,1.127403 1.42857,1.428572 1.14286,0.571428 3.14286,-0.571429 4.28571,0 0.42592,0.212959 -0.21295,1.002654 0,1.428571 2.97269,5.945372 -0.0986,-1.527193 2.85715,1.428572 0.14285,0.142857 0.14285,4.142857 0,4.285714 -0.67344,0.673435 -2.18371,-0.673435 -2.85715,0 -0.33671,0.336718 0.21296,1.002654 0,1.428571 -0.60233,1.204678 -2.2548,1.652466 -2.85714,2.857143 -0.21296,0.425918 0.21296,1.002654 0,1.428572 -0.85714,1.714285 -3.42857,2.571428 -4.28571,4.28571 -0.21296,0.42592 0.21296,1.00266 0,1.42858 -0.30117,0.60233 -1.1274,0.82623 -1.42857,1.42857 -0.21296,0.42591 0,0.95238 0,1.42857 0,0.47619 -0.21296,1.00265 0,1.42857 0.30117,0.60234 0.82623,1.1274 1.42857,1.42857 0.43476,0.21738 3.64234,0 4.28571,0 2.85714,0 5.71429,0 8.57143,0 0.47619,0 0.95238,0 1.42857,0 0.47619,0 1.09186,0.33672 1.42857,0 0.33672,-0.33672 0,-0.95238 0,-1.42857"
       id="path3049"
       inkscape:connector-curvature="0"
       transform="translate(0,-10.629368)" />
    <path
       style="fill:none;stroke:#000000;stroke-width:1px;stroke-linecap:butt;stroke-linejoin:miter;stroke-opacity:1"
       d="m 804.28571,97.27778 c 2.85715,0 5.71429,0 8.57143,0 0.47619,0 1.00266,-0.212959 1.42857,0 0.60234,0.301169 0.82624,1.127402 1.42858,1.428571 0.37563,0.187815 4.96725,0 5.71428,0"
       id="path3051"
       inkscape:connector-curvature="0"
       transform="translate(0,-10.629368)" />
    <path
       style="fill:none;stroke:#000000;stroke-width:1px;stroke-linecap:butt;stroke-linejoin:miter;stroke-opacity:1"
       d="m 822.85714,72.992065 c 1.90476,1.904762 3.80953,3.809524 5.71429,5.714286 0.95238,0.476191 2.10422,0.675648 2.85714,1.428572 0.75292,0.752923 0.95238,1.904761 1.42857,2.857142 0.47619,0.952381 0.95238,1.904762 1.42857,2.857143 0.47619,0.952381 0.95239,1.904762 1.42858,2.857143 0.47619,0.952381 1.17032,1.824141 1.42857,2.857143 0.28093,1.123738 0,7.085822 0,8.571426 0,1.48561 0.28093,7.44769 0,8.57143 -0.25825,1.033 -1.17032,1.82414 -1.42857,2.85714 -0.23099,0.92395 0.30117,1.95364 0,2.85715 -0.77048,2.31143 -2.85715,0.4454 -2.85715,4.28571"
       id="path3053"
       inkscape:connector-curvature="0"
       transform="translate(0,-10.629368)" />
    <path
       style="fill:none;stroke:#000000;stroke-width:1px;stroke-linecap:butt;stroke-linejoin:miter;stroke-opacity:1"
       d="m 862.85714,907.27778 c 4.37763,1.35257 5.79707,2.93992 8.57143,5.71429 0.47619,0.47619 0.82623,1.1274 1.42857,1.42857 0.42592,0.21296 0.95238,0 1.42857,0 0.95239,0.47619 1.97118,0.83793 2.85715,1.42857 1.12066,0.74711 1.65246,2.2548 2.85714,2.85714 0.42592,0.21296 0.97682,-0.15058 1.42857,0 1.01015,0.33672 1.84699,1.09186 2.85714,1.42857 0.45176,0.15059 1.00266,-0.21296 1.42858,0 0.60233,0.30117 0.82623,1.1274 1.42857,1.42857 0.42591,0.21296 1.09185,-0.33671 1.42857,0 0.33672,0.33672 -0.33672,1.09186 0,1.42858 0.33672,0.33671 1.09185,-0.33672 1.42857,0 0.33672,0.33671 -0.33672,1.09185 0,1.42857 0.33672,0.33671 1.09185,-0.33672 1.42857,0 0.33672,0.33671 0.33672,1.09185 0,1.42857 -0.33672,0.33672 -0.95238,0 -1.42857,0"
       id="path3069"
       inkscape:connector-curvature="0"
       transform="translate(0,-10.629368)" />
    <path
       style="fill:none;stroke:#000000;stroke-width:1px;stroke-linecap:butt;stroke-linejoin:miter;stroke-opacity:1"
       d="m 885.71429,901.56349 c 2.19436,4.89072 -3.04397,4.65936 -4.28572,7.14286 -0.21296,0.42592 0.15059,0.97682 0,1.42857 -0.33672,1.01016 -0.95238,1.90476 -1.42857,2.85715 -0.95238,1.90476 -1.90476,3.80952 -2.85714,5.71428 -0.47619,0.95238 -1.17032,1.82414 -1.42857,2.85714 -0.23099,0.92395 0.30117,1.95364 0,2.85715 -0.21296,0.63887 -1.21562,0.78969 -1.42858,1.42857 -0.30117,0.90351 0,1.90476 0,2.85714 0,0.47619 0.21296,1.00265 0,1.42857 -1.76528,3.53058 -1.42857,-0.49311 -1.42857,2.85715"
       id="path3071"
       inkscape:connector-curvature="0"
       transform="translate(0,-10.629368)" />
    <path
       style="fill:none;stroke:#000000;stroke-width:1px;stroke-linecap:butt;stroke-linejoin:miter;stroke-opacity:1"
       d="m 907.14286,921.56349 c -1.42857,1.90477 -2.38096,7.14286 -4.28572,5.71429 -1.90476,-1.42857 4.28572,-8.09524 4.28572,-5.71429 0,2.77665 -3.04396,4.65936 -4.28572,7.14286 -0.42591,0.85184 0.42592,2.00531 0,2.85714 -1.76529,3.53058 -1.42857,-0.49311 -1.42857,2.85715 0,3.80952 -0.47619,-0.47619 1.42857,1.42857 0.67344,0.67343 -0.67343,2.18371 0,2.85714 0.33672,0.33672 1.09186,-0.33672 1.42857,0 0.33672,0.33672 -0.33671,1.09186 0,1.42857 0.0575,0.0575 5.18967,0 5.71429,0 0.34647,0 4.23977,0.046 4.28571,0 0.33672,-0.33671 -0.33671,-1.09185 0,-1.42857 0.33672,-0.33672 1.09186,0.33672 1.42858,0 0.33671,-0.33672 -0.21296,-1.00265 0,-1.42857 0.30117,-0.60234 1.1274,-0.82623 1.42857,-1.42857 0.0609,-0.12178 0.0609,-5.59251 0,-5.71429 -0.30117,-0.60234 -1.1274,-0.82623 -1.42857,-1.42857 -0.21296,-0.42592 0.33671,-1.09185 0,-1.42857 -0.33672,-0.33672 -1.09186,0.33672 -1.42858,0 -0.33671,-0.33672 0.37185,-1.1311 0,-1.42857 -2.16819,-1.73456 -4.7619,-2.85714 -7.14285,-4.28572 z"
       id="path3073"
       inkscape:connector-curvature="0"
       transform="translate(0,-10.629368)" />
    <path
       style="fill:none;stroke:#000000;stroke-width:1px;stroke-linecap:butt;stroke-linejoin:miter;stroke-opacity:1"
       d="m 977.14286,880.13492 c 1.90476,1.42857 7.14285,2.38095 5.71428,4.28572 -1.42857,1.90476 -7.39787,-5.96931 -5.71428,-4.28572 2.38095,1.90476 4.7619,3.80953 7.14285,5.71429 0.47619,0 1.00266,-0.21296 1.42858,0 1.20467,0.60234 1.65246,2.2548 2.85714,2.85714 0.42592,0.21296 1.00265,-0.21296 1.42857,0 0.60234,0.30117 0.82623,1.1274 1.42857,1.42857 0.42592,0.21296 1.09186,-0.33671 1.42857,0 0.33672,0.33672 -0.33671,1.09186 0,1.42857 0.67344,0.67344 2.00531,-0.42591 2.85715,0 0.60233,0.30117 0.82623,1.12741 1.42857,1.42858 4.20404,2.102 -1.88083,-3.30941 2.85714,1.42857"
       id="path3075"
       inkscape:connector-curvature="0"
       transform="translate(0,-10.629368)" />
    <path
       style="fill:none;stroke:#000000;stroke-width:1px;stroke-linecap:butt;stroke-linejoin:miter;stroke-opacity:1"
       d="m 995.71429,877.27778 c 1.4923,4.89201 -4.35069,4.41565 -5.71429,7.14286 -0.21296,0.42591 0.21296,1.00265 0,1.42857 -0.30117,0.60234 -1.1274,0.82623 -1.42857,1.42857 -0.21296,0.42592 0.21296,1.00265 0,1.42857 -0.30117,0.60234 -1.1274,0.82623 -1.42857,1.42857 -0.74563,1.49126 0.74563,1.36588 0,2.85715 -0.30117,0.60233 -1.1274,0.82623 -1.42857,1.42857 -0.42592,0.85183 0.42591,2.0053 0,2.85714 -0.30117,0.60234 -1.12741,0.82623 -1.42858,1.42857 -0.42591,0.85184 0.42592,2.00531 0,2.85714 -1.76528,3.53058 -1.42857,-0.49311 -1.42857,2.85715"
       id="path3079"
       inkscape:connector-curvature="0"
       transform="translate(0,-10.629368)" />
    <path
       style="fill:none;stroke:#000000;stroke-width:1px;stroke-linecap:butt;stroke-linejoin:miter;stroke-opacity:1"
       d="m 1012.8571,898.70635 c 1.4286,-1.90476 2.8572,-3.80952 4.2858,-5.71428 0.4761,0 1.0918,0.33671 1.4285,0 0.3367,-0.33672 -0.3367,-1.09186 0,-1.42858 0.3367,-0.33671 1.0919,0.33672 1.4286,0 0.3367,-0.33671 -0.3367,-1.09185 0,-1.42857 0.3367,-0.33671 1.0919,0.33672 1.4286,0 0.3367,-0.33671 -0.213,-1.00265 0,-1.42857 0.1859,-0.37193 1.8719,-2.41383 2.8571,-1.42857 0.3367,0.33672 0.3367,1.09185 0,1.42857 -0.3367,0.33672 -1.0918,-0.33672 -1.4286,0 -0.046,0.0459 0,3.93925 0,4.28572 0,2.38095 0,4.7619 0,7.14285 0,0.47619 -0.3367,1.09186 0,1.42857 0.3368,0.33672 1.0919,-0.33671 1.4286,0 0.7143,0.71429 -0.7143,3.57143 0,4.28572 0.3367,0.33672 1.4286,-0.47619 1.4286,0 0,0.47619 -1.0919,-0.33672 -1.4286,0 -0.3367,0.33672 0,0.95238 0,1.42857 0,0.47619 0,0.95238 0,1.42857"
       id="path3081"
       inkscape:connector-curvature="0"
       transform="translate(0,-10.629368)" />
    <path
       style="fill:none;stroke:#000000;stroke-width:1px;stroke-linecap:butt;stroke-linejoin:miter;stroke-opacity:1"
       d="m 730,85.849208 c 0,2.380953 0,4.761905 0,7.142857 0,0.476191 0.21296,1.002654 0,1.428572 -0.30117,0.602338 -1.1274,0.826233 -1.42857,1.428571 -0.45062,0.901242 0.45062,6.241612 0,7.142862 -0.30117,0.60233 -1.1274,0.82623 -1.42857,1.42857 -0.21296,0.42591 0,0.95238 0,1.42857 0,0.47619 0,0.95238 0,1.42857 0,0.47619 0,0.95238 0,1.42857 0,0.47619 0.47619,1.42857 0,1.42857 -0.47619,0 0,-0.95238 0,-1.42857 0,-0.47619 -0.33672,-1.09185 0,-1.42857 0.33671,-0.33672 1.09185,0.33672 1.42857,0 0.33672,-0.33672 -0.21296,-1.00265 0,-1.42857 0.30117,-0.60234 1.1274,-0.82623 1.42857,-1.42857 0.21296,-0.42592 -0.21296,-1.00266 0,-1.42857 0.30117,-0.60234 1.1274,-0.82624 1.42857,-1.42858 0.21296,-0.42591 -0.33672,-1.09185 0,-1.42857 0.33672,-0.336715 1.00266,0.21296 1.42857,0 0.60234,-0.301167 0.95238,-0.952378 1.42857,-1.428569 0.47619,-0.47619 1.12741,-0.826233 1.42858,-1.428571 0.21295,-0.425918 -0.21296,-1.002654 0,-1.428572 0.30117,-0.602338 0.95238,-0.952381 1.42857,-1.428571 0.47619,-0.476191 0.82623,-1.127402 1.42857,-1.428572 0.42592,-0.212958 1.09185,0.336718 1.42857,0 0.33672,-0.336717 -0.47619,-1.428571 0,-1.428571 0.67344,0 0.82623,1.127402 1.42857,1.428571 0.42592,0.212959 1.09186,-0.336717 1.42857,0 0.67344,0.673435 -0.67343,2.183708 0,2.857143 0.33672,0.336718 1.09186,-0.336717 1.42857,0 0.046,0.04594 0,3.939248 0,4.285712 0,1.42857 0,2.85715 0,4.28572 0,0.47619 0.47619,1.42857 0,1.42857 -0.47619,0 0,-0.95238 0,-1.42857 0,-3.35026 -0.33671,0.67343 1.42858,-2.85715 0.21295,-0.42591 -0.33672,-1.09185 0,-1.42857 0.33671,-0.336715 1.00265,0.21296 1.42857,0 3.15865,-1.579322 0.44331,-0.88663 1.42857,-2.85714 0.85714,-1.714286 3.42857,-2.571429 4.28571,-4.285715 0.21296,-0.425917 -0.33671,-1.091853 0,-1.428571 0.33672,-0.336718 1.09186,0.336718 1.42857,0 0.33672,-0.336718 -0.33671,-1.091854 0,-1.428571 0.33672,-0.336718 0.95239,0 1.42858,0 0.47619,0 1.09185,-0.336718 1.42857,0 0.33671,0.336717 -0.33672,1.091853 0,1.428571 0.33671,0.336718 1.09185,-0.336718 1.42857,0 0.39089,0.390889 -0.38749,4.939303 0,5.714286 0.30117,0.602338 1.1274,0.826233 1.42857,1.428571 0.18468,0.369358 0,7.558859 0,8.571429 0,0.47619 0.33672,1.09185 0,1.42857 -1.90476,1.90476 -1.42857,-2.38095 -1.42857,1.42857"
       id="path3095"
       inkscape:connector-curvature="0"
       transform="translate(0,-10.629368)" />
    <path
       style="fill:none;stroke:#000000;stroke-width:1px;stroke-linecap:butt;stroke-linejoin:miter;stroke-opacity:1"
       d="m 554.28571,702.99207 c 0,135.71428 0,135.71428 0,135.71428"
       id="path3020"
       inkscape:connector-curvature="0"
       transform="translate(0,-10.629368)" />
    <path
       style="fill:none;stroke:#000000;stroke-width:1px;stroke-linecap:butt;stroke-linejoin:miter;stroke-opacity:1"
       d="m 895.71429,712.99207 c 0,-241.42858 0,-238.57143 0,-238.57143"
       id="path3022"
       inkscape:connector-curvature="0"
       transform="translate(0,-10.629368)" />
    <path
       sodipodi:type="arc"
       style="opacity:0.222;fill:#0000d2;fill-opacity:1;stroke-width:1;stroke-miterlimit:4;stroke-dasharray:12, 12;stroke-dashoffset:0"
       id="path3028"
       sodipodi:cx="554.28571"
       sodipodi:cy="691.56348"
       sodipodi:rx="17.142857"
       sodipodi:ry="17.142857"
       d="m 571.42856,691.56348 c 0,9.46773 -7.67512,17.14285 -17.14285,17.14285 -9.46774,0 -17.14286,-7.67512 -17.14286,-17.14285 0,-9.46774 7.67512,-17.14286 17.14286,-17.14286 9.46773,0 17.14285,7.67512 17.14285,17.14286 z"
       transform="translate(0,-10.629368)" />
    <path
       transform="translate(88.571439,-256.34363)"
       sodipodi:type="arc"
       style="opacity:0.222;fill:#0000d2;fill-opacity:1;stroke-width:1;stroke-miterlimit:4;stroke-dasharray:12, 12;stroke-dashoffset:0"
       id="path3028-5"
       sodipodi:cx="554.28571"
       sodipodi:cy="691.56348"
       sodipodi:rx="17.142857"
       sodipodi:ry="17.142857"
       d="m 571.42856,691.56348 c 0,9.46773 -7.67512,17.14285 -17.14285,17.14285 -9.46774,0 -17.14286,-7.67512 -17.14286,-17.14285 0,-9.46774 7.67512,-17.14286 17.14286,-17.14286 9.46773,0 17.14285,7.67512 17.14285,17.14286 z" />
    <path
       transform="translate(71.42858,-269.20077)"
       sodipodi:type="arc"
       style="opacity:0.222;fill:#0000d2;fill-opacity:1;stroke-width:1;stroke-miterlimit:4;stroke-dasharray:12, 12;stroke-dashoffset:0"
       id="path3028-1"
       sodipodi:cx="554.28571"
       sodipodi:cy="691.56348"
       sodipodi:rx="17.142857"
       sodipodi:ry="17.142857"
       d="m 571.42856,691.56348 c 0,9.46773 -7.67512,17.14285 -17.14285,17.14285 -9.46774,0 -17.14286,-7.67512 -17.14286,-17.14285 0,-9.46774 7.67512,-17.14286 17.14286,-17.14286 9.46773,0 17.14285,7.67512 17.14285,17.14286 z" />
    <path
       transform="translate(182.85715,-57.772209)"
       sodipodi:type="arc"
       style="opacity:0.222;fill:#0000d2;fill-opacity:1;stroke-width:1;stroke-miterlimit:4;stroke-dasharray:12, 12;stroke-dashoffset:0"
       id="path3028-4"
       sodipodi:cx="554.28571"
       sodipodi:cy="691.56348"
       sodipodi:rx="17.142857"
       sodipodi:ry="17.142857"
       d="m 571.42856,691.56348 c 0,9.46773 -7.67512,17.14285 -17.14285,17.14285 -9.46774,0 -17.14286,-7.67512 -17.14286,-17.14285 0,-9.46774 7.67512,-17.14286 17.14286,-17.14286 9.46773,0 17.14285,7.67512 17.14285,17.14286 z" />
    <path
       transform="translate(207.14287,-209.20077)"
       sodipodi:type="arc"
       style="opacity:0.222;fill:#d20000;fill-opacity:1;stroke-width:1;stroke-miterlimit:4;stroke-dasharray:12, 12;stroke-dashoffset:0"
       id="path3028-44"
       sodipodi:cx="554.28571"
       sodipodi:cy="691.56348"
       sodipodi:rx="17.142857"
       sodipodi:ry="17.142857"
       d="m 571.42856,691.56348 c 0,9.46773 -7.67512,17.14285 -17.14285,17.14285 -9.46774,0 -17.14286,-7.67512 -17.14286,-17.14285 0,-9.46774 7.67512,-17.14286 17.14286,-17.14286 9.46773,0 17.14285,7.67512 17.14285,17.14286 z" />
    <path
       transform="translate(-21.428567,-286.34364)"
       sodipodi:type="arc"
       style="opacity:0.222;fill:#d20000;fill-opacity:1;stroke-width:1;stroke-miterlimit:4;stroke-dasharray:12, 12;stroke-dashoffset:0"
       id="path3028-44-2"
       sodipodi:cx="554.28571"
       sodipodi:cy="691.56348"
       sodipodi:rx="17.142857"
       sodipodi:ry="17.142857"
       d="m 571.42856,691.56348 c 0,9.46773 -7.67512,17.14285 -17.14285,17.14285 -9.46774,0 -17.14286,-7.67512 -17.14286,-17.14285 0,-9.46774 7.67512,-17.14286 17.14286,-17.14286 9.46773,0 17.14285,7.67512 17.14285,17.14286 z" />
    <path
       transform="translate(184.28572,-379.20078)"
       sodipodi:type="arc"
       style="opacity:0.222;fill:#d20000;fill-opacity:1;stroke-width:1;stroke-miterlimit:4;stroke-dasharray:12, 12;stroke-dashoffset:0"
       id="path3028-44-3"
       sodipodi:cx="554.28571"
       sodipodi:cy="691.56348"
       sodipodi:rx="17.142857"
       sodipodi:ry="17.142857"
       d="m 571.42856,691.56348 c 0,9.46773 -7.67512,17.14285 -17.14285,17.14285 -9.46774,0 -17.14286,-7.67512 -17.14286,-17.14285 0,-9.46774 7.67512,-17.14286 17.14286,-17.14286 9.46773,0 17.14285,7.67512 17.14285,17.14286 z" />
    <path
       transform="translate(-18.571419,-143.48649)"
       sodipodi:type="arc"
       style="opacity:0.222;fill:#d20000;fill-opacity:1;stroke-width:1;stroke-miterlimit:4;stroke-dasharray:12, 12;stroke-dashoffset:0"
       id="path3028-44-6"
       sodipodi:cx="554.28571"
       sodipodi:cy="691.56348"
       sodipodi:rx="17.142857"
       sodipodi:ry="17.142857"
       d="m 571.42856,691.56348 c 0,9.46773 -7.67512,17.14285 -17.14285,17.14285 -9.46774,0 -17.14286,-7.67512 -17.14286,-17.14285 0,-9.46774 7.67512,-17.14286 17.14286,-17.14286 9.46773,0 17.14285,7.67512 17.14285,17.14286 z" />
    <path
       transform="translate(92.857152,-472.05792)"
       sodipodi:type="arc"
       style="opacity:0.222;fill:#0000d2;fill-opacity:1;stroke-width:1;stroke-miterlimit:4;stroke-dasharray:12, 12;stroke-dashoffset:0"
       id="path3028-1-6"
       sodipodi:cx="554.28571"
       sodipodi:cy="691.56348"
       sodipodi:rx="17.142857"
       sodipodi:ry="17.142857"
       d="m 571.42856,691.56348 c 0,9.46773 -7.67512,17.14285 -17.14285,17.14285 -9.46774,0 -17.14286,-7.67512 -17.14286,-17.14285 0,-9.46774 7.67512,-17.14286 17.14286,-17.14286 9.46773,0 17.14285,7.67512 17.14285,17.14286 z" />
    <path
       transform="translate(341.42858,29.370649)"
       sodipodi:type="arc"
       style="opacity:0.222;fill:#0000d2;fill-opacity:1;stroke-width:1;stroke-miterlimit:4;stroke-dasharray:12, 12;stroke-dashoffset:0"
       id="path3028-1-0"
       sodipodi:cx="554.28571"
       sodipodi:cy="691.56348"
       sodipodi:rx="17.142857"
       sodipodi:ry="17.142857"
       d="m 571.42856,691.56348 c 0,9.46773 -7.67512,17.14285 -17.14285,17.14285 -9.46774,0 -17.14286,-7.67512 -17.14286,-17.14285 0,-9.46774 7.67512,-17.14286 17.14286,-17.14286 9.46773,0 17.14285,7.67512 17.14285,17.14286 z" />
    <path
       transform="translate(260,-34.915066)"
       sodipodi:type="arc"
       style="opacity:0.222;fill:#d20000;fill-opacity:1;stroke-width:1;stroke-miterlimit:4;stroke-dasharray:12, 12;stroke-dashoffset:0"
       id="path3028-44-8"
       sodipodi:cx="554.28571"
       sodipodi:cy="691.56348"
       sodipodi:rx="17.142857"
       sodipodi:ry="17.142857"
       d="m 571.42856,691.56348 c 0,9.46773 -7.67512,17.14285 -17.14285,17.14285 -9.46774,0 -17.14286,-7.67512 -17.14286,-17.14285 0,-9.46774 7.67512,-17.14286 17.14286,-17.14286 9.46773,0 17.14285,7.67512 17.14285,17.14286 z" />
    <path
       style="fill:none;stroke:#000000;stroke-width:1px;stroke-linecap:butt;stroke-linejoin:miter;stroke-opacity:1"
       d="m 511.42857,864.42064 c -1.90476,-0.47619 -6.19047,0.47619 -5.71428,-1.42857 0.47619,-1.90477 7.67767,1.42857 5.71428,1.42857 -2.89655,0 -5.67487,-1.42857 -8.57143,-1.42857 -0.47619,0 -1.09185,-0.33672 -1.42857,0 -0.33672,0.33671 0.33672,1.09185 0,1.42857 -0.33672,0.33671 -1.00265,-0.21296 -1.42857,0 -0.60234,0.30117 -1.1274,0.82623 -1.42857,1.42857 -0.14652,0.29304 -0.20147,4.08425 0,4.28571 0.67343,0.67344 2.18371,-0.67343 2.85714,0 0.33672,0.33672 -0.33672,1.09186 0,1.42857 0.33672,0.33672 0.95238,0 1.42857,0 0,0.47619 -0.33671,1.09186 0,1.42858 0.9505,0.95049 1.90665,-0.9505 2.85715,0 0.33671,0.33671 -0.33672,1.09185 0,1.42857 0.33671,0.33671 1.09185,-0.33672 1.42857,0 0.33671,0.33671 0,0.95238 0,1.42857 0.47619,0 1.09185,-0.33672 1.42857,0 2.88,2.88 -2.88,-0.0229 0,2.85714 0.33672,0.33672 1.09185,-0.33672 1.42857,0 0.33672,0.33672 0,0.95238 0,1.42857 0,0.47619 0.21296,1.00266 0,1.42857 -0.30117,0.60234 -1.1274,0.82624 -1.42857,1.42858 -0.21296,0.42591 0.33672,1.09185 0,1.42857 -0.67344,0.67343 -2.18371,-0.67344 -2.85714,0 -0.33672,0.33671 0.33671,1.09185 0,1.42857 -0.0648,0.0647 -6.46929,0 -7.14286,0"
       id="path3919"
       inkscape:connector-curvature="0"
       transform="translate(0,-10.629368)" />
    <path
       style="fill:none;stroke:#000000;stroke-width:1px;stroke-linecap:butt;stroke-linejoin:miter;stroke-opacity:1"
       d="m 525.71429,840.13492 c -0.47619,1.90476 -1.1058,3.77762 -1.42858,5.71429 -0.23485,1.40913 0,2.85714 0,4.28571 0,2.85715 0,5.71429 0,8.57143 0,8.09524 0,16.19048 0,24.28572"
       id="path3921"
       inkscape:connector-curvature="0"
       transform="translate(0,-10.629368)" />
    <path
       style="fill:none;stroke:#000000;stroke-width:1px;stroke-linecap:butt;stroke-linejoin:miter;stroke-opacity:1"
       d="m 517.14286,858.70635 c 4.70472,1.82495 9.39539,1.42857 14.28571,1.42857 0.47619,0 1.09186,-0.33671 1.42857,0 1.90476,1.90476 -2.38095,1.42857 1.42857,1.42857"
       id="path3923"
       inkscape:connector-curvature="0"
       transform="translate(0,-10.629368)" />
    <path
       style="fill:none;stroke:#000000;stroke-width:1px;stroke-linecap:butt;stroke-linejoin:miter;stroke-opacity:1"
       d="m 552.85714,870.13492 c -1.90476,-0.47619 -6.19047,0.47619 -5.71428,-1.42857 0.47619,-1.90476 7.67767,1.42857 5.71428,1.42857 -2.38095,-0.47619 -4.7619,-0.95238 -7.14285,-1.42857 0,0.47619 0.33671,1.09186 0,1.42857 -0.33672,0.33672 -1.00266,-0.21296 -1.42858,0 -0.60233,0.30117 -1.1274,0.82624 -1.42857,1.42857 -0.18781,0.37563 0,4.96726 0,5.71429 0,0.47619 0,0.95238 0,1.42857 0,0.47619 -0.33671,1.09186 0,1.42857 0.33672,0.33672 1.09186,-0.33671 1.42857,0 0.33672,0.33672 -0.21295,1.00266 0,1.42857 0.18597,0.37193 1.87189,2.41383 2.85715,1.42858 0.33671,-0.33672 -0.33672,-1.09186 0,-1.42858 0.67343,-0.67343 2.1837,0.67344 2.85714,0 0.33672,-0.33671 -0.21296,-1.00265 0,-1.42857 0.30117,-0.60234 1.1274,-0.82623 1.42857,-1.42857 1.18214,-2.36427 -6.12112,-8.57143 1.42857,-8.57143 2.42811,0 0.5268,4.88842 1.42857,7.14286 0.17686,0.44213 1.09186,-0.33672 1.42858,0 0.71428,0.71429 -0.71429,3.57143 0,4.28571 0.33671,0.33672 1.09185,-0.33671 1.42857,0 0.97046,0.97047 -1.46069,2.84109 1.42857,4.28572 0.42592,0.21296 0.95238,0 1.42857,0"
       id="path3925"
       inkscape:connector-curvature="0"
       transform="translate(0,-10.629368)" />
    <path
       style="fill:none;stroke:#000000;stroke-width:1px;stroke-linecap:butt;stroke-linejoin:miter;stroke-opacity:1"
       d="m 568.57143,868.70635 c -2.96067,11.84267 -2.34741,2.44804 0,7.14286 0.18781,0.37563 0,4.96725 0,5.71428 0,0.47619 0.33672,1.09186 0,1.42858 -0.33672,0.33671 -1.42857,0.47619 -1.42857,0 0,-0.4762 1.09185,0.33671 1.42857,0 0.29205,-0.29206 -0.28321,-3.7193 0,-4.28572 1.17304,-2.34608 1.84735,-0.34445 1.42857,-2.85714 -0.39918,-2.39507 -3.37106,-5.686 -1.42857,-7.14286 2.05149,-1.53862 4.71009,2.04622 7.14286,2.85714 2.85714,0.95238 0.47619,-0.47619 1.42857,-1.42857 0.33671,-0.33671 0.95238,0 1.42857,0 0.47619,0 1.09185,-0.33671 1.42857,0 0.33672,0.33672 -0.33672,1.09186 0,1.42857 0.33672,0.33672 0.95238,0 1.42857,0"
       id="path3931"
       inkscape:connector-curvature="0"
       transform="translate(0,-10.629368)" />
    <path
       style="fill:none;stroke:#000000;stroke-width:1px;stroke-linecap:butt;stroke-linejoin:miter;stroke-opacity:1"
       d="m 597.14286,840.13492 c 0,3.33334 0,6.66667 0,10 0,0.47619 0,0.95238 0,1.42857 0,0.47619 -0.21296,1.00266 0,1.42858 0.30117,0.60233 1.1274,0.82623 1.42857,1.42857 0.21296,0.42591 0,0.95238 0,1.42857 0,1.01257 -0.18468,8.20207 0,8.57143 0.30117,0.60234 1.1274,0.82623 1.42857,1.42857 0.18782,0.37563 0,4.96725 0,5.71428 0,4.28572 0,8.57143 0,12.85715"
       id="path3933"
       inkscape:connector-curvature="0"
       transform="translate(0,-10.629368)" />
    <path
       style="fill:none;stroke:#000000;stroke-width:1px;stroke-linecap:butt;stroke-linejoin:miter;stroke-opacity:1"
       d="m 590,855.84921 c 1.90476,0.47619 6.19048,-0.47619 5.71429,1.42857 -0.47619,1.90476 -7.67767,-1.42857 -5.71429,-1.42857 2.4281,0 4.74779,1.02939 7.14286,1.42857 0.93942,0.15657 1.90476,0 2.85714,0 0.47619,0 0.95238,0 1.42857,0 0.47619,0 1.09186,0.33672 1.42857,0 1.90476,-1.90476 -2.38095,-1.42857 1.42857,-1.42857"
       id="path3935"
       inkscape:connector-curvature="0"
       transform="translate(0,-10.629368)" />
    <path
       style="fill:none;stroke:#000000;stroke-width:1px;stroke-linecap:butt;stroke-linejoin:miter;stroke-opacity:1"
       d="m 865.71429,450.13492 c 1.90476,0 5.71428,-1.90476 5.71428,0 0,1.90476 -7.06115,1.34687 -5.71428,0 1.71692,-1.71693 4.74779,-1.02939 7.14285,-1.42857 0.46971,-0.0783 1.09186,0.33672 1.42857,0 0.33672,-0.33672 -0.33671,-1.09185 0,-1.42857 0.33672,-0.33672 1.09186,0.33672 1.42858,0 0.20146,-0.20147 0.14652,-3.99267 0,-4.28571 -0.30117,-0.60234 -0.82624,-1.12741 -1.42858,-1.42858 -0.85183,-0.42591 -2.1837,0.67344 -2.85714,0 -0.33672,-0.33671 -0.47619,-1.42857 0,-1.42857 0.47619,0 0.33672,1.09186 0,1.42857 -0.33672,0.33672 -1.09185,-0.33671 -1.42857,0 -0.33672,0.33672 0.33672,1.09186 0,1.42858 -0.33672,0.33671 -1.18357,-0.40833 -1.42857,0 -1.31936,2.19892 -1.90476,4.7619 -2.85714,7.14285 -0.95239,2.38095 -2.04622,4.71009 -2.85715,7.14286 -0.67005,2.01015 0.61088,1.22175 1.42857,2.85714 0.21296,0.42592 -0.33671,1.09186 0,1.42857 0.33672,0.33672 1.09186,-0.33671 1.42858,0 0.33671,0.33672 -0.33672,1.09186 0,1.42858 0.33671,0.33671 1.09185,-0.33672 1.42857,0 0.33671,0.33671 -0.33672,1.09185 0,1.42857 0.0575,0.0575 5.18966,0 5.71428,0 0.47619,0 1.09186,0.33671 1.42857,0 0.33672,-0.33672 -0.33671,-1.09186 0,-1.42857 0.67344,-0.67344 2.18371,0.67343 2.85715,0 1.90476,-1.90477 -2.38096,-1.42858 1.42857,-1.42858"
       id="path3945"
       inkscape:connector-curvature="0"
       transform="translate(0,-10.629368)" />
    <path
       style="fill:none;stroke:#000000;stroke-width:1px;stroke-linecap:butt;stroke-linejoin:miter;stroke-opacity:1"
       d="m 888.57143,442.99207 c -1.54407,6.17625 -1.42857,3.7509 -1.42857,7.14285 0,0.47619 -0.21296,1.00266 0,1.42857 0.30117,0.60234 1.1274,0.82624 1.42857,1.42858 0.18468,0.36935 0,7.55885 0,8.57142 0,0.47619 -0.33672,1.09186 0,1.42858 2.33428,2.33427 1.23765,-3.90388 1.42857,-4.28572 0.30117,-0.60234 1.1274,-0.82623 1.42857,-1.42857 0.21296,-0.42592 -0.33672,-1.09185 0,-1.42857 0.33672,-0.33672 1.09186,0.33672 1.42857,0 0.67344,-0.67344 -0.42591,-2.00531 0,-2.85714 0.30117,-0.60234 1.1274,-0.82624 1.42857,-1.42858 0.21296,-0.42591 -0.33671,-1.09185 0,-1.42857 0.33672,-0.33671 1.09186,0.33672 1.42858,0 0.67343,-0.67343 -0.67344,-2.18371 0,-2.85714 0.33671,-0.33672 1.09185,0.33672 1.42857,0 0.33671,-0.33672 -0.33672,-1.09185 0,-1.42857 0.14285,-0.14286 4.14285,-0.14286 4.28571,0 0.67344,0.67343 -0.42592,2.00531 0,2.85714 0.30117,0.60234 1.1274,0.82623 1.42857,1.42857 0.38749,0.77498 -0.39089,5.3234 0,5.71429 0.33672,0.33672 1.09186,-0.33672 1.42857,0 0.71429,0.71428 -0.71428,3.57143 0,4.28571 0.33672,0.33672 1.09186,-0.33671 1.42858,0 0.33671,0.33672 -0.33672,1.09186 0,1.42857 0.33671,0.33672 1.09185,0.33672 1.42857,0 0.33671,-0.33671 0,-0.95238 0,-1.42857"
       id="path3947"
       inkscape:connector-curvature="0"
       transform="translate(0,-10.629368)" />
    <path
       style="fill:none;stroke:#000000;stroke-width:1px;stroke-linecap:butt;stroke-linejoin:miter;stroke-opacity:1"
       d="m 932.85714,450.13492 c -1.90476,-1.42857 -7.14285,-2.38095 -5.71428,-4.28571 1.42857,-1.90476 7.39787,5.9693 5.71428,4.28571 -2.15604,-2.15604 -4.60584,-4.02294 -7.14285,-5.71428 -0.39622,-0.26415 -1.00266,-0.21296 -1.42858,0 -0.60233,0.30117 -0.82623,1.1274 -1.42857,1.42857 -0.42591,0.21296 -1.09185,-0.33672 -1.42857,0 -0.33672,0.33672 0.33672,1.09185 0,1.42857 -0.33672,0.33672 -1.09185,-0.33672 -1.42857,0 -0.33672,0.33672 0.33672,1.09185 0,1.42857 -0.33672,0.33672 -1.09185,-0.33672 -1.42857,0 -0.33672,0.33672 0.21296,1.00265 0,1.42857 -0.30117,0.60234 -1.1274,0.82624 -1.42857,1.42857 -0.21296,0.42592 0.21296,1.00266 0,1.42858 -0.30117,0.60233 -1.1274,0.82623 -1.42857,1.42857 -0.0609,0.12178 -0.0609,5.5925 0,5.71428 0.30117,0.60234 1.1274,0.82624 1.42857,1.42857 0.21296,0.42592 -0.33672,1.09186 0,1.42858 0.33671,0.33671 1.09185,-0.33672 1.42857,0 0.33672,0.33671 -0.33672,1.09185 0,1.42857 0.33672,0.33671 0.95238,0 1.42857,0 2.73923,0 2.21172,0.64542 4.28571,-1.42857 0.47619,-0.4762 1.12741,-0.82624 1.42858,-1.42858 0.21295,-0.42591 -0.33672,-1.09185 0,-1.42857 0.33671,-0.33671 1.09185,0.33672 1.42857,0 0.67343,-0.67343 -0.52829,-2.06471 0,-2.85714 1.69134,-2.53701 5.41089,-4.10888 5.71428,-7.14286 0.27629,-2.76286 -3.04396,-4.65935 -4.28571,-7.14285 -0.21296,-0.42592 0,-0.95239 0,-1.42858 0,-0.47619 0,-0.95238 0,-1.42857 0,-2.85714 0,-5.71428 0,-8.57143 0,-4.28571 0,-8.57142 0,-12.85714 0,-1.91045 0,-0.94669 0,-2.85714 0,-0.47619 -0.47619,-1.42857 0,-1.42857 0.47619,0 0,0.95238 0,1.42857 0,0.74703 -0.18782,5.33865 0,5.71428 0.30117,0.60234 1.1274,0.82624 1.42857,1.42858 0.21296,0.42591 0,0.95238 0,1.42857 0,0.95238 0,1.90476 0,2.85714 0,2.85714 0,5.71429 0,8.57143 0,0.98646 -0.21717,5.27995 0,5.71428 2.71266,5.42532 2.85714,-7.45176 2.85714,8.57143 0,2.42811 -1.02939,4.74779 -1.42857,7.14286 -0.0783,0.46971 -0.33672,1.09185 0,1.42857 0.33672,0.33672 1.09186,-0.33672 1.42857,0 0.33672,0.33672 0,0.95238 0,1.42857 0,0.47619 0,0.95238 0,1.42857 0,0.47619 0,0.95238 0,1.42858 0,0.47619 0.47619,1.42857 0,1.42857 -0.47619,0 -0.33671,-1.09186 0,-1.42857 0.33672,-0.33672 0.95238,0 1.42857,0"
       id="path3949"
       inkscape:connector-curvature="0"
       transform="translate(0,-10.629368)" />
    <path
       style="fill:none;stroke:#000000;stroke-width:1px;stroke-linecap:butt;stroke-linejoin:miter;stroke-opacity:1"
       d="m 505.71429,657.27778 c 0,1.90476 1.90476,5.71429 0,5.71429 -1.90477,0 0,-7.61905 0,-5.71429 0,6.19048 0,12.38095 0,18.57143 0,0.74703 0.18781,5.33865 0,5.71428 -0.30117,0.60234 -1.12741,0.82624 -1.42858,1.42858 -0.21295,0.42591 0,0.95238 0,1.42857 0,0.47619 -0.47619,1.42857 0,1.42857 0.67344,0 0.95239,-0.95238 1.42858,-1.42857"
       id="path3032"
       inkscape:connector-curvature="0"
       transform="translate(0,-10.629368)" />
    <path
       style="fill:none;stroke:#000000;stroke-width:1px;stroke-linecap:butt;stroke-linejoin:miter;stroke-opacity:1"
       d="m 498.57143,655.84921 c 1.90476,-0.47619 5.23809,-3.33334 5.71428,-1.42857 0.47619,1.90476 -7.67767,1.42857 -5.71428,1.42857 2.4281,0 4.71475,-1.42857 7.14286,-1.42857 0.67343,0 0.82623,1.1274 1.42857,1.42857 0.42591,0.21296 1.00265,-0.21296 1.42857,0 0.60234,0.30117 0.82623,1.1274 1.42857,1.42857 0.42592,0.21296 1.09185,-0.33672 1.42857,0 0.33672,0.33672 -0.33672,1.09185 0,1.42857 0.33672,0.33672 1.09186,-0.33672 1.42857,0 0.33672,0.33672 -0.33671,1.09186 0,1.42857 0.33672,0.33672 1.09186,-0.33671 1.42857,0 0.33672,0.33672 -0.33671,1.09186 0,1.42857 0.33672,0.33672 1.09186,-0.33671 1.42858,0 0.33671,0.33672 0,0.95238 0,1.42858 0,0.74702 0.18781,5.33865 0,5.71428 -1.50589,3.01177 -1.35126,-0.15462 -2.85715,2.85714 -0.21296,0.42592 0.33672,1.09186 0,1.42858 -0.33671,0.33671 -1.09185,-0.33672 -1.42857,0 -0.33672,0.33671 0.33672,1.09185 0,1.42857 -0.0459,0.0459 -3.93925,0 -4.28571,0 -0.47619,0 -1.42857,0.47619 -1.42857,0 0,-0.47619 0.95238,0 1.42857,0"
       id="path3034"
       inkscape:connector-curvature="0"
       transform="translate(0,-10.629368)" />
    <path
       style="fill:none;stroke:#000000;stroke-width:1px;stroke-linecap:butt;stroke-linejoin:miter;stroke-opacity:1"
       d="m 525.71429,664.42064 c 0.95238,-1.90477 0.95238,-6.66667 2.85714,-5.71429 1.90476,0.95238 -4.36299,7.22013 -2.85714,5.71429 1.96338,-1.96339 2.55115,-4.97467 4.28571,-7.14286 0.29747,-0.37184 1.09185,0.33672 1.42857,0 0.33672,-0.33672 -0.33672,-1.09185 0,-1.42857 0.33672,-0.33672 1.09186,0.33672 1.42857,0 0.33672,-0.33672 -0.33671,-1.09186 0,-1.42857 0.33672,-0.33672 1.42857,-0.47619 1.42857,0 0,0.47619 -1.09185,-0.33672 -1.42857,0 -0.33671,0.33671 0,0.95238 0,1.42857 0,0.47619 0,0.95238 0,1.42857 0,1.01257 0.18468,8.20207 0,8.57143 -0.30117,0.60234 -1.1274,0.82623 -1.42857,1.42857 -0.0374,0.0747 -0.0374,4.21098 0,4.28571 0.30117,0.60234 1.1274,0.82624 1.42857,1.42858 0.21738,0.43476 0,3.64234 0,4.28571 0,0.39858 0,8.87124 0,4.28571"
       id="path3036"
       inkscape:connector-curvature="0"
       transform="translate(0,-10.629368)" />
    <path
       style="fill:none;stroke:#000000;stroke-width:1px;stroke-linecap:butt;stroke-linejoin:miter;stroke-opacity:1"
       d="m 782.85714,447.27778 c -0.47619,1.90476 -1.04352,3.78903 -1.42857,5.71429 -0.0934,0.46694 0,0.95238 0,1.42857 0,2.38095 0,4.7619 0,7.14285 0,0.64337 -0.21738,3.85096 0,4.28572 1.76529,3.53058 1.42857,-0.49311 1.42857,2.85714 0,0.47619 0.47619,1.42857 0,1.42857 -0.47619,0 0,-0.95238 0,-1.42857"
       id="path3038"
       inkscape:connector-curvature="0"
       transform="translate(0,-10.629368)" />
    <path
       style="fill:none;stroke:#000000;stroke-width:1px;stroke-linecap:butt;stroke-linejoin:miter;stroke-opacity:1"
       d="m 774.28571,442.99207 c 1.90477,-0.95239 4.76191,-4.76191 5.71429,-2.85715 0.95238,1.90476 -7.22013,4.36299 -5.71429,2.85715 1.96339,-1.96339 4.65936,-3.04397 7.14286,-4.28572 0.85184,-0.42592 2.18371,0.67344 2.85714,0 0.33672,-0.33672 -0.33671,-1.09185 0,-1.42857 0.33672,-0.33672 0.95239,0 1.42858,0 0.47619,0 1.09185,-0.33672 1.42857,0 0.33671,0.33672 -0.33672,1.09185 0,1.42857 0.33671,0.33672 1.00265,-0.21296 1.42857,0 5.94537,2.97269 -1.5272,-0.0986 1.42857,2.85714 0.33672,0.33672 1.09185,-0.33671 1.42857,0 0.33672,0.33672 -0.33672,1.09186 0,1.42858 0.33672,0.33671 1.09186,-0.33672 1.42857,0 0.33672,0.33671 0,0.95238 0,1.42857 0,0.47619 0.33672,1.09185 0,1.42857 -0.33671,0.33672 -1.09185,-0.33672 -1.42857,0 -0.33672,0.33672 0.21296,1.00265 0,1.42857 -1.57932,3.15865 -0.88663,0.44332 -2.85714,1.42857 -0.60234,0.30117 -0.82623,1.1274 -1.42857,1.42857 -0.42592,0.21296 -1.00266,-0.21296 -1.42857,0 -3.53058,1.76529 0.49311,1.42857 -2.85715,1.42857"
       id="path3040"
       inkscape:connector-curvature="0"
       transform="translate(0,-10.629368)" />
    <path
       style="fill:none;stroke:#000000;stroke-width:1px;stroke-linecap:butt;stroke-linejoin:miter;stroke-opacity:1"
       d="m 800,442.99207 c 0,-1.90477 -1.90476,-5.71429 0,-5.71429 1.90476,0 -1.34687,7.06116 0,5.71429 1.71693,-1.71693 0.5268,-4.88842 1.42857,-7.14286 0.17685,-0.44213 1.09186,0.33672 1.42857,0 0.33672,-0.33672 -0.33671,-1.09186 0,-1.42857 0.33672,-0.33672 1.00266,0.21296 1.42857,0 0.60234,-0.30117 0.82624,-1.12741 1.42858,-1.42857 0.42591,-0.21296 0.95238,0 1.42857,0 0.47619,0 1.00265,-0.21296 1.42857,0 0.60234,0.30116 1.1274,0.82623 1.42857,1.42857 0.18782,0.37563 0,4.96725 0,5.71428 0,0.47619 0,0.95238 0,1.42857 0,0.47619 0.21296,1.00266 0,1.42858 -0.30117,0.60233 -1.1274,0.82623 -1.42857,1.42857 -0.57143,1.14285 0.57143,3.14285 0,4.28571 -0.30117,0.60234 -1.1274,0.82623 -1.42857,1.42857 -0.42592,0.85184 0.42591,2.00531 0,2.85715 -0.30117,0.60233 -1.1274,0.82623 -1.42857,1.42857 -0.42592,0.85183 0.42591,2.0053 0,2.85714 -1.76529,3.53058 -1.42858,-0.49311 -1.42858,2.85714 0,0.47619 0,0.95238 0,1.42857 0,0.47619 -0.33671,1.09186 0,1.42858 0.33672,0.33671 1.09186,0.33671 1.42858,0 0.33671,-0.33672 -0.33672,-1.09186 0,-1.42858 0.67343,-0.67343 2.0053,0.42592 2.85714,0 0.60234,-0.30117 0.82623,-1.1274 1.42857,-1.42857 0.56642,-0.28321 3.99366,0.29205 4.28571,0 0.33672,-0.33671 -0.33671,-1.09185 0,-1.42857 0.33672,-0.33672 1.09186,-0.33672 1.42858,0 1.90476,1.90476 -2.38096,1.42857 1.42857,1.42857"
       id="path3042"
       inkscape:connector-curvature="0"
       transform="translate(0,-10.629368)" />
    <path
       style="fill:none;stroke:#000000;stroke-width:1px;stroke-linecap:butt;stroke-linejoin:miter;stroke-opacity:1"
       d="m 628.57143,481.56349 c -2.96067,11.84267 -2.34741,2.44804 0,7.14286 0.57143,1.14286 -0.57143,3.14286 0,4.28572 0.30117,0.60233 1.1274,0.82623 1.42857,1.42857 0.28321,0.56641 -0.29205,3.99366 0,4.28571 0.33672,0.33672 1.09185,-0.33672 1.42857,0 0.67344,0.67344 -0.42592,2.00531 0,2.85714 0.30117,0.60234 1.1274,0.82624 1.42857,1.42858 0.95238,1.90476 -1.42857,1.42857 1.42857,1.42857"
       id="path3044"
       inkscape:connector-curvature="0"
       transform="translate(0,-10.629368)" />
    <path
       style="fill:none;stroke:#000000;stroke-width:1px;stroke-linecap:butt;stroke-linejoin:miter;stroke-opacity:1"
       d="m 621.42857,485.84921 c 0.47619,-1.90476 0.95238,-3.80953 1.42857,-5.71429 0.47619,0 1.09186,0.33672 1.42857,0 0.33672,-0.33671 -0.33671,-1.09185 0,-1.42857 0.33672,-0.33672 1.09186,0.33672 1.42858,0 0.33671,-0.33672 -0.33672,-1.09185 0,-1.42857 0.33671,-0.33672 1.00265,0.21296 1.42857,0 0.60234,-0.30117 0.82623,-1.1274 1.42857,-1.42857 0.42592,-0.21296 0.95238,0 1.42857,0 0.47619,0 0.95238,0 1.42857,0 0.47619,0 0.95238,0 1.42857,0 0.47619,0 1.09186,-0.33672 1.42857,0 0.33672,0.33672 -0.33671,1.09185 0,1.42857 0.33672,0.33672 1.09186,-0.33672 1.42858,0 0.33671,0.33672 -0.33672,1.09185 0,1.42857 0.33671,0.33672 1.09185,-0.33672 1.42857,0 0.33671,0.33672 -0.33672,1.09186 0,1.42857 0.33671,0.33672 1.09185,-0.33671 1.42857,0 0.33672,0.33672 0,0.95238 0,1.42857 0,0.47619 0.33672,1.09186 0,1.42858 -0.33672,0.33671 -1.09186,-0.33672 -1.42857,0 -0.33672,0.33671 0.33671,1.09185 0,1.42857 -0.33672,0.33671 -1.09186,-0.33672 -1.42857,0 -0.33672,0.33671 0.33671,1.09185 0,1.42857 -0.33672,0.33672 -0.95239,0 -1.42858,0 0,0.47619 0.33672,1.09185 0,1.42857 -0.33671,0.33672 -1.09185,-0.33672 -1.42857,0 -0.33671,0.33672 0.33672,1.09185 0,1.42857 -0.33671,0.33672 -1.09185,-0.33672 -1.42857,0 -0.33672,0.33672 0.33672,1.09186 0,1.42857 -0.33672,0.33672 -1.42857,0.47619 -1.42857,0 0,-0.47619 0.95238,0 1.42857,0"
       id="path3046"
       inkscape:connector-curvature="0"
       transform="translate(0,-10.629368)" />
    <path
       style="fill:none;stroke:#000000;stroke-width:1px;stroke-linecap:butt;stroke-linejoin:miter;stroke-opacity:1"
       d="m 645.71429,472.99207 c 1.90476,-1.42858 3.80952,-2.85715 5.71428,-4.28572 0,0.47619 -0.33672,1.09186 0,1.42857 0.33672,0.33672 1.09186,-0.33671 1.42857,0 0.33672,0.33672 -0.33671,1.09186 0,1.42857 0.33672,0.33672 1.09186,-0.33671 1.42857,0 0.33672,0.33672 0,0.95238 0,1.42858 0,0.52462 0.0575,5.65679 0,5.71428 -0.33671,0.33672 -1.09185,-0.33672 -1.42857,0 -0.33671,0.33672 0,0.95238 0,1.42857 -0.47619,0 -1.09185,-0.33671 -1.42857,0 -0.33672,0.33672 0.21296,1.00266 0,1.42857 -0.18596,0.37193 -2.54532,1.7404 -1.42857,2.85715 0.33672,0.33671 1.09185,0.33671 1.42857,0 0.33672,-0.33672 -0.33672,-1.09186 0,-1.42857 0.0575,-0.0575 5.18966,0 5.71429,0 0.47619,0 1.09185,-0.33672 1.42857,0 0.33672,0.33671 -0.33672,1.09185 0,1.42857 0.33672,0.33671 1.09185,-0.33672 1.42857,0 0.33672,0.33671 -0.33672,1.09185 0,1.42857 0.33672,0.33672 1.09185,-0.33672 1.42857,0 0.33672,0.33672 -0.21296,1.00265 0,1.42857 0.30117,0.60234 1.1274,0.82623 1.42857,1.42857 0.21296,0.42592 0,0.95238 0,1.42857 0,0.47619 0.33672,1.09186 0,1.42857 -0.33671,0.33672 -1.09185,-0.33671 -1.42857,0 -0.33672,0.33672 0.21296,1.00266 0,1.42858 -0.30117,0.60233 -0.95238,0.95238 -1.42857,1.42857 -0.47619,0.47619 -0.82623,1.1274 -1.42857,1.42857 -0.42592,0.21296 -1.00266,-0.21296 -1.42857,0 -0.60234,0.30117 -0.82624,1.1274 -1.42857,1.42857 -0.42592,0.21296 -1.09186,-0.33672 -1.42858,0 -0.33671,0.33672 -0.33671,1.09185 0,1.42857 0.33672,0.33672 1.09186,0.33672 1.42858,0 0.33671,-0.33672 0,-0.95238 0,-1.42857"
       id="path3048"
       inkscape:connector-curvature="0"
       transform="translate(0,-10.629368)" />
    <path
       style="fill:none;stroke:#000000;stroke-width:1px;stroke-linecap:butt;stroke-linejoin:miter;stroke-opacity:1"
       d="m 478.57143,390.13492 c 4.19759,0 0.50533,-1.84649 0,-2.85714 -0.42592,-0.85184 0.67343,-2.18371 0,-2.85714 -0.33672,-0.33672 -1.09186,0.33671 -1.42857,0 -0.67344,-0.67344 0.42591,-2.00531 0,-2.85715 -2.10201,-4.20401 -1.42857,2.21755 -1.42857,-4.28571 -0.54294,-1.62882 -3.71819,-1.70009 -2.85715,-4.28571 -0.23098,-0.92395 0.30117,-1.95364 0,-2.85715 -0.21296,-0.63887 -1.21561,-0.78969 -1.42857,-1.42857 -0.30117,-0.90351 0,-1.90476 0,-2.85714 0,-0.47619 0.21296,-1.00266 0,-1.42857 -0.30117,-0.60234 -1.21561,-0.7897 -1.42857,-1.42857 -0.91597,-2.74792 2.11931,-6.20601 -1.42857,-8.57143 7.55119,-4.53072 4.36621,-4.28572 8.57143,-4.28572 0.47619,0 0.95238,0 1.42857,0 0.47619,0 1.09185,-0.33671 1.42857,0 0.33672,0.33672 -0.33672,1.09186 0,1.42857 0.33672,0.33672 1.09185,-0.33671 1.42857,0 0.33672,0.33672 -0.33672,1.09186 0,1.42858 0.33672,0.33671 1.09186,-0.33672 1.42857,0 0.33672,0.33671 -0.33671,1.09185 0,1.42857 0.33672,0.33671 1.09186,-0.33672 1.42857,0 0.33672,0.33671 0,0.95238 0,1.42857 0,0.47619 0.21296,1.00265 0,1.42857 -0.30117,0.60234 -1.1274,0.82623 -1.42857,1.42857 -0.21296,0.42592 0.33672,1.09186 0,1.42857 -0.33671,0.33672 -1.09185,-0.33671 -1.42857,0 -0.33672,0.33672 0.21296,1.00266 0,1.42857 -4.73797,4.73798 0.67344,-1.34687 -1.42857,2.85715 -1.57932,3.15865 -0.88663,0.44331 -2.85714,1.42857 -5.94537,2.97268 1.52719,-0.0986 -1.42857,2.85714 -0.33672,0.33672 -1.09186,-0.33672 -1.42858,0 -0.33671,0.33672 0.33672,1.09186 0,1.42857 -0.33671,0.33672 -1.09185,0.33672 -1.42857,0 -0.33671,-0.33671 0,-0.95238 0,-1.42857"
       id="path3054"
       inkscape:connector-curvature="0"
       transform="translate(0,-10.629368)" />
    <path
       style="fill:none;stroke:#000000;stroke-width:1px;stroke-linecap:butt;stroke-linejoin:miter;stroke-opacity:1"
       d="m 491.42857,347.27778 c 0,2.38095 0,4.7619 0,7.14286 0,0.47619 -0.21296,1.00265 0,1.42857 0.30117,0.60234 1.1274,0.82623 1.42857,1.42857 0.18468,0.36936 0,7.55885 0,8.57143 0,1.42857 0,2.85714 0,4.28571 0,0.47619 0.47619,1.42857 0,1.42857 -0.47619,0 -0.33671,-1.09185 0,-1.42857 0.33672,-0.33671 1.09186,0.33672 1.42857,0 0.33672,-0.33671 -0.33671,-1.09185 0,-1.42857 0.33672,-0.33672 1.09186,0.33672 1.42858,0 0.33671,-0.33672 0,-0.95238 0,-1.42857 0.47619,0 1.09185,0.33672 1.42857,0 0.33671,-0.33672 -0.33672,-1.09185 0,-1.42857 0.67343,-0.67344 2.0053,0.42592 2.85714,0 0.60234,-0.30117 0.82623,-1.1274 1.42857,-1.42857 0.42592,-0.21296 1.09186,0.33671 1.42857,0 0.33672,-0.33672 -0.33671,-1.09186 0,-1.42857 0.29205,-0.29206 3.7193,0.2832 4.28572,0 0.60234,-0.30117 0.82623,-1.12741 1.42857,-1.42858 0.42592,-0.21295 1.00265,0.21296 1.42857,0 0.60234,-0.30117 0.82623,-1.1274 1.42857,-1.42857 0.42592,-0.21296 1.42857,-0.47619 1.42857,0 0,0.47619 -0.95238,0 -1.42857,0"
       id="path3056"
       inkscape:connector-curvature="0"
       transform="translate(0,-10.629368)" />
    <path
       style="fill:none;stroke:#000000;stroke-width:1px;stroke-linecap:butt;stroke-linejoin:miter;stroke-opacity:1"
       d="m 501.42857,351.56349 c -0.23987,0.95951 -2.11722,6.50549 -1.42857,8.57143 0.21296,0.63888 1.1274,0.82624 1.42857,1.42857 0.3777,0.75539 -0.174,5.0183 0,5.71429 0.25825,1.033 1.17032,1.82414 1.42857,2.85714 0.34648,1.38592 -0.45175,2.93046 0,4.28572 0.33672,1.01015 1.09186,1.84699 1.42857,2.85714 0.30117,0.90351 -0.42591,2.00531 0,2.85714 1.76529,3.53058 1.42858,-0.49311 1.42858,2.85715"
       id="path3058"
       inkscape:connector-curvature="0"
       transform="translate(0,-10.629368)" />
    <path
       style="fill:none;stroke:#000000;stroke-width:1px;stroke-linecap:butt;stroke-linejoin:miter;stroke-opacity:1"
       d="m 617.14286,175.84921 c 0.47619,1.90476 0.69939,3.89133 1.42857,5.71428 0.25011,0.62527 1.1274,0.82624 1.42857,1.42858 0.44894,0.89788 -0.44894,4.81639 0,5.71428 0.30117,0.60234 1.1274,0.82623 1.42857,1.42857 0.28321,0.56642 -0.29205,3.99366 0,4.28572 0.33672,0.33671 1.09186,-0.33672 1.42857,0 0.71429,0.71428 -0.71428,3.57143 0,4.28571 1.90476,1.90476 1.42857,-2.38095 1.42857,1.42857"
       id="path3060"
       inkscape:connector-curvature="0"
       transform="translate(0,-10.629368)" />
    <path
       style="fill:none;stroke:#000000;stroke-width:1px;stroke-linecap:butt;stroke-linejoin:miter;stroke-opacity:1"
       d="m 610,174.42064 c 6.09524,-4.57143 3.33333,-4.28572 7.14286,-4.28572 0.47619,0 1.09185,0.33672 1.42857,0 0.33672,-0.33671 -0.33672,-1.09185 0,-1.42857 0.33672,-0.33672 0.95238,0 1.42857,0 0.74703,0 5.33866,-0.18781 5.71429,0 0.60233,0.30117 0.82623,1.1274 1.42857,1.42857 0.42591,0.21296 1.09185,-0.33671 1.42857,0 0.33672,0.33672 0,0.95238 0,1.42857 0,0.47619 0,0.95238 0,1.42858 0,0.47619 0,0.95238 0,1.42857 0,0.47619 0.21296,1.00265 0,1.42857 -0.30117,0.60234 -1.1274,0.82623 -1.42857,1.42857 -0.21296,0.42592 0.33671,1.09185 0,1.42857 -0.33672,0.33672 -1.09186,-0.33672 -1.42857,0 -0.33672,0.33672 0.33671,1.09186 0,1.42857 -2.95577,2.95577 0.11554,-4.5168 -2.85715,1.42857 -0.21296,0.42592 0.33672,1.09186 0,1.42858 -0.85376,0.85375 -2.85714,-1.54412 -2.85714,1.42857 0,0.47619 0.95238,0 1.42857,0"
       id="path3062"
       inkscape:connector-curvature="0"
       transform="translate(0,-10.629368)" />
    <path
       style="fill:none;stroke:#000000;stroke-width:1px;stroke-linecap:butt;stroke-linejoin:miter;stroke-opacity:1"
       d="m 645.71429,188.70635 c 0,0.47619 0,0.95238 0,1.42857 0,0.47619 -0.33672,1.09186 0,1.42857 1.11675,1.11676 2.48521,-1.2426 2.85714,-1.42857 0.42592,-0.21296 1.00265,0.21296 1.42857,0 0.60234,-0.30117 0.82623,-1.1274 1.42857,-1.42857 0.42592,-0.21296 1.09186,0.33672 1.42857,0 0.33672,-0.33672 -0.33671,-1.09185 0,-1.42857 0.33672,-0.33672 1.09186,0.33672 1.42857,0 0.33672,-0.33672 -0.33671,-1.09185 0,-1.42857 0.33672,-0.33672 1.09186,0.33672 1.42858,0 0.33671,-0.33672 -0.33672,-1.09186 0,-1.42857 0.33671,-0.33672 1.09185,0.33671 1.42857,0 0.33671,-0.33672 -0.21296,-1.00266 0,-1.42857 0.30117,-0.60234 1.1274,-0.82624 1.42857,-1.42858 0.21296,-0.42591 0,-0.95238 0,-1.42857 0,-0.47619 0.21296,-1.00265 0,-1.42857 -0.18965,-0.3793 -3.90641,-4.09606 -4.28572,-4.28571 -0.43476,-0.21738 -3.64234,0 -4.28571,0 -0.47619,0 -1.09185,-0.33672 -1.42857,0 -0.33672,0.33671 0.33672,1.09185 0,1.42857 -0.33672,0.33672 -1.09186,-0.33672 -1.42857,0 -0.33672,0.33672 0.33671,1.09185 0,1.42857 -0.67344,0.67343 -2.00531,-0.42592 -2.85715,0 -0.60233,0.30117 -0.95238,0.95238 -1.42857,1.42857 -0.27894,0.27895 -2.47957,1.80614 -1.42857,2.85714 0.33672,0.33672 1.09186,0.33672 1.42857,0 0.33672,-0.33671 0,-0.95238 0,-1.42857 0,-0.74703 0.18782,-5.33865 0,-5.71428 -0.30117,-0.60234 -1.1274,-0.82624 -1.42857,-1.42857 -0.21296,-0.42592 0,-0.95239 0,-1.42858 0,-2.85714 0,-5.71428 0,-8.57142 1.14528,-6.02128 4.9711,-0.34269 7.14286,-1.42858 0.60234,-0.30117 0.82623,-1.1274 1.42857,-1.42857 0.85184,-0.42592 2.18371,0.67344 2.85714,0 0.33672,-0.33671 -0.33671,-1.09185 0,-1.42857 0.33672,-0.33672 1.09186,0.33672 1.42857,0 0.33672,-0.33672 -0.33671,-1.09185 0,-1.42857 0.046,-0.0459 3.93925,0 4.28572,0"
       id="path3067"
       inkscape:connector-curvature="0"
       transform="translate(0,-10.629368)" />
    <path
       style="fill:none;stroke:#000000;stroke-width:1px;stroke-linecap:butt;stroke-linejoin:miter;stroke-opacity:1"
       d="m 775.71429,327.27778 c 0,-1.01257 0.18467,-8.20207 0,-8.57143 -0.30117,-0.60234 -1.12741,-0.82623 -1.42858,-1.42857 -0.21295,-0.42592 0,-0.95238 0,-1.42857 0,-0.95238 0.30117,-1.95364 0,-2.85714 -0.21295,-0.63888 -1.21561,-0.7897 -1.42857,-1.42858 -0.506,-1.51801 0.50601,-4.19626 0,-5.71428 -0.33671,-1.01015 -1.09185,-1.84699 -1.42857,-2.85714 -0.68839,-2.06518 1.85716,-8.05591 -1.42857,-8.57143 0.47619,-2.85714 0.5126,-5.82352 1.42857,-8.57143 0.30117,-0.90351 2.00531,0.42592 2.85714,0 0.60234,-0.30117 0.82624,-1.1274 1.42858,-1.42857 0.42591,-0.21296 0.95238,0 1.42857,0 0.47619,0 1.00265,-0.21296 1.42857,0 0.60234,0.30117 0.82623,1.1274 1.42857,1.42857 0.56642,0.28321 3.99366,-0.29205 4.28571,0 0.33672,0.33672 -0.33671,1.09185 0,1.42857 0.33672,0.33672 1.09186,-0.33672 1.42858,0 0.33671,0.33672 -0.33672,1.09185 0,1.42857 0.33671,0.33672 1.09185,-0.33672 1.42857,0 0.33671,0.33672 -0.33672,1.09186 0,1.42857 0.33671,0.33672 1.09185,-0.33671 1.42857,0 0.20146,0.20147 0.14652,3.99268 0,4.28572 -0.60234,1.20467 -2.25481,1.65246 -2.85714,2.85714 -0.21296,0.42592 0.21295,1.00265 0,1.42857 -0.60234,1.20468 -2.25481,1.65247 -2.85715,2.85714 -0.21296,0.42592 0.33672,1.09186 0,1.42858 -0.33671,0.33671 -1.00265,-0.21296 -1.42857,0 -0.60234,0.30116 -0.82623,1.1274 -1.42857,1.42857 -0.42592,0.21296 -1.09185,-0.33672 -1.42857,0 -0.33672,0.33671 0.33672,1.09185 0,1.42857 -0.67344,0.67343 -2.00531,-0.42592 -2.85714,0 -0.60234,0.30117 -0.75514,1.42857 -1.42858,1.42857 -0.47619,0 0,-0.95238 0,-1.42857"
       id="path3070"
       inkscape:connector-curvature="0"
       transform="translate(0,-10.629368)" />
    <path
       style="fill:none;stroke:#000000;stroke-width:1px;stroke-linecap:butt;stroke-linejoin:miter;stroke-opacity:1"
       d="m 800,282.99207 c -0.47619,1.90476 -1.04352,3.78903 -1.42857,5.71428 -0.32181,1.60907 0,4.17813 0,5.71429 0,3.80952 0,7.61904 0,11.42857 0,0.52462 -0.0575,5.6568 0,5.71428 0.33672,0.33672 1.09185,-0.33671 1.42857,0 2.95577,2.95577 -4.5168,-0.11554 1.42857,2.85715 1.67513,0.83756 1.69555,-0.84778 2.85714,-1.42857 0.42592,-0.21296 1.09186,0.33671 1.42858,0 0.33671,-0.33672 -0.33672,-1.09186 0,-1.42858 0.33671,-0.33671 1.00265,0.21296 1.42857,0 0.60234,-0.30117 0.82623,-1.1274 1.42857,-1.42857 0.42592,-0.21296 1.09185,0.33672 1.42857,0 0.67344,-0.67343 -0.42592,-2.0053 0,-2.85714 0.5808,-1.16159 2.26613,-1.18202 1.42857,-2.85714 -0.30117,-0.60234 -1.1274,-0.82624 -1.42857,-1.42857 -0.42592,-0.85184 0.67344,-2.18371 0,-2.85715 -0.33672,-0.33671 -1.09185,0.33672 -1.42857,0 -0.33672,-0.33671 0.33672,-1.09185 0,-1.42857 -0.67344,-0.67343 -2.18371,0.67344 -2.85714,0 -0.33672,-0.33672 0.33671,-1.09185 0,-1.42857 -0.33672,-0.33672 -0.95239,0 -1.42858,0 -0.47619,0 -1.09185,-0.33672 -1.42857,0 -0.33671,0.33672 0.33672,1.09185 0,1.42857 -0.33671,0.33672 -1.09185,-0.33672 -1.42857,0 -0.33672,0.33672 0.21296,1.00265 0,1.42857 -0.60234,1.20468 -2.2548,1.65247 -2.85714,2.85715 -0.14652,0.29304 -0.20147,4.08424 0,4.28571 0.33672,0.33672 0.95238,0 1.42857,0"
       id="path3072"
       inkscape:connector-curvature="0"
       transform="translate(0,-10.629368)" />
    <path
       style="fill:none;stroke:#000000;stroke-width:1px;stroke-linecap:butt;stroke-linejoin:miter;stroke-opacity:1"
       d="m 598.57143,384.42064 c 6.02127,1.14527 0.34269,4.97109 1.42857,7.14285 0.30117,0.60234 1.1274,0.82624 1.42857,1.42858 0.21296,0.42591 -0.21296,1.00265 0,1.42857 0.30117,0.60234 1.1274,0.82623 1.42857,1.42857 0.21296,0.42592 -0.21296,1.00265 0,1.42857 0.60234,1.20468 2.25481,1.65247 2.85715,2.85714 0.21295,0.42592 -0.21296,1.00266 0,1.42857 0.30117,0.60234 1.1274,0.82624 1.42857,1.42858 0.21296,0.42591 -0.21296,1.00265 0,1.42857 0.30117,0.60234 1.1274,0.82623 1.42857,1.42857 2.10201,4.20401 -3.3094,-1.88083 1.42857,2.85714"
       id="path3080"
       inkscape:connector-curvature="0"
       transform="translate(0,-10.629368)" />
    <path
       style="fill:none;stroke:#000000;stroke-width:1px;stroke-linecap:butt;stroke-linejoin:miter;stroke-opacity:1"
       d="m 591.42857,385.84921 c 0.95238,-1.90476 1.57939,-4.01062 2.85714,-5.71429 0.57143,-0.7619 2.18371,0.67344 2.85715,0 0.33671,-0.33671 -0.33672,-1.09185 0,-1.42857 0.33671,-0.33672 1.00265,0.21296 1.42857,0 0.60234,-0.30117 0.82623,-1.1274 1.42857,-1.42857 0.85184,-0.42592 2.00531,0.42592 2.85714,0 0.60234,-0.30117 0.82624,-1.1274 1.42857,-1.42857 0.0747,-0.0374 4.21098,-0.0374 4.28572,0 0.60234,0.30117 0.82623,1.1274 1.42857,1.42857 0.85184,0.42592 2.18371,-0.67344 2.85714,0 0.33672,0.33672 -0.33671,1.09185 0,1.42857 0.33672,0.33672 1.00266,-0.21296 1.42857,0 0.60234,0.30117 0.82624,1.1274 1.42858,1.42857 1.90476,0.95238 1.42857,-1.42857 1.42857,1.42857 0,0.47619 0.33671,1.09186 0,1.42858 -0.33672,0.33671 -1.09186,-0.33672 -1.42857,0 -0.33672,0.33671 0.21295,1.00265 0,1.42857 -0.30117,0.60234 -1.12741,0.82623 -1.42858,1.42857 -0.21295,0.42592 0.33672,1.09185 0,1.42857 -0.33671,0.33672 -1.09185,-0.33672 -1.42857,0 -2.95576,2.95576 4.5168,-0.11554 -1.42857,2.85714 -0.42592,0.21296 -1.09185,-0.33671 -1.42857,0 -0.33672,0.33672 0.33672,1.09186 0,1.42857 -0.33672,0.33672 -1.42857,0.47619 -1.42857,0 0,-0.47619 0.95238,0 1.42857,0"
       id="path3082"
       inkscape:connector-curvature="0"
       transform="translate(0,-10.629368)" />
    <path
       style="fill:none;stroke:#000000;stroke-width:1px;stroke-linecap:butt;stroke-linejoin:miter;stroke-opacity:1"
       d="m 618.57143,370.13492 c 6.1402,-3.0701 3.5847,-2.85714 7.14286,-2.85714 0.47619,0 1.09185,0.33672 1.42857,0 0.33671,-0.33672 -0.33672,-1.09185 0,-1.42857 0.14285,-0.14286 4.14285,-0.14286 4.28571,0 0.0575,0.0575 0,5.18966 0,5.71428 0,0.98646 -0.21717,5.27995 0,5.71429 0.30117,0.60234 1.1274,0.82623 1.42857,1.42857 0.21296,0.42592 0,0.95238 0,1.42857 0,0.95238 -0.30117,1.95364 0,2.85715 0.21296,0.63887 1.1274,0.82623 1.42857,1.42857 0.31785,0.63568 -0.2178,5.06087 0,5.71428 0.21296,0.63888 1.12741,0.82624 1.42858,1.42857 0.21295,0.42592 -0.21296,1.00266 0,1.42858 0.30117,0.60233 1.1274,0.82623 1.42857,1.42857 0.21296,0.42591 0,0.95238 0,1.42857 0,0.47619 0,0.95238 0,1.42857"
       id="path3084"
       inkscape:connector-curvature="0"
       transform="translate(0,-10.629368)" />
    <path
       style="fill:none;stroke:#000000;stroke-width:1px;stroke-linecap:butt;stroke-linejoin:miter;stroke-opacity:1"
       d="m 622.85714,385.84921 c 1.90476,-1.42857 4.28572,-6.19048 5.71429,-4.28572 1.42857,1.90477 -7.39787,5.96931 -5.71429,4.28572 2.15605,-2.15605 4.60585,-4.02295 7.14286,-5.71429 0.79243,-0.52828 2.18371,0.67344 2.85714,0 0.33672,-0.33671 -0.33671,-1.09185 0,-1.42857 0.67344,-0.67343 2.18371,0.67344 2.85715,0 0.33671,-0.33672 -0.33672,-1.09185 0,-1.42857 0.71428,-0.71429 3.57142,0.71429 4.28571,0 0.33672,-0.33672 -0.47619,-1.42857 0,-1.42857 0.47619,0 0,0.95238 0,1.42857"
       id="path3086"
       inkscape:connector-curvature="0"
       transform="translate(0,-10.629368)" />
    <path
       style="fill:none;stroke:#000000;stroke-width:1px;stroke-linecap:butt;stroke-linejoin:miter;stroke-opacity:1"
       d="m 478.57143,550.13492 c 0,-0.47619 0,-0.95238 0,-1.42857 0,-0.47619 0.21296,-1.00265 0,-1.42857 -0.85714,-1.71429 -3.42857,-2.57143 -4.28572,-4.28571 -0.21295,-0.42592 0,-0.95239 0,-1.42858 -0.47619,-0.95238 -0.95238,-1.90476 -1.42857,-2.85714 -0.37355,-0.56033 -1.21561,-0.78969 -1.42857,-1.42857 -0.30117,-0.90351 0.30117,-1.95364 0,-2.85714 -0.42592,-1.27776 -2.43122,-1.57939 -2.85714,-2.85715 -0.30117,-0.9035 0.30117,-1.95363 0,-2.85714 -0.3323,-0.99689 -8.5468,-6.93659 -5.71429,-8.57143 -0.47619,-2.38095 -1.42857,-4.71475 -1.42857,-7.14285 0,-2.36899 2.00339,-1.0017 2.85714,-1.42858 0.60234,-0.30117 0.82624,-1.1274 1.42858,-1.42857 0.12178,-0.0609 5.5925,-0.0609 5.71428,0 0.60234,0.30117 0.82623,1.1274 1.42857,1.42857 0.85184,0.42592 2.18371,-0.67343 2.85715,0 0.33671,0.33672 -0.33672,1.09186 0,1.42858 0.33671,0.33671 1.09185,-0.33672 1.42857,0 0.33671,0.33671 -0.33672,1.09185 0,1.42857 0.33671,0.33671 1.09185,-0.33672 1.42857,0 0.33672,0.33671 0,0.95238 0,1.42857 0,0.47619 0,0.95238 0,1.42857 0,0.47619 0.21296,1.00265 0,1.42857 -0.30117,0.60234 -0.95238,0.95238 -1.42857,1.42857 -0.84021,0.84021 -5.38352,5.05275 -5.71429,5.71429 -0.21296,0.42592 0,0.95238 0,1.42857"
       id="path3088"
       inkscape:connector-curvature="0"
       transform="translate(0,-10.629368)" />
    <path
       style="fill:none;stroke:#000000;stroke-width:1px;stroke-linecap:butt;stroke-linejoin:miter;stroke-opacity:1"
       d="m 491.42857,502.99207 c -1.90476,0.95238 -4.7619,4.7619 -5.71428,2.85714 -0.95239,-1.90476 6.66666,-4.76191 5.71428,-2.85714 -1.3636,2.7272 -4.98681,3.55824 -7.14286,5.71428 -0.33671,0.33672 0.21296,1.00265 0,1.42857 -0.30117,0.60234 -1.1274,0.82624 -1.42857,1.42857 -0.0374,0.0747 -0.0374,4.21098 0,4.28572 2.97269,5.94537 -0.0986,-1.5272 2.85715,1.42857 0.33671,0.33672 -0.33672,1.09185 0,1.42857 0.33671,0.33672 0.95238,0 1.42857,0 2.38095,0 4.7619,0 7.14285,0 0.47619,0 0.95239,0 1.42858,0 0.47619,0 1.09185,0.33672 1.42857,0 0.33671,-0.33672 -0.33672,-1.09185 0,-1.42857 0.14285,-0.14286 4.14285,-0.14286 4.28571,0 0.33672,0.33672 -0.33672,1.09185 0,1.42857 0.67344,0.67344 2.18371,-0.67343 2.85714,0 0.33672,0.33672 -0.33671,1.09186 0,1.42857 0.33672,0.33672 1.09186,-0.33671 1.42858,0 0.33671,0.33672 -0.33672,1.09186 0,1.42857 0.33671,0.33672 1.09185,-0.33671 1.42857,0 0.33671,0.33672 0,0.95238 0,1.42858 0,0.47619 0,0.95238 0,1.42857 0,0.47619 0,0.95238 0,1.42857 0,0.47619 0.21296,1.00265 0,1.42857 -0.30117,0.60234 -1.1274,0.82623 -1.42857,1.42857 -0.21296,0.42592 0.33671,1.09186 0,1.42857 -0.33672,0.33672 -1.00266,-0.21296 -1.42858,0 -0.60233,0.30117 -0.82623,1.1274 -1.42857,1.42857 -0.37563,0.18782 -4.96725,0 -5.71428,0 -0.47619,0 -0.95238,0 -1.42857,0 -0.47619,0 -1.09186,0.33672 -1.42858,0 0,-3.80952 0.47619,0.47619 -1.42857,-1.42857 -0.33671,-0.33671 0,-0.95238 0,-1.42857 0,-0.67357 -0.0647,-7.07811 0,-7.14286 0.33672,-0.33671 1.09186,0.33672 1.42857,0 0.67344,-0.67343 -0.67343,-2.1837 0,-2.85714 0.33672,-0.33672 1.09186,0.33672 1.42858,0 0.33671,-0.33672 0,-0.95238 0,-1.42857 0,-0.47619 0,-0.95238 0,-1.42857 0,-0.52463 0.0575,-5.6568 0,-5.71429 -0.33672,-0.33671 -0.95239,0 -1.42858,0 -0.95238,-2.38095 -1.90476,-4.7619 -2.85714,-7.14285 z"
       id="path3090"
       inkscape:connector-curvature="0"
       transform="translate(0,-10.629368)" />
    <path
       style="fill:none;stroke:#000000;stroke-width:1px;stroke-linecap:butt;stroke-linejoin:miter;stroke-opacity:1"
       d="m 744.28571,600.13492 c 0.95239,1.90476 4.76191,4.76191 2.85715,5.71429 -1.90476,0.95238 -4.36299,-7.22013 -2.85715,-5.71429 1.96339,1.96339 2.74551,4.83255 4.28572,7.14286 2.36899,3.55348 0.32826,0.16413 2.85714,1.42857 0.60234,0.30117 0.95238,0.95238 1.42857,1.42857 0.47619,0.47619 1.1274,0.82624 1.42857,1.42857 0.21296,0.42592 -0.21295,1.00266 0,1.42858 3.01177,6.02352 -0.15462,-3.16639 2.85715,2.85714 0.21296,0.42592 -0.21296,1.00265 0,1.42857 0.30117,0.60234 1.1274,0.82623 1.42857,1.42857 0.95238,1.90476 -1.42857,1.42857 1.42857,1.42857"
       id="path3092"
       inkscape:connector-curvature="0"
       transform="translate(0,-10.629368)" />
    <path
       style="fill:none;stroke:#000000;stroke-width:1px;stroke-linecap:butt;stroke-linejoin:miter;stroke-opacity:1"
       d="m 737.14286,604.42064 c 0,-14.23786 -1.34687,-1.59198 1.42857,-7.14286 0.21296,-0.42592 -0.33672,-1.09185 0,-1.42857 2.95576,-2.95577 -0.11554,4.5168 2.85714,-1.42857 0.21296,-0.42592 -0.21296,-1.00266 0,-1.42857 0.60234,-1.20468 2.25481,-1.65247 2.85714,-2.85715 0.21296,-0.42592 -0.21295,-1.00265 0,-1.42857 0.30117,-0.60234 0.95239,-0.95238 1.42858,-1.42857 0.47619,-0.47619 0.82623,-1.1274 1.42857,-1.42857 0.42591,-0.21296 1.00265,0.21296 1.42857,0 0.60234,-0.30117 0.82623,-1.1274 1.42857,-1.42857 0.43476,-0.21738 3.64235,0 4.28571,0 3.80953,0 -0.47619,-0.47619 1.42858,1.42857 2.95576,2.95576 -0.11555,-4.5168 2.85714,1.42857 0.0374,0.0747 0.0374,4.21098 0,4.28571 -0.30117,0.60234 -1.1274,0.82624 -1.42857,1.42858 -0.21296,0.42591 0.33671,1.09185 0,1.42857 -0.33672,0.33671 -1.09186,-0.33672 -1.42857,0 -0.33672,0.33671 0.21295,1.00265 0,1.42857 -0.85715,1.71428 -3.42858,2.57143 -4.28572,4.28571 -0.21296,0.42592 0.33672,1.09186 0,1.42857 -0.33672,0.33672 -1.09185,-0.33671 -1.42857,0 -0.33672,0.33672 0.33672,1.09186 0,1.42858 -0.33672,0.33671 -1.09185,-0.33672 -1.42857,0 -0.89425,0.89424 1.42857,4.18771 1.42857,0"
       id="path3094"
       inkscape:connector-curvature="0"
       transform="translate(0,-10.629368)" />
    <path
       style="fill:none;stroke:#000000;stroke-width:1px;stroke-linecap:butt;stroke-linejoin:miter;stroke-opacity:1"
       d="m 777.14286,570.13492 c -1.90476,0 -5.71429,1.90476 -5.71429,0 0,-1.90476 6.56612,-1.70367 5.71429,0 -1.14682,2.29364 -4.84922,1.71033 -7.14286,2.85715 -3.15865,1.57932 -0.44332,0.88663 -1.42857,2.85714 -0.30117,0.60234 -1.1274,0.82623 -1.42857,1.42857 -0.0797,0.15945 -0.0797,6.98341 0,7.14286 0.30117,0.60234 1.1274,0.82623 1.42857,1.42857 0.21296,0.42592 -0.33672,1.09185 0,1.42857 0.67343,0.67343 2.18371,-0.67344 2.85714,0 0.33672,0.33672 -0.33672,1.09185 0,1.42857 0.14286,0.14286 4.14286,0.14286 4.28572,0 0.33671,-0.33672 -0.33672,-1.09185 0,-1.42857 0.33671,-0.33672 1.00265,0.21296 1.42857,0 0.60234,-0.30117 0.95238,-0.95238 1.42857,-1.42857 0.47619,-0.47619 1.1274,-0.82623 1.42857,-1.42857 0.42592,-0.85184 -0.67344,-2.18371 0,-2.85715 0.33672,-0.33671 1.09185,0.33672 1.42857,0 0.33672,-0.33671 0,-0.95238 0,-1.42857 0,-0.47619 0,-0.95238 0,-1.42857 0,-0.47619 0.21296,-1.00265 0,-1.42857 -1.24175,-2.48351 -6.66667,-5.71429 -4.28571,-7.14286 2.38095,-1.42857 2.74551,4.83255 4.28571,7.14286 4.73798,4.73797 -0.67343,-1.34687 1.42857,2.85714 0.60234,1.20468 2.25481,1.65247 2.85715,2.85715 0.21295,0.42591 -0.21296,1.00265 0,1.42857 0.30117,0.60234 1.1274,0.82623 1.42857,1.42857 0.21296,0.42592 -0.21296,1.00265 0,1.42857 0.30117,0.60234 1.1274,0.82623 1.42857,1.42857 0.21296,0.42592 -0.21296,1.00265 0,1.42857 0.30117,0.60234 1.1274,0.82624 1.42857,1.42857 0.28321,0.56642 -0.29205,3.99367 0,4.28572 0.33672,0.33672 1.09185,-0.33672 1.42857,0 0.33672,0.33672 0.33672,1.09185 0,1.42857 -0.33672,0.33672 -0.95238,0 -1.42857,0 0,0.47619 0.21296,1.00265 0,1.42857 -1.57932,3.15865 -0.88663,0.44332 -2.85714,1.42857 -0.60234,0.30117 -0.82624,1.1274 -1.42857,1.42857 -0.85184,0.42592 -2.18371,-0.67343 -2.85715,0 -0.33671,0.33672 0.33672,1.09186 0,1.42858 -0.33671,0.33671 -1.09185,0.33671 -1.42857,0 -0.33672,-0.33672 -0.33672,-1.09186 0,-1.42858 0.33672,-0.33671 1.00266,0.21296 1.42857,0 0.60234,-0.30117 0.95238,-0.95238 1.42857,-1.42857"
       id="path3106"
       inkscape:connector-curvature="0"
       transform="translate(0,-10.629368)" />
    <path
       style="fill:none;stroke:#000000;stroke-width:1px;stroke-linecap:butt;stroke-linejoin:miter;stroke-opacity:1"
       d="m 820,622.99207 c -1.77644,2.09665 6.08527,6.45624 7.14286,8.57142 0.21296,0.42592 -0.21296,1.00266 0,1.42858 0.29553,0.59107 3.68019,3.88203 4.28571,4.28571 0.88596,0.59064 1.97118,0.83793 2.85714,1.42857 0.56034,0.37356 0.95239,0.95238 1.42858,1.42857 0.47619,0.47619 1.1274,0.82624 1.42857,1.42857 0.21296,0.42592 -0.33672,1.09186 0,1.42858 0.33671,0.33671 1.00265,-0.21296 1.42857,0 5.94537,2.97268 -1.5272,-0.0986 1.42857,2.85714 1.90476,1.90476 1.42857,-2.38095 1.42857,1.42857"
       id="path3116"
       inkscape:connector-curvature="0"
       transform="translate(0,-10.629368)" />
    <path
       style="fill:none;stroke:#000000;stroke-width:1px;stroke-linecap:butt;stroke-linejoin:miter;stroke-opacity:1"
       d="m 812.85714,627.27778 c 0.94185,-5.90128 1.02024,-5.30595 4.28572,-8.57143 0.47619,-0.47619 1.1274,-0.82623 1.42857,-1.42857 0.21296,-0.42592 -0.33672,-1.09185 0,-1.42857 0.33672,-0.33672 1.00265,0.21296 1.42857,0 1.20468,-0.60234 1.65247,-2.25481 2.85714,-2.85714 0.85184,-0.42592 2.00531,0.42591 2.85715,0 0.60233,-0.30117 0.75513,-1.42858 1.42857,-1.42858 0.67343,0 0.82623,1.12741 1.42857,1.42858 1.97051,0.98525 1.27782,-1.73008 2.85714,1.42857 0.21296,0.42591 -0.33672,1.09185 0,1.42857 0.33672,0.33672 1.09186,-0.33672 1.42857,0 0.33672,0.33672 0,0.95238 0,1.42857 0,0.47619 0,0.95238 0,1.42857 0,0.47619 0,0.95238 0,1.42857 0,0.47619 0.33672,1.09186 0,1.42857 -0.33671,0.33672 -1.09185,-0.33671 -1.42857,0 -0.33672,0.33672 0.21296,1.00266 0,1.42858 -0.18965,0.3793 -3.90641,4.09606 -4.28571,4.28571 -0.42592,0.21296 -1.09186,-0.33672 -1.42857,0 -0.33672,0.33672 -0.33672,1.09185 0,1.42857 0.33671,0.33672 0.95238,0 1.42857,0"
       id="path3118"
       inkscape:connector-curvature="0"
       transform="translate(0,-10.629368)" />
    <path
       style="fill:none;stroke:#000000;stroke-width:1px;stroke-linecap:butt;stroke-linejoin:miter;stroke-opacity:1"
       d="m 842.85714,621.56349 c 4.25918,-1.37549 -1.06479,-5.01326 0,-7.14285 0.30117,-0.60234 1.1274,-0.82624 1.42857,-1.42857 0.22763,-0.45525 0,-5.86612 0,-7.14286 0,-0.95238 0,-1.90476 0,-2.85714 0,-0.4762 -0.47619,-1.42858 0,-1.42858 2.36899,0 1.0017,2.00339 1.42858,2.85715 0.30117,0.60234 1.1274,0.82623 1.42857,1.42857 0.42591,0.85183 -0.67344,2.18371 0,2.85714 0.33671,0.33672 1.09185,-0.33672 1.42857,0 0.33672,0.33672 -0.21296,1.00265 0,1.42857 0.30117,0.60234 1.1274,0.82624 1.42857,1.42857 0.21296,0.42592 -0.21296,1.00266 0,1.42858 0.60234,1.20467 2.2548,1.65246 2.85714,2.85714 0.21296,0.42592 -0.21296,1.00265 0,1.42857 0.30117,0.60234 1.1274,0.82623 1.42857,1.42857 0.21296,0.42592 -0.33671,1.09186 0,1.42857 0.33672,0.33672 1.09186,-0.33671 1.42858,0 0.67343,0.67344 -0.67344,2.18371 0,2.85715 0.33671,0.33671 1.09185,0.33671 1.42857,0 0.33671,-0.33672 0,-0.95239 0,-1.42858"
       id="path3120"
       inkscape:connector-curvature="0"
       transform="translate(0,-10.629368)" />
    <path
       style="fill:none;stroke:#000000;stroke-width:1px;stroke-linecap:butt;stroke-linejoin:miter;stroke-opacity:1"
       d="m 861.42857,590.13492 c -1.42857,1.90476 -2.79834,3.85508 -4.28571,5.71429 -0.71483,0.89353 -2.17136,1.37156 -1.42857,2.85714 0.30117,0.60234 1.21561,0.7897 1.42857,1.42857 0.30117,0.90351 0,1.90476 0,2.85715 0,0.47619 -0.21296,1.00265 0,1.42857 0.60234,1.20467 2.2548,1.65246 2.85714,2.85714 0.98526,1.97051 -1.73008,1.27782 1.42857,2.85714 0.42592,0.21296 1.00266,-0.21296 1.42857,0 0.60234,0.30117 0.82624,1.1274 1.42857,1.42857 0.42592,0.21296 1.09186,-0.33671 1.42858,0 0.33671,0.33672 -0.33672,1.09186 0,1.42858 0.33671,0.33671 0.95238,0 1.42857,0 0.34646,0 4.23977,0.0459 4.28571,0 0.33672,-0.33672 0,-0.95239 0,-1.42858 0,-0.47619 0,-0.95238 0,-1.42857 0,-0.74703 0.18782,-5.33865 0,-5.71428 -0.30117,-0.60234 -1.1274,-0.82624 -1.42857,-1.42857 -0.21296,-0.42592 0,-0.95239 0,-1.42858 -0.47619,-0.47619 -1.1274,-0.82623 -1.42857,-1.42857 -0.21296,-0.42592 0.21296,-1.00265 0,-1.42857 0.2667,-2.94116 -2.19197,-0.59711 -2.85714,-1.42857 -4.91997,-6.14996 -5.36806,-12.55457 -2.85715,0"
       id="path3122"
       inkscape:connector-curvature="0"
       transform="translate(0,-10.629368)" />
    <path
       style="fill:none;stroke:#000000;stroke-width:1px;stroke-linecap:butt;stroke-linejoin:miter;stroke-opacity:1"
       d="m 934.28571,740.13492 c 0,0.47619 -0.47619,1.42857 0,1.42857 0.47619,0 0.33672,-1.09185 0,-1.42857 -1.90476,-1.90476 -1.42857,2.38095 -1.42857,-1.42857 -0.33671,-0.33672 -1.09185,0.33672 -1.42857,0 -0.33672,-0.33672 0.21296,-1.00265 0,-1.42857 -0.30117,-0.60234 -1.1274,-0.82623 -1.42857,-1.42857 -0.21296,-0.42592 0.21296,-1.00266 0,-1.42857 -0.60234,-1.20468 -2.2548,-1.65247 -2.85714,-2.85715 -0.21296,-0.42591 0.21296,-1.00265 0,-1.42857 -0.60234,-1.20467 -2.25481,-1.65246 -2.85715,-2.85714 -0.21295,-0.42592 0.245,-1.02024 0,-1.42857 -1.22499,-2.04165 -2.85714,-3.80953 -4.28571,-5.71429 1.56064,-7.80321 -0.28836,-5.42593 2.85714,-8.57143 0.47619,-0.47619 0.82624,-1.1274 1.42857,-1.42857 0.42592,-0.21296 1.00266,0.21296 1.42858,0 0.60233,-0.30117 0.82623,-1.1274 1.42857,-1.42857 0.42591,-0.21296 0.95238,0 1.42857,0 0.47619,0 0.95238,0 1.42857,0 0.47619,0 0.95238,0 1.42857,0 0.47619,0 1.00266,-0.21296 1.42857,0 0.60234,0.30117 1.1274,0.82623 1.42857,1.42857 0.18782,0.37563 0,4.96726 0,5.71429 0,0.47619 0.33672,1.09185 0,1.42857 -0.33671,0.33672 -1.09185,-0.33672 -1.42857,0 -0.33671,0.33672 0.21296,1.00265 0,1.42857 -0.30117,0.60234 -1.1274,0.82623 -1.42857,1.42857 -0.21296,0.42592 0.21296,1.00266 0,1.42857 -2.97268,5.94538 0.0986,-1.52719 -2.85714,1.42858 -0.33672,0.33671 0.33672,1.09185 0,1.42857 -0.33672,0.33671 -1.09186,-0.33672 -1.42857,0 -0.33672,0.33671 -0.33672,1.09185 0,1.42857 0.33671,0.33672 1.00265,0.21296 1.42857,0 0.60234,-0.30117 0.95238,-0.95238 1.42857,-1.42857"
       id="path3124"
       inkscape:connector-curvature="0"
       transform="translate(0,-10.629368)" />
    <path
       style="fill:none;stroke:#000000;stroke-width:1px;stroke-linecap:butt;stroke-linejoin:miter;stroke-opacity:1"
       d="m 947.14286,718.70635 c 0,-14.23785 -1.34687,-1.59197 1.42857,-7.14286 0.21296,-0.42591 -0.15059,-0.97681 0,-1.42857 0.33672,-1.01015 1.09185,-1.84699 1.42857,-2.85714 0.15058,-0.45175 0,-0.95238 0,-1.42857 0,-1.90476 0,-3.80953 0,-5.71429 0,-0.47619 0,-0.95238 0,-1.42857 0,-0.47619 -0.47619,-1.42857 0,-1.42857 0.95238,0 -0.42592,2.00531 0,2.85714 0.30117,0.60234 1.1274,0.82624 1.42857,1.42857 0.42592,0.85184 -0.42592,2.00531 0,2.85715 0.30117,0.60234 1.1274,0.82623 1.42857,1.42857 0.21296,0.42592 -0.21296,1.00265 0,1.42857 0.30117,0.60234 1.1274,0.82623 1.42857,1.42857 0.21296,0.42592 -0.21295,1.00265 0,1.42857 0.30117,0.60234 1.12741,0.82624 1.42858,1.42857 0.21295,0.42592 -0.21296,1.00266 0,1.42858 0.30117,0.60233 1.21561,0.78969 1.42857,1.42857 0.30117,0.9035 -0.30117,1.95363 0,2.85714 0.21296,0.63888 1.05501,0.86824 1.42857,1.42857 0.47619,0.95238 0.95238,1.90476 1.42857,2.85714 0,0.47619 -0.21296,1.00266 0,1.42858 0.30117,0.60233 1.1274,0.82623 1.42857,1.42857 0.21296,0.42591 -0.33672,1.09185 0,1.42857 0.33672,0.33672 1.09186,0.33672 1.42857,0 0.33672,-0.33672 0.33672,-1.09186 0,-1.42857 -0.33671,-0.33672 -0.95238,0 -1.42857,0"
       id="path3126"
       inkscape:connector-curvature="0"
       transform="translate(0,-10.629368)" />
    <path
       style="fill:none;stroke:#000000;stroke-width:1px;stroke-linecap:butt;stroke-linejoin:miter;stroke-opacity:1"
       d="m 965.71429,705.84921 c 0,-2.85714 0,-5.71429 0,-8.57143 0,-0.47619 -0.21296,-1.00265 0,-1.42857 0.30117,-0.60234 1.1274,-0.82623 1.42857,-1.42857 0.21296,-0.42592 0,-0.95238 0,-1.42857 0,-0.4762 0,-0.95239 0,-1.42858 0,-1.42857 0,-2.85714 0,-4.28571 0,-0.47619 -0.47619,-1.42857 0,-1.42857 0.47619,0 -0.33672,1.09185 0,1.42857 0.33671,0.33672 1.09185,-0.33672 1.42857,0 0.71428,0.71429 -0.71429,3.57143 0,4.28571 0.33672,0.33672 1.09185,-0.33671 1.42857,0 0.33672,0.33672 -0.21296,1.00266 0,1.42858 4.73797,4.73797 -0.67344,-1.34687 1.42857,2.85714 0.60234,1.20468 2.43123,1.57939 2.85714,2.85714 0.30117,0.90351 -0.30117,1.95364 0,2.85714 0.32246,0.96736 3.74008,3.19445 4.28572,4.28572 0.21296,0.42592 -0.21296,1.00265 0,1.42857 0.30117,0.60234 1.1274,0.82623 1.42857,1.42857 0.21296,0.42592 -0.33672,1.09186 0,1.42857 1.90476,1.90476 1.42857,-2.38095 1.42857,1.42857"
       id="path3128"
       inkscape:connector-curvature="0"
       transform="translate(0,-10.629368)" />
  </g>
</svg>
