<?xml version="1.0" encoding="UTF-8" standalone="no"?>
<!-- Created with Inkscape (http://www.inkscape.org/) -->

<svg
   xmlns:dc="http://purl.org/dc/elements/1.1/"
   xmlns:cc="http://creativecommons.org/ns#"
   xmlns:rdf="http://www.w3.org/1999/02/22-rdf-syntax-ns#"
   xmlns:svg="http://www.w3.org/2000/svg"
   xmlns="http://www.w3.org/2000/svg"
   xmlns:sodipodi="http://sodipodi.sourceforge.net/DTD/sodipodi-0.dtd"
   xmlns:inkscape="http://www.inkscape.org/namespaces/inkscape"
   width="800"
   height="600"
   id="svg2"
   version="1.1"
   inkscape:version="0.48.3.1 r9886"
   sodipodi:docname="function_graph.svg">
  <defs
     id="defs4" />
  <sodipodi:namedview
     id="base"
     pagecolor="#ffffff"
     bordercolor="#666666"
     borderopacity="1.0"
     inkscape:pageopacity="1"
     inkscape:pageshadow="2"
     inkscape:zoom="3.959798"
     inkscape:cx="248.54561"
     inkscape:cy="258.70846"
     inkscape:document-units="px"
     inkscape:current-layer="layer1"
     showgrid="false"
     units="px"
     inkscape:window-width="1535"
     inkscape:window-height="1176"
     inkscape:window-x="65"
     inkscape:window-y="24"
     inkscape:window-maximized="1" />
  <metadata
     id="metadata7">
    <rdf:RDF>
      <cc:Work
         rdf:about="">
        <dc:format>image/svg+xml</dc:format>
        <dc:type
           rdf:resource="http://purl.org/dc/dcmitype/StillImage" />
      </cc:Work>
    </rdf:RDF>
  </metadata>
  <g
     inkscape:label="Layer 1"
     inkscape:groupmode="layer"
     id="layer1"
     transform="translate(0,-452.3627)">
    <rect
       style="opacity:0.22222224;fill:#d20000;fill-opacity:1;stroke-width:1;stroke-miterlimit:4;stroke-dasharray:12, 12;stroke-dashoffset:0"
       id="rect3943"
       width="101.90481"
       height="479.552"
       x="205.6001"
       y="526.34235" />
    <path
       style="fill:none;stroke:#000000;stroke-width:0.69934666px;stroke-linecap:butt;stroke-linejoin:miter;stroke-opacity:1"
       d="m 97.700896,736.14635 c 31.857044,0.43974 65.181574,-2.51285 95.643484,-10.61482 37.06878,-19.57726 64.33521,-58.14151 106.98113,-66.32725 38.71553,-2.76117 46.84841,40.79067 60.02994,67.72891 14.92923,27.56742 27.01769,59.82467 53.56509,78.39282 38.79923,19.64346 75.03549,-17.70057 96.86496,-46.03019 21.20154,-27.4804 53.42917,-51.93048 90.12432,-45.91908 30.84295,-0.29633 61.49704,-4.08403 92.23485,-6.20333"
       id="path3055"
       inkscape:connector-curvature="0" />
    <path
       style="fill:none;stroke:#000000;stroke-width:0.69934666px;stroke-linecap:butt;stroke-linejoin:miter;stroke-opacity:1"
       d="m 24.76902,719.1622 c 747.30196,0 747.30196,0 747.30196,0"
       id="path3064"
       inkscape:connector-curvature="0" />
    <path
       style="fill:none;stroke:#000000;stroke-width:0.69934666px;stroke-linecap:butt;stroke-linejoin:miter;stroke-opacity:1"
       d="m 206.59917,563.3078 c 0,318.70228 0,318.70228 0,318.70228"
       id="path3066"
       inkscape:connector-curvature="0" />
    <path
       style="fill:none;stroke:#000000;stroke-width:0.69934666;stroke-linecap:butt;stroke-linejoin:miter;stroke-miterlimit:4;stroke-opacity:1;stroke-dasharray:8.3921605, 8.3921605;stroke-dashoffset:0"
       d="m 266.54318,624.25087 c 0,158.8516 0,158.8516 0,158.8516"
       id="path3068"
       inkscape:connector-curvature="0" />
    <path
       style="fill:none;stroke:#000000;stroke-width:0.69934666;stroke-linecap:butt;stroke-linejoin:miter;stroke-miterlimit:4;stroke-opacity:1;stroke-dasharray:8.3921605, 8.3921605;stroke-dashoffset:0"
       d="m 292.5189,623.75133 c 0,158.85161 0,158.85161 0,158.85161"
       id="path3068-2"
       inkscape:connector-curvature="0" />
    <path
       style="fill:none;stroke:#000000;stroke-width:0.69934666px;stroke-linecap:butt;stroke-linejoin:miter;stroke-opacity:1"
       d="m 265.5441,798.08848 c -5.99617,15.73955 13.93393,3.70034 13.98694,13.98693 1.37419,5.68044 1.57298,-8.26736 10.60141,-3.99627 3.70035,-0.61488 4.48094,-7.30955 4.38458,-11.9888"
       id="path3867"
       inkscape:connector-curvature="0" />
    <path
       style="fill:none;stroke:#000000;stroke-width:0.69934666px;stroke-linecap:butt;stroke-linejoin:miter;stroke-opacity:1"
       d="m 284.52637,838.05114 c 5.28186,4.25297 8.12385,7.64793 11.98881,10.98973"
       id="path3883"
       inkscape:connector-curvature="0" />
    <path
       style="fill:none;stroke:#000000;stroke-width:0.69934666px;stroke-linecap:butt;stroke-linejoin:miter;stroke-opacity:1"
       d="m 283.52731,852.03808 c 3.3196,-6.61531 -1.38752,1.91024 4.99533,-6.99347 1.36611,-1.90325 8.26387,-9.17211 6.99348,-6.99347"
       id="path3885"
       inkscape:connector-curvature="0" />
    <path
       style="fill:none;stroke:#000000;stroke-width:0.69934666px;stroke-linecap:butt;stroke-linejoin:miter;stroke-opacity:1"
       d="m 756.08588,710.17061 c 3.38609,2.77852 1.95987,-0.58065 9.99064,4.99534 13.34495,0.89647 3.01082,4.12183 -0.999,7.99253 -1.99819,-0.59788 -4.59528,6.69476 -5.99446,3.99625"
       id="path3887"
       inkscape:connector-curvature="0" />
    <path
       style="fill:none;stroke:#000000;stroke-width:0.69934666px;stroke-linecap:butt;stroke-linejoin:miter;stroke-opacity:1"
       d="m 197.60757,574.29752 c 1.92902,-2.95176 0.31919,-2.12359 5.9944,-9.99066 2.1421,-7.8895 5.13699,8.77883 7.68896,10.81613 l 1.30264,0.17361"
       id="path3889"
       inkscape:connector-curvature="0" />
    <path
       style="fill:none;stroke:#000000;stroke-width:0.69934666px;stroke-linecap:butt;stroke-linejoin:miter;stroke-opacity:1"
       d="m 754.08779,737.14541 c 7.22204,5.92638 13.55687,10.45862 17.98315,13.98693 l 4e-5,0.99907"
       id="path3891"
       inkscape:connector-curvature="0" />
    <path
       style="fill:none;stroke:#000000;stroke-width:0.69934666px;stroke-linecap:butt;stroke-linejoin:miter;stroke-opacity:1"
       d="m 774.06907,735.14728 c -9.01689,4.09899 -13.1406,12.97591 -18.98228,16.98413 l 0.99909,0"
       id="path3893"
       inkscape:connector-curvature="0" />
    <path
       style="fill:none;stroke:#000000;stroke-width:0.69934666px;stroke-linecap:butt;stroke-linejoin:miter;stroke-opacity:1"
       d="m 191.61317,559.31153 c -6.2117,7.52594 1.40548,-4.2011 -5.9944,7.99254 -4.48972,3.59587 -4.47757,9.10798 -7.99253,11.98879"
       id="path3895"
       inkscape:connector-curvature="0" />
    <path
       style="fill:none;stroke:#000000;stroke-width:0.69934666px;stroke-linecap:butt;stroke-linejoin:miter;stroke-opacity:1"
       d="m 174.62903,558.31246 c 6.58314,5.69216 -2.63347,-2.00169 5.9944,6.99347 1.68778,0.83275 3.37498,2.47816 3.99628,3.99626"
       id="path3897"
       inkscape:connector-curvature="0" />
    <path
       style="fill:none;stroke:#000000;stroke-width:0.69934666px;stroke-linecap:butt;stroke-linejoin:miter;stroke-opacity:1"
       d="m 562.26691,564.30686 c 0,313.70695 0,313.70695 0,313.70695"
       id="path3903"
       inkscape:connector-curvature="0" />
    <path
       style="fill:none;stroke:#000000;stroke-width:0.69934666px;stroke-linecap:butt;stroke-linejoin:miter;stroke-opacity:1"
       d="m 197.60757,891.00168 c 6.70277,3.42866 -1.82091,-1.61818 5.9944,4.99534 4.34458,2.65806 9.58878,4.80851 10.98973,7.99253"
       id="path3905"
       inkscape:connector-curvature="0" />
    <path
       style="fill:none;stroke:#000000;stroke-width:0.69934666px;stroke-linecap:butt;stroke-linejoin:miter;stroke-opacity:1"
       d="m 210.59543,889.00355 c -5.30509,5.15778 -10.20192,12.68429 -11.98879,17.98319"
       id="path3907"
       inkscape:connector-curvature="0" />
    <path
       style="fill:none;stroke:#000000;stroke-width:0.69934666px;stroke-linecap:butt;stroke-linejoin:miter;stroke-opacity:1"
       d="m 224.58237,907.98581 c -4.77838,8.96462 0.65404,-6.98686 -3.99627,8.99161 0.22531,8.72 10.87455,6.12563 10.98973,-2.99721 -3.69339,-0.0573 0.27249,-6.74297 -6.99346,-5.9944 z"
       id="path3911"
       inkscape:connector-curvature="0" />
    <path
       style="fill:none;stroke:#000000;stroke-width:0.69934666px;stroke-linecap:butt;stroke-linejoin:miter;stroke-opacity:1"
       d="m 551.27719,887.00541 c 6.80111,5.01713 -2.49416,-2.14131 7.99252,7.99253 3.74302,2.12178 7.33159,3.41253 7.99255,5.99441"
       id="path3913"
       inkscape:connector-curvature="0" />
    <path
       style="fill:none;stroke:#000000;stroke-width:0.69934666px;stroke-linecap:butt;stroke-linejoin:miter;stroke-opacity:1"
       d="m 568.2613,885.00728 c -6.54922,3.95441 1.3802,-2.83616 -5.99439,4.99534 -4.59456,2.50534 -8.95422,10.69881 -8.99159,12.98787"
       id="path3915"
       inkscape:connector-curvature="0" />
    <path
       style="fill:none;stroke:#000000;stroke-width:0.69934666px;stroke-linecap:butt;stroke-linejoin:miter;stroke-opacity:1"
       d="m 575.25481,905.98768 c 3.01796,-7.11336 -0.5881,2.85085 3.99629,-6.99347 2.42133,-2.16882 2.8528,9.83038 2.99714,13.98694"
       id="path3917"
       inkscape:connector-curvature="0" />
    <path
       style="fill:none;stroke:#000000;stroke-width:0.69934666px;stroke-linecap:butt;stroke-linejoin:miter;stroke-opacity:1"
       d="m 120.67943,753.13048 c -5.65588,-4.64334 2.3835,1.47571 -7.99254,-4.99534 -8.92512,4.19307 -2.88275,18.08381 -3.99626,27.97387 -2.19795,2.08059 -0.42849,6.20519 -0.99907,8.9916"
       id="path3931"
       inkscape:connector-curvature="0" />
    <path
       style="fill:none;stroke:#000000;stroke-width:0.69934666px;stroke-linecap:butt;stroke-linejoin:miter;stroke-opacity:1"
       d="m 99.699033,759.12487 c 5.523137,2.74263 13.382407,0.69413 18.982267,2.9972"
       id="path3933"
       inkscape:connector-curvature="0" />
    <path
       style="fill:none;stroke:#000000;stroke-width:0.69934666px;stroke-linecap:butt;stroke-linejoin:miter;stroke-opacity:1"
       d="m 128.67196,755.12861 c -4.05108,3.7022 -12.02792,17.67272 -0.99906,17.9832"
       id="path3935"
       inkscape:connector-curvature="0" />
    <path
       style="fill:none;stroke:#000000;stroke-width:0.69934666px;stroke-linecap:butt;stroke-linejoin:miter;stroke-opacity:1"
       d="m 135.66544,761.123 c 7.05992,5.21241 -2.81336,-2.08228 6.99346,5.9944 1.88732,-0.79465 4.61343,4.15665 3.99626,1.99814"
       id="path3937"
       inkscape:connector-curvature="0" />
    <path
       style="fill:none;stroke:#000000;stroke-width:0.69934666px;stroke-linecap:butt;stroke-linejoin:miter;stroke-opacity:1"
       d="m 148.6533,760.12394 c -6.50541,5.00634 -6.71607,6.57033 -12.98786,11.9888"
       id="path3939"
       inkscape:connector-curvature="0" />
    <path
       style="fill:none;stroke:#000000;stroke-width:0.69934666px;stroke-linecap:butt;stroke-linejoin:miter;stroke-opacity:1"
       d="m 148.6533,746.137 c 8.04126,6.57899 13.38802,19.46264 7.99254,29.97201 l 0,1.99813 -0.99907,0.99907"
       id="path3941"
       inkscape:connector-curvature="0" />
    <rect
       style="opacity:0.222;fill:#0000d2;fill-opacity:1;stroke-width:1;stroke-miterlimit:4;stroke-dasharray:12, 12;stroke-dashoffset:0"
       id="rect3943-7"
       width="130.87773"
       height="479.552"
       x="307.50491"
       y="526.34235" />
    <rect
       style="opacity:0.222;fill:#d20000;fill-opacity:1;stroke-width:1;stroke-miterlimit:4;stroke-dasharray:12, 12;stroke-dashoffset:0"
       id="rect3943-7-1"
       width="124.88335"
       height="479.552"
       x="437.88318"
       y="526.34235" />
    <path
       style="fill:none;stroke:#000000;stroke-width:0.53143704px;stroke-linecap:butt;stroke-linejoin:miter;stroke-opacity:1"
       d="m 265.35013,848.39318 c 0.63275,-3.30251 4.94704,-9.56401 6.83276,-16.70231 -2.64469,1.63621 3.60384,4.5849 4.55518,13.66552 10.25208,9.28954 -6.5353,-0.0935 -11.38794,3.03679 z"
       id="path4210"
       inkscape:connector-curvature="0" />
  </g>
</svg>
