<?xml version="1.0" encoding="UTF-8" standalone="no"?>
<!-- Created with Inkscape (http://www.inkscape.org/) -->

<svg
   xmlns:dc="http://purl.org/dc/elements/1.1/"
   xmlns:cc="http://creativecommons.org/ns#"
   xmlns:rdf="http://www.w3.org/1999/02/22-rdf-syntax-ns#"
   xmlns:svg="http://www.w3.org/2000/svg"
   xmlns="http://www.w3.org/2000/svg"
   xmlns:sodipodi="http://sodipodi.sourceforge.net/DTD/sodipodi-0.dtd"
   xmlns:inkscape="http://www.inkscape.org/namespaces/inkscape"
   width="255"
   height="255"
   id="svg2"
   version="1.1"
   inkscape:version="0.48.0 r9654"
   sodipodi:docname="sinus.svg">
  <defs
     id="defs4" />
  <sodipodi:namedview
     id="base"
     pagecolor="#ffffff"
     bordercolor="#666666"
     borderopacity="1.0"
     inkscape:pageopacity="0.0"
     inkscape:pageshadow="2"
     inkscape:zoom="1.9607843"
     inkscape:cx="-61.302001"
     inkscape:cy="127.5"
     inkscape:document-units="px"
     inkscape:current-layer="layer1"
     showgrid="false"
     inkscape:window-width="1360"
     inkscape:window-height="691"
     inkscape:window-x="0"
     inkscape:window-y="24"
     inkscape:window-maximized="1" />
  <metadata
     id="metadata7">
    <rdf:RDF>
      <cc:Work
         rdf:about="">
        <dc:format>image/svg+xml</dc:format>
        <dc:type
           rdf:resource="http://purl.org/dc/dcmitype/StillImage" />
        <dc:title />
      </cc:Work>
    </rdf:RDF>
  </metadata>
  <g
     inkscape:label="Layer 1"
     inkscape:groupmode="layer"
     id="layer1"
     transform="translate(0,-797.36218)">
    <path
       style="fill:none;stroke:#000000;stroke-width:1;stroke-linecap:butt;stroke-linejoin:miter;stroke-opacity:1;stroke-miterlimit:4;stroke-dasharray:none"
       d="m 19.109042,1003.7369 c 10.324266,-30.97277 -5.162101,-58.5041 27.531334,-63.66622 32.69342,-5.16212 73.990384,25.81064 87.756054,-17.20708 13.76567,-43.01769 -15.48635,-72.26973 20.64847,-77.43182 36.13487,-5.16212 51.62122,37.85558 79.15257,-5.16212"
       id="path3014"
       inkscape:connector-curvature="0"
       sodipodi:nodetypes="csssc" />
    <path
       transform="translate(117.52035,1001.8329)"
       sodipodi:type="arc"
       style="fill:none;stroke:#000000;stroke-width:1px;stroke-linecap:butt;stroke-linejoin:miter;stroke-opacity:1"
       id="path3757-5-0"
       sodipodi:cx="-98.14035"
       sodipodi:cy="1.5693026"
       sodipodi:rx="6.700345"
       sodipodi:ry="6.700345"
       d="m -91.440005,1.5693026 c 0,3.7004983 -2.999847,6.700345 -6.700345,6.700345 -3.7005,0 -6.70035,-2.9998467 -6.70035,-6.700345 0,-3.7004984 2.99985,-6.7003451 6.70035,-6.7003451 3.700498,0 6.700345,2.9998467 6.700345,6.7003451 z" />
    <path
       transform="translate(175.66035,941.65288)"
       sodipodi:type="arc"
       style="fill:none;stroke:#000000;stroke-width:1px;stroke-linecap:butt;stroke-linejoin:miter;stroke-opacity:1"
       id="path3757-5-5"
       sodipodi:cx="-98.14035"
       sodipodi:cy="1.5693026"
       sodipodi:rx="6.700345"
       sodipodi:ry="6.700345"
       d="m -91.440005,1.5693026 c 0,3.7004983 -2.999847,6.700345 -6.700345,6.700345 -3.7005,0 -6.70035,-2.9998467 -6.70035,-6.700345 0,-3.7004984 2.99985,-6.7003451 6.70035,-6.7003451 3.700498,0 6.700345,2.9998467 6.700345,6.7003451 z" />
    <path
       transform="translate(237.37035,886.57288)"
       sodipodi:type="arc"
       style="fill:none;stroke:#000000;stroke-width:1px;stroke-linecap:butt;stroke-linejoin:miter;stroke-opacity:1"
       id="path3757-5-03"
       sodipodi:cx="-98.14035"
       sodipodi:cy="1.5693026"
       sodipodi:rx="6.700345"
       sodipodi:ry="6.700345"
       d="m -91.440005,1.5693026 c 0,3.7004983 -2.999847,6.700345 -6.700345,6.700345 -3.7005,0 -6.70035,-2.9998467 -6.70035,-6.700345 0,-3.7004984 2.99985,-6.7003451 6.70035,-6.7003451 3.700498,0 6.700345,2.9998467 6.700345,6.7003451 z" />
    <path
       transform="translate(286.33035,850.36288)"
       sodipodi:type="arc"
       style="fill:none;stroke:#000000;stroke-width:1px;stroke-linecap:butt;stroke-linejoin:miter;stroke-opacity:1"
       id="path3757-5-3"
       sodipodi:cx="-98.14035"
       sodipodi:cy="1.5693026"
       sodipodi:rx="6.700345"
       sodipodi:ry="6.700345"
       d="m -91.440005,1.5693026 c 0,3.7004983 -2.999847,6.700345 -6.700345,6.700345 -3.7005,0 -6.70035,-2.9998467 -6.70035,-6.700345 0,-3.7004984 2.99985,-6.7003451 6.70035,-6.7003451 3.700498,0 6.700345,2.9998467 6.700345,6.7003451 z" />
    <path
       transform="translate(332.23035,838.12288)"
       sodipodi:type="arc"
       style="fill:none;stroke:#000000;stroke-width:1px;stroke-linecap:butt;stroke-linejoin:miter;stroke-opacity:1"
       id="path3757-5-9"
       sodipodi:cx="-98.14035"
       sodipodi:cy="1.5693026"
       sodipodi:rx="6.700345"
       sodipodi:ry="6.700345"
       d="m -91.440005,1.5693026 c 0,3.7004983 -2.999847,6.700345 -6.700345,6.700345 -3.7005,0 -6.70035,-2.9998467 -6.70035,-6.700345 0,-3.7004984 2.99985,-6.7003451 6.70035,-6.7003451 3.700498,0 6.700345,2.9998467 6.700345,6.7003451 z" />
    <text
       xml:space="preserve"
       style="font-size:12px;font-style:normal;font-variant:normal;font-weight:normal;font-stretch:normal;text-align:start;line-height:125%;letter-spacing:0px;word-spacing:0px;writing-mode:lr-tb;text-anchor:start;fill:#000000;fill-opacity:1;stroke:none;font-family:Sans;-inkscape-font-specification:Sans"
       x="28.814648"
       y="1014.1601"
       id="text3810-8-9"
       sodipodi:linespacing="125%"><tspan
         sodipodi:role="line"
         id="tspan3812-0-6"
         x="28.814648"
         y="1014.1601">turn</tspan></text>
    <text
       xml:space="preserve"
       style="font-size:12px;font-style:normal;font-variant:normal;font-weight:normal;font-stretch:normal;text-align:start;line-height:125%;letter-spacing:0px;word-spacing:0px;writing-mode:lr-tb;text-anchor:start;fill:#000000;fill-opacity:1;stroke:none;font-family:Sans;-inkscape-font-specification:Sans"
       x="71.024651"
       y="930.4801"
       id="text3810-8-3"
       sodipodi:linespacing="125%"><tspan
         sodipodi:role="line"
         id="tspan3812-0-7"
         x="71.024651"
         y="930.4801">turn</tspan></text>
    <text
       xml:space="preserve"
       style="font-size:12px;font-style:normal;font-variant:normal;font-weight:normal;font-stretch:normal;text-align:start;line-height:125%;letter-spacing:0px;word-spacing:0px;writing-mode:lr-tb;text-anchor:start;fill:#000000;fill-opacity:1;stroke:none;font-family:Sans;-inkscape-font-specification:Sans"
       x="151.68465"
       y="894.31012"
       id="text3810-8-91"
       sodipodi:linespacing="125%"><tspan
         sodipodi:role="line"
         id="tspan3812-0-0"
         x="151.68465"
         y="894.31012">turn</tspan></text>
    <text
       xml:space="preserve"
       style="font-size:12px;font-style:normal;font-variant:normal;font-weight:normal;font-stretch:normal;text-align:start;line-height:125%;letter-spacing:0px;word-spacing:0px;writing-mode:lr-tb;text-anchor:start;fill:#000000;fill-opacity:1;stroke:none;font-family:Sans;-inkscape-font-specification:Sans"
       x="213.43465"
       y="828.01013"
       id="text3810-8-4"
       sodipodi:linespacing="125%"><tspan
         sodipodi:role="line"
         id="tspan3812-0-1"
         x="213.43465"
         y="828.01013">turn</tspan></text>
    <text
       xml:space="preserve"
       style="font-size:12px;font-style:normal;font-variant:normal;font-weight:normal;font-stretch:normal;text-align:start;line-height:125%;letter-spacing:0px;word-spacing:0px;writing-mode:lr-tb;text-anchor:start;fill:#000000;fill-opacity:1;stroke:none;font-family:Sans;-inkscape-font-specification:Sans"
       x="172.47466"
       y="837.62012"
       id="text3810-8-1"
       sodipodi:linespacing="125%"><tspan
         sodipodi:role="line"
         id="tspan3812-0-8"
         x="172.47466"
         y="837.62012">turn</tspan></text>
    <path
       transform="translate(129.76035,946.24288)"
       sodipodi:type="arc"
       style="fill:none;stroke:#000000;stroke-width:1px;stroke-linecap:butt;stroke-linejoin:miter;stroke-opacity:1"
       id="path3757-5-4"
       sodipodi:cx="-98.14035"
       sodipodi:cy="1.5693026"
       sodipodi:rx="6.700345"
       sodipodi:ry="6.700345"
       d="m -91.440005,1.5693026 c 0,3.7004983 -2.999847,6.700345 -6.700345,6.700345 -3.7005,0 -6.70035,-2.9998467 -6.70035,-6.700345 0,-3.7004984 2.99985,-6.7003451 6.70035,-6.7003451 3.700498,0 6.700345,2.9998467 6.700345,6.7003451 z" />
    <path
       transform="translate(224.11035,935.53288)"
       sodipodi:type="arc"
       style="fill:none;stroke:#000000;stroke-width:1px;stroke-linecap:butt;stroke-linejoin:miter;stroke-opacity:1"
       id="path3757-5-45"
       sodipodi:cx="-98.14035"
       sodipodi:cy="1.5693026"
       sodipodi:rx="6.700345"
       sodipodi:ry="6.700345"
       d="m -91.440005,1.5693026 c 0,3.7004983 -2.999847,6.700345 -6.700345,6.700345 -3.7005,0 -6.70035,-2.9998467 -6.70035,-6.700345 0,-3.7004984 2.99985,-6.7003451 6.70035,-6.7003451 3.700498,0 6.700345,2.9998467 6.700345,6.7003451 z" />
    <path
       transform="translate(241.96035,847.30288)"
       sodipodi:type="arc"
       style="fill:none;stroke:#000000;stroke-width:1px;stroke-linecap:butt;stroke-linejoin:miter;stroke-opacity:1"
       id="path3757-5-7"
       sodipodi:cx="-98.14035"
       sodipodi:cy="1.5693026"
       sodipodi:rx="6.700345"
       sodipodi:ry="6.700345"
       d="m -91.440005,1.5693026 c 0,3.7004983 -2.999847,6.700345 -6.700345,6.700345 -3.7005,0 -6.70035,-2.9998467 -6.70035,-6.700345 0,-3.7004984 2.99985,-6.7003451 6.70035,-6.7003451 3.700498,0 6.700345,2.9998467 6.700345,6.7003451 z" />
    <path
       transform="translate(312.85035,856.99288)"
       sodipodi:type="arc"
       style="fill:none;stroke:#000000;stroke-width:1px;stroke-linecap:butt;stroke-linejoin:miter;stroke-opacity:1"
       id="path3757-5-2"
       sodipodi:cx="-98.14035"
       sodipodi:cy="1.5693026"
       sodipodi:rx="6.700345"
       sodipodi:ry="6.700345"
       d="m -91.440005,1.5693026 c 0,3.7004983 -2.999847,6.700345 -6.700345,6.700345 -3.7005,0 -6.70035,-2.9998467 -6.70035,-6.700345 0,-3.7004984 2.99985,-6.7003451 6.70035,-6.7003451 3.700498,0 6.700345,2.9998467 6.700345,6.7003451 z" />
    <text
       xml:space="preserve"
       style="font-size:12px;font-style:normal;font-variant:normal;font-weight:normal;font-stretch:normal;text-align:start;line-height:125%;letter-spacing:0px;word-spacing:0px;writing-mode:lr-tb;text-anchor:start;fill:#000000;fill-opacity:1;stroke:none;font-family:Sans;-inkscape-font-specification:Sans"
       x="7.7123051"
       y="935.83759"
       id="text3810-8-5-8"
       sodipodi:linespacing="125%"><tspan
         sodipodi:role="line"
         id="tspan3812-0-9-5"
         x="7.7123051"
         y="935.83759">corner</tspan></text>
    <text
       xml:space="preserve"
       style="font-size:12px;font-style:normal;font-variant:normal;font-weight:normal;font-stretch:normal;text-align:start;line-height:125%;letter-spacing:0px;word-spacing:0px;writing-mode:lr-tb;text-anchor:start;fill:#000000;fill-opacity:1;stroke:none;font-family:Sans;-inkscape-font-specification:Sans"
       x="127.32231"
       y="956.45758"
       id="text3810-8-5-4"
       sodipodi:linespacing="125%"><tspan
         sodipodi:role="line"
         id="tspan3812-0-9-3"
         x="127.32231"
         y="956.45758">corner</tspan></text>
    <text
       xml:space="preserve"
       style="font-size:12px;font-style:normal;font-variant:normal;font-weight:normal;font-stretch:normal;text-align:start;line-height:125%;letter-spacing:0px;word-spacing:0px;writing-mode:lr-tb;text-anchor:start;fill:#000000;fill-opacity:1;stroke:none;font-family:Sans;-inkscape-font-specification:Sans"
       x="91.422302"
       y="848.02759"
       id="text3810-8-5-1"
       sodipodi:linespacing="125%"><tspan
         sodipodi:role="line"
         id="tspan3812-0-9-39"
         x="91.422302"
         y="848.02759">corner</tspan></text>
    <text
       xml:space="preserve"
       style="font-size:12px;font-style:normal;font-variant:normal;font-weight:normal;font-stretch:normal;text-align:start;line-height:125%;letter-spacing:0px;word-spacing:0px;writing-mode:lr-tb;text-anchor:start;fill:#000000;fill-opacity:1;stroke:none;font-family:Sans;-inkscape-font-specification:Sans"
       x="201.6223"
       y="878.70758"
       id="text3810-8-5-6"
       sodipodi:linespacing="125%"><tspan
         sodipodi:role="line"
         id="tspan3812-0-9-4"
         x="201.6223"
         y="878.70758">corner</tspan></text>
  </g>
</svg>
