<?xml version="1.0" encoding="UTF-8" standalone="no"?>
<!-- Created with Inkscape (http://www.inkscape.org/) -->

<svg
   xmlns:dc="http://purl.org/dc/elements/1.1/"
   xmlns:cc="http://creativecommons.org/ns#"
   xmlns:rdf="http://www.w3.org/1999/02/22-rdf-syntax-ns#"
   xmlns:svg="http://www.w3.org/2000/svg"
   xmlns="http://www.w3.org/2000/svg"
   xmlns:sodipodi="http://sodipodi.sourceforge.net/DTD/sodipodi-0.dtd"
   xmlns:inkscape="http://www.inkscape.org/namespaces/inkscape"
   width="1052.3622"
   height="744.09448"
   id="svg2"
   version="1.1"
   inkscape:version="0.48.3.1 r9886"
   sodipodi:docname="text.svg">
  <defs
     id="defs4" />
  <sodipodi:namedview
     id="base"
     pagecolor="#ffffff"
     bordercolor="#666666"
     borderopacity="1.0"
     inkscape:pageopacity="0.0"
     inkscape:pageshadow="2"
     inkscape:zoom="0.35"
     inkscape:cx="375"
     inkscape:cy="520"
     inkscape:document-units="px"
     inkscape:current-layer="layer1"
     showgrid="false"
     inkscape:window-width="1345"
     inkscape:window-height="1045"
     inkscape:window-x="65"
     inkscape:window-y="126"
     inkscape:window-maximized="0" />
  <metadata
     id="metadata7">
    <rdf:RDF>
      <cc:Work
         rdf:about="">
        <dc:format>image/svg+xml</dc:format>
        <dc:type
           rdf:resource="http://purl.org/dc/dcmitype/StillImage" />
        <dc:title></dc:title>
      </cc:Work>
    </rdf:RDF>
  </metadata>
  <g
     inkscape:label="Layer 1"
     inkscape:groupmode="layer"
     id="layer1"
     transform="translate(0,-308.2677)">
    <path
       inkscape:connector-curvature="0"
       id="path3017"
       style="font-size:113px;font-style:normal;font-weight:normal;line-height:125%;letter-spacing:0px;word-spacing:0px;fill:#000000;fill-opacity:1;stroke:none;font-family:Purisa;-inkscape-font-specification:Purisa"
       d="m 106.17175,583.84848 c -1.13002,3e-5 -3.54068,-1.35597 -7.232,-4.068 -3.691343,-2.7873 -5.537008,-5.6123 -5.537,-8.475 -8e-6,-2.71196 1.92099,-6.44096 5.763,-11.187 3.84198,-4.82128 8.47498,-7.90994 13.899,-9.266 2.41064,-0.67794 5.68763,-1.01694 9.831,-1.017 1.73263,6e-5 3.01329,0.22606 3.842,0.678 0.82862,0.45206 1.95862,1.46906 3.39,3.051 2.33529,2.63672 3.50295,4.44472 3.503,5.424 -5e-5,0.90405 -0.48971,1.35605 -1.469,1.356 -1.20538,5e-5 -2.22238,-0.41428 -3.051,-1.243 -0.82871,-0.90395 -1.84571,-1.80795 -3.051,-2.712 -1.20537,-0.90395 -2.82504,-1.35595 -4.859,-1.356 -2.6367,5e-5 -5.4617,0.71572 -8.475,2.147 -3.01336,1.43138 -5.68769,3.42772 -8.023,5.989 -3.31468,3.54071 -4.972014,5.95137 -4.972,7.232 -1.4e-5,1.2807 0.97932,2.82504 2.938,4.633 1.95865,1.7327 5.23564,3.39003 9.831,4.972 7.23197,2.48603 12.12863,4.82136 14.69,7.006 2.56129,2.18469 3.84195,5.12268 3.842,8.814 -5e-5,3.46534 -0.60271,6.62934 -1.808,9.492 -0.82871,2.18467 -2.59904,4.633 -5.311,7.345 -2.71204,2.71199 -5.38637,4.06799 -8.023,4.068 -2.03403,-1e-5 -4.67069,-0.33901 -7.91,-1.017 -3.23935,-0.60267 -5.68768,-1.31834 -7.345,-2.147 -1.356014,-0.678 -2.599012,-1.99634 -3.729,-3.955 -1.13001,-2.034 -1.695009,-3.842 -1.695,-5.424 -9e-6,-0.82866 0.188324,-1.54433 0.565,-2.147 0.451989,-0.67799 0.979322,-1.01699 1.582,-1.017 1.129987,10e-6 2.184653,1.05467 3.164,3.164 0.90398,1.88334 2.71198,3.57833 5.424,5.085 2.78731,1.50667 5.38631,2.26 7.797,2.26 3.2393,0 6.10197,-1.921 8.588,-5.763 2.48596,-3.91733 3.72896,-6.96832 3.729,-9.153 -4e-5,-0.52732 -0.15071,-1.16765 -0.452,-1.921 -0.22604,-0.82865 -0.86637,-1.80798 -1.921,-2.938 -1.0547,-1.12998 -2.4107,-1.99631 -4.068,-2.599 -1.58203,-0.52731 -3.4277,-1.24298 -5.537,-2.147 -2.10936,-0.90398 -3.87969,-1.65731 -5.311,-2.26 -1.35602,-0.60264 -2.22235,-0.90397 -2.599,-0.904" />
    <path
       inkscape:connector-curvature="0"
       id="path3019"
       style="font-size:113px;font-style:normal;font-weight:normal;line-height:125%;letter-spacing:0px;word-spacing:0px;fill:#000000;fill-opacity:1;stroke:none;font-family:Purisa;-inkscape-font-specification:Purisa"
       d="m 167.77794,531.86848 c -3e-5,-2.78725 -0.2637,-6.32792 -0.791,-10.622 -0.52736,-4.29391 -0.79103,-7.87224 -0.791,-10.735 -3e-5,-1.43123 0.0376,-2.3729 0.113,-2.825 0.22597,-1.20523 0.64031,-2.1469 1.243,-2.825 0.67797,-0.75323 1.35597,-1.12989 2.034,-1.13 0.90397,1.1e-4 1.5443,0.41444 1.921,1.243 0.22597,0.52744 0.56497,3.31477 1.017,8.362 0.45197,5.04742 0.8663,9.98175 1.243,14.803 0.37663,4.82141 0.6403,7.30741 0.791,7.458 0.0753,0.0754 0.1883,0.11307 0.339,0.113 0.60263,7e-5 2.33529,-0.30126 5.198,-0.904 2.93796,-0.67792 5.34862,-1.01692 7.232,-1.017 3.76661,8e-5 5.64995,0.82874 5.65,2.486 -5e-5,1.6574 -4.14338,3.50307 -12.43,5.537 l -5.65,1.356 0.678,19.097 c 0.37663,11.2247 1.0923,21.73369 2.147,31.527 1.05463,9.71801 1.58196,15.21733 1.582,16.498 -4e-5,2.33533 -0.86637,3.503 -2.599,3.503 -1.35604,0 -2.48604,-1.20534 -3.39,-3.616 -0.8287,-2.41067 -1.24303,-5.537 -1.243,-9.379 -3e-5,-2.78732 -0.11303,-5.61232 -0.339,-8.475 -0.22603,-2.93798 -0.64037,-7.45798 -1.243,-13.56 -0.52736,-6.1773 -1.0547,-12.50529 -1.582,-18.984 -0.22603,-3.46528 -0.41436,-6.13961 -0.565,-8.023 -0.0754,-1.88327 -0.18836,-3.27694 -0.339,-4.181 -0.1507,-0.90394 -0.2637,-1.43127 -0.339,-1.582 -0.0754,-0.22594 -0.22603,-0.33894 -0.452,-0.339 -1.20536,6e-5 -4.10569,0.4144 -8.701,1.243 -4.59535,0.82873 -7.45801,1.24306 -8.588,1.243 -2.18468,6e-5 -3.27701,-0.90394 -3.277,-2.712 -1e-5,-1.2806 1.35599,-2.37293 4.068,-3.277 2.78732,-0.90393 5.91365,-1.69493 9.379,-2.373 3.46531,-0.75326 5.61231,-1.3936 6.441,-1.921 0.82864,-0.60259 1.24297,-2.59893 1.243,-5.989" />
    <path
       inkscape:connector-curvature="0"
       id="path3021"
       style="font-size:113px;font-style:normal;font-weight:normal;line-height:125%;letter-spacing:0px;word-spacing:0px;fill:#000000;fill-opacity:1;stroke:none;font-family:Purisa;-inkscape-font-specification:Purisa"
       d="m 217.33197,559.66648 c 5.87598,-5.49928 10.8103,-9.11527 14.803,-10.848 4.06796,-1.80794 9.19062,-2.71194 15.368,-2.712 9.34128,6e-5 15.1796,2.78739 17.515,8.362 1.43127,3.31472 2.14693,7.38271 2.147,12.204 -7e-5,7.98537 -1.7704,16.08369 -5.311,24.295 -3.54073,8.13601 -7.91006,13.786 -13.108,16.95 -5.04738,3.08867 -10.35837,4.633 -15.933,4.633 -7.75936,0 -13.97435,-2.67433 -18.645,-8.023 -3.23935,-3.76666 -5.34868,-6.93065 -6.328,-9.492 -0.97934,-2.63665 -1.46901,-6.36565 -1.469,-11.187 -1e-5,-9.1153 3.65366,-17.17596 10.961,-24.182 m 18.193,46.443 c 6.32796,0 12.05328,-4.33166 17.176,-12.995 5.19794,-8.73864 7.79694,-18.6073 7.797,-29.606 -6e-5,-1.65729 -0.18839,-2.90028 -0.565,-3.729 -0.37673,-0.82862 -1.05473,-1.65728 -2.034,-2.486 -2.78739,-2.33528 -5.76305,-3.50294 -8.927,-3.503 -0.52738,6e-5 -1.13005,0.0754 -1.808,0.226 -0.60271,0.0754 -1.61971,0.22606 -3.051,0.452 -1.43138,0.15072 -3.12638,0.33905 -5.085,0.565 -2.6367,0.37672 -4.74604,0.97939 -6.328,1.808 -1.5067,0.75339 -3.4277,2.22238 -5.763,4.407 -4.44469,4.21871 -7.60869,8.13604 -9.492,11.752 -1.88335,3.5407 -2.82502,7.42036 -2.825,11.639 -2e-5,6.25269 1.92098,11.37535 5.763,15.368 3.91731,3.99267 8.96464,6.02667 15.142,6.102" />
    <path
       inkscape:connector-curvature="0"
       id="path3023"
       style="font-size:113px;font-style:normal;font-weight:normal;line-height:125%;letter-spacing:0px;word-spacing:0px;fill:#000000;fill-opacity:1;stroke:none;font-family:Purisa;-inkscape-font-specification:Purisa"
       d="m 283.48111,557.40648 c 2.10932,-1.88328 3.16399,-3.50294 3.164,-4.859 -10e-6,-1.35594 0.41432,-2.97561 1.243,-4.859 0.90398,-1.9586 2.18465,-2.93794 3.842,-2.938 1.05465,6e-5 1.95865,0.60273 2.712,1.808 0.82864,1.13006 1.69498,1.69506 2.599,1.695 0.67798,6e-5 3.46531,-0.56494 8.362,-1.695 4.89663,-1.20527 9.19062,-1.80794 12.882,-1.808 3.08862,6e-5 6.51628,0.4144 10.283,1.243 7.8346,1.80806 11.75193,6.66706 11.752,14.577 -7e-5,6.02671 -2.3354,14.0497 -7.006,24.069 -3.08872,6.62935 -6.85539,11.75201 -11.3,15.368 -4.44471,3.54067 -9.19071,5.311 -14.238,5.311 -1.43137,0 -2.5237,-0.0753 -3.277,-0.226 l -5.198,-0.791 1.243,6.102 c 2.71197,12.80665 4.06797,20.82964 4.068,24.069 -3e-5,1.50664 -0.2637,2.48597 -0.791,2.938 -0.52736,0.5273 -1.43136,0.79097 -2.712,0.791 -1.35603,-3e-5 -2.33536,-0.33903 -2.938,-1.017 -0.52736,-0.60269 -1.09236,-1.92103 -1.695,-3.955 -2.93802,-10.54668 -5.31102,-26.29133 -7.119,-47.234 -0.82868,-10.32063 -1.54435,-16.61096 -2.147,-18.871 -0.52735,-2.33529 -1.61968,-3.50295 -3.277,-3.503 -2.41068,5e-5 -3.61601,-0.71562 -3.616,-2.147 -1e-5,-0.82862 1.05466,-2.18462 3.164,-4.068 m 16.837,37.516 c 1.12997,1e-5 2.4483,0.48968 3.955,1.469 1.50663,0.90401 2.7873,1.35601 3.842,1.356 3.0133,10e-6 6.47862,-1.92099 10.396,-5.763 3.91728,-3.91731 7.23195,-8.62564 9.944,-14.125 2.78728,-5.4993 4.18094,-10.39596 4.181,-14.69 -6e-5,-2.33528 -0.52739,-4.44462 -1.582,-6.328 -0.97939,-1.88328 -1.84572,-2.93794 -2.599,-3.164 -1.28072,-0.52728 -3.50305,-0.79094 -6.667,-0.791 -7.00604,6e-5 -13.22104,0.86639 -18.645,2.599 l -7.571,2.486 0.226,7.232 c 0.15064,4.82137 0.56498,10.96103 1.243,18.419 0.37664,4.44469 0.79098,7.42035 1.243,8.927 0.45197,1.50668 1.12997,2.29768 2.034,2.373" />
    <path
       inkscape:connector-curvature="0"
       id="path3025"
       style="font-size:113px;font-style:normal;font-weight:normal;line-height:125%;letter-spacing:0px;word-spacing:0px;fill:#000000;fill-opacity:1;stroke:none;font-family:Purisa;-inkscape-font-specification:Purisa"
       d="m 411.65666,586.10848 c 0.3766,2e-5 0.56493,0.30136 0.565,0.904 -7e-5,1.35602 -1.01707,3.54069 -3.051,6.554 -1.95873,3.01335 -4.06806,5.49934 -6.328,7.458 -7.91005,7.006 -15.82004,10.509 -23.73,10.509 -3.01337,0 -6.0267,-0.678 -9.04,-2.034 -2.93802,-1.43133 -5.68769,-3.42766 -8.249,-5.989 -2.56135,-2.56132 -4.63301,-5.98899 -6.215,-10.283 -1.58201,-4.29398 -2.37301,-9.07764 -2.373,-14.351 -10e-6,-3.2393 0.37666,-5.98896 1.13,-8.249 1.50665,-4.59529 4.70832,-9.45429 9.605,-14.577 4.97197,-5.12261 9.64264,-7.68394 14.012,-7.684 1.2053,6e-5 3.0133,0.11306 5.424,0.339 3.61596,0.30139 6.13962,0.67806 7.571,1.13 1.50662,0.45206 3.20162,1.39372 5.085,2.825 2.41061,1.80805 4.48228,4.14339 6.215,7.006 1.80794,2.78738 2.71194,5.12271 2.712,7.006 -6e-5,2.41071 -0.94173,4.25637 -2.825,5.537 -1.88339,1.20537 -5.53705,2.4107 -10.961,3.616 -7.00604,1.58203 -13.9367,2.56136 -20.792,2.938 l -10.509,0.565 0,4.52 c -2e-5,5.57469 2.59898,10.84801 7.797,15.82 3.91731,3.76667 7.9853,5.65 12.204,5.65 3.23929,0 6.66696,-0.97933 10.283,-2.938 3.69128,-2.03399 6.81761,-4.25632 9.379,-6.667 2.56127,-2.41065 5.00961,-4.59532 7.345,-6.554 2.33527,-2.03398 3.91727,-3.05098 4.746,-3.051 m -18.193,-27.572 c -2.33538,-2.10928 -4.10571,-3.42761 -5.311,-3.955 -1.13004,-0.60261 -2.63671,-0.90394 -4.52,-0.904 -3.7667,6e-5 -6.5917,0.37672 -8.475,1.13 -1.80803,0.67805 -3.65369,2.10939 -5.537,4.294 -5.72535,6.55404 -8.58802,10.92337 -8.588,13.108 -2e-5,0.97937 0.90398,1.46904 2.712,1.469 6.85531,4e-5 16.5733,-1.4313 29.154,-4.294 3.76661,-0.90396 5.64995,-2.48596 5.65,-4.746 -5e-5,-1.05462 -1.69505,-3.08862 -5.085,-6.102" />
    <path
       inkscape:connector-curvature="0"
       id="path3027"
       style="font-size:113px;font-style:normal;font-weight:normal;line-height:125%;letter-spacing:0px;word-spacing:0px;fill:#000000;fill-opacity:1;stroke:none;font-family:Purisa;-inkscape-font-specification:Purisa"
       d="m 430.09684,545.99348 c 1.05466,-0.90394 1.95866,-1.35594 2.712,-1.356 1.58199,6e-5 2.71199,2.52373 3.39,7.571 0.75332,4.97205 1.43132,14.57704 2.034,28.815 0.30132,6.62936 0.45198,12.61835 0.452,17.967 -2e-5,5.34867 -0.22602,8.28667 -0.678,8.814 -0.90402,1.13 -2.03402,1.695 -3.39,1.695 -1.88335,0 -3.05101,-0.791 -3.503,-2.373 -0.37668,-0.97933 -0.94168,-8.58799 -1.695,-22.826 -0.75334,-14.31329 -1.13001,-24.25728 -1.13,-29.832 -10e-6,-4.67061 0.60266,-7.4956 1.808,-8.475 m -0.678,-26.555 c -10e-6,-1.05458 0.41432,-2.10924 1.243,-3.164 0.90399,-1.05457 1.69499,-1.58191 2.373,-1.582 0.75332,9e-5 1.77032,0.52743 3.051,1.582 1.35598,0.97943 2.03398,2.26009 2.034,3.842 -2e-5,1.13009 -0.33902,2.10942 -1.017,2.938 -0.60268,0.75342 -1.43135,1.13009 -2.486,1.13 -1.20535,9e-5 -2.37301,-0.45191 -3.503,-1.356 -1.13001,-0.90391 -1.69501,-2.03391 -1.695,-3.39" />
    <path
       inkscape:connector-curvature="0"
       id="path3029"
       style="font-size:113px;font-style:normal;font-weight:normal;line-height:125%;letter-spacing:0px;word-spacing:0px;fill:#000000;fill-opacity:1;stroke:none;font-family:Purisa;-inkscape-font-specification:Purisa"
       d="m 506.41069,631.76048 c 0.67794,-2e-5 1.28061,-0.0754 1.808,-0.226 0.6026,-0.0754 1.09227,-0.22602 1.469,-0.452 0.3766,-0.22602 0.7156,-0.45202 1.017,-0.678 0.30127,-0.22602 0.52727,-0.52735 0.678,-0.904 0.1506,-0.30135 0.2636,-0.60269 0.339,-0.904 0.1506,-0.22602 0.22593,-0.52735 0.226,-0.904 -7e-5,-0.30135 -7e-5,-0.56502 0,-0.791 -7e-5,-0.15068 -7e-5,-0.33902 0,-0.565 l 0,-0.339 c -7e-5,-7.23201 -0.48973,-14.08734 -1.469,-20.566 l -1.582,-9.831 c -0.5274,-7.68398 -1.05473,-11.52597 -1.582,-11.526 -0.30139,3e-5 -0.86639,0.67802 -1.695,2.034 -1.88339,2.78735 -4.93439,5.91368 -9.153,9.379 -4.21871,3.46534 -7.72171,5.72534 -10.509,6.78 -3.23937,1.28067 -6.8177,1.92101 -10.735,1.921 -2.41069,10e-6 -4.33169,-0.30133 -5.763,-0.904 -1.35602,-0.60266 -3.16402,-1.88333 -5.424,-3.842 -2.18468,-1.95865 -3.72901,-3.69132 -4.633,-5.198 -0.90401,-1.50665 -1.61968,-3.65365 -2.147,-6.441 -0.52734,-2.78731 -0.79101,-5.16031 -0.791,-7.119 -1e-5,-1.4313 0.11299,-2.48597 0.339,-3.164 0.52732,-2.03397 1.92099,-5.19796 4.181,-9.492 2.25998,-4.29395 4.33165,-7.64628 6.215,-10.057 1.58198,-2.10928 4.51997,-4.55761 8.814,-7.345 4.3693,-2.86261 8.2113,-4.82127 11.526,-5.876 3.54062,-1.12993 7.49562,-1.69493 11.865,-1.695 5.57461,7e-5 10.2076,0.9794 13.899,2.938 3.69126,1.88339 5.53693,4.82139 5.537,8.814 -7e-5,2.26005 -0.56507,5.04738 -1.695,8.362 -1.05474,3.31471 -1.58207,6.21504 -1.582,8.701 -7e-5,2.71203 0.86626,15.17969 2.599,37.403 l 1.695,23.391 -3.955,3.164 c -2.1094,1.73264 -4.2564,2.59897 -6.441,2.599 -3.99273,-3e-5 -8.85172,-1.01703 -14.577,-3.051 -5.72538,-1.95869 -10.6597,-4.25636 -14.803,-6.893 -4.14336,-2.56135 -6.21503,-4.67068 -6.215,-6.328 -3e-5,-1.95868 1.01697,-4.36934 3.051,-7.232 2.1093,-2.86267 3.87963,-4.294 5.311,-4.294 1.6573,0 2.48596,0.565 2.486,1.695 -4e-5,0.678 -0.33904,1.695 -1.017,3.051 -0.67804,1.35599 -1.01704,2.67432 -1.017,3.955 -4e-5,2.10932 1.39363,3.95499 4.181,5.537 2.78729,1.58198 5.16029,2.37298 7.119,2.373 1.12995,-2e-5 2.97562,0.75331 5.537,2.26 2.63661,1.50665 4.93427,2.25998 6.893,2.26 m -42.94,-51.302 c -2e-5,4.36936 1.12998,8.36202 3.39,11.978 2.25998,3.61601 5.08497,5.42401 8.475,5.424 4.5953,10e-6 9.52963,-2.07165 14.803,-6.215 5.34862,-4.21864 9.68028,-9.45431 12.995,-15.707 1.80794,-3.54063 3.35227,-7.57096 4.633,-12.091 1.35594,-4.59528 2.03394,-8.21128 2.034,-10.848 -6e-5,-1.50661 -0.26373,-2.41061 -0.791,-2.712 -1.73273,-0.90394 -4.48239,-1.35594 -8.249,-1.356 -3.46538,6e-5 -6.44105,0.37673 -8.927,1.13 -6.55404,1.88339 -12.9197,6.29039 -19.097,13.221 -6.17735,6.93071 -9.26602,12.65603 -9.266,17.176" />
    <path
       inkscape:connector-curvature="0"
       id="path3031"
       style="font-size:113px;font-style:normal;font-weight:normal;line-height:125%;letter-spacing:0px;word-spacing:0px;fill:#000000;fill-opacity:1;stroke:none;font-family:Purisa;-inkscape-font-specification:Purisa"
       d="m 538.74281,600.68548 c -10e-6,-6.02665 -0.75334,-18.15531 -2.26,-36.386 -1.43134,-18.30594 -2.147,-30.92426 -2.147,-37.855 0,-3.99258 0.226,-6.40324 0.678,-7.232 0.90399,-1.58191 1.77033,-2.37291 2.599,-2.373 1.35599,9e-5 2.22232,1.31842 2.599,3.955 0.45199,2.63675 1.05466,9.30375 1.808,20.001 0.60265,8.58806 1.12999,15.78239 1.582,21.583 l 1.017,13.334 2.034,-4.407 c 1.50665,-3.38996 5.19798,-7.83462 11.074,-13.334 5.87597,-5.49928 9.83096,-8.24894 11.865,-8.249 1.88329,6e-5 3.95496,1.05473 6.215,3.164 2.25995,2.10939 3.72895,4.36939 4.407,6.78 0.60262,2.03405 0.90395,11.18704 0.904,27.459 -5e-5,11.75201 -0.11305,18.72034 -0.339,20.905 -0.22605,2.10933 -0.94172,3.164 -2.147,3.164 -1.20538,0 -1.99638,-1.09233 -2.373,-3.277 -0.30138,-2.18466 -0.60271,-8.47499 -0.904,-18.871 -0.45204,-14.5393 -1.35604,-23.84296 -2.712,-27.911 l -1.808,-5.65 -6.554,6.102 c -3.46536,3.31471 -6.66703,7.08137 -9.605,11.3 -2.86269,4.2187 -4.82135,7.9477 -5.876,11.187 -0.67802,2.33536 -1.24302,6.06435 -1.695,11.187 -0.45202,5.12268 -1.01702,9.34134 -1.695,12.656 -0.60268,3.31466 -1.50668,4.972 -2.712,4.972 -0.52734,0 -1.16768,-0.30134 -1.921,-0.904 -1.35601,-1.13 -2.03401,-4.89666 -2.034,-11.3" />
    <path
       inkscape:connector-curvature="0"
       id="path3033"
       style="font-size:113px;font-style:normal;font-weight:normal;line-height:125%;letter-spacing:0px;word-spacing:0px;fill:#000000;fill-opacity:1;stroke:none;font-family:Purisa;-inkscape-font-specification:Purisa"
       d="m 615.14317,531.86848 c -2e-5,-2.78725 -0.26369,-6.32792 -0.791,-10.622 -0.52736,-4.29391 -0.79102,-7.87224 -0.791,-10.735 -2e-5,-1.43123 0.0376,-2.3729 0.113,-2.825 0.22598,-1.20523 0.64031,-2.1469 1.243,-2.825 0.67797,-0.75323 1.35597,-1.12989 2.034,-1.13 0.90397,1.1e-4 1.54431,0.41444 1.921,1.243 0.22597,0.52744 0.56497,3.31477 1.017,8.362 0.45197,5.04742 0.8663,9.98175 1.243,14.803 0.37664,4.82141 0.6403,7.30741 0.791,7.458 0.0753,0.0754 0.1883,0.11307 0.339,0.113 0.60263,7e-5 2.3353,-0.30126 5.198,-0.904 2.93796,-0.67792 5.34862,-1.01692 7.232,-1.017 3.76662,8e-5 5.64995,0.82874 5.65,2.486 -5e-5,1.6574 -4.14338,3.50307 -12.43,5.537 l -5.65,1.356 0.678,19.097 c 0.37663,11.2247 1.0923,21.73369 2.147,31.527 1.05463,9.71801 1.58196,15.21733 1.582,16.498 -4e-5,2.33533 -0.86637,3.503 -2.599,3.503 -1.35603,0 -2.48603,-1.20534 -3.39,-3.616 -0.8287,-2.41067 -1.24303,-5.537 -1.243,-9.379 -3e-5,-2.78732 -0.11303,-5.61232 -0.339,-8.475 -0.22603,-2.93798 -0.64036,-7.45798 -1.243,-13.56 -0.52736,-6.1773 -1.05469,-12.50529 -1.582,-18.984 -0.22603,-3.46528 -0.41436,-6.13961 -0.565,-8.023 -0.0754,-1.88327 -0.18836,-3.27694 -0.339,-4.181 -0.15069,-0.90394 -0.26369,-1.43127 -0.339,-1.582 -0.0754,-0.22594 -0.22602,-0.33894 -0.452,-0.339 -1.20536,6e-5 -4.10569,0.4144 -8.701,1.243 -4.59534,0.82873 -7.45801,1.24306 -8.588,1.243 -2.18467,6e-5 -3.277,-0.90394 -3.277,-2.712 0,-1.2806 1.356,-2.37293 4.068,-3.277 2.78732,-0.90393 5.91365,-1.69493 9.379,-2.373 3.46531,-0.75326 5.61231,-1.3936 6.441,-1.921 0.82864,-0.60259 1.24298,-2.59893 1.243,-5.989" />
    <path
       inkscape:connector-curvature="0"
       id="path3035"
       style="font-size:113px;font-style:normal;font-weight:normal;line-height:125%;letter-spacing:0px;word-spacing:0px;fill:#000000;fill-opacity:1;stroke:none;font-family:Purisa;-inkscape-font-specification:Purisa"
       d="m 662.8892,608.59548 c -10e-6,-2.712 1.88332,-6.02666 5.65,-9.944 3.84198,-3.99265 6.40331,-5.98898 7.684,-5.989 1.58197,2e-5 2.37297,-0.60265 2.373,-1.808 -3e-5,-0.45198 0.26364,-0.86631 0.791,-1.243 0.60264,-0.37665 1.28064,-0.56498 2.034,-0.565 0.7533,2e-5 1.39363,0.18835 1.921,0.565 0.5273,0.37669 0.79097,0.79102 0.791,1.243 -3e-5,1.20535 1.0923,1.80802 3.277,1.808 1.95863,2e-5 3.57829,0.94168 4.859,2.825 1.35596,1.88335 2.03396,4.10568 2.034,6.667 -4e-5,4.14334 -1.95871,8.28667 -5.876,12.43 -3.91737,4.21866 -8.32436,6.32799 -13.221,6.328 -4.21869,-10e-6 -7.34502,-1.46901 -9.379,-4.407 -1.95868,-2.938 -2.93801,-5.57467 -2.938,-7.91 m 14.577,0.452 c 1.35597,0 2.6743,-0.60267 3.955,-1.808 1.35597,-1.20533 2.03397,-2.07166 2.034,-2.599 -3e-5,-0.37666 -0.4897,-0.56499 -1.469,-0.565 -1.80803,10e-6 -3.27703,0.37667 -4.407,1.13 -1.13003,0.75334 -1.69503,1.61967 -1.695,2.599 -3e-5,0.82867 0.52731,1.243 1.582,1.243" />
    <path
       inkscape:connector-curvature="0"
       id="path3037"
       style="font-size:113px;font-style:normal;font-weight:normal;line-height:125%;letter-spacing:0px;word-spacing:0px;fill:#000000;fill-opacity:1;stroke:none;font-family:Purisa;-inkscape-font-specification:Purisa"
       d="m 766.04938,564.97748 c -6e-5,1.28071 -0.3014,2.33538 -0.904,3.164 -0.52739,0.82871 -1.16773,1.24304 -1.92101,1.243 -1.43138,4e-5 -2.33538,-1.09229 -2.71199,-3.277 -0.15072,-1.73262 -1.39372,-3.91729 -3.72901,-6.554 -0.97938,-1.05462 -1.77037,-1.80795 -2.37299,-2.26 -0.60272,-0.45195 -2.03405,-0.94161 -4.29401,-1.469 -2.1847,-0.52728 -5.08503,-0.79095 -8.70099,-0.791 -2.93803,5e-5 -5.19803,0.52739 -6.78001,1.582 -1.50669,1.05472 -3.39002,3.20172 -5.65,6.441 -5.42401,7.68404 -8.13601,14.6147 -8.136,20.792 -10e-6,3.16402 0.33899,5.83835 1.017,8.023 0.67799,2.10935 1.31832,3.54068 1.921,4.294 0.67799,0.67801 1.77032,1.77034 3.27701,3.277 2.18464,2.10934 3.84197,3.46534 4.972,4.068 1.2053,0.52734 2.86264,0.79101 4.97199,0.791 6.55397,10e-6 13.71063,-4.44466 21.47001,-13.334 4.06794,-4.51998 7.00594,-6.77997 8.81399,-6.78 0.97928,3e-5 1.46895,0.71569 1.46901,2.147 -6e-5,1.35602 -1.80806,4.25635 -5.42401,8.701 -3.54071,4.44468 -6.59171,7.57101 -9.15299,9.379 -5.95138,4.294 -11.26237,6.441 -15.933,6.441 -3.39003,0 -7.11903,-1.017 -11.187,-3.051 -4.14335,-2.034 -7.15668,-4.78366 -9.04001,-8.249 -1.808,-3.46532 -2.90033,-8.51265 -3.27699,-15.142 -0.22601,-2.56131 -0.33901,-4.5953 -0.33901,-6.102 0,-2.93797 1.017,-6.2903 3.05101,-10.057 2.10932,-4.06795 5.16031,-7.98528 9.153,-11.752 4.06797,-3.76661 7.57097,-6.06427 10.50899,-6.893 2.25997,-0.52727 4.70831,-0.79094 7.345,-0.791 5.7253,6e-5 10.73496,1.84573 15.029,5.537 4.36928,3.61605 6.55395,7.15671 6.55401,10.622" />
    <path
       inkscape:connector-curvature="0"
       id="path3039"
       style="font-size:122px;font-style:normal;font-variant:normal;font-weight:normal;font-stretch:normal;text-align:start;line-height:125%;letter-spacing:0px;word-spacing:0px;writing-mode:lr-tb;text-anchor:start;fill:#000000;fill-opacity:1;stroke:none;font-family:Purisa;-inkscape-font-specification:Purisa"
       d="m 791.87498,555.62548 c 6.34398,-5.93727 11.67131,-9.84127 15.982,-11.712 4.39197,-1.95193 9.92263,-2.92793 16.592,-2.928 10.08528,7e-5 16.3886,3.0094 18.91,9.028 1.54527,3.57872 2.31793,7.97072 2.318,13.176 -7e-5,8.62137 -1.9114,17.3647 -5.734,26.23 -3.82273,8.78401 -8.54005,14.88401 -14.152,18.3 -5.44938,3.33467 -11.18337,5.002 -17.202,5.002 -8.37736,0 -15.08735,-2.88733 -20.13,-8.662 -3.49734,-4.06666 -5.77467,-7.48265 -6.832,-10.248 -1.05734,-2.84665 -1.586,-6.87264 -1.586,-12.078 0,-9.8413 3.94466,-18.54395 11.834,-26.108 m 19.642,50.142 c 6.83196,0 13.01329,-4.67666 18.544,-14.03 5.61194,-9.43464 8.41794,-20.0893 8.418,-31.964 -6e-5,-1.78928 -0.20339,-3.13128 -0.61,-4.026 -0.40673,-0.89461 -1.13873,-1.78928 -2.196,-2.684 -3.00939,-2.52127 -6.22205,-3.78194 -9.638,-3.782 -0.56938,6e-5 -1.22005,0.0814 -1.952,0.244 -0.65071,0.0814 -1.74871,0.24406 -3.294,0.488 -1.54537,0.16273 -3.37537,0.36606 -5.49,0.61 -2.8467,0.40673 -5.12403,1.05739 -6.832,1.952 -1.6267,0.81339 -3.70069,2.39939 -6.222,4.758 -4.79869,4.55471 -8.21468,8.78404 -10.248,12.688 -2.03335,3.8227 -3.05001,8.01136 -3.05,12.566 -1e-5,6.75069 2.07399,12.28135 6.222,16.592 4.22931,4.31067 9.67864,6.50667 16.348,6.588" />
    <path
       inkscape:connector-curvature="0"
       id="path3041"
       style="font-size:122px;font-style:normal;font-variant:normal;font-weight:normal;font-stretch:normal;text-align:start;line-height:125%;letter-spacing:0px;word-spacing:0px;writing-mode:lr-tb;text-anchor:start;fill:#000000;fill-opacity:1;stroke:none;font-family:Purisa;-inkscape-font-specification:Purisa"
       d="m 870.12464,549.03748 c -2e-5,-4.71727 0.65065,-7.07593 1.952,-7.076 1.05731,7e-5 2.19598,3.70073 3.416,11.102 1.30131,7.40138 2.19598,11.10205 2.684,11.102 0.16264,5e-5 0.44731,-0.48795 0.854,-1.464 0.40664,-1.05729 0.85397,-2.19595 1.342,-3.416 0.48797,-1.30128 0.89464,-2.11461 1.22,-2.44 0.8133,-1.05728 1.9113,-3.04994 3.294,-5.978 1.70797,-3.49727 3.0093,-5.61194 3.904,-6.344 0.89463,-0.81327 2.48063,-1.21993 4.758,-1.22 2.52129,7e-5 5.28662,1.74873 8.296,5.246 1.95195,2.27739 3.25328,4.39206 3.904,6.344 0.73195,1.87072 1.50461,5.28672 2.318,10.248 l 1.952,11.468 2.074,-7.32 c 2.03327,-7.07595 4.96127,-13.17595 8.784,-18.3 3.8226,-5.12394 7.36059,-7.68593 10.614,-7.686 2.03325,7e-5 3.90392,1.1794 5.612,3.538 1.70791,2.27739 2.92791,5.20539 3.66,8.784 0.73191,3.33472 1.09791,10.69538 1.098,22.082 -9e-5,8.54002 -0.0408,15.12802 -0.122,19.764 -0.0814,4.63601 -0.28475,8.01134 -0.61,10.126 -0.24409,2.03333 -0.48809,3.21267 -0.732,3.538 -0.24409,0.40666 -0.69142,0.65066 -1.342,0.732 -0.24409,0.0813 -0.52875,0.122 -0.854,0.122 -0.73208,0 -1.17942,-1.13867 -1.342,-3.416 -0.16275,-2.27733 -0.28475,-8.66199 -0.366,-19.154 -8e-5,-25.61995 -1.95208,-38.42994 -5.856,-38.43 -2.11474,6e-5 -4.88007,3.49739 -8.296,10.492 -2.84673,5.77471 -5.24606,12.81004 -7.198,21.106 -1.95206,8.29602 -3.13139,16.67334 -3.538,25.132 -0.0814,2.03333 -0.32539,3.416 -0.732,4.148 -0.32539,0.732 -0.89472,1.098 -1.708,1.098 -0.97606,0 -1.62672,-0.854 -1.952,-2.562 -0.24405,-1.62667 -0.52872,-6.01866 -0.854,-13.176 -0.56939,-13.17597 -1.38272,-22.4073 -2.44,-27.694 -1.05738,-5.36795 -3.00938,-10.20728 -5.856,-14.518 -2.11471,-3.00928 -3.66004,-4.51394 -4.636,-4.514 -1.13871,6e-5 -2.39937,1.42339 -3.782,4.27 -1.3827,2.76539 -3.66003,8.09271 -6.832,15.982 -1.46403,3.8227 -2.19603,7.32003 -2.196,10.492 -3e-5,1.87069 -0.36603,3.94469 -1.098,6.222 -0.65069,2.19602 -1.09803,7.68601 -1.342,16.47 -0.16269,8.21466 -0.48802,12.89133 -0.976,14.03 -0.32536,0.97599 -0.97602,1.46399 -1.952,1.464 -1.30135,-10e-6 -2.19602,-1.95201 -2.684,-5.856 -0.40669,-3.904 -0.61002,-11.71199 -0.61,-23.424 -2e-5,-9.43464 -0.32535,-18.09663 -0.976,-25.986 -0.56935,-7.88928 -0.85402,-12.93194 -0.854,-15.128" />
  </g>
</svg>
