<?xml version="1.0" encoding="UTF-8" standalone="no"?>
<!-- Created with Inkscape (http://www.inkscape.org/) -->

<svg
   xmlns:dc="http://purl.org/dc/elements/1.1/"
   xmlns:cc="http://creativecommons.org/ns#"
   xmlns:rdf="http://www.w3.org/1999/02/22-rdf-syntax-ns#"
   xmlns:svg="http://www.w3.org/2000/svg"
   xmlns="http://www.w3.org/2000/svg"
   xmlns:sodipodi="http://sodipodi.sourceforge.net/DTD/sodipodi-0.dtd"
   xmlns:inkscape="http://www.inkscape.org/namespaces/inkscape"
   width="1417.3228"
   height="1062.9921"
   id="svg2"
   version="1.1"
   inkscape:version="0.48.3.1 r9886"
   sodipodi:docname="vector_graph3.svg">
  <defs
     id="defs4" />
  <sodipodi:namedview
     id="base"
     pagecolor="#ffffff"
     bordercolor="#666666"
     borderopacity="1.0"
     inkscape:pageopacity="0.0"
     inkscape:pageshadow="2"
     inkscape:zoom="0.7"
     inkscape:cx="625.87662"
     inkscape:cy="407.27005"
     inkscape:document-units="px"
     inkscape:current-layer="layer1"
     showgrid="false"
     units="cm"
     inkscape:window-width="925"
     inkscape:window-height="581"
     inkscape:window-x="578"
     inkscape:window-y="282"
     inkscape:window-maximized="0" />
  <metadata
     id="metadata7">
    <rdf:RDF>
      <cc:Work
         rdf:about="">
        <dc:format>image/svg+xml</dc:format>
        <dc:type
           rdf:resource="http://purl.org/dc/dcmitype/StillImage" />
        <dc:title></dc:title>
      </cc:Work>
    </rdf:RDF>
  </metadata>
  <g
     inkscape:label="Layer 1"
     inkscape:groupmode="layer"
     id="layer1"
     transform="translate(0,10.629368)">
    <path
       style="fill:none;stroke:#000000;stroke-width:1.06320488px;stroke-linecap:butt;stroke-linejoin:miter;stroke-opacity:1"
       d="m 482.18578,514.63937 c 595.02212,0 595.02212,0 595.02212,0"
       id="path3064"
       inkscape:connector-curvature="0" />
    <path
       style="fill:none;stroke:#000000;stroke-width:2.03003931px;stroke-linecap:butt;stroke-linejoin:miter;stroke-opacity:1"
       d="m 686.42548,62.23064 c 0,925.11786 0,925.11786 0,925.11786"
       id="path3066"
       inkscape:connector-curvature="0" />
    <path
       style="fill:none;stroke:#000000;stroke-width:0.63344431;stroke-linecap:butt;stroke-linejoin:miter;stroke-miterlimit:4;stroke-opacity:1;stroke-dasharray:7.60133157, 7.60133157;stroke-dashoffset:0"
       d="M 744.90452,235.18085 C 724.63044,377.62766 724.63044,377.62766 724.63044,377.62766"
       id="path3068"
       inkscape:connector-curvature="0" />
    <path
       style="fill:none;stroke:#000000;stroke-width:0.63344431;stroke-linecap:butt;stroke-linejoin:miter;stroke-miterlimit:4;stroke-opacity:1;stroke-dasharray:7.60133157, 7.60133157;stroke-dashoffset:0"
       d="M 715.5667,233.37686 C 695.29263,375.82365 695.29263,375.82365 695.29263,375.82365"
       id="path3068-2"
       inkscape:connector-curvature="0" />
    <path
       style="fill:none;stroke:#000000;stroke-width:1.18009639px;stroke-linecap:butt;stroke-linejoin:miter;stroke-opacity:1"
       d="M 632.4991,473.7322 C 331.77632,445.60858 331.77632,445.60858 331.77632,445.60858"
       id="path3903"
       inkscape:connector-curvature="0" />
    <rect
       style="opacity:0.22222224;fill:#d20000;fill-opacity:1;stroke-width:1;stroke-miterlimit:4;stroke-dasharray:12, 12;stroke-dashoffset:0"
       id="rect3943"
       width="157.41277"
       height="162.3613"
       x="723.08496"
       y="-325.08289"
       transform="matrix(0.67297744,0.73966301,-0.73966301,0.67297744,0,0)" />
    <rect
       style="opacity:0.222;fill:#0000d2;fill-opacity:1;stroke-width:1;stroke-miterlimit:4;stroke-dasharray:12, 12;stroke-dashoffset:0"
       id="rect3943-7"
       width="192.73788"
       height="200.19171"
       x="747.55408"
       y="-159.99843"
       transform="matrix(0.66280878,0.7487887,-0.73499105,0.67807681,0,0)" />
    <path
       style="fill:none;stroke:#000000;stroke-width:1.11534703px;stroke-linecap:butt;stroke-linejoin:miter;stroke-opacity:1"
       d="m 573.1749,452.11229 c 1.03687,1.92882 5.03945,4.74959 3.11062,5.78647 -1.92882,1.03688 -4.58434,-7.40622 -3.11062,-5.78647 1.82255,2.00314 2.71447,4.6895 4.1829,6.96501 0.57597,0.89253 1.42972,1.57139 2.14459,2.35709 1.78715,1.96424 3.5743,3.92848 5.36145,5.89273 0.48292,0.53076 2.7112,3.34012 3.21687,3.53562 0.70058,0.27086 1.55026,-0.1646 2.25084,0.10626 1.1477,0.44372 4.57137,5.85542 5.36145,5.89271 0.53053,0.0251 0.68317,-1.26381 1.17855,-1.07228 1.01977,0.39426 4.33145,5.4945 5.36145,5.89272 0.70058,0.27085 1.55025,-0.16461 2.25083,0.10625 1.32926,0.51392 1.88763,3.02172 3.21688,3.53564 0.70057,0.27085 1.55025,-0.1646 2.25083,0.10625 1.04434,0.40376 3.24483,4.31041 4.28916,4.71418 0.70058,0.27086 1.55026,-0.16461 2.25084,0.10624 1.32925,0.51393 1.88761,3.02173 3.21688,3.53564 0.70056,0.27086 1.55025,-0.1646 2.25083,0.10626 0.99076,0.38305 1.15381,1.97403 2.14457,2.35708 0.70058,0.27086 1.55027,-0.1646 2.25083,0.10626 0.49539,0.19153 0.54177,1.15349 1.0723,1.17855 0.53052,0.025 0.64802,-1.09734 1.17855,-1.0723 0.46015,0.0217 2.55807,3.28092 3.21687,3.53563 0.70058,0.27086 1.55025,-0.1646 2.25083,0.10626 0.99077,0.38305 1.08352,2.307 2.14458,2.35708 0.53053,0.0251 0.64802,-1.09732 1.17854,-1.07229 0.53053,0.0251 0.57692,0.98703 1.0723,1.17855 0.70057,0.27086 1.55026,-0.1646 2.25083,0.10626 1.32925,0.51391 1.88761,3.0217 3.21687,3.53563 0.70058,0.27086 1.55026,-0.16461 2.25084,0.10625 0.99076,0.38306 1.15382,1.97404 2.14458,2.35709 0.70057,0.27086 1.55026,-0.1646 2.25084,0.10626 0.99076,0.38304 1.15381,1.97402 2.14458,2.35708 0.70058,0.27086 1.55025,-0.16461 2.25083,0.10626 0.49538,0.19153 0.54177,1.15349 1.07229,1.17854 0.53053,0.025 0.64802,-1.09733 1.17854,-1.0723 0.53053,0.025 0.57692,0.98703 1.07229,1.17854 0.70058,0.27086 1.55027,-0.16459 2.25085,0.10627 0.49537,0.19151 0.54175,1.1535 1.07229,1.17854 0.53052,0.025 0.64801,-1.09733 1.17854,-1.07228 0.53052,0.025 0.54176,1.15349 1.07229,1.17854 0.53053,0.025 0.64801,-1.09734 1.17854,-1.07229 0.53053,0.025 0.54176,1.15349 1.07229,1.17854 0.53053,0.025 0.64802,-1.09734 1.17855,-1.07229 0.53053,0.025 0.54175,1.15349 1.07229,1.17854 0.53053,0.025 0.64801,-1.09734 1.17854,-1.07229 0.53053,0.025 0.54177,1.1535 1.07229,1.17854 0.53053,0.0251 0.64802,-1.09733 1.17854,-1.07229 0.53053,0.0251 0.57692,0.98702 1.07229,1.17855 0.70058,0.27086 1.55027,-0.1646 2.25085,0.10626 0.49537,0.19151 0.54176,1.15349 1.07229,1.17854 0.53051,0.025 0.66731,-0.92828 1.17854,-1.07229 0.72298,-0.20366 1.52786,0.30991 2.25083,0.10625 0.51122,-0.14401 0.64802,-1.09734 1.17855,-1.07229 0.53053,0.025 0.54176,1.1535 1.07229,1.17854 0.53053,0.025 0.66732,-0.92827 1.17854,-1.07229 0.72298,-0.20366 1.52785,0.30991 2.25083,0.10626 0.51123,-0.14401 0.66733,-0.92829 1.17854,-1.07229 0.72298,-0.20366 1.52786,0.3099 2.25084,0.10624 0.51122,-0.144 0.64802,-1.09732 1.17854,-1.07229 0.53053,0.0251 0.54177,1.15352 1.07229,1.17855 1.06106,0.0501 1.33466,-1.85656 2.35709,-2.14459 7.46509,0.35241 -1.61661,0.45541 3.42939,-0.96602 0.72298,-0.20366 1.52786,0.30991 2.25083,0.10626 1.02245,-0.28802 1.33465,-1.85658 2.35709,-2.14459 0.72298,-0.20366 1.52786,0.30991 2.25084,0.10625 1.07771,-0.30359 3.63644,-3.98558 4.71417,-4.28916 0.72298,-0.20365 1.52785,0.30991 2.25084,0.10625 1.08174,-0.30472 4.81097,-5.05673 5.89271,-5.36145 0.72298,-0.20366 1.52786,0.30991 2.25083,0.10626 0.51123,-0.14401 0.78571,-0.71488 1.17855,-1.0723 0.39285,-0.35743 0.7857,-0.71486 1.17854,-1.07229 2.3571,-2.14458 4.71418,-4.28916 7.07127,-6.43374 3.14279,-2.85944 6.28557,-5.71889 9.42836,-8.57833 0.53077,-0.48292 3.34013,-2.7112 3.53563,-3.21687 0.27086,-0.70058 -0.16461,-1.55025 0.10625,-2.25083 0.40377,-1.04432 4.31041,-3.24484 4.71418,-4.28917 0.27086,-0.70058 -0.1646,-1.55025 0.10626,-2.25083 0.38305,-0.99077 1.97404,-1.15382 2.35708,-2.14457 0.27086,-0.70058 -0.16459,-1.55027 0.10625,-2.25084 0.38306,-0.99077 1.83778,-1.21795 2.3571,-2.14459 0.58061,-1.036 0.70417,-2.28712 1.2848,-3.32312 0.25965,-0.46332 0.987,-0.57691 1.17854,-1.07228 0.54172,-1.40116 -0.32921,-3.10053 0.21249,-4.50168 0.19154,-0.49538 0.98704,-0.57691 1.17856,-1.0723 0.27085,-0.70057 -0.16461,-1.55025 0.10625,-2.25083 0.19154,-0.49539 0.98702,-0.5769 1.17855,-1.07229 0.54172,-1.40116 -0.32921,-3.10051 0.2125,-4.50166 0.19153,-0.49539 0.98703,-0.57692 1.17855,-1.07229 0.54172,-1.40116 -0.32922,-3.10053 0.21252,-4.50168 0.19151,-0.49537 0.987,-0.57691 1.17854,-1.07228 0.17056,-0.44117 0.447,-6.29725 0.31875,-6.75251 -0.14401,-0.51123 -1.09734,-0.64801 -1.07229,-1.17854 0.025,-0.53053 0.98702,-0.57692 1.17854,-1.07229 0.27086,-0.70058 0.0708,-1.50056 0.10625,-2.25083 0.0354,-0.75029 0.30992,-1.52787 0.10627,-2.25085 -0.14401,-0.51122 -1.09734,-0.64802 -1.07229,-1.17854 0.21984,-4.65706 3.29499,3.813 1.28479,-3.32313 -0.144,-0.51121 -0.92828,-0.66732 -1.07229,-1.17855 -0.20366,-0.72298 0.30991,-1.52785 0.10625,-2.25083 -0.14401,-0.51123 -0.92828,-0.66732 -1.07229,-1.17854 -0.20366,-0.72298 0.30991,-1.52785 0.10625,-2.25083 -0.28801,-1.02245 -2.19467,-1.29604 -2.14458,-2.35709 0.0251,-0.53052 1.15351,-0.54178 1.17854,-1.07229 0.0291,-0.61587 -4.02712,-3.78398 -4.28916,-4.71417 -0.20366,-0.72298 0.30993,-1.52787 0.10626,-2.25084 -0.14401,-0.51122 -0.71486,-0.7857 -1.07229,-1.17854 -0.35743,-0.39285 -0.71486,-0.7857 -1.07229,-1.17855 -0.35743,-0.39285 -0.71486,-0.7857 -1.0723,-1.17855 -0.35743,-0.39285 -0.54175,-1.1535 -1.07228,-1.17854 -0.53052,-0.0251 -0.64802,1.09734 -1.17855,1.07229 -0.46015,-0.0217 -2.55807,-3.28092 -3.21687,-3.53563 -0.70057,-0.27086 -1.55026,0.1646 -2.25083,-0.10625 -0.49538,-0.19153 -0.57691,-0.98703 -1.0723,-1.17855 -0.70057,-0.27085 -1.55025,0.1646 -2.25083,-0.10626 -0.49538,-0.19152 -0.5769,-0.98702 -1.07229,-1.17854 -0.70058,-0.27086 -1.55025,0.16461 -2.25083,-0.10625 -0.49539,-0.19154 -0.54176,-1.1535 -1.07229,-1.17855 -0.53053,-0.025 -0.64801,1.09734 -1.17854,1.07229 -4.65706,-0.21983 3.81299,-3.29501 -3.32313,-1.2848 -0.51122,0.14401 -0.64803,1.09734 -1.17856,1.0723 -0.53051,-0.0251 -0.5769,-0.98702 -1.07228,-1.17854 -3.67381,-1.42038 -1.06421,0.29978 -3.42938,0.96603 -1.6873,0.47531 -7.31603,-0.90032 -9.00333,-0.42502 -0.51123,0.14401 -0.66733,0.92829 -1.17855,1.0723 -0.72297,0.20365 -1.50056,-0.0708 -2.25084,-0.10626 -0.75027,-0.0354 -1.55026,0.1646 -2.25083,-0.10625 -0.49538,-0.19153 -0.54177,-1.1535 -1.0723,-1.17855 -0.53052,-0.025 -0.66732,0.92828 -1.17854,1.07229 -7.84746,2.21059 5.4455,-4.0617 -5.6802,0.85978 -0.97144,0.42972 -1.33465,1.85657 -2.3571,2.14459 -0.72298,0.20366 -1.52785,-0.30991 -2.25083,-0.10625 -0.51123,0.144 -0.66732,0.92827 -1.17854,1.07229 -0.72298,0.20366 -1.56393,-0.41012 -2.25084,-0.10626 -0.70253,0.31077 -3.95117,4.07423 -4.71418,4.28916 -0.72298,0.20367 -1.52786,-0.30991 -2.25084,-0.10625 -0.94359,0.2658 -5.87045,5.90255 -7.07126,6.43375 -0.6869,0.30385 -1.52785,-0.30992 -2.25083,-0.10626 -0.45087,0.12701 -4.09789,3.72844 -4.71418,4.28916 -0.65848,0.59911 -5.40816,4.49683 -5.89272,5.36145 -0.58062,1.03601 -0.70419,2.28712 -1.2848,3.32313 -0.87252,1.55687 -3.84165,2.73228 -4.71418,4.28916 -0.36721,0.65524 0.16461,1.55026 -0.10625,2.25083 -0.28585,0.73937 -4.33861,3.61904 -4.71418,4.28917 -0.3672,0.65523 0.16461,1.55026 -0.10625,2.25084 -0.19153,0.49538 -0.98702,0.5769 -1.17854,1.07229 -0.27086,0.70057 0.1646,1.55025 -0.10625,2.25083 -0.38306,0.99077 -1.97405,1.15381 -2.3571,2.14458 -0.27086,0.70058 0.1646,1.55026 -0.10626,2.25084 -0.19152,0.49537 -0.98701,0.5769 -1.17854,1.07229 -0.27086,0.70058 0.16462,1.55025 -0.10625,2.25083 -0.19153,0.49538 -0.98701,0.57691 -1.17854,1.07228 -0.54172,1.40116 0.32921,3.10053 -0.21251,4.50168 -0.19152,0.49538 -0.98702,0.57691 -1.17854,1.07229 -0.54172,1.40115 0.32921,3.10051 -0.21251,4.50167 -0.19153,0.49538 -0.98702,0.5769 -1.17854,1.07229 -0.77088,1.99387 0.45211,4.75863 -0.31877,6.7525 -0.88609,2.29189 -2.35277,-0.46814 -1.2848,3.32314 0.14402,0.5112 0.92829,0.66732 1.07229,1.17854 0.57962,2.05762 -0.89838,4.69488 -0.31875,6.7525 0.144,0.51123 0.92828,0.66732 1.07229,1.17854 0.20366,0.72298 -0.30992,1.52786 -0.10626,2.25084 0.14401,0.51122 1.09734,0.64801 1.07229,1.17855 -0.0251,0.53052 -1.1535,0.54175 -1.17854,1.07228 -0.0251,0.53053 0.92829,0.66732 1.07229,1.17855 0.20366,0.72298 -0.30991,1.52785 -0.10625,2.25083 0.14401,0.51123 0.92828,0.66732 1.07229,1.17855 0.20366,0.72298 -0.30992,1.52785 -0.10626,2.25083 0.19151,0.67986 3.2386,3.07548 3.21687,3.53564 -0.025,0.53051 -1.1535,0.54175 -1.17854,1.07229 -0.0291,0.61587 4.02713,3.78398 4.28916,4.71417 0.20366,0.72298 -0.30991,1.52785 -0.10625,2.25083 0.12488,0.44335 5.6737,6.23592 6.43374,7.07127 0.35743,0.39285 0.54177,1.1535 1.07229,1.17854 0.53053,0.0251 0.82111,-1.46514 1.17854,-1.07229 0.35743,0.39285 -0.82111,1.46514 -1.17854,1.07229 -0.35743,-0.39285 0.82111,-1.46514 1.17854,-1.07229 0.35743,0.39285 -1.15349,0.54177 -1.17854,1.07229 -0.025,0.53053 1.46513,0.82112 1.07229,1.17854 -0.39285,0.35744 -1.46514,-0.82111 -1.07229,-1.17854 0.39284,-0.35742 0.54176,1.15351 1.07229,1.17854 0.53053,0.0251 0.82112,-1.46513 1.17854,-1.07229 0.35743,0.39285 -1.15349,0.54177 -1.17854,1.07229 -0.0329,0.69698 5.39436,5.19577 5.36146,5.89273 -0.025,0.53053 -1.15351,0.54176 -1.17855,1.07229 -0.0501,1.06105 1.85657,1.33465 2.14457,2.35709 0.20367,0.72297 -0.3099,1.52786 -0.10624,2.25084 0.144,0.51121 1.09734,0.64801 1.07229,1.17855 -0.025,0.53052 -1.1535,0.54175 -1.17854,1.07228 -0.025,0.53053 1.09733,0.64801 1.07229,1.17855 -0.0251,0.53053 -1.15351,0.54176 -1.17854,1.07228 -0.0251,0.53054 1.09732,0.64802 1.07228,1.17855 -0.025,0.53053 -1.1535,0.54176 -1.17854,1.07229 -0.025,0.53053 0.92827,0.66732 1.07228,1.17854 0.20367,0.72298 -0.30991,1.52785 -0.10625,2.25083 0.14401,0.51123 1.09735,0.64803 1.07229,1.17855 -0.025,0.53052 -1.15349,0.54177 -1.17854,1.07229 -0.025,0.53053 0.92829,0.66733 1.0723,1.17855 -0.35241,7.46508 -0.45539,-1.61663 0.96603,3.42938 0.40732,1.44596 -0.61982,3.05571 -0.21251,4.50166 0.14401,0.51123 0.9283,0.66733 1.07229,1.17855 0.40732,1.44596 -0.61982,3.05572 -0.2125,4.50168 0.144,0.51121 1.09733,0.64801 1.07229,1.17854 -0.21985,4.65705 -3.295,-3.81301 -1.2848,3.32312 0.14401,0.51123 1.09733,0.64802 1.07229,1.17854 -0.21984,4.65706 -3.29501,-3.813 -1.2848,3.32313 0.14401,0.51122 0.92829,0.66732 1.07228,1.17854 0.47531,1.68731 -0.90031,7.31604 -0.425,9.00334 0.66625,2.36517 2.38641,-0.24443 0.96602,3.42938 -0.19151,0.49539 -0.98701,0.57691 -1.17854,1.07229 -1.42037,3.67381 0.29978,1.06421 0.96604,3.42938 0.20366,0.72297 -0.0708,1.50056 -0.10624,2.25084 -0.0354,0.75028 0.1646,1.55026 -0.10626,2.25083 -0.19153,0.49538 -0.98701,0.57691 -1.17855,1.0723 -0.27085,0.70057 -0.0708,1.50055 -0.10625,2.25083 -0.0354,0.75028 -0.30992,1.52785 -0.10626,2.25083 0.14401,0.51123 1.09733,0.64801 1.07229,1.17855 -0.0251,0.53053 -0.98701,0.5769 -1.17854,1.07228 -0.77089,1.99388 0.45212,4.75863 -0.31875,6.75251 -0.19154,0.49538 -0.98703,0.57691 -1.17855,1.0723 -0.24185,5.12321 0.52748,0.0894 -1.2848,3.32312 -5.94768,10.61261 1.54895,-2.03037 -1.39105,5.57395 -0.19153,0.49539 -0.98702,0.57691 -1.17854,1.07229 -0.27086,0.70058 0.16459,1.55027 -0.10626,2.25084 -0.19152,0.49538 -0.91889,0.60897 -1.17855,1.07229 -0.58061,1.03601 -0.70417,2.28713 -1.28479,3.32313 -0.51933,0.92663 -1.97403,1.15382 -2.35709,2.14458 -0.27086,0.70057 0.1646,1.55027 -0.10625,2.25083 -0.38306,0.99077 -1.97404,1.15382 -2.3571,2.14459 -0.27085,0.70057 0.16461,1.55026 -0.10625,2.25084 -0.38304,0.99075 -1.97403,1.15381 -2.35708,2.14457 -0.27086,0.70058 0.16461,1.55025 -0.10625,2.25083 -0.38306,0.99078 -1.97405,1.15382 -2.3571,2.1446 -0.27085,0.70056 0.1646,1.55025 -0.10626,2.25083 -0.41049,1.06176 -4.05326,3.10986 -4.71416,4.28915 -0.58062,1.03601 -0.70419,2.28712 -1.28481,3.32313 -0.4896,0.87362 -5.92941,5.39483 -7.07126,6.43373 -2.3571,2.1446 -4.71418,4.28917 -7.07126,6.43375 -0.7857,0.71486 -1.5714,1.42972 -2.3571,2.14459 -0.39285,0.35743 -0.66732,0.92828 -1.17854,1.07229 -0.72298,0.20366 -1.56392,-0.41011 -2.25084,-0.10625 -4.59002,2.0304 -0.7306,1.97606 -3.53562,3.21686 -1.0861,0.48044 -2.34329,0.4856 -3.42939,0.96605 -0.97142,0.42971 -1.33463,1.85656 -2.35708,2.14458 -0.72298,0.20366 -1.52785,-0.30992 -2.25083,-0.10626 -0.51123,0.14401 -0.69283,0.85743 -1.17855,1.07229 -1.0861,0.48044 -2.34328,0.4856 -3.42938,0.96604 -0.97143,0.42972 -1.33464,1.85656 -2.35709,2.14458 -7.84746,2.21059 5.44549,-4.06171 -5.68021,0.85977 -0.48572,0.21486 -0.66732,0.92829 -1.17855,1.07229 -1.44595,0.40733 -3.01635,-0.43732 -4.50167,-0.21249 -2.95593,-2.05654 -2.99129,1.58293 -4.60792,2.03832 -1.6873,0.4753 -7.31604,-0.90031 -9.00335,-0.42501 -0.51121,0.144 -0.66731,0.92828 -1.17854,1.07229 -0.72298,0.20366 -1.50055,-0.0708 -2.25083,-0.10626 -0.75028,-0.0354 -1.50056,-0.0708 -2.25083,-0.10625 -1.18498,-0.0559 -5.8651,0.0243 -6.75251,-0.31876 -0.49537,-0.19152 -0.54177,-1.1535 -1.07229,-1.17855 -0.53052,-0.025 -0.7857,0.71486 -1.17855,1.07229 -0.75028,-0.0354 -1.52206,0.0756 -2.25083,-0.10625 -3.13652,1.76892 -2.82887,-1.85768 -4.39541,-2.46334 -1.40116,-0.54172 -3.10052,0.32921 -4.50167,-0.21251 -0.49538,-0.19152 -0.57691,-0.98702 -1.07229,-1.17855 -0.70058,-0.27085 -1.55026,0.16461 -2.25084,-0.10625 -0.49539,-0.19153 -0.60898,-0.91888 -1.07229,-1.17854 -1.03601,-0.58061 -2.28712,-0.70417 -3.32312,-1.28479 -0.46333,-0.25966 -0.57691,-0.98704 -1.07229,-1.17855 -0.70058,-0.27086 -1.55027,0.1646 -2.25085,-0.10626 -0.49536,-0.19152 -0.60896,-0.91888 -1.07229,-1.17854 -1.036,-0.58061 -2.28711,-0.70418 -3.32312,-1.2848 -0.92664,-0.51932 -1.15382,-1.97404 -2.14458,-2.35708 -0.70058,-0.27086 -1.5956,0.26096 -2.25083,-0.10625 -0.38243,-0.21434 -6.1057,-6.32968 -6.43374,-7.07127 -0.48044,-1.08611 -0.4856,-2.34329 -0.96605,-3.42939 -0.63378,-1.43274 -4.73347,-4.47309 -5.36144,-5.89271 -0.30387,-0.68691 0.3099,-1.52787 0.10625,-2.25083 -0.14401,-0.51122 -0.71487,-0.78571 -1.0723,-1.17856 0.0354,-0.75028 0.30992,-1.52785 0.10626,-2.25083 -0.144,-0.51122 -0.85743,-0.69282 -1.07229,-1.17854 -0.48044,-1.0861 -0.4856,-2.34328 -0.96603,-3.42938 -0.42972,-0.97144 -1.85657,-1.33465 -2.14459,-2.35709 -0.20365,-0.72297 0.41011,-1.56392 0.10626,-2.25084 -0.42972,-0.97142 -1.71486,-1.38565 -2.14458,-2.35709 -0.30385,-0.6869 0.30991,-1.52785 0.10625,-2.25083 -0.14401,-0.51122 -0.92828,-0.66731 -1.07229,-1.17854 -0.40732,-1.44595 0.82022,-3.12785 0.2125,-4.50167 -0.42971,-0.97143 -1.71486,-1.38565 -2.14458,-2.35709 -0.6077,-1.37381 0.61983,-3.05572 0.21251,-4.50167 -0.144,-0.51123 -0.92827,-0.66732 -1.07228,-1.17854 -0.47531,-1.68731 0.90031,-7.31603 0.425,-9.00335 -0.144,-0.51121 -0.71485,-0.78569 -1.07229,-1.17854 -0.32201,-1.14313 -0.7883,-2.25513 -0.96603,-3.42937 -0.11241,-0.74266 0.0708,-1.50056 0.10625,-2.25084 0.10626,-2.25084 0.2125,-4.50167 0.31877,-6.75251 0.17708,-3.75139 0.35417,-7.50277 0.53126,-11.25417 0.0708,-1.50056 -0.15123,-3.04415 0.21251,-4.50167 0.28756,-1.15227 0.99724,-2.17085 1.2848,-3.32312 0.53501,-2.14383 -0.21626,-4.60867 0.31876,-6.75251 0.28757,-1.15228 0.99723,-2.17085 1.2848,-3.32313 0.36374,-1.45751 -0.52192,-3.19121 0.2125,-4.50166 0.51932,-0.92664 1.83778,-1.21795 2.35708,-2.14458 0.36722,-0.65524 -0.0756,-1.52207 0.10627,-2.25085 0.28756,-1.15227 0.99722,-2.17084 1.2848,-3.32311 0.18187,-0.72876 -0.26096,-1.59561 0.10624,-2.25084 0.51933,-0.92663 1.76824,-1.2605 2.35709,-2.14458 2.7794,-1.23044 0.45485,-3.90345 1.39106,-5.57396 0.51932,-0.92664 1.83777,-1.21794 2.35709,-2.14458 0.36721,-0.65523 -0.26096,-1.59562 0.10624,-2.25084 0.73901,-1.31863 2.79664,-1.89824 3.53564,-3.21688 0.58062,-1.03599 0.70419,-2.28711 1.2848,-3.32312 0.58701,-1.04743 6.92637,-6.30191 8.24981,-7.50603 1.02131,-0.92923 3.82443,-3.89557 4.71417,-4.28915 1.0861,-0.48045 2.34329,-0.48561 3.42939,-0.96605 0.48572,-0.21486 0.78569,-0.71486 1.17854,-1.07229 0.78569,-0.71486 1.38566,-1.71486 2.35708,-2.14458 0.68692,-0.30386 1.52787,0.30991 2.25084,0.10626 0.51121,-0.14402 0.69283,-0.85744 1.17855,-1.07229 1.08609,-0.48045 2.34328,-0.48561 3.42938,-0.96605 0.48571,-0.21486 0.69282,-0.85743 1.17854,-1.07228 1.08609,-0.48045 2.34328,-0.48561 3.42937,-0.96604 0.97144,-0.42972 1.38567,-1.71486 2.35709,-2.14458 1.0861,-0.48044 2.34329,-0.4856 3.42939,-0.96604 0.48571,-0.21486 0.66731,-0.92828 1.17854,-1.07229 0.72298,-0.20366 1.52785,0.30992 2.25083,0.10626 0.51123,-0.14402 0.66732,-0.92829 1.17855,-1.07229 2.05763,-0.57963 4.69487,0.89837 6.75251,0.31875 0.51121,-0.144 0.64801,-1.09733 1.17854,-1.07229 0.53053,0.025 0.57691,0.98702 1.07229,1.17855 0.70058,0.27086 1.50056,0.0708 2.25083,0.10625 0.75028,0.0354 1.50056,0.0708 2.25084,0.10626 2.25083,0.10625 4.50167,0.2125 6.7525,0.31875 1.50057,0.0709 3.04414,-0.15123 4.50167,0.21251 3.13653,-1.76891 2.82888,1.85769 4.39542,2.46335 1.99388,0.77088 4.75863,-0.45213 6.7525,0.31876 0.49538,0.19152 0.71487,0.7857 1.07229,1.17854 1.10771,0.42827 2.17085,0.99724 3.32313,1.2848 4.5197,1.12794 -0.018,-0.91544 4.50167,0.2125 1.15227,0.28757 2.17085,0.99724 3.32312,1.28481 1.71168,0.42716 2.79,-0.21466 4.50168,0.2125 1.15226,0.28757 2.17085,0.99724 3.32312,1.2848 0.72876,0.18186 1.59561,-0.26096 2.25083,0.10625 0.92664,0.51932 1.21796,1.83777 2.14458,2.35709 0.65523,0.36722 1.52208,-0.0756 2.25085,0.10626 1.15227,0.28756 2.2154,0.85653 3.32312,1.28479 1.1077,0.42826 2.2871,0.70419 3.32312,1.2848 0.46332,0.25967 0.60896,0.91889 1.07228,1.17854 1.03602,0.58062 2.28712,0.70419 3.32314,1.28481 0.46331,0.25965 0.60897,0.91887 1.07229,1.17854 1.03601,0.58062 2.3347,0.62643 3.32312,1.28479 0.88409,0.58887 1.21795,1.83778 2.14458,2.35709 0.65523,0.36722 1.5956,-0.26095 2.25084,0.10627 1.38996,0.77896 1.82692,2.75664 3.21687,3.53562 1.03601,0.58061 2.3347,0.62644 3.32312,1.2848 1.32611,0.88329 2.14459,2.3571 3.21688,3.53564 0.74043,0.8138 3.78399,4.51885 4.28915,4.71417 0.70058,0.27086 1.59562,-0.26097 2.25084,0.10624 0.48246,0.2704 7.2823,7.74403 7.50603,8.24981 0.30387,0.68692 -0.3099,1.52787 -0.10624,2.25085 0.30357,1.07771 3.98556,3.63645 4.28915,4.71417 0.20367,0.72298 -0.30991,1.52786 -0.10625,2.25083 0.28802,1.02245 1.71487,1.38566 2.14459,2.3571 0.48044,1.08609 0.4856,2.34328 0.96603,3.42937 0.42972,0.97145 1.85657,1.33466 2.14458,2.35709 0.20366,0.72298 -0.30991,1.52786 -0.10626,2.25084 0.14401,0.51122 0.9283,0.66732 1.07229,1.17855 0.20367,0.72296 -0.3099,1.52785 -0.10624,2.25083 0.144,0.51122 0.85742,0.69283 1.07229,1.17855 0.48043,1.0861 0.4856,2.34327 0.96603,3.42937 0.21485,0.48572 0.92828,0.66731 1.07229,1.17854 -0.35239,7.46509 -0.45539,-1.61662 0.96604,3.42938 0.40731,1.44595 -0.61983,3.05572 -0.21251,4.50168 0.14401,0.51123 0.92828,0.66732 1.07229,1.17854 2.21059,7.84745 -4.06169,-5.44548 0.85978,5.68022 0.21486,0.48571 1.09734,0.64801 1.07229,1.17854 -0.025,0.53053 -0.98701,0.5769 -1.17854,1.07229 -1.42037,3.67381 0.29979,1.06421 0.96604,3.42938 0.20366,0.72298 -0.0708,1.50055 -0.10625,2.25083 -0.0625,1.32382 -0.6487,8.2093 -0.42502,9.00334 0.14401,0.51122 0.92829,0.66732 1.07229,1.17855 0.20366,0.72297 -0.0708,1.50055 -0.10625,2.25083 -0.0354,0.75028 0.16461,1.55025 -0.10625,2.25083 -0.19153,0.49539 -0.98702,0.57691 -1.17855,1.07229 -0.27086,0.70058 -0.0708,1.50056 -0.10626,2.25084 -0.0354,0.75028 -0.30991,1.52786 -0.10624,2.25084 0.144,0.51122 1.09734,0.64801 1.07228,1.17854 -0.025,0.53052 -0.98702,0.5769 -1.17854,1.07229 -0.54173,1.40115 0.32922,3.10051 -0.2125,4.50167 -0.19154,0.49538 -0.98702,0.57691 -1.17855,1.07229 -0.54172,1.40115 0.3292,3.10052 -0.21251,4.50167 -0.19152,0.49538 -0.98702,0.57691 -1.17854,1.07229 -0.54172,1.40115 0.32921,3.10051 -0.21251,4.50167 -0.19153,0.49538 -0.98702,0.5769 -1.17854,1.07229 -0.27087,0.70057 0.26095,1.5956 -0.10626,2.25083 -0.51932,0.92664 -1.83777,1.21795 -2.35709,2.14459 -0.36721,0.65522 0.16461,1.55026 -0.10626,2.25083 -0.19152,0.49537 -0.91887,0.60897 -1.17854,1.07229 -0.58061,1.03601 -0.70418,2.28712 -1.28479,3.32313 -0.25966,0.46331 -0.98701,0.5769 -1.17854,1.07229 -0.27086,0.70058 0.16459,1.55026 -0.10626,2.25083 -0.19152,0.49539 -0.91889,0.60897 -1.17854,1.07229 -0.58062,1.03601 -0.70419,2.28712 -1.28481,3.32313 -0.51931,0.92663 -1.97403,1.15381 -2.35708,2.14458 -0.27086,0.70058 0.26095,1.5956 -0.10626,2.25083 -0.44144,0.78766 -3.71637,3.38131 -4.71418,4.28916 -1.96423,1.78715 -3.92847,3.5743 -5.89272,5.36146 -1.17855,1.07229 -2.07848,2.57229 -3.53563,3.21687 -0.68691,0.30386 -1.56392,-0.41011 -2.25083,-0.10626 -0.97144,0.42972 -1.38566,1.71487 -2.35708,2.14458 -0.68692,0.30387 -1.56393,-0.4101 -2.25085,-0.10624 -0.97143,0.42971 -1.42147,1.64161 -2.35708,2.14458 -2.0921,1.12465 -4.68656,0.9712 -6.85876,1.93206 -0.48572,0.21487 -0.69283,0.85744 -1.17855,1.0723 -2.17219,0.96087 -4.76666,0.80743 -6.85875,1.93207 -0.93562,0.50297 -1.42147,1.64163 -2.35708,2.14458 -1.04606,0.56233 -2.34329,0.4856 -3.4294,0.96604 -0.4857,0.21487 -0.69282,0.85742 -1.17854,1.07229 -11.1257,4.92148 2.16725,-1.35081 -5.6802,0.85978 -0.51122,0.14401 -0.69284,0.85744 -1.17855,1.0723 -1.0861,0.48043 -2.34328,0.48559 -3.42938,0.96604 -0.48572,0.21485 -0.66733,0.92827 -1.17854,1.07229 -0.72298,0.20366 -1.56393,-0.41012 -2.25084,-0.10626 -0.97143,0.42972 -1.38565,1.71486 -2.35709,2.14457 -1.36713,0.60477 -5.38536,-0.92351 -6.75251,-0.31875 -0.97143,0.42971 -1.30681,1.98561 -2.35708,2.14458 -1.17424,0.17775 -2.17086,-0.99723 -3.32312,-1.2848 -0.72877,-0.18186 -1.50056,-0.0708 -2.25084,-0.10625 -0.75027,-0.0354 -1.50817,-0.21867 -2.25084,-0.10626 -1.17424,0.17774 -2.25514,0.7883 -3.42938,0.96605 -0.74265,0.11241 -1.50818,-0.21867 -2.25084,-0.10627 -1.17422,0.17775 -2.24308,1.02205 -3.42937,0.96604 -5.46684,-0.25806 -1.22412,-2.04947 -5.57396,-1.39104 -1.17424,0.17773 -2.24308,1.02203 -3.42938,0.96603 -1.1863,-0.056 -2.17085,-0.99723 -3.32313,-1.2848 -0.72876,-0.18187 -1.52206,0.0756 -2.25083,-0.10625 -1.15227,-0.28757 -2.13683,-1.22879 -3.32312,-1.2848 -1.1863,-0.056 -2.24308,1.02204 -3.42938,0.96604 -0.14416,-0.007 -6.30017,-2.48322 -6.64626,-2.5696 -0.72875,-0.18187 -1.50055,-0.0708 -2.25083,-0.10625 -1.1077,-0.42826 -2.17085,-0.99723 -3.32312,-1.2848 -0.72877,-0.18188 -1.52208,0.0756 -2.25084,-0.10625 -1.15227,-0.28758 -2.17085,-0.99724 -3.32313,-1.2848 -0.72876,-0.18187 -1.59559,0.26095 -2.25083,-0.10626 -0.92664,-0.51932 -1.26051,-1.76822 -2.14458,-2.35708 -0.98842,-0.65836 -2.28712,-0.70418 -3.32313,-1.2848 -0.46331,-0.25966 -0.60897,-0.91889 -1.07229,-1.17855 -1.036,-0.58061 -2.28711,-0.70418 -3.32312,-1.28479 -1.31863,-0.739 -1.89825,-2.79663 -3.21687,-3.53563 -0.65524,-0.36722 -1.55026,0.16459 -2.25084,-0.10627 -0.49538,-0.19151 -0.71486,-0.78569 -1.07229,-1.17854 -0.9148,-1.00545 -7.32657,-7.6127 -7.50604,-8.24981 -0.20366,-0.72298 0.30992,-1.52785 0.10626,-2.25083 -0.14402,-0.51122 -0.71486,-0.78569 -1.07229,-1.17854 -0.71486,-0.78569 -1.71487,-1.38565 -2.14458,-2.35709 -0.30386,-0.68691 0.30991,-1.52787 0.10626,-2.25083 -0.28802,-1.02245 -1.85657,-1.33465 -2.1446,-2.35709 -0.4073,-1.44595 0.82022,-3.12786 0.21252,-4.50167 -0.42972,-0.97144 -1.71487,-1.38565 -2.14458,-2.35709 -0.30386,-0.68692 0.30991,-1.52787 0.10626,-2.25083 -0.14401,-0.51123 -0.92829,-0.66733 -1.07231,-1.17855 -0.25795,-0.91579 0.26283,-5.56752 0.31877,-6.7525 0.24793,-5.25195 0.49585,-10.5039 0.74378,-15.75585 0.28335,-6.00223 0.56668,-12.00445 0.85003,-18.00667 0.0625,-1.32383 0.12753,-8.23392 0.42501,-9.00335 0.19153,-0.49538 0.98701,-0.57691 1.17854,-1.07229 0.54172,-1.40116 -0.15123,-3.04415 0.21251,-4.50166 0.28758,-1.15228 0.99724,-2.17086 1.28481,-3.32313 0.18186,-0.72877 -0.16461,-1.55026 0.10625,-2.25084 0.19153,-0.49538 0.98701,-0.5769 1.17854,-1.07229 0.54172,-1.40115 -0.52192,-3.19121 0.2125,-4.50167 0.51933,-0.92663 1.83778,-1.21795 2.35709,-2.14458 0.36722,-0.65522 -0.1646,-1.55026 0.10626,-2.25084 0.19153,-0.49538 0.98701,-0.57691 1.17854,-1.07229 0.27086,-0.70058 -0.1646,-1.55025 0.10626,-2.25083 0.19152,-0.49539 0.91889,-0.60897 1.17854,-1.07229 0.58061,-1.03601 0.70418,-2.28711 1.28479,-3.32312 0.25967,-0.46332 0.91889,-0.60898 1.17856,-1.0723 0.58061,-1.036 0.70418,-2.28711 1.2848,-3.32312 0.25965,-0.46332 0.91887,-0.60898 1.17854,-1.07229 0.58061,-1.03601 0.70417,-2.28712 1.28479,-3.32312 0.25966,-0.46333 0.7857,-0.71487 1.17854,-1.07229 0.78571,-0.71487 1.83778,-1.21795 2.3571,-2.14459 0.36721,-0.65522 -0.16461,-1.55025 0.10625,-2.25083 0.40377,-1.04433 4.31042,-3.24484 4.71417,-4.28916 0.27086,-0.70058 -0.26096,-1.59561 0.10626,-2.25085 0.46711,-0.83345 4.78272,-4.35152 5.89271,-5.36144 0.28007,-0.25482 4.32987,-4.18091 4.71419,-4.28917 0.72298,-0.20366 1.52785,0.30992 2.25083,0.10626 1.01171,-0.285 2.47914,-2.74953 3.53563,-3.21686 1.0861,-0.48045 2.34329,-0.48562 3.42939,-0.96605 0.48571,-0.21486 0.66732,-0.92828 1.17854,-1.07229 0.72298,-0.20366 1.52786,0.30992 2.25084,0.10626 0.51122,-0.14401 0.66731,-0.92828 1.17854,-1.07229 0.72297,-0.20367 1.52786,0.30991 2.25083,0.10625 0.51122,-0.14401 0.66733,-0.92829 1.17855,-1.07229 0.72297,-0.20365 1.52786,0.3099 2.25084,0.10625 0.51121,-0.14401 0.66731,-0.92829 1.17854,-1.07229 1.44594,-0.40731 3.12785,0.82021 4.50166,0.2125 0.97144,-0.42972 1.38566,-1.71486 2.35708,-2.14457 1.37383,-0.60772 3.01637,0.43733 4.50169,0.2125 1.17423,-0.17774 2.25514,-0.7883 3.42938,-0.96603 0.74264,-0.11242 1.52785,0.30991 2.25083,0.10625 0.51122,-0.14401 0.66732,-0.92829 1.17854,-1.07229 1.44596,-0.40731 3.01635,0.43733 4.50167,0.2125 1.17424,-0.17774 2.25514,-0.7883 3.42938,-0.96604 1.63381,-0.2473 4.99441,0.23578 6.7525,0.31878 1.01369,0.0478 6.05134,0.62892 6.75251,0.31874 0.97143,-0.42971 1.38564,-1.71485 2.35708,-2.14457 0.19083,-0.0844 6.46745,0.20855 6.75252,0.31877 0.49537,0.19152 0.5769,0.98701 1.07229,1.17854 0.8874,0.34309 5.56752,0.26281 6.75249,0.31875 3.75141,0.1771 7.50278,0.35419 11.25418,0.53128 0.75029,0.0354 1.52786,0.3099 2.25084,0.10624 0.51121,-0.144 0.64801,-1.09733 1.17854,-1.07228 4.65706,0.21985 -3.813,3.295 3.32312,1.28479 0.51123,-0.144 0.64802,-1.09732 1.17854,-1.07229 0.53053,0.025 0.57692,0.98703 1.0723,1.17856 0.70057,0.27084 1.55026,-0.16461 2.25084,0.10625 0.49538,0.19153 1.46513,0.82111 1.07229,1.17854 -0.39285,0.35743 -1.46514,-0.82111 -1.07229,-1.17854 0.55558,-0.50549 1.74534,-0.44933 2.25083,0.10625 0.35743,0.39285 -0.82111,1.46514 -1.17854,1.07229 -0.35743,-0.39285 0.82111,-1.46514 1.17854,-1.07229 0.35743,0.39285 -0.82111,1.46514 -1.17854,1.07229 -0.35743,-0.39285 0.82111,-1.46514 1.17854,-1.07229 0.35743,0.39285 -1.1535,0.54176 -1.17854,1.07229 -0.025,0.53053 0.71486,0.78569 1.07229,1.17854 0.35743,0.39285 0.54175,1.1535 1.07229,1.17854 0.53053,0.025 0.82111,-1.46514 1.17854,-1.07229 0.35743,0.39285 -1.53598,0.67944 -1.17854,1.07229 0.50548,0.55558 1.55025,-0.16461 2.25083,0.10626 0.49538,0.19153 0.71486,0.7857 1.07229,1.17854 0.35743,0.39285 1.46514,0.82113 1.0723,1.17855 -0.39285,0.35744 -1.46515,-0.82112 -1.0723,-1.17855 0.78569,-0.71486 1.08353,2.307 2.14459,2.3571 0.53052,0.025 0.64801,-1.09734 1.17854,-1.07229 0.53052,0.025 0.54176,1.15349 1.07229,1.17854 0.53053,0.025 0.64801,-1.09734 1.17855,-1.0723 0.53052,0.0251 0.54175,1.1535 1.07228,1.17855 0.53053,0.0251 0.64802,-1.09734 1.17855,-1.07229 0.53053,0.025 0.54175,1.1535 1.07229,1.17854 0.53053,0.025 0.64801,-1.09733 1.17854,-1.07229 0.53053,0.025 0.54176,1.15351 1.07229,1.17854 0.53053,0.025 0.64802,-1.09733 1.17854,-1.07228 1.06106,0.0501 1.08354,2.30699 2.14459,2.35709 0.53052,0.025 0.64802,-1.09734 1.17855,-1.07229 0.53052,0.025 0.54176,1.1535 1.07229,1.17854 0.53052,0.025 0.64801,-1.09734 1.17854,-1.07229 0.53052,0.025 0.54176,1.15349 1.07229,1.17854 0.53053,0.025 0.64802,-1.09734 1.17854,-1.07228 0.53053,0.025 0.54176,1.15349 1.07229,1.17854 0.53053,0.025 0.64802,-1.09734 1.17855,-1.0723 0.53052,0.025 0.54175,1.1535 1.07229,1.17854 0.53052,0.0251 0.64801,-1.09733 1.17854,-1.07228 0.53053,0.025 0.54176,1.1535 1.07229,1.17854 1.06105,0.0501 1.29604,-2.19467 2.35709,-2.14459 0.53053,0.025 0.54177,1.15352 1.07229,1.17855 0.53053,0.025 0.64802,-1.09732 1.17854,-1.07229 0.53053,0.025 0.54177,1.15351 1.0723,1.17855 0.53053,0.025 0.64802,-1.09734 1.17854,-1.07228 0.53053,0.025 0.54177,1.15349 1.07229,1.17854 0.53053,0.025 0.64802,-1.09734 1.17854,-1.07229 0.53053,0.025 0.54177,1.15349 1.07229,1.17854 4.65706,0.21984 -3.48564,-3.63955 3.42938,-0.96604 0.49539,0.19152 0.54176,1.1535 1.07229,1.17854 0.53053,0.0251 0.66733,-0.92828 1.17854,-1.07229 2.05763,-0.57962 4.69489,0.89838 6.75252,0.31877 0.51121,-0.14402 0.64801,-1.09734 1.17854,-1.07229 0.53052,0.025 0.54176,1.15349 1.07229,1.17854 0.53052,0.025 0.64801,-1.09734 1.17855,-1.07229 0.53051,0.025 0.54175,1.1535 1.07228,1.17854 1.06105,0.0501 1.29603,-2.19467 2.3571,-2.14458 0.53052,0.025 0.54175,1.1535 1.07228,1.17854 1.06105,0.0501 1.33464,-1.85657 2.35709,-2.14458 0.72298,-0.20366 1.52785,0.30992 2.25083,0.10626 1.02245,-0.28802 1.29604,-2.19467 2.35709,-2.14459 0.53052,0.025 0.54177,1.15351 1.07229,1.17854 0.53052,0.0251 0.7857,-0.71486 1.17854,-1.07228 2.35709,-2.14459 4.71418,-4.28917 7.07127,-6.43375 0.39285,-0.35743 0.64803,-1.09732 1.17854,-1.07229 0.53053,0.025 0.54178,1.15351 1.0723,1.17855 0.0724,0.003 3.24981,-2.95682 3.53563,-3.21687 2.74994,-2.50202 5.49987,-5.00403 8.24981,-7.50604 0.53077,-0.48291 3.34013,-2.7112 3.53563,-3.21687 0.27086,-0.70056 -0.1646,-1.55026 0.10626,-2.25084 0.19152,-0.49538 0.78569,-0.71486 1.17854,-1.07229 0.39284,-0.35743 0.78569,-0.71486 1.17854,-1.07229 2.35708,-2.14458 4.71418,-4.28917 7.07127,-6.43374 0.39285,-0.35744 0.78569,-0.71486 1.17854,-1.07229 0.39285,-0.35743 1.1535,-0.54176 1.17854,-1.07229 0.0251,-0.53052 -1.09733,-0.64801 -1.07229,-1.17854 0.025,-0.53054 0.7857,-0.71486 1.17855,-1.07229 2.35709,-2.14459 4.71418,-4.28917 7.07126,-6.43375 0.39285,-0.35743 1.15351,-0.54176 1.17854,-1.07229 0.025,-0.53053 -1.09732,-0.64801 -1.07228,-1.17854 0.0256,-0.54162 4.68861,-3.74755 4.71418,-4.28917 0.025,-0.53053 -1.09733,-0.64801 -1.07229,-1.17854 0.0501,-1.06105 1.97404,-1.15382 2.35708,-2.14458 0.27087,-0.70058 -0.1646,-1.55025 0.10626,-2.25083 0.19152,-0.49539 0.98702,-0.57692 1.17854,-1.07228 0.27086,-0.70058 -0.16459,-1.55027 0.10627,-2.25085 0.38304,-0.99076 2.30699,-1.08352 2.35708,-2.14458 0.0251,-0.53053 -1.09734,-0.64802 -1.07229,-1.17855 0.0501,-1.06104 2.30699,-1.08352 2.35708,-2.14457 0.025,-0.53053 -1.09734,-0.64802 -1.07229,-1.17855 0.025,-0.53052 0.98703,-0.57691 1.17854,-1.07229 0.27086,-0.70058 -0.16459,-1.55026 0.10625,-2.25083 0.19153,-0.49538 1.15351,-0.54177 1.17856,-1.0723 0.025,-0.53053 -1.09733,-0.64801 -1.07229,-1.17855 0.0711,-1.50502 2.28604,-0.63955 2.35708,-2.14457 -2.85944,-3.14279 -0.0354,0.75028 0.10626,-2.25083 0.025,-0.53053 -1.09734,-0.64802 -1.07229,-1.17855 0.025,-0.53053 0.98701,-0.5769 1.17854,-1.07228 0.27086,-0.70058 -0.1646,-1.55026 0.10625,-2.25083 0.19153,-0.49539 1.15351,-0.54178 1.17855,-1.0723 0.025,-0.53053 -1.09734,-0.64803 -1.0723,-1.17856 0.0251,-0.53051 1.15351,-0.54176 1.17855,-1.07229 0.025,-0.53051 -1.09733,-0.64801 -1.07229,-1.17854 0.025,-0.53052 1.1535,-0.54176 1.17854,-1.07229 0.0251,-0.53053 -1.09733,-0.64801 -1.07228,-1.17854 0.025,-0.53054 1.15349,-0.54176 1.17854,-1.07229 0.025,-0.53053 -0.92828,-0.66732 -1.07229,-1.17855 -0.40732,-1.44596 0.61982,-3.05572 0.21251,-4.50166 -0.14401,-0.51123 -1.09735,-0.64802 -1.07229,-1.17854 0.025,-0.53053 1.1535,-0.54178 1.17854,-1.07229 0.025,-0.53053 -1.09733,-0.64804 -1.0723,-1.17855 0.0251,-0.53052 1.15351,-0.54177 1.17855,-1.0723 0.0251,-0.53052 -1.09733,-0.64802 -1.07229,-1.17854 0.0251,-0.53053 1.1535,-0.54177 1.17855,-1.0723 0.0501,-1.06105 -2.19467,-1.29602 -2.14458,-2.35708 0.025,-0.53053 1.1535,-0.54176 1.17854,-1.07229 0.025,-0.53053 -0.92827,-0.66732 -1.07229,-1.17854 -0.20366,-0.72298 0.30992,-1.52785 0.10626,-2.25083 -0.14401,-0.51123 -1.09735,-0.64803 -1.07229,-1.17854 0.025,-0.53054 1.15348,-0.54178 1.17854,-1.07229 0.025,-0.53053 -0.92829,-0.66734 -1.0723,-1.17856 -0.20365,-0.72297 0.30991,-1.52785 0.10625,-2.25083 -0.144,-0.51122 -1.09733,-0.64801 -1.07229,-1.17854 0.0251,-0.53053 1.15352,-0.54177 1.17855,-1.0723 0.0501,-1.06105 -2.19466,-1.29603 -2.14457,-2.35708 0.025,-0.53053 1.1535,-0.54177 1.17854,-1.07229 0.025,-0.53053 -0.92828,-0.66732 -1.07229,-1.17854 -0.20366,-0.72298 0.30991,-1.52787 0.10626,-2.25084 -0.14401,-0.51122 -0.71487,-0.78571 -1.0723,-1.17856 0.0354,-0.75027 0.30991,-1.52785 0.10625,-2.25083 -0.288,-1.02243 -2.19466,-1.29602 -2.14457,-2.35708 0.025,-0.53053 1.15349,-0.54176 1.17854,-1.07229 0.0501,-1.06105 -2.19468,-1.29604 -2.14458,-2.35708 0.025,-0.53054 1.15348,-0.54178 1.17854,-1.07229 0.0531,-1.12543 -3.27,-2.41022 -3.21688,-3.53564 0.0251,-0.53053 1.1535,-0.54176 1.17854,-1.07229 0.0256,-0.54163 -4.31472,-4.17255 -4.28915,-4.71417 0.025,-0.53053 1.1535,-0.54179 1.17855,-1.0723 0.0291,-0.61587 -4.02714,-3.78398 -4.28917,-4.71418 -0.20366,-0.72297 0.30992,-1.52786 0.10626,-2.25083 -0.1249,-0.44334 -5.6737,-6.23591 -6.43375,-7.07127 -0.76004,-0.83535 -6.00415,-6.90517 -6.43374,-7.07126 -0.70058,-0.27087 -1.55026,0.16461 -2.25084,-0.10626 -0.99075,-0.38305 -1.08353,-2.307 -2.14457,-2.35708 -0.53053,-0.0251 -0.64802,1.09734 -1.17855,1.07229 -1.06105,-0.0501 -1.08353,-2.30701 -2.14459,-2.35709 -0.53053,-0.025 -0.64801,1.09733 -1.17854,1.07229 -1.06105,-0.0501 -1.08352,-2.307 -2.14458,-2.35709 -0.53053,-0.025 -0.64801,1.09733 -1.17854,1.07229 -0.53053,-0.025 -0.5769,-0.98702 -1.07229,-1.17854 -0.70058,-0.27086 -1.55026,0.1646 -2.25083,-0.10626 -0.49539,-0.19153 -0.54177,-1.1535 -1.0723,-1.17855 -0.53052,-0.025 -0.64802,1.09734 -1.17854,1.07229 -0.53053,-0.025 -0.54177,-1.1535 -1.07229,-1.17854 -0.53053,-0.025 -0.64802,1.09733 -1.17855,1.07229 -0.53052,-0.0251 -0.54176,-1.1535 -1.07229,-1.17854 -0.53052,-0.0251 -0.64802,1.09734 -1.17854,1.07229 -0.53052,-0.0251 -0.54177,-1.1535 -1.07229,-1.17855 -0.53052,-0.025 -0.66733,0.92828 -1.17855,1.0723 -2.05762,0.57961 -4.69488,-0.89839 -6.7525,-0.31876 -0.51123,0.144 -0.66732,0.92828 -1.17854,1.07229 -1.44596,0.40731 -3.05572,-0.61982 -4.50168,-0.21251 -0.51121,0.144 -0.64802,1.09733 -1.17854,1.07229 -0.53053,-0.025 -0.54177,-1.1535 -1.07229,-1.17854 -0.53053,-0.025 -0.66733,0.92827 -1.17854,1.07229 -0.72298,0.20366 -1.52786,-0.30992 -2.25084,-0.10626 -0.51122,0.14402 -0.64801,1.09733 -1.17854,1.07229 -0.53053,-0.025 -0.54176,-1.1535 -1.07229,-1.17854 -1.06106,-0.0501 -1.29604,2.19467 -2.35709,2.14458 -0.53052,-0.025 -0.54176,-1.1535 -1.07229,-1.17854 -0.53053,-0.0251 -0.66733,0.92828 -1.17855,1.07229 -0.72297,0.20366 -1.52786,-0.30992 -2.25083,-0.10625 -0.51123,0.144 -0.66732,0.92827 -1.17854,1.07229 -0.72298,0.20366 -1.52786,-0.30992 -2.25084,-0.10626 -1.02245,0.28802 -1.29604,2.19466 -2.35709,2.14457 -0.53053,-0.025 -0.54177,-1.15349 -1.07228,-1.17854 -1.12543,-0.0531 -2.41023,3.27 -3.53565,3.21688 -0.53053,-0.025 -0.54176,-1.1535 -1.07228,-1.17854 -1.06106,-0.0501 -1.33465,1.85656 -2.35709,2.14458 -0.72298,0.20366 -1.52785,-0.30992 -2.25084,-0.10626 -1.02244,0.28802 -1.33464,1.85657 -2.35709,2.14459 -0.72296,0.20365 -1.52785,-0.30992 -2.25083,-0.10626 -1.02243,0.28802 -1.33464,1.85656 -2.35709,2.14458 -0.72298,0.20366 -1.52785,-0.30991 -2.25083,-0.10625 -1.37176,0.38641 -2.16388,2.83045 -3.53564,3.21688 -0.72297,0.20364 -1.52786,-0.30992 -2.25084,-0.10627 -1.07771,0.3036 -3.63644,3.98557 -4.71417,4.28916 -0.72297,0.20367 -1.52786,-0.3099 -2.25083,-0.10625 -0.45086,0.127 -4.09789,3.72844 -4.71418,4.28916 -3.14278,2.85944 -6.28557,5.71889 -9.42835,8.57833 -0.83536,0.76004 -6.90518,6.00415 -7.07127,6.43374 -0.27086,0.70058 0.16462,1.55026 -0.10625,2.25083 -0.38306,0.99077 -1.97404,1.15383 -2.35709,2.14459 -0.27086,0.70057 0.1646,1.55026 -0.10626,2.25084 -0.38305,0.99075 -1.97403,1.1538 -2.35708,2.14458 -0.27086,0.70058 0.16461,1.55025 -0.10625,2.25083 -0.19154,0.49538 -0.98703,0.5769 -1.17855,1.07229 -0.27086,0.70058 0.16461,1.55026 -0.10626,2.25083 -0.38305,0.99077 -1.97403,1.15382 -2.35709,2.14459 -0.27085,0.70057 0.16461,1.55026 -0.10625,2.25084 -0.19153,0.49536 -0.98701,0.5769 -1.17854,1.07228 -0.3524,7.46507 0.60566,-1.56654 -1.28479,3.32312 -0.27086,0.70058 0.1646,1.55026 -0.10626,2.25084 -0.19152,0.49538 -0.98702,0.57691 -1.17855,1.07229 -0.54171,1.40115 0.32922,3.10052 -0.2125,4.50168 -0.19153,0.49537 -1.1535,0.54175 -1.17855,1.07228 -0.025,0.53054 1.09734,0.64802 1.07229,1.17855 -0.025,0.53053 -1.15349,0.54176 -1.17854,1.07228 -0.025,0.53054 1.09734,0.64802 1.07229,1.17855 -0.025,0.53053 -0.98701,0.57692 -1.17854,1.07229 -0.4092,1.05837 -0.44777,9.48554 -0.53127,11.25418 -0.0835,1.76863 -0.83895,10.16196 -0.53128,11.25417 0.14402,0.51122 1.09734,0.64802 1.0723,1.17855 -0.025,0.53052 -1.1535,0.54176 -1.17854,1.07229 -0.025,0.53052 1.09733,0.64801 1.07228,1.17854 -0.025,0.53053 -1.15349,0.54176 -1.17854,1.07229 -0.025,0.53053 0.92828,0.66733 1.07229,1.17854 0.20366,0.72298 -0.30991,1.52787 -0.10625,2.25083 0.144,0.51123 1.09734,0.64802 1.07229,1.17855 -0.0251,0.53053 -1.1535,0.54177 -1.17855,1.0723 -0.025,0.53052 0.71487,0.7857 1.07229,1.17854 -0.39284,0.35742 -1.1535,0.54176 -1.17854,1.07229 -0.025,0.53052 0.92829,0.66732 1.0723,1.17855 0.20365,0.72297 -0.30992,1.52785 -0.10626,2.25083 0.14402,0.51122 1.09733,0.64802 1.07229,1.17854 -0.025,0.53053 -1.1535,0.54176 -1.17855,1.0723 -0.025,0.53052 0.92828,0.66732 1.07229,1.17854 0.20367,0.72297 -0.30991,1.52785 -0.10625,2.25083 0.144,0.51123 1.09734,0.64802 1.07229,1.17855 -0.025,0.53051 -1.1535,0.54175 -1.17854,1.07229 -0.025,0.53052 0.92828,0.66732 1.07229,1.17854 0.20366,0.72298 -0.30992,1.52786 -0.10626,2.25084 0.28802,1.02243 2.19468,1.29603 2.14458,2.35709 -0.025,0.53052 -1.1535,0.54175 -1.17854,1.07229 -0.0501,1.06106 2.19466,1.29603 2.14458,2.35708 -0.025,0.53053 -1.15349,0.54176 -1.17855,1.07229 -0.0501,1.06106 1.85658,1.33465 2.14459,2.3571 0.20366,0.72297 -0.30991,1.52785 -0.10625,2.25083 0.14699,0.52183 2.73395,3.00486 3.21687,3.53562 2.85944,3.1428 5.71889,6.28558 8.57832,9.42836 0.35743,0.39285 0.71487,0.7857 1.07229,1.17854 0.35744,0.39285 1.46515,0.82112 1.0723,1.17855 -0.39285,0.35744 -0.54178,-1.1535 -1.0723,-1.17855 -0.53052,-0.025 -0.78569,0.71486 -1.17854,1.0723"
       id="path4072"
       inkscape:connector-curvature="0" />
    <path
       style="fill:none;stroke:#000000;stroke-width:1.15827703px;stroke-linecap:butt;stroke-linejoin:miter;stroke-opacity:1"
       d="M 685.31927,512.19995 C 684.995,808.65027 684.995,808.65027 684.995,808.65027"
       id="path3903-6"
       inkscape:connector-curvature="0" />
    <path
       style="fill:none;stroke:#000000;stroke-width:1px;stroke-linecap:butt;stroke-linejoin:miter;stroke-opacity:1"
       d="m 669.27528,817.67269 c 0.57742,2.04982 3.78207,5.57202 1.73226,6.14944 -2.04981,0.57742 -1.63184,-8.27666 -1.73226,-6.14944 -0.13093,2.77356 1.22144,5.42212 1.637,8.16749 0.23391,1.54535 -0.66964,4.69156 -0.2858,6.05418 0.12911,0.45835 0.83228,0.59831 0.9614,1.05667 0.51968,1.84482 -0.80547,4.20934 -0.2858,6.05416 0.12912,0.45836 0.83229,0.59832 0.9614,1.05666 0.36519,1.29642 -0.55573,2.73971 -0.19052,4.03612 0.1291,0.45835 0.98384,0.581 0.96139,1.05666 -0.19711,4.17544 -2.95424,-3.41866 -1.15193,2.97946 0.59735,2.12056 2.13962,-0.21915 0.86613,3.07472 -0.17172,0.44415 -1.03421,0.48573 -1.05666,0.96139 -0.0449,0.95132 1.9677,1.162 1.92279,2.11332 -0.0225,0.47567 -1.0342,0.48574 -1.05666,0.9614 -0.0225,0.47566 0.98385,0.581 0.9614,1.05667 -0.12702,2.69074 -2.65899,-0.79972 -0.0953,2.01805"
       id="path3018"
       inkscape:connector-curvature="0" />
    <path
       style="fill:none;stroke:#000000;stroke-width:1px;stroke-linecap:butt;stroke-linejoin:miter;stroke-opacity:1"
       d="m 690.7118,834.86506 c -3.04297,0.19346 -6.08593,0.3869 -9.12889,0.58035 -0.35222,0.32046 -0.59832,0.83227 -1.05666,0.96139 -7.0359,1.98197 4.88232,-3.64165 -5.09279,0.77087 -0.43548,0.19264 -0.70444,0.64093 -1.05666,0.96139 -1.02491,0.28871 -2.10094,0.43538 -3.07472,0.86613 -0.43548,0.19265 -0.5983,0.83228 -1.05666,0.9614 -0.64821,0.18259 -1.36985,-0.27786 -2.01805,-0.0953 -0.45836,0.12912 -0.70444,0.64093 -1.05667,0.9614 -0.67269,-0.0317 -1.36985,-0.27786 -2.01806,-0.0953 -0.45834,0.12911 -0.5983,0.83228 -1.05666,0.9614 -0.64821,0.18259 -1.36984,-0.27787 -2.01805,-0.0953 -0.91671,0.25823 -1.16201,1.9677 -2.11332,1.92279 -0.47567,-0.0224 -0.48575,-1.03421 -0.9614,-1.05666 -0.47566,-0.0225 -1.03421,0.48574 -1.05666,0.9614 -0.0225,0.47565 0.98384,0.581 0.9614,1.05666 -0.0225,0.47565 -0.70444,0.64093 -1.05667,0.9614"
       id="path3020"
       inkscape:connector-curvature="0" />
    <path
       style="fill:none;stroke:#000000;stroke-width:1px;stroke-linecap:butt;stroke-linejoin:miter;stroke-opacity:1"
       d="m 685.2467,864.94541 c -1.72934,0.92964 -4.2584,4.51826 -5.18804,2.78892 -0.92964,-1.72935 7.14924,-2.69634 5.18804,-2.78892 -4.28594,-0.20233 -5.93442,1.53663 -8.26276,3.65505 -0.25626,0.23316 -3.16696,2.81925 -3.16998,2.88419 -0.0225,0.47566 0.98385,0.581 0.9614,1.05666 -0.0449,0.95132 -2.06842,0.97147 -2.11333,1.92279 -0.0224,0.47567 0.64093,0.70444 0.9614,1.05666 -0.35222,0.32047 -0.88495,0.51725 -1.05667,0.9614 -2.39701,6.19989 1.06326,-1.1007 0.86613,3.07472 -0.0224,0.47566 -1.0342,0.48574 -1.05666,0.9614 -0.0224,0.47566 0.48574,1.03421 0.9614,1.05666 0.47566,0.0224 0.58101,-0.98385 1.05666,-0.9614 0.47566,0.0224 0.64093,0.70445 0.9614,1.05667 0.35222,-0.32047 0.581,-0.98386 1.05666,-0.9614 0.47566,0.0224 0.48574,1.0342 0.9614,1.05666 0.47565,0.0224 0.59831,-0.83228 1.05666,-0.9614 0.64821,-0.18259 1.36985,0.27786 2.01806,0.0953 1.60482,-0.45207 0.5085,-1.47073 2.11332,-1.92279 0.64821,-0.1826 1.36985,0.27786 2.01806,0.0953 0.31535,-0.0888 3.15655,-2.59959 3.16998,-2.88419 0.0225,-0.47566 -0.98385,-0.581 -0.96139,-1.05666 0.0224,-0.47566 0.88494,-0.51724 1.05666,-0.9614 0.98027,-2.53548 -2.57851,-9.17094 -2.5984,-9.22415 z"
       id="path3022"
       inkscape:connector-curvature="0" />
    <path
       style="fill:none;stroke:#000000;stroke-width:1px;stroke-linecap:butt;stroke-linejoin:miter;stroke-opacity:1"
       d="m 308.37059,429.49687 c -0.44748,2.33854 -0.89497,4.67706 -1.34245,7.01558 -0.35222,0.32046 -0.88494,0.51724 -1.05666,0.9614 -1.06036,2.7426 1.83122,2.35016 0.77086,5.09277 -0.17172,0.44415 -0.88494,0.51725 -1.05666,0.9614 -0.26672,0.68986 -0.32504,6.88532 -0.38106,8.07223 -0.0317,0.67268 0.14758,1.38993 -0.0953,2.01806 -0.17172,0.44415 -1.03422,0.48573 -1.05666,0.96139 -0.0225,0.47566 0.98384,0.581 0.96139,1.05666 -0.0224,0.47567 -0.88495,0.51725 -1.05667,0.9614 -0.3076,0.79564 -0.23564,4.99174 -0.28578,6.05418"
       id="path3024"
       inkscape:connector-curvature="0" />
    <path
       style="fill:none;stroke:#000000;stroke-width:1px;stroke-linecap:butt;stroke-linejoin:miter;stroke-opacity:1"
       d="m 321.92541,442.27208 c -2.61415,4.39602 -6.19401,-0.2464 -9.12889,0.58034 -0.45836,0.12912 -0.59831,0.83228 -1.05666,0.96139 -0.64821,0.1826 -1.36985,-0.27786 -2.01806,-0.0953 -0.45835,0.12912 -0.59832,0.83228 -1.05666,0.9614 -0.64821,0.18259 -1.36986,-0.27787 -2.01807,-0.0953 -0.91669,0.25823 -1.19661,1.66456 -2.11332,1.92279 -1.29641,0.3652 -2.73969,-0.55572 -4.03611,-0.19053 -0.45836,0.12912 -0.59831,0.83228 -1.05666,0.9614 -0.64821,0.18259 -1.36986,-0.27786 -2.01806,-0.0953 -0.45835,0.12912 -0.59831,0.83229 -1.05667,0.9614 -0.6482,0.18259 -1.36984,-0.27786 -2.01805,-0.0953 -0.45835,0.12911 -0.581,0.98385 -1.05666,0.96139 -2.69074,-0.12702 0.7997,-2.65898 -2.01806,-0.0953"
       id="path3026"
       inkscape:connector-curvature="0" />
    <path
       style="fill:none;stroke:#000000;stroke-width:1px;stroke-linecap:butt;stroke-linejoin:miter;stroke-opacity:1"
       d="m 308.48335,469.9533 c 2.04981,-0.57742 5.57202,-3.78208 6.14944,-1.73226 0.57742,2.04981 -7.72462,3.16542 -6.14944,1.73226 2.40204,-0.89788 4.80407,-1.79577 7.2061,-2.69366 0.32047,0.35222 0.48574,1.03421 0.9614,1.05666 0.47566,0.0225 0.581,-0.98385 1.05666,-0.96139 0.47566,0.0225 0.48573,1.0342 0.9614,1.05666 0.47565,0.0225 0.58099,-0.98385 1.05666,-0.9614 0.47566,0.0225 0.48573,1.03421 0.96139,1.05666 0.47567,0.0224 0.7362,-1.31361 1.05666,-0.96139 0.32047,0.35222 -0.70444,0.64093 -1.05666,0.96139 -0.38804,0.35306 -4.22282,3.76437 -4.22665,3.84559 -0.0224,0.47566 0.98386,0.581 0.9614,1.05666 -0.0224,0.47566 -0.70444,0.64093 -1.05666,0.96139 -0.35222,0.32047 -0.70444,0.64093 -1.05666,0.9614 -4.22665,3.84559 -8.45329,7.69117 -12.67994,11.53676"
       id="path3028"
       inkscape:connector-curvature="0" />
    <path
       style="fill:none;stroke:#000000;stroke-width:1px;stroke-linecap:butt;stroke-linejoin:miter;stroke-opacity:1"
       d="m 1055.7143,506.3627 c 4.7619,0 9.5238,0 14.2857,0 0.4762,0 0.9524,0 1.4286,0 0.4762,0 1.0026,-0.21296 1.4285,0 0.6024,0.30116 0.8263,1.1274 1.4286,1.42857 0.4348,0.21738 3.6424,0 4.2857,0 3.8096,0 -0.4762,-0.47619 1.4286,1.42857 0.3367,0.33672 1.4286,-0.47619 1.4286,0 0,0.47619 -1.0919,-0.33672 -1.4286,0 -0.3367,0.33672 0,0.95238 0,1.42857 -0.4762,0 -1.0919,-0.33672 -1.4286,0 -0.6734,0.67343 0.6735,2.18371 0,2.85714 -0.3367,0.33672 -1.0918,-0.33671 -1.4285,0 -0.3368,0.33672 0.2129,1.00266 0,1.42857 -0.3012,0.60234 -1.1274,0.82624 -1.4286,1.42858 -0.213,0.42591 0.2129,1.00265 0,1.42857 -2.9727,5.94537 0.099,-1.5272 -2.8572,1.42857 -0.3367,0.33672 0.3368,1.09185 0,1.42857 -0.3367,0.33672 -1.0918,-0.33672 -1.4285,0 -0.3367,0.33672 0.3367,1.09185 0,1.42857 -0.3367,0.33672 -1.0919,-0.33672 -1.4286,0 -0.3367,0.33672 0.3367,1.09186 0,1.42857 -0.3367,0.33672 -1.0919,-0.33671 -1.4286,0 -0.3367,0.33672 -0.4762,1.42857 0,1.42857 0.6735,0 0.9524,-0.95238 1.4286,-1.42857"
       id="path3030"
       inkscape:connector-curvature="0" />
    <path
       style="fill:none;stroke:#000000;stroke-width:1px;stroke-linecap:butt;stroke-linejoin:miter;stroke-opacity:1"
       d="m 1020,450.64841 c 0,1.90476 -0.3736,3.84651 0,5.71429 0.1321,0.66035 1.2156,0.78969 1.4286,1.42857 0.3011,0.9035 -0.231,1.93319 0,2.85714 0.2582,1.033 1.1703,1.82414 1.4285,2.85714 0.231,0.92395 -0.2309,1.9332 0,2.85715 0.2583,1.033 1.0919,1.84699 1.4286,2.85714 0.4518,1.35526 -0.3465,2.89979 0,4.28571 0.2583,1.033 1.0919,1.84699 1.4286,2.85715 0.3012,0.9035 -0.4259,2.0053 0,2.85714 0.3012,0.60234 1.1274,0.82623 1.4286,1.42857 0.2129,0.42592 0.4761,1.42857 0,1.42857 -0.4762,0 0,-0.95238 0,-1.42857"
       id="path3032"
       inkscape:connector-curvature="0" />
    <path
       style="fill:none;stroke:#000000;stroke-width:1px;stroke-linecap:butt;stroke-linejoin:miter;stroke-opacity:1"
       d="m 1011.4286,447.79127 c 0.9524,-1.90477 0.9524,-6.66667 2.8571,-5.71429 1.9048,0.95238 -4.7619,6.66667 -2.8571,5.71429 2.7272,-1.36361 3.3719,-5.19087 5.7143,-7.14286 0.7316,-0.6097 1.9536,0.30117 2.8571,0 0.6389,-0.21296 0.8262,-1.1274 1.4286,-1.42857 0.8518,-0.42592 2.0053,0.42592 2.8571,0 0.6024,-0.30117 0.8262,-1.1274 1.4286,-1.42857 1.6751,-0.83757 1.6955,0.84777 2.8571,1.42857 0.4259,0.21296 1.0027,-0.21296 1.4286,0 0.3793,0.18965 4.0961,3.90641 4.2857,4.28571 0.4259,0.85184 -0.4259,2.00531 0,2.85715 0.5808,1.16159 2.2661,1.18201 1.4286,2.85714 -0.3012,0.60234 -1.1274,0.82623 -1.4286,1.42857 -0.2129,0.42592 0.213,1.00265 0,1.42857 -0.6023,1.20468 -2.2548,1.65247 -2.8571,2.85714 -0.213,0.42592 0.2129,1.00266 0,1.42858 -0.3012,0.60233 -0.9524,0.95238 -1.4286,1.42857 -0.4762,0.47619 -0.8262,1.1274 -1.4286,1.42857 -0.4259,0.21296 -1.0918,-0.33672 -1.4285,0 -0.3368,0.33672 0.3367,1.09185 0,1.42857 -0.3368,0.33672 -1.0919,-0.33672 -1.4286,0 -0.3367,0.33672 0.3367,1.09185 0,1.42857 -0.1429,0.14286 -4.9524,-0.66667 -2.8572,1.42857 0.3368,0.33672 0.9524,0 1.4286,0 0.4762,0 1.0919,0.33672 1.4286,0 0.3367,-0.33671 -0.3367,-1.09185 0,-1.42857 0.2015,-0.20146 3.9927,-0.14652 4.2857,0 1.2047,0.60234 1.6525,2.25481 2.8571,2.85714 0.426,0.21296 1.0919,-0.33671 1.4286,0 2.9558,2.95577 -4.5168,-0.11554 1.4286,2.85715 0.8518,0.42591 2.1837,-0.67344 2.8571,0 0.3367,0.33671 -0.3367,1.09185 0,1.42857 0.6735,0.67343 2.1837,-0.67344 2.8572,0 0.3367,0.33672 0,0.95238 0,1.42857 0.4762,0 1.0026,-0.21296 1.4285,0 0.6024,0.30117 0.8263,1.1274 1.4286,1.42857 0.4259,0.21296 1.0027,-0.21296 1.4286,0 0.6023,0.30117 0.8262,1.1274 1.4286,1.42857 0.4259,0.21296 1.0918,-0.33671 1.4285,0 0.3367,0.33672 -0.3367,1.09186 0,1.42857 0.3367,0.33672 0.9524,0 1.4286,0 0.4762,0 1.0919,0.33672 1.4286,0 0.3367,-0.33671 0,-0.95238 0,-1.42857"
       id="path3034"
       inkscape:connector-curvature="0" />
    <path
       style="fill:none;stroke:#000000;stroke-width:1px;stroke-linecap:butt;stroke-linejoin:miter;stroke-opacity:1"
       d="m 1058.5714,464.93412 c 1.9048,-0.95238 3.8882,-1.76147 5.7143,-2.85714 0.4591,-0.27545 5.5148,-5.31535 5.7143,-5.71428 0.1878,-0.37564 0,-4.96726 0,-5.71429 0,-0.47619 0.3367,-1.09185 0,-1.42857 -0.3367,-0.33672 -0.9524,0 -1.4286,0 -0.4762,0 -1.0026,-0.21296 -1.4285,0 -0.6024,0.30117 -0.8263,1.1274 -1.4286,1.42857 -0.4259,0.21296 -1.0919,-0.33672 -1.4286,0 -0.3367,0.33672 0.3367,1.09185 0,1.42857 -0.3367,0.33672 -1.0918,-0.33672 -1.4286,0 -0.3367,0.33672 0.3368,1.09186 0,1.42857 -0.3367,0.33672 -1.0918,-0.33671 -1.4285,0 -0.3367,0.33672 0.2129,1.00266 0,1.42857 -0.3012,0.60234 -1.1274,0.82624 -1.4286,1.42858 -0.213,0.42591 0.078,0.95886 0,1.42857 -0.3992,2.39506 -2.2811,4.86935 -1.4286,7.14285 0.836,2.22936 3.8551,2.79835 5.7143,4.28572 0.5259,0.42069 0.8262,1.1274 1.4286,1.42857 0.4347,0.21738 3.6423,0 4.2857,0 0.4762,0 0.9524,0 1.4286,0 0.4762,0 1.0026,0.21296 1.4285,0 0.6024,-0.30117 0.8263,-1.1274 1.4286,-1.42857 0.4259,-0.21296 1.0027,0.21296 1.4286,0 0.6023,-0.30117 0.9524,-0.95238 1.4286,-1.42857 0.4761,-0.47619 0.9523,-0.95238 1.4285,-1.42857"
       id="path3036"
       inkscape:connector-curvature="0" />
    <path
       style="fill:none;stroke:#000000;stroke-width:1px;stroke-linecap:butt;stroke-linejoin:miter;stroke-opacity:1"
       d="m 1092.8571,432.07698 c -1.4285,1.90476 -3.0607,3.67264 -4.2857,5.71429 -0.1062,0.17706 0,5.39354 0,5.71428 0,1.19627 -0.2716,6.05648 0,7.14286 0.2583,1.033 1.1703,1.82414 1.4286,2.85714 0.231,0.92395 -0.3012,1.95364 0,2.85715 0.213,0.63887 1.2156,0.78969 1.4286,1.42857 0.3011,0.9035 -0.3012,1.95363 0,2.85714 0.059,0.17747 4.0406,4.16317 4.2857,4.28571 0.4259,0.21296 0.9768,-0.15058 1.4286,0 10.3477,3.44925 -2.2523,-0.41186 4.2857,2.85715 0.8518,0.42591 2.0053,-0.42592 2.8571,0 0.6024,0.30117 0.9524,0.95238 1.4286,1.42857"
       id="path3038"
       inkscape:connector-curvature="0" />
    <path
       style="fill:none;stroke:#000000;stroke-width:1px;stroke-linecap:butt;stroke-linejoin:miter;stroke-opacity:1"
       d="m 1102.8571,442.07698 c -0.4085,-6.73435 5.4593,1.68359 7.1429,0 1.9048,-1.90476 -2.381,-1.42857 1.4286,-1.42857 0.5246,0 5.6568,0.0575 5.7143,0 0.3367,-0.33672 -0.3368,-1.09185 0,-1.42857 0.046,-0.0459 3.9392,0 4.2857,0 0.4762,0 0.9524,0 1.4285,0 0.4762,0 1.4286,-0.47619 1.4286,0 0,0.47619 -1.0918,-0.33672 -1.4286,0 -0.3367,0.33672 0.213,1.00265 0,1.42857 -0.3011,0.60234 -1.1274,0.82623 -1.4285,1.42857 -0.4259,0.85184 0.4259,2.00531 0,2.85714 -0.3012,0.60234 -1.1274,0.82624 -1.4286,1.42858 -0.4259,0.85183 0.6734,2.1837 0,2.85714 -0.3367,0.33672 -1.0919,-0.33672 -1.4286,0 -0.6734,0.67343 0.4259,2.00531 0,2.85714 -0.3011,0.60234 -1.1274,0.82623 -1.4285,1.42857 -0.213,0.42592 0.3367,1.09186 0,1.42857 -0.3368,0.33672 -1.0919,-0.33671 -1.4286,0 -0.3367,0.33672 0,0.95238 0,1.42858 0,0.47619 -0.3367,1.09185 0,1.42857 0.3367,0.33671 0.9524,0 1.4286,0 0.4761,0 0.9523,0 1.4285,0 2.381,0 4.7619,0 7.1429,0 0.4762,0 0.9524,0 1.4286,0 0.4761,0 1.0026,0.21296 1.4285,0 3.5306,-1.76529 -0.4931,-1.42857 2.8572,-1.42857"
       id="path3056"
       inkscape:connector-curvature="0" />
    <path
       style="fill:none;stroke:#000000;stroke-width:1px;stroke-linecap:butt;stroke-linejoin:miter;stroke-opacity:1"
       d="m 1111.4286,449.21984 c 1.9047,0 3.8465,0.37355 5.7143,0 0.6603,-0.13207 0.8262,-1.1274 1.4285,-1.42857 0.775,-0.38749 5.3234,0.39089 5.7143,0 0.3367,-0.33672 -0.3367,-1.09186 0,-1.42857 0.3438,-0.34376 5.3705,0.34375 5.7143,0 1.9048,-1.90477 -2.381,-1.42858 1.4286,-1.42858"
       id="path3058"
       inkscape:connector-curvature="0" />
    <path
       style="fill:none;stroke:#000000;stroke-width:1px;stroke-linecap:butt;stroke-linejoin:miter;stroke-opacity:1"
       d="m 1121.4286,420.64841 c 3.6816,-1.94452 6.2214,4.53927 8.5714,5.71429 0.4259,0.21295 1.0919,-0.33672 1.4286,0 0.3367,0.33671 -0.213,1.00265 0,1.42857 0.6331,1.26619 3.4187,2.98526 4.2857,4.28571 0.5906,0.88596 0.8379,1.97118 1.4286,2.85714 0.3735,0.56034 1.1274,0.82624 1.4285,1.42858 0.213,0.42591 -0.2129,1.00265 0,1.42857 0.6024,1.20467 2.2548,1.65246 2.8572,2.85714 0.4259,0.85184 -0.4259,2.00531 0,2.85714 0.3011,0.60234 1.1274,0.82624 1.4285,1.42857 0.213,0.42592 0,0.95238 0,1.42858 0,0.47619 0,0.95238 0,1.42857 0,2.38095 0,4.7619 0,7.14285"
       id="path3060"
       inkscape:connector-curvature="0" />
    <path
       style="fill:none;stroke:#000000;stroke-width:1px;stroke-linecap:butt;stroke-linejoin:miter;stroke-opacity:1"
       d="m 674.28571,80.64841 c 0.95239,-1.90476 0.95239,-6.66667 2.85715,-5.71429 1.90476,0.95238 -4.36299,7.22014 -2.85715,5.71429 1.96339,-1.96338 2.74551,-4.83255 4.28572,-7.14286 0.74711,-1.12066 2.2548,-1.65246 2.85714,-2.85714 0.21296,-0.42592 -0.21296,-1.00265 0,-1.42857 0.60234,-1.20468 2.25481,-1.65247 2.85714,-2.85714 0.21296,-0.42592 -0.21295,-1.00266 0,-1.42858 0.60234,-1.20467 2.25481,-1.65246 2.85715,-2.85714 0.21296,-0.42592 -0.33672,-1.09185 0,-1.42857 0.33671,-0.33672 1.09185,0.33672 1.42857,0 0.14286,-0.14286 -0.66667,-4.95238 1.42857,-2.85714 0.33672,0.33671 0,0.95238 0,1.42857 0,1.01257 -0.18468,8.20207 0,8.57143 0.30117,0.60234 1.1274,0.82623 1.42857,1.42857 0.42592,0.85183 -0.42592,2.00531 0,2.85714 0.30117,0.60234 1.1274,0.82623 1.42857,1.42857 0.21296,0.42592 -0.21296,1.00266 0,1.42857 0.30117,0.60234 1.1274,0.82624 1.42857,1.42858 0.21296,0.42591 -0.21295,1.00265 0,1.42857 0.30117,0.60234 1.12741,0.82623 1.42858,1.42857 0.8985,1.79701 -2.05171,2.85714 1.42857,2.85714"
       id="path3062"
       inkscape:connector-curvature="0" />
    <path
       style="fill:none;stroke:#000000;stroke-width:1px;stroke-linecap:butt;stroke-linejoin:miter;stroke-opacity:1"
       d="m 715.71429,106.3627 c 1.22259,1.70521 -0.60762,7.56955 0,10 0.25825,1.033 1.17032,1.82414 1.42857,2.85714 0.23098,0.92394 -0.30117,1.95363 0,2.85714 0.21296,0.63888 1.21561,0.7897 1.42857,1.42857 0.30117,0.90351 -0.23099,1.9332 0,2.85715 0.25825,1.033 1.17032,1.82414 1.42857,2.85714 0.23099,0.92394 0,1.90476 0,2.85714 0.47619,0.95238 1.09185,1.84699 1.42857,2.85714 0.15059,0.45176 -0.21296,1.00266 0,1.42858 0.30117,0.60233 1.1274,0.82623 1.42857,1.42857 0.21296,0.42591 -0.21296,1.00265 0,1.42857 0.30117,0.60234 1.1274,0.82623 1.42857,1.42857 0.21296,0.42592 -0.33671,1.09185 0,1.42857 1.90477,1.90476 1.42858,-2.38095 1.42858,1.42857"
       id="path3065"
       inkscape:connector-curvature="0" />
    <path
       style="fill:none;stroke:#000000;stroke-width:1px;stroke-linecap:butt;stroke-linejoin:miter;stroke-opacity:1"
       d="m 738.57143,122.07698 c 0,1.90476 1.90476,5.71429 0,5.71429 -1.90476,0 0,-7.61905 0,-5.71429 0,18.81944 -1.68359,2.34711 1.42857,8.57143 0.21296,0.42592 -0.21296,1.00265 0,1.42857 0.30117,0.60234 1.1274,0.82623 1.42857,1.42857 0.42592,0.85184 -0.67343,2.18371 0,2.85715 0.33672,0.33671 1.09186,-0.33672 1.42857,0 0.34376,0.34375 -0.34376,5.37052 0,5.71428 0.33672,0.33672 1.09186,-0.33672 1.42857,0 0.33672,0.33672 0,0.95238 0,1.42857 0,0.47619 0.33672,1.09186 0,1.42857 -0.33671,0.33672 -1.09185,0.33672 -1.42857,0 -0.33671,-0.33671 0,-0.95238 0,-1.42857 0,-0.99363 -0.25831,-6.62624 0,-7.14285 0.30117,-0.60234 1.1274,-0.82624 1.42857,-1.42858 0.21296,-0.42591 -0.21295,-1.00265 0,-1.42857 0.30117,-0.60234 1.12741,-0.82623 1.42858,-1.42857 0.21295,-0.42592 -0.21296,-1.00265 0,-1.42857 0.60233,-1.20468 2.2548,-1.65247 2.85714,-2.85714 0.21296,-0.42592 -0.33672,-1.09186 0,-1.42857 0.33672,-0.33672 1.09185,0.33671 1.42857,0 0.33672,-0.33672 -0.33672,-1.09186 0,-1.42858 0.14286,-0.14285 4.14286,-0.14285 4.28571,0 0.33672,0.33672 -0.33671,1.09186 0,1.42858 0.33672,0.33671 1.09186,-0.33672 1.42858,0 0.95522,0.95522 -0.95523,1.90191 0,2.85714 0.33671,0.33672 1.09185,-0.33672 1.42857,0 0.67343,0.67343 -0.42592,2.00531 0,2.85714 0.30117,0.60234 1.1274,0.82623 1.42857,1.42857 0.21296,0.42592 0.47619,1.42857 0,1.42857 -0.47619,0 0,-0.95238 0,-1.42857 0,-0.47619 0,-0.95238 0,-1.42857 0,-0.47619 -0.33672,-1.09185 0,-1.42857 0.33672,-0.33672 1.09185,0.33672 1.42857,0 0.29205,-0.29205 -0.28321,-3.7193 0,-4.28571 0.30117,-0.60234 1.1274,-0.82624 1.42857,-1.42858 0.21296,-0.42591 -0.21296,-1.00265 0,-1.42857 0.30117,-0.60234 0.95238,-0.95238 1.42857,-1.42857 0.47619,-0.47619 0.95238,-0.95238 1.42857,-1.42857 0.7521,-0.75209 3.52274,-3.90423 4.28572,-4.28571 0.42592,-0.21296 1.09185,0.33671 1.42857,0 0.33672,-0.33672 -0.33672,-1.09186 0,-1.42858 0.33672,-0.33671 1.09185,-0.33671 1.42857,0 0.33672,0.33672 -0.33672,1.09186 0,1.42858 0.33672,0.33671 1.09186,-0.33672 1.42857,0 0,3.80952 -0.47619,-0.4762 1.42857,1.42857 0.71429,0.71428 -0.71428,3.57143 0,4.28571 0.33672,0.33672 1.09186,-0.33672 1.42858,0 0.71428,0.71429 -0.71429,3.57143 0,4.28572 0.33671,0.33671 1.09185,-0.33672 1.42857,0 0.67343,0.67343 -0.42592,2.0053 0,2.85714 0.30117,0.60234 1.1274,0.82623 1.42857,1.42857 0.42592,0.85184 -0.67344,2.18371 0,2.85714 0.33672,0.33672 1.09185,0.33672 1.42857,0 0.33672,-0.33671 0,-0.95238 0,-1.42857"
       id="path3071"
       inkscape:connector-curvature="0" />
    <path
       style="fill:none;stroke:#000000;stroke-width:1px;stroke-linecap:butt;stroke-linejoin:miter;stroke-opacity:1"
       d="m 798.57143,93.50555 c -0.47619,1.90476 -0.95238,3.80953 -1.42857,5.71429 -0.47619,0.47619 -1.21562,0.78969 -1.42857,1.42857 -0.26252,0.78754 0,7.35908 0,8.57143 0,3.33333 0,6.66666 0,10 0,0.95238 -0.23099,1.9332 0,2.85714 0.5165,2.06601 2.34064,3.64828 2.85714,5.71429 0.23098,0.92394 -0.30117,1.95363 0,2.85714 0.21296,0.63888 1.05502,0.86824 1.42857,1.42857 0.59064,0.88596 0.83793,1.97118 1.42857,2.85714 0.37356,0.56034 0.95238,0.95238 1.42857,1.42858 0.47619,0.47619 0.82624,1.1274 1.42857,1.42857 0.42592,0.21296 1.00266,-0.21296 1.42858,0 0.60233,0.30117 0.82623,1.1274 1.42857,1.42857 0.42591,0.21296 0.95238,0 1.42857,0 0.47619,0 0.95238,0 1.42857,0"
       id="path3073"
       inkscape:connector-curvature="0" />
    <path
       style="fill:none;stroke:#000000;stroke-width:1px;stroke-linecap:butt;stroke-linejoin:miter;stroke-opacity:1"
       d="m 817.14286,102.07698 c 4.08442,2.59751 4.91432,-3.17145 7.14285,-4.28571 0.43477,-0.21738 3.64235,0 4.28572,0 0.47619,0 0.95238,0 1.42857,0 0.47619,0 1.09185,-0.33672 1.42857,0 0.33672,0.33671 0,0.95238 0,1.42857 0,0.47619 0,0.95238 0,1.42857 0,0.47619 0,0.95238 0,1.42857 0,0.47619 0.21296,1.00265 0,1.42857 -0.30117,0.60234 -1.1274,0.82624 -1.42857,1.42857 -0.21296,0.42592 0.21296,1.00266 0,1.42858 -0.30117,0.60233 -1.1274,0.82623 -1.42857,1.42857 -0.21296,0.42591 0.21296,1.00265 0,1.42857 -0.30117,0.60234 -1.21561,0.78969 -1.42857,1.42857 -0.30117,0.90351 0.30117,1.95363 0,2.85714 -0.21296,0.63888 -1.1274,0.82624 -1.42857,1.42857 -0.21296,0.42592 0,0.95238 0,1.42858 0,0.47619 0,0.95238 0,1.42857 0,0.34646 -0.046,4.23977 0,4.28571 0.33671,0.33672 0.95238,0 1.42857,0 0.64337,0 3.85095,0.21738 4.28571,0 0.60234,-0.30117 0.82623,-1.1274 1.42857,-1.42857 0.42592,-0.21296 1.00266,0.21296 1.42857,0 0.60234,-0.30117 0.82624,-1.1274 1.42858,-1.42857 0.56641,-0.28321 3.99366,0.29205 4.28571,0 0.33672,-0.33672 -0.33672,-1.09186 0,-1.42857 0.33672,-0.33672 0.95238,0 1.42857,0 0.47619,0 1.09186,-0.33672 1.42857,0 0.33672,0.33671 -0.33671,1.09185 0,1.42857 0.33672,0.33672 0.95238,0 1.42857,0"
       id="path3075"
       inkscape:connector-curvature="0" />
    <path
       style="fill:none;stroke:#000000;stroke-width:1px;stroke-linecap:butt;stroke-linejoin:miter;stroke-opacity:1"
       d="m 817.14286,112.07698 c 6.17626,-1.54406 3.7509,-1.42857 7.14285,-1.42857 0.47619,0 1.00266,0.21296 1.42858,0 0.60233,-0.30117 0.82623,-1.1274 1.42857,-1.42857 0.85183,-0.42592 2.0053,0.42592 2.85714,0 0.60234,-0.30117 0.82623,-1.1274 1.42857,-1.42857 0.37563,-0.18782 4.96726,0 5.71429,0"
       id="path3077"
       inkscape:connector-curvature="0" />
    <path
       style="fill:none;stroke:#000000;stroke-width:1px;stroke-linecap:butt;stroke-linejoin:miter;stroke-opacity:1"
       d="m 832.85714,77.79127 c 2.38096,1.90476 4.76191,3.80952 7.14286,5.71428 0.47619,0.95238 0.67565,2.10422 1.42857,2.85715 0.75292,0.75292 2.10422,0.67564 2.85714,1.42857 2.63275,2.63274 2.59478,4.32462 4.28572,7.14285 0.88335,1.47226 2.08931,2.75005 2.85714,4.28572 0.67344,1.34687 0.95238,2.85714 1.42857,4.28571 0.47619,1.42857 1.18101,2.80036 1.42857,4.28572 0.23486,1.40913 -0.23485,2.87658 0,4.28571 0.63086,3.78515 2.12357,3.66788 1.42858,7.14286 -0.29533,1.4766 -1.13325,2.80911 -1.42858,4.28571 -0.18677,0.93389 0.23099,1.9332 0,2.85715 0.86104,2.58562 -2.3142,2.65689 -2.85714,4.28571 -0.30117,0.90351 0,1.90476 0,2.85714"
       id="path3079"
       inkscape:connector-curvature="0" />
    <path
       style="fill:none;stroke:#000000;stroke-width:1px;stroke-linecap:butt;stroke-linejoin:miter;stroke-opacity:1"
       d="m 714.67488,220.12831 c -1.28186,-1.40888 -5.25447,-2.94478 -3.84558,-4.22664 1.40888,-1.28186 3.1587,6.00324 3.84558,4.22664 0.92473,-2.39182 -2.18971,-4.69174 -2.69366,-7.2061 -0.18716,-0.93381 2.06841,-0.97147 2.11332,-1.92279 0.0225,-0.47566 -0.98385,-0.58101 -0.9614,-1.05666 0.0225,-0.47566 0.70444,-0.64093 1.05666,-0.9614 1.76111,-1.60233 3.52221,-3.20466 5.28331,-4.80698 0.35222,-0.32047 0.58101,-0.98385 1.05666,-0.9614 0.48561,0.0229 3.35998,4.20373 3.84559,4.22665 0.47566,0.0224 0.581,-0.98386 1.05666,-0.96139 0.47566,0.0225 0.48574,1.03419 0.96139,1.05666 0.47567,0.0224 0.59832,-0.83229 1.05667,-0.96141 0.6482,-0.18259 1.36985,0.27787 2.01806,0.0953 0.45835,-0.12912 0.70444,-0.64093 1.05666,-0.9614 0.35222,-0.32046 0.70444,-0.64093 1.05666,-0.96139 2.81776,-2.56372 -0.0318,0.67268 0.0953,-2.01806 0.0449,-0.95132 2.06842,-0.97147 2.11332,-1.92279 0.0225,-0.47566 -0.98384,-0.581 -0.96139,-1.05666 0.0224,-0.47566 0.70445,-0.64094 1.05667,-0.9614 -0.32047,-0.35222 -0.98385,-0.581 -0.9614,-1.05666 0.0225,-0.47566 0.70444,-0.64093 1.05666,-0.9614 0.35222,-0.32046 0.7362,-1.31361 1.05666,-0.96139 0.32047,0.35222 -0.88494,0.51724 -1.05666,0.96139 -0.24285,0.62813 0.14758,1.38994 -0.0953,2.01806 -0.17172,0.44415 -1.03422,0.48574 -1.05667,0.9614 -0.0225,0.47566 0.98385,0.581 0.96139,1.05666 -0.0224,0.47566 -1.0342,0.48573 -1.05666,0.9614 -0.0224,0.47565 0.98386,0.581 0.9614,1.05666 -0.0225,0.47565 -1.0342,0.48574 -1.05666,0.96139 -0.0225,0.47567 0.98385,0.58101 0.96139,1.05666 -0.0225,0.47567 -1.0342,0.48574 -1.05666,0.9614 -0.0225,0.47566 0.98386,0.581 0.96141,1.05667 -0.0225,0.47565 -1.03421,0.48573 -1.05667,0.96139 -0.0225,0.47566 0.48574,1.03421 0.9614,1.05666 0.47566,0.0224 0.581,-0.98385 1.05666,-0.96139 0.95132,0.0449 0.97147,2.0684 1.92279,2.11332 0.95133,0.0449 1.19662,-1.66457 2.11332,-1.92279 0.64821,-0.1826 1.34537,0.0635 2.01806,0.0953 0.67269,0.0318 1.38994,-0.14759 2.01806,0.0953 0.0779,0.0301 2.86156,3.08954 2.88419,3.16999 0.1826,0.64821 0.14758,1.38994 -0.0953,2.01806 -0.17171,0.44415 -1.0342,0.48573 -1.05666,0.9614 -0.0224,0.47565 0.98385,0.58099 0.9614,1.05666 -0.0225,0.47565 -1.03421,0.48573 -1.05666,0.96139 -0.0225,0.47567 0.98385,0.581 0.96139,1.05666 -0.0224,0.47567 -0.88494,0.51724 -1.05666,0.9614 -0.71172,1.84086 -0.12845,1.98158 0.86613,3.07471"
       id="path3083"
       inkscape:connector-curvature="0" />
    <path
       style="fill:none;stroke:#000000;stroke-width:1px;stroke-linecap:butt;stroke-linejoin:miter;stroke-opacity:1"
       d="m 710.32673,162.28024 c 3.52221,-3.20466 7.04441,-6.40931 10.56662,-9.61397 1.23492,-1.12358 3.26563,-2.54175 4.22664,-3.84558 1.16491,-1.58046 2.17684,-3.26817 3.26525,-4.90225 -0.41155,8.71808 -0.25425,5.38608 -0.47633,10.09029 -0.0317,0.67268 -0.27785,1.36985 -0.0953,2.01805 0.12911,0.45836 0.98385,0.58101 0.9614,1.05667 -0.0225,0.47566 -0.88494,0.51724 -1.05666,0.9614 -1.27349,3.29386 0.26877,0.95415 0.86613,3.07471 0.36519,1.29642 -0.55573,2.7397 -0.19054,4.03612 0.12912,0.45835 0.64093,0.70444 0.9614,1.05666 0.32046,0.35222 0.64093,0.70444 0.96139,1.05666 -3.0112,-0.47924 -6.05298,-0.79518 -9.03362,-1.43772 -3.75295,-0.80902 -6.69615,-4.35047 -10.95642,-3.55104 z"
       id="path3095"
       inkscape:connector-curvature="0" />
    <path
       style="fill:none;stroke:#000000;stroke-width:1px;stroke-linecap:butt;stroke-linejoin:miter;stroke-opacity:1"
       d="m 754.62873,166.39413 c -3.16998,2.88418 -6.33997,5.76838 -9.50995,8.65256 -0.70444,0.64093 -1.64771,1.09199 -2.11332,1.92279 -0.32924,0.58747 0.14758,1.38994 -0.0953,2.01806 -0.15144,0.39171 -3.6741,3.34285 -4.22665,3.84559"
       id="path3101"
       inkscape:connector-curvature="0" />
    <path
       style="fill:none;stroke:#000000;stroke-width:1px;stroke-linecap:butt;stroke-linejoin:miter;stroke-opacity:1"
       d="m 740.69287,161.69115 c 0.92964,1.72935 1.85928,3.4587 2.78891,5.18805 0.28871,1.0249 0.43538,2.10094 0.86614,3.07472 0.19264,0.43548 0.83228,0.59831 0.96139,1.05666 0.1826,0.64821 -0.19604,1.35221 -0.0953,2.01806 1.29809,8.5759 0.0141,0.0319 1.82752,4.13137 0.43076,0.97379 0.43539,2.10095 0.86614,3.07473 0.38527,0.87096 1.66456,1.19661 1.92279,2.11332 0.1826,0.64821 -0.27786,1.36985 -0.0953,2.01805 0.37792,1.34162 3.42424,2.00887 3.94084,2.20859"
       id="path3103"
       inkscape:connector-curvature="0" />
  </g>
</svg>
