<?xml version="1.0" encoding="UTF-8" standalone="no"?>
<!-- Created with Inkscape (http://www.inkscape.org/) -->

<svg
   xmlns:dc="http://purl.org/dc/elements/1.1/"
   xmlns:cc="http://creativecommons.org/ns#"
   xmlns:rdf="http://www.w3.org/1999/02/22-rdf-syntax-ns#"
   xmlns:svg="http://www.w3.org/2000/svg"
   xmlns="http://www.w3.org/2000/svg"
   xmlns:sodipodi="http://sodipodi.sourceforge.net/DTD/sodipodi-0.dtd"
   xmlns:inkscape="http://www.inkscape.org/namespaces/inkscape"
   width="800"
   height="600"
   id="svg2"
   version="1.1"
   inkscape:version="0.48.3.1 r9886"
   sodipodi:docname="vector_construction.svg">
  <defs
     id="defs4" />
  <sodipodi:namedview
     id="base"
     pagecolor="#ffffff"
     bordercolor="#666666"
     borderopacity="1.0"
     inkscape:pageopacity="1"
     inkscape:pageshadow="2"
     inkscape:zoom="2"
     inkscape:cx="486.1034"
     inkscape:cy="326.63483"
     inkscape:document-units="px"
     inkscape:current-layer="layer1"
     showgrid="true"
     units="px"
     inkscape:window-width="1726"
     inkscape:window-height="1039"
     inkscape:window-x="262"
     inkscape:window-y="86"
     inkscape:window-maximized="0" />
  <metadata
     id="metadata7">
    <rdf:RDF>
      <cc:Work
         rdf:about="">
        <dc:format>image/svg+xml</dc:format>
        <dc:type
           rdf:resource="http://purl.org/dc/dcmitype/StillImage" />
        <dc:title />
      </cc:Work>
    </rdf:RDF>
  </metadata>
  <g
     inkscape:label="Layer 1"
     inkscape:groupmode="layer"
     id="layer1"
     transform="translate(0,-452.3627)">
    <rect
       style="opacity:0.222;fill:#0000d2;fill-opacity:1;stroke-width:1;stroke-miterlimit:4;stroke-dasharray:12, 12;stroke-dashoffset:0"
       id="rect3050"
       width="196.46802"
       height="150.2935"
       x="622.69562"
       y="314.93692"
       transform="matrix(0.81798918,0.5752336,-0.5752336,0.81798918,0,0)" />
    <path
       style="fill:none;stroke:#000000;stroke-width:0.9102686px;stroke-linecap:butt;stroke-linejoin:miter;stroke-opacity:1"
       d="m 24.330134,818.40855 c 663.703626,0 663.703626,0 663.703626,0"
       id="path3064"
       inkscape:connector-curvature="0" />
    <path
       style="fill:none;stroke:#000000;stroke-width:1.20261455px;stroke-linecap:butt;stroke-linejoin:miter;stroke-opacity:1"
       d="m 104.32067,521.10844 c 0,494.05706 0,494.05706 0,494.05706"
       id="path3066"
       inkscape:connector-curvature="0" />
    <rect
       style="opacity:0.22222224;fill:#d20000;fill-opacity:1;stroke-width:1;stroke-miterlimit:4;stroke-dasharray:12, 12;stroke-dashoffset:0"
       id="rect3943"
       width="127.36938"
       height="116.11928"
       x="104.87314"
       y="701.39697" />
    <rect
       style="opacity:0.222;fill:#d20000;fill-opacity:1;stroke-width:1;stroke-miterlimit:4;stroke-dasharray:12, 12;stroke-dashoffset:0"
       id="rect3943-7-1"
       width="229.53734"
       height="116.26081"
       x="371.24637"
       y="850.47437" />
    <path
       style="fill:none;stroke:#000000;stroke-width:0.53482485;stroke-linecap:butt;stroke-linejoin:miter;stroke-miterlimit:4;stroke-opacity:1;stroke-dasharray:6.41789839, 6.41789839;stroke-dashoffset:0"
       d="M 191.36277,771.93364 C 157.2976,981.26547 157.2976,981.26547 157.2976,981.26547"
       id="path3068-9"
       inkscape:connector-curvature="0" />
    <path
       style="fill:none;stroke:#000000;stroke-width:0.66502249;stroke-linecap:butt;stroke-linejoin:miter;stroke-miterlimit:4;stroke-opacity:1;stroke-dasharray:7.98027096, 7.98027096;stroke-dashoffset:0"
       d="m 216.5878,756.02508 c 104.71424,105.2906 104.71424,105.2906 104.71424,105.2906"
       id="path3068-2-5"
       inkscape:connector-curvature="0" />
    <path
       style="fill:none;stroke:#000000;stroke-width:0.601138px;stroke-linecap:butt;stroke-linejoin:miter;stroke-opacity:1"
       d="M 637.88836,1007.0474 C 556.10527,865.39485 556.10527,865.39485 556.10527,865.39485"
       id="path3033"
       inkscape:connector-curvature="0" />
    <path
       style="fill:none;stroke:#000000;stroke-width:0.601138px;stroke-linecap:butt;stroke-linejoin:miter;stroke-opacity:1"
       d="m 190.12639,767.96616 c -2.59942,2.61079 -8.22054,-9.17794 -1.71754,-13.74029 8.43358,-0.48993 -3.24201,-13.40462 3.43508,-6.87015 5.7539,6.13178 10.61242,-8.17086 17.17537,0 2.48537,-0.54391 4.84288,5.55603 4.29384,1.71753"
       id="path3035"
       inkscape:connector-curvature="0" />
    <path
       style="fill:none;stroke:#000000;stroke-width:0.601138px;stroke-linecap:butt;stroke-linejoin:miter;stroke-opacity:1"
       d="m 181.71046,724.16897 c -0.92424,2.27917 -0.73229,2.73239 -0.85877,12.02276"
       id="path3037"
       inkscape:connector-curvature="0" />
    <path
       style="fill:none;stroke:#000000;stroke-width:0.601138px;stroke-linecap:butt;stroke-linejoin:miter;stroke-opacity:1"
       d="m 180.85169,719.87512 c 2.90369,2.55547 5.15648,3.83178 12.02276,8.58769 l 0.85877,0.85877 -0.85877,-0.85877"
       id="path3039"
       inkscape:connector-curvature="0" />
    <path
       style="fill:none;stroke:#000000;stroke-width:0.601138px;stroke-linecap:butt;stroke-linejoin:miter;stroke-opacity:1"
       d="m 177.41662,737.90926 c 2.52923,-0.78137 8.3595,-5.60883 17.17536,-7.72891 l 0,-0.85877 0,0.85877"
       id="path3041"
       inkscape:connector-curvature="0" />
    <path
       style="fill:none;stroke:#000000;stroke-width:0.601138px;stroke-linecap:butt;stroke-linejoin:miter;stroke-opacity:1"
       d="m 197.16829,718.15759 c 4.78529,2.88695 12.31249,-0.19756 15.45784,3.43507"
       id="path3043"
       inkscape:connector-curvature="0" />
    <path
       style="fill:none;stroke:#000000;stroke-width:0.601138px;stroke-linecap:butt;stroke-linejoin:miter;stroke-opacity:1"
       d="m 207.47352,708.71113 c -3.31358,5.94776 -3.90521,17.4566 -3.43508,21.46922"
       id="path3045"
       inkscape:connector-curvature="0" />
    <path
       style="fill:none;stroke:#000000;stroke-width:0.601138px;stroke-linecap:butt;stroke-linejoin:miter;stroke-opacity:1"
       d="m 673.95667,812.96563 c -0.54119,-2.10907 14.36451,2.85844 17.1754,5.15262 -3.55943,3.61421 -9.01506,3.32579 -11.1641,6.87014"
       id="path3059"
       inkscape:connector-curvature="0" />
    <path
       style="fill:none;stroke:#000000;stroke-width:0.601138px;stroke-linecap:butt;stroke-linejoin:miter;stroke-opacity:1"
       d="m 99.440434,533.00707 c -0.440274,-3.34474 4.691826,-17.04065 6.870146,-13.7403 2.02021,2.2788 3.49179,7.2125 6.01138,9.44645"
       id="path3073"
       inkscape:connector-curvature="0" />
    <path
       style="fill:none;stroke:#000000;stroke-width:0.601138px;stroke-linecap:butt;stroke-linejoin:miter;stroke-opacity:1"
       d="m 644.75856,996.74212 c 7.99709,4.11688 12.93256,8.91248 18.0341,12.02278"
       id="path3103"
       inkscape:connector-curvature="0" />
    <path
       style="fill:none;stroke:#000000;stroke-width:0.601138px;stroke-linecap:butt;stroke-linejoin:miter;stroke-opacity:1"
       d="m 650.76986,1014.7763 c 2.28472,-4.8579 3.39367,-14.6535 6.8702,-19.75169"
       id="path3105"
       inkscape:connector-curvature="0" />
    <path
       style="fill:none;stroke:#000000;stroke-width:0.601138px;stroke-linecap:butt;stroke-linejoin:miter;stroke-opacity:1"
       d="m 667.94526,1002.7535 c 1.34285,-1.1483 4.47534,-13.0837 6.0114,-1.7175 0.60489,2.5155 1.14137,5.4648 1.7175,8.5877"
       id="path3029"
       inkscape:connector-curvature="0" />
    <path
       style="fill:none;stroke:#000000;stroke-width:0.601138px;stroke-linecap:butt;stroke-linejoin:miter;stroke-opacity:1"
       d="m 191.32866,773.46228 c 24.04552,-17.17537 24.04552,-17.17537 24.04552,-17.17537"
       id="path3036"
       inkscape:connector-curvature="0" />
    <path
       style="fill:none;stroke:#000000;stroke-width:0.601138px;stroke-linecap:butt;stroke-linejoin:miter;stroke-opacity:1"
       d="m 169.00067,790.63766 c 24.04552,-17.17538 24.04552,-17.17538 24.04552,-17.17538"
       id="path3036-5"
       inkscape:connector-curvature="0" />
    <path
       style="fill:none;stroke:#000000;stroke-width:0.601138px;stroke-linecap:butt;stroke-linejoin:miter;stroke-opacity:1"
       d="m 146.67269,806.09549 c 24.04552,-17.17537 24.04552,-17.17537 24.04552,-17.17537"
       id="path3036-0"
       inkscape:connector-curvature="0" />
    <path
       style="fill:none;stroke:#000000;stroke-width:0.601138px;stroke-linecap:butt;stroke-linejoin:miter;stroke-opacity:1"
       d="m 118.17568,816.26231 c 27.79589,-10.02842 27.79589,-10.02842 27.79589,-10.02842"
       id="path3036-2"
       inkscape:connector-curvature="0" />
    <path
       style="fill:none;stroke:#000000;stroke-width:0.601138px;stroke-linecap:butt;stroke-linejoin:miter;stroke-opacity:1"
       d="m 88.102474,816.63077 c 29.546036,-0.46011 29.546036,-0.46011 29.546036,-0.46011"
       id="path3036-6"
       inkscape:connector-curvature="0" />
    <path
       style="fill:none;stroke:#000000;stroke-width:0.601138px;stroke-linecap:butt;stroke-linejoin:miter;stroke-opacity:1"
       d="m 241.50867,739.66012 c 28.45527,-7.96732 28.45527,-7.96732 28.45527,-7.96732"
       id="path3036-22"
       inkscape:connector-curvature="0" />
    <path
       style="fill:none;stroke:#000000;stroke-width:0.601138px;stroke-linecap:butt;stroke-linejoin:miter;stroke-opacity:1"
       d="m 270.4075,732.36015 c 29.05388,-5.39012 29.05388,-5.39012 29.05388,-5.39012"
       id="path3036-4"
       inkscape:connector-curvature="0" />
    <path
       style="fill:none;stroke:#000000;stroke-width:0.601138px;stroke-linecap:butt;stroke-linejoin:miter;stroke-opacity:1"
       d="m 298.50144,727.35764 c 29.54473,-0.53772 29.54473,-0.53772 29.54473,-0.53772"
       id="path3036-7"
       inkscape:connector-curvature="0" />
    <path
       style="fill:none;stroke:#000000;stroke-width:0.601138px;stroke-linecap:butt;stroke-linejoin:miter;stroke-opacity:1"
       d="m 326.44912,727.68748 c 28.61057,7.39029 28.61057,7.39029 28.61057,7.39029"
       id="path3036-51"
       inkscape:connector-curvature="0" />
    <path
       style="fill:none;stroke:#000000;stroke-width:0.601138px;stroke-linecap:butt;stroke-linejoin:miter;stroke-opacity:1"
       d="m 354.39289,734.63606 c 25.96669,14.10357 25.96669,14.10357 25.96669,14.10357"
       id="path3036-3"
       inkscape:connector-curvature="0" />
    <path
       style="fill:none;stroke:#000000;stroke-width:0.601138px;stroke-linecap:butt;stroke-linejoin:miter;stroke-opacity:1"
       d="m 379.13532,749.49819 c 22.85532,18.73006 22.85532,18.73006 22.85532,18.73006"
       id="path3036-96"
       inkscape:connector-curvature="0" />
    <path
       style="fill:none;stroke:#000000;stroke-width:0.601138px;stroke-linecap:butt;stroke-linejoin:miter;stroke-opacity:1"
       d="m 400.0454,765.10232 c 11.95083,27.02514 11.95083,27.02514 11.95083,27.02514"
       id="path3036-74"
       inkscape:connector-curvature="0" />
    <path
       style="fill:none;stroke:#000000;stroke-width:0.601138px;stroke-linecap:butt;stroke-linejoin:miter;stroke-opacity:1"
       d="m 404.70618,820.55581 c 6.06436,-28.92064 6.06436,-28.92064 6.06436,-28.92064"
       id="path3036-8"
       inkscape:connector-curvature="0" />
    <path
       style="fill:none;stroke:#000000;stroke-width:0.601138px;stroke-linecap:butt;stroke-linejoin:miter;stroke-opacity:1"
       d="m 400.38034,849.04414 c 4.4108,-29.21857 4.4108,-29.21857 4.4108,-29.21857"
       id="path3036-511"
       inkscape:connector-curvature="0" />
    <path
       style="fill:none;stroke:#000000;stroke-width:0.601138px;stroke-linecap:butt;stroke-linejoin:miter;stroke-opacity:1"
       d="m 405.03228,878.20384 c -4.89306,-29.1417 -4.89306,-29.1417 -4.89306,-29.1417"
       id="path3036-45"
       inkscape:connector-curvature="0" />
    <path
       style="fill:none;stroke:#000000;stroke-width:0.601138px;stroke-linecap:butt;stroke-linejoin:miter;stroke-opacity:1"
       d="m 410.13123,903.97581 c -4.78575,-29.15952 -4.78575,-29.15952 -4.78575,-29.15952"
       id="path3036-98"
       inkscape:connector-curvature="0" />
    <path
       style="fill:none;stroke:#000000;stroke-width:0.601138px;stroke-linecap:butt;stroke-linejoin:miter;stroke-opacity:1"
       d="m 419.45821,930.83285 c -9.6994,-27.91241 -9.6994,-27.91241 -9.6994,-27.91241"
       id="path3036-02"
       inkscape:connector-curvature="0" />
    <path
       style="fill:none;stroke:#000000;stroke-width:0.601138px;stroke-linecap:butt;stroke-linejoin:miter;stroke-opacity:1"
       d="M 443.31534,946.3943 C 418.53489,930.29742 418.53489,930.29742 418.53489,930.29742"
       id="path3036-73"
       inkscape:connector-curvature="0" />
    <path
       style="fill:none;stroke:#000000;stroke-width:0.601138px;stroke-linecap:butt;stroke-linejoin:miter;stroke-opacity:1"
       d="m 471.16103,951.62286 c -28.94572,-5.94355 -28.94572,-5.94355 -28.94572,-5.94355"
       id="path3036-44"
       inkscape:connector-curvature="0" />
    <path
       style="fill:none;stroke:#000000;stroke-width:0.601138px;stroke-linecap:butt;stroke-linejoin:miter;stroke-opacity:1"
       d="m 472.8374,951.58873 c 29.53288,0.99485 29.53288,0.99485 29.53288,0.99485"
       id="path3036-87"
       inkscape:connector-curvature="0" />
    <path
       style="fill:none;stroke:#000000;stroke-width:0.601138px;stroke-linecap:butt;stroke-linejoin:miter;stroke-opacity:1"
       d="m 502.92533,954.02333 c 29.47083,-2.15681 29.47083,-2.15681 29.47083,-2.15681"
       id="path3036-60"
       inkscape:connector-curvature="0" />
    <path
       style="fill:none;stroke:#000000;stroke-width:0.601138px;stroke-linecap:butt;stroke-linejoin:miter;stroke-opacity:1"
       d="m 531.43042,951.10452 c 29.13938,-4.90688 29.13938,-4.90688 29.13938,-4.90688"
       id="path3036-63"
       inkscape:connector-curvature="0" />
    <path
       style="fill:none;stroke:#000000;stroke-width:0.601138px;stroke-linecap:butt;stroke-linejoin:miter;stroke-opacity:1"
       d="m 561.612,945.74389 c 28.89003,-6.20837 28.89003,-6.20837 28.89003,-6.20837"
       id="path3036-39"
       inkscape:connector-curvature="0" />
    <path
       style="fill:none;stroke:#000000;stroke-width:0.601138px;stroke-linecap:butt;stroke-linejoin:miter;stroke-opacity:1"
       d="m 597.00803,935.34749 c 28.51696,-7.74355 28.51696,-7.74355 28.51696,-7.74355"
       id="path3036-07"
       inkscape:connector-curvature="0" />
    <path
       style="fill:none;stroke:#000000;stroke-width:0.601138px;stroke-linecap:butt;stroke-linejoin:miter;stroke-opacity:1"
       d="m 625.62135,926.79668 c 27.96901,-9.53485 27.96901,-9.53485 27.96901,-9.53485"
       id="path3036-56"
       inkscape:connector-curvature="0" />
    <path
       style="fill:none;stroke:#000000;stroke-width:0.601138px;stroke-linecap:butt;stroke-linejoin:miter;stroke-opacity:1"
       d="m 59.022614,812.80344 c 29.30951,3.75946 29.30951,3.75946 29.30951,3.75946"
       id="path3036-72"
       inkscape:connector-curvature="0" />
    <path
       style="fill:none;stroke:#000000;stroke-width:0.601138px;stroke-linecap:butt;stroke-linejoin:miter;stroke-opacity:1"
       d="m 32.611354,807.2812 c 28.88838,6.21626 28.88838,6.21626 28.88838,6.21626"
       id="path3036-77"
       inkscape:connector-curvature="0" />
    <path
       style="fill:none;stroke:#000000;stroke-width:4.20215797px;stroke-linecap:butt;stroke-linejoin:miter;stroke-opacity:1"
       d="M 156.20212,982.91885 C 324.28844,862.85719 324.28844,862.85719 324.28844,862.85719"
       id="path3036-446"
       inkscape:connector-curvature="0" />
    <path
       style="fill:none;stroke:#000000;stroke-width:4.28086615px;stroke-linecap:butt;stroke-linejoin:miter;stroke-opacity:1"
       d="M 324.87938,862.70013 C 455.38783,710.84625 455.38783,710.84625 455.38783,710.84625"
       id="path3036-9-2"
       inkscape:connector-curvature="0" />
    <path
       style="fill:none;stroke:#000000;stroke-width:0.50705725;stroke-linecap:butt;stroke-linejoin:miter;stroke-miterlimit:4;stroke-opacity:1;stroke-dasharray:6.08468748, 6.08468748;stroke-dashoffset:0"
       d="M 240.22726,739.98262 C 453.3043,709.90109 453.3043,709.90109 453.3043,709.90109"
       id="path3068-2-5-2"
       inkscape:connector-curvature="0" />
    <path
       style="fill:none;stroke:#000000;stroke-width:2.09622765;stroke-linecap:butt;stroke-linejoin:miter;stroke-miterlimit:4;stroke-opacity:1;stroke-dasharray:none"
       d="M 326.21409,863.60742 C 495.2554,742.86362 495.2554,742.86362 495.2554,742.86362"
       id="path3036-446-9"
       inkscape:connector-curvature="0" />
    <path
       style="fill:none;stroke:#000000;stroke-width:2.15617824;stroke-linecap:butt;stroke-linejoin:miter;stroke-miterlimit:4;stroke-opacity:1;stroke-dasharray:none"
       d="m 455.98593,710.13316 c 40.25863,31.91443 40.25863,31.91443 40.25863,31.91443"
       id="path3036-446-9-6"
       inkscape:connector-curvature="0" />
    <path
       style="fill:none;stroke:#000000;stroke-width:0.601138px;stroke-linecap:butt;stroke-linejoin:miter;stroke-opacity:1"
       d="m 217.09172,751.99307 c -1.45045,-1.38779 -9.0372,-9.39041 -1.71754,-16.3166 6.11715,-3.30636 -3.68797,-10.94722 4.29384,-3.43508 6.11107,5.14481 8.27243,-4.55337 14.59907,-4.29384 4.23761,1.72179 4.08718,6.1314 7.72892,9.44645"
       id="path4136"
       inkscape:connector-curvature="0" />
    <path
       style="fill:none;stroke:#000000;stroke-width:0.601138px;stroke-linecap:butt;stroke-linejoin:miter;stroke-opacity:1"
       d="m 419.60777,620.74736 c -1.25958,8.69048 1.40095,17.95731 2.5763,26.62183"
       id="path4366"
       inkscape:connector-curvature="0" />
    <path
       style="fill:none;stroke:#000000;stroke-width:0.601138px;stroke-linecap:butt;stroke-linejoin:miter;stroke-opacity:1"
       d="m 405.0087,623.32367 c 7.9827,-3.55561 17.96161,-0.88197 26.62183,-1.71754"
       id="path4368"
       inkscape:connector-curvature="0" />
    <path
       style="fill:none;stroke:#000000;stroke-width:0.601138px;stroke-linecap:butt;stroke-linejoin:miter;stroke-opacity:1"
       d="m 436.78314,619.02983 c 1.52692,11.26144 3.60221,37.32622 8.58768,12.88153 3.44464,-3.45029 4.60011,7.68349 7.72892,9.44645"
       id="path4370"
       inkscape:connector-curvature="0" />
    <path
       style="fill:none;stroke:#000000;stroke-width:0.601138px;stroke-linecap:butt;stroke-linejoin:miter;stroke-opacity:1"
       d="m 460.82866,640.49904 c 0.26708,1.2228 11.16515,-1.68129 8.58768,-11.16399 -13.18661,-0.38259 -8.16476,23.52713 6.01138,10.30522"
       id="path4372"
       inkscape:connector-curvature="0" />
    <path
       style="fill:none;stroke:#000000;stroke-width:0.601138px;stroke-linecap:butt;stroke-linejoin:miter;stroke-opacity:1"
       d="m 508.9197,630.19382 c 2.4755,12.64093 7.00101,13.19058 0,0 4.01649,0.44673 6.2783,-1.79885 10.30522,-1.71754"
       id="path4374"
       inkscape:connector-curvature="0" />
    <path
       style="fill:none;stroke:#000000;stroke-width:0.601138px;stroke-linecap:butt;stroke-linejoin:miter;stroke-opacity:1"
       d="m 535.54152,630.19382 c -14.32194,-8.189 -9.28242,23.32715 0.85877,6.01138 -2.37421,-12.71953 1.07991,1.292 4.29385,3.43507 l 0.85876,0"
       id="path4380"
       inkscape:connector-curvature="0" />
    <path
       style="fill:none;stroke:#000000;stroke-width:0.601138px;stroke-linecap:butt;stroke-linejoin:miter;stroke-opacity:1"
       d="m 548.42306,615.59475 c -0.2004,7.48597 3.56687,15.67409 6.01138,21.46922"
       id="path4382"
       inkscape:connector-curvature="0" />
    <path
       style="fill:none;stroke:#000000;stroke-width:0.601138px;stroke-linecap:butt;stroke-linejoin:miter;stroke-opacity:1"
       d="m 544.12922,625.04121 c 4.13981,-1.17531 8.85855,-1.46058 12.88153,0"
       id="path4384"
       inkscape:connector-curvature="0" />
    <path
       style="fill:none;stroke:#000000;stroke-width:0.601138px;stroke-linecap:butt;stroke-linejoin:miter;stroke-opacity:1"
       d="m 567.31598,625.89998 c 1.52631,3.41275 -0.2425,8.99397 2.5763,12.88152"
       id="path4386"
       inkscape:connector-curvature="0" />
    <path
       style="fill:none;stroke:#000000;stroke-width:0.601138px;stroke-linecap:butt;stroke-linejoin:miter;stroke-opacity:1"
       d="m 566.4572,617.31229 c 1.71754,0.85877 3.43507,1.71754 5.15261,2.57631"
       id="path4388"
       inkscape:connector-curvature="0" />
    <path
       style="fill:none;stroke:#000000;stroke-width:0.601138px;stroke-linecap:butt;stroke-linejoin:miter;stroke-opacity:1"
       d="m 581.05627,624.18244 c -5.97337,-2.68851 -8.0318,19.78989 7.72892,9.44645 4.83983,-3.86632 -2.73485,-13.0396 -7.72892,-9.44645 z"
       id="path4390"
       inkscape:connector-curvature="0" />
    <path
       style="fill:none;stroke:#000000;stroke-width:0.601138px;stroke-linecap:butt;stroke-linejoin:miter;stroke-opacity:1"
       d="m 423.76111,657.83374 c 1.3267,-4.17842 17.87698,1.59778 29.19814,2.57631 7.56897,2.55018 16.26056,3.53227 19.65958,8.96888 6.43588,5.8346 10.02183,17.69042 6.96225,28.81694 1.18289,6.06554 -2.71385,26.62421 0,22.32799 2.35399,-10.65641 3.07962,-22.5976 8.58768,-30.91567 1.61255,-5.80684 9.93213,-11.22294 12.88153,-15.45784 5.35034,-2.87529 9.81247,-8.16604 16.3166,-8.58768 8.44113,-3.39669 21.46204,-0.52512 30.91568,-3.43508 6.70838,2.07904 18.40982,-4.80138 20.61044,-1.71754"
       id="path4630"
       inkscape:connector-curvature="0" />
    <path
       style="fill:none;stroke:#000000;stroke-width:0.601138px;stroke-linecap:butt;stroke-linejoin:miter;stroke-opacity:1"
       d="m 325.29657,869.64437 c 0,116.79253 0,115.93376 0,115.93376"
       id="path4632"
       inkscape:connector-curvature="0" />
    <path
       style="fill:none;stroke:#000000;stroke-width:0.601138px;stroke-linecap:butt;stroke-linejoin:miter;stroke-opacity:1"
       d="M 100.29919,822.41209 C 63.372144,916.01788 63.372144,916.01788 63.372144,916.01788"
       id="path4634"
       inkscape:connector-curvature="0" />
    <path
       style="fill:none;stroke:#000000;stroke-width:0.601138px;stroke-linecap:butt;stroke-linejoin:miter;stroke-opacity:1"
       d="m 270.33537,996.74213 c 1.03441,6.97637 1.29371,17.08457 5.15262,22.32797"
       id="path4650"
       inkscape:connector-curvature="0" />
    <path
       style="fill:none;stroke:#000000;stroke-width:0.601138px;stroke-linecap:butt;stroke-linejoin:miter;stroke-opacity:1"
       d="m 264.32399,999.31843 c 10.92699,-6.39833 21.11098,0.74517 9.44647,9.44647"
       id="path4652"
       inkscape:connector-curvature="0" />
    <path
       style="fill:none;stroke:#000000;stroke-width:0.601138px;stroke-linecap:butt;stroke-linejoin:miter;stroke-opacity:1"
       d="m 290.08706,1007.0474 c -13.19954,-0.492 -3.23412,16.6223 5.19076,6.5907 0.32663,-3.2251 -2.45556,-4.341 -5.19076,-6.5907 z"
       id="path4654"
       inkscape:connector-curvature="0" />
    <path
       style="fill:none;stroke:#000000;stroke-width:0.601138px;stroke-linecap:butt;stroke-linejoin:miter;stroke-opacity:1"
       d="m 300.39228,1007.0474 c 1.7797,2.1101 -0.84831,8.025 3.43508,7.7289"
       id="path4656"
       inkscape:connector-curvature="0" />
    <path
       style="fill:none;stroke:#000000;stroke-width:0.601138px;stroke-linecap:butt;stroke-linejoin:miter;stroke-opacity:1"
       d="m 298.67474,996.74213 c 1.14503,1.71752 2.29005,3.43507 3.43508,5.15257"
       id="path4658"
       inkscape:connector-curvature="0" />
    <path
       style="fill:none;stroke:#000000;stroke-width:0.601138px;stroke-linecap:butt;stroke-linejoin:miter;stroke-opacity:1"
       d="m 309.83874,1006.1886 c 4.85024,12.5371 1.7475,8.7673 6.87014,0 3.617,-2.946 3.85558,5.6078 7.72892,5.1526"
       id="path4674"
       inkscape:connector-curvature="0" />
    <path
       style="fill:none;stroke:#000000;stroke-width:0.601138px;stroke-linecap:butt;stroke-linejoin:miter;stroke-opacity:1"
       d="m 326.15534,990.73075 c 2.21762,6.74607 5.00072,16.21935 9.44645,19.75165"
       id="path4676"
       inkscape:connector-curvature="0" />
    <path
       style="fill:none;stroke:#000000;stroke-width:0.601138px;stroke-linecap:butt;stroke-linejoin:miter;stroke-opacity:1"
       d="m 323.57903,1001.8947 c 1.97232,-3.1711 8.12891,-0.1314 11.16399,-3.43504"
       id="path4678"
       inkscape:connector-curvature="0" />
    <path
       style="fill:none;stroke:#000000;stroke-width:0.601138px;stroke-linecap:butt;stroke-linejoin:miter;stroke-opacity:1"
       d="m 357.92978,986.4369 c -2.01336,4.53414 -1.71754,3.67489 -1.71754,7.72892 0,0.57252 0.11228,1.15614 0,1.71754 -0.17753,0.88764 -0.68124,1.68866 -0.85877,2.5763 -0.2807,1.40349 0.2807,2.89034 0,4.29384 -1.1148,5.574 -0.85877,-1.9139 -0.85877,3.4351 0,0.5725 0,1.145 0,1.7175 0,0.2863 0.12802,0.6028 0,0.8588 -0.30377,0.6075 -2.52333,1.7175 0,1.7175"
       id="path4680"
       inkscape:connector-curvature="0" />
    <path
       style="fill:none;stroke:#000000;stroke-width:0.601138px;stroke-linecap:butt;stroke-linejoin:miter;stroke-opacity:1"
       d="m 353.63593,983.8606 c 3.48727,7.10548 8.48871,13.67599 13.7403,19.7517"
       id="path4682"
       inkscape:connector-curvature="0" />
    <path
       style="fill:none;stroke:#000000;stroke-width:0.601138px;stroke-linecap:butt;stroke-linejoin:miter;stroke-opacity:1"
       d="m 351.9184,1001.036 c 4.72962,-2.4741 9.33995,-2.75095 13.74029,-6.87018"
       id="path4684"
       inkscape:connector-curvature="0" />
    <path
       style="fill:none;stroke:#000000;stroke-width:0.67840195px;stroke-linecap:butt;stroke-linejoin:miter;stroke-opacity:1"
       d="m 218.73774,760.84799 c 20.68208,-24.06474 20.68208,-24.06474 20.68208,-24.06474"
       id="path3036-9-2-5"
       inkscape:connector-curvature="0" />
    <path
       style="fill:none;stroke:#000000;stroke-width:1px;stroke-linecap:butt;stroke-linejoin:miter;stroke-opacity:1"
       d="m 447,725.3627 c 0.47475,1.03728 3.3952,4.28324 8.5,6 6.98217,0.69255 13.02133,-5.29192 15.5,-8"
       id="path3248"
       inkscape:connector-curvature="0" />
    <path
       style="fill:none;stroke:#000000;stroke-width:1px;stroke-linecap:butt;stroke-linejoin:miter;stroke-opacity:1"
       d="m 457.5,720.8627 c -0.16667,0.66667 -0.16667,0.66667 0,0 z"
       id="path3250"
       inkscape:connector-curvature="0" />
    <path
       style="fill:none;stroke:#000000;stroke-width:0.64463764px;stroke-linecap:butt;stroke-linejoin:miter;stroke-opacity:1"
       d="m 45.970413,924.37576 c 7.641542,5.60559 14.680248,6.57806 17.49731,11.97182"
       id="path3047-4"
       inkscape:connector-curvature="0" />
    <path
       style="fill:none;stroke:#000000;stroke-width:0.64463764px;stroke-linecap:butt;stroke-linejoin:miter;stroke-opacity:1"
       d="m 59.784073,919.77118 c -1.498053,1.31741 -3.540341,10.10574 -3.68365,20.26006"
       id="path3049-6"
       inkscape:connector-curvature="0" />
    <path
       style="fill:none;stroke:#000000;stroke-width:0.64463764px;stroke-linecap:butt;stroke-linejoin:miter;stroke-opacity:1"
       d="m 71.755913,931.743 c -1.542227,0.43212 -4.70758,10.60958 3.68364,10.13003 5.403822,-1.76051 4.902009,-10.49476 -3.68364,-10.13003 z"
       id="path3051-8"
       inkscape:connector-curvature="0" />
  </g>
</svg>
