<?xml version="1.0" encoding="UTF-8" standalone="no"?>
<!-- Created with Inkscape (http://www.inkscape.org/) -->

<svg
   xmlns:dc="http://purl.org/dc/elements/1.1/"
   xmlns:cc="http://creativecommons.org/ns#"
   xmlns:rdf="http://www.w3.org/1999/02/22-rdf-syntax-ns#"
   xmlns:svg="http://www.w3.org/2000/svg"
   xmlns="http://www.w3.org/2000/svg"
   xmlns:sodipodi="http://sodipodi.sourceforge.net/DTD/sodipodi-0.dtd"
   xmlns:inkscape="http://www.inkscape.org/namespaces/inkscape"
   width="1417.3228"
   height="1062.9921"
   id="svg2"
   version="1.1"
   inkscape:version="0.48.3.1 r9886"
   sodipodi:docname="vector_graph2.svg">
  <defs
     id="defs4" />
  <sodipodi:namedview
     id="base"
     pagecolor="#ffffff"
     bordercolor="#666666"
     borderopacity="1.0"
     inkscape:pageopacity="0.0"
     inkscape:pageshadow="2"
     inkscape:zoom="0.7"
     inkscape:cx="683.01948"
     inkscape:cy="531.91796"
     inkscape:document-units="px"
     inkscape:current-layer="layer1"
     showgrid="false"
     units="cm"
     inkscape:window-width="1282"
     inkscape:window-height="993"
     inkscape:window-x="143"
     inkscape:window-y="101"
     inkscape:window-maximized="0" />
  <metadata
     id="metadata7">
    <rdf:RDF>
      <cc:Work
         rdf:about="">
        <dc:format>image/svg+xml</dc:format>
        <dc:type
           rdf:resource="http://purl.org/dc/dcmitype/StillImage" />
        <dc:title />
      </cc:Work>
    </rdf:RDF>
  </metadata>
  <g
     inkscape:label="Layer 1"
     inkscape:groupmode="layer"
     id="layer1"
     transform="translate(0,10.629368)">
    <rect
       style="opacity:0.222;fill:#0000d2;fill-opacity:1;stroke-width:1;stroke-miterlimit:4;stroke-dasharray:12, 12;stroke-dashoffset:0"
       id="rect3050"
       width="165.47237"
       height="275.2067"
       x="491.70602"
       y="158.53423" />
    <path
       style="fill:none;stroke:#000000;stroke-width:1.25642121px;stroke-linecap:butt;stroke-linejoin:miter;stroke-opacity:1"
       d="m 349.46492,629.98848 c 760.11578,0 760.11578,0 760.11578,0"
       id="path3064"
       inkscape:connector-curvature="0" />
    <path
       style="fill:none;stroke:#000000;stroke-width:2.12845922px;stroke-linecap:butt;stroke-linejoin:miter;stroke-opacity:1"
       d="m 682.40406,75.497123 c 0,930.312977 0,930.312977 0,930.312977"
       id="path3066"
       inkscape:connector-curvature="0" />
    <path
       style="fill:none;stroke:#000000;stroke-width:1.26620018px;stroke-linecap:butt;stroke-linejoin:miter;stroke-opacity:1"
       d="m 734.32828,635.39581 c 239.4657,218.3555 239.4657,218.3555 239.4657,218.3555"
       id="path3903"
       inkscape:connector-curvature="0" />
    <rect
       style="opacity:0.22222224;fill:#d20000;fill-opacity:1;stroke-width:1;stroke-miterlimit:4;stroke-dasharray:12, 12;stroke-dashoffset:0"
       id="rect3943"
       width="123.309"
       height="193.16574"
       x="643.32306"
       y="433.90985" />
    <rect
       style="opacity:0.222;fill:#d20000;fill-opacity:1;stroke-width:1;stroke-miterlimit:4;stroke-dasharray:12, 12;stroke-dashoffset:0"
       id="rect3943-7-1"
       width="111.83799"
       height="210.54404"
       x="522.15228"
       y="417.61609" />
    <path
       style="fill:none;stroke:#000000;stroke-width:1.21927023px;stroke-linecap:butt;stroke-linejoin:miter;stroke-opacity:1"
       d="m 551.97276,680.38182 c 64.97031,7.14003 121.8921,-37.00882 164.17524,-81.34534 24.91334,-31.18214 54.15327,-67.58488 49.59256,-109.97309 -6.84963,-29.38642 -36.05405,-46.29433 -64.54209,-48.14255 -33.98475,-6.35517 -68.23084,-8.86111 -102.71722,-5.82163 -33.83634,5.1392 -76.74914,-11.26123 -70.28243,-52.31522 3.51126,-33.87171 12.12454,-68.56707 29.35949,-98.18666 21.48,-32.44101 51.19225,-63.86717 92.24504,-67.63453 45.06982,-5.34989 75.06779,38.97154 87.63695,76.51939 13.83194,38.14498 -8.48107,82.23165 -45.82445,96.53853 -46.28168,23.74466 -96.52268,44.15557 -133.17292,82.47528 -27.46533,27.24548 -26.56003,73.41872 -8.91955,105.56191 22.84554,43.36819 75.14624,52.71347 119.70531,53.02654 49.39356,0.56607 101.9835,1.6669 146.80309,24.74111 29.55339,20.09306 57.51542,42.71266 84.30388,66.35981"
       id="path3030"
       inkscape:connector-curvature="0" />
    <path
       style="fill:none;stroke:#000000;stroke-width:1.26620018px;stroke-linecap:butt;stroke-linejoin:miter;stroke-opacity:1"
       d="M 631.85184,664.21696 C 871.31757,882.57247 871.31757,882.57247 871.31757,882.57247"
       id="path3903-3"
       inkscape:connector-curvature="0" />
    <rect
       style="opacity:0.222;fill:#0000d2;fill-opacity:1;stroke-width:1;stroke-miterlimit:4;stroke-dasharray:12, 12;stroke-dashoffset:0"
       id="rect3050-9"
       width="113.21793"
       height="188.116"
       x="661.88129"
       y="215.1432" />
    <path
       style="fill:none;stroke:#000000;stroke-width:1.05227149;stroke-linecap:butt;stroke-linejoin:miter;stroke-miterlimit:4;stroke-opacity:1;stroke-dasharray:12.62725857, 12.62725857;stroke-dashoffset:0"
       d="M 736.24542,515.31291 C 888.60756,331.15421 888.60756,331.15421 888.60756,331.15421"
       id="path3068-9"
       inkscape:connector-curvature="0" />
    <path
       style="fill:none;stroke:#000000;stroke-width:1.05227149;stroke-linecap:butt;stroke-linejoin:miter;stroke-miterlimit:4;stroke-opacity:1;stroke-dasharray:12.62725857, 12.62725857;stroke-dashoffset:0"
       d="M 701.23077,481.28166 C 853.59288,297.12302 853.59288,297.12302 853.59288,297.12302"
       id="path3068-2-5"
       inkscape:connector-curvature="0" />
    <path
       style="fill:none;stroke:#000000;stroke-width:1px;stroke-linecap:butt;stroke-linejoin:miter;stroke-opacity:1"
       d="m 1090,627.27778 c 1.3755,4.25918 5.0133,-1.06479 7.1429,0 0.6023,0.30117 0.8262,1.1274 1.4285,1.42857 1.1429,0.57143 3.1429,-0.57143 4.2857,0 0.6024,0.30117 0.8263,1.1274 1.4286,1.42857 0.8518,0.42592 2.0053,-0.42592 2.8572,0 0.6023,0.30117 0.8262,1.1274 1.4285,1.42857 0.8519,0.42592 2.1837,-0.67343 2.8572,0 0.3367,0.33672 -0.3367,1.09186 0,1.42858 0.4423,0.44235 6.7005,-0.44236 7.1428,0 0.3367,0.33671 -0.3367,1.09185 0,1.42857 0.6735,0.67343 2.1837,-0.67344 2.8572,0 0.3367,0.33671 0.3367,1.09185 0,1.42857 -0.3367,0.33672 -1.0919,-0.33672 -1.4286,0 -0.3367,0.33672 0.3367,1.09185 0,1.42857 -0.3367,0.33672 -1.0919,-0.33672 -1.4286,0 -0.3367,0.33672 0.3367,1.09185 0,1.42857 -0.3367,0.33672 -1.0918,-0.33672 -1.4285,0 -2.9558,2.95577 4.5168,-0.11554 -1.4286,2.85714 -3.8095,0 0.4762,-0.47619 -1.4286,1.42858 -0.3367,0.33671 -1.0918,-0.33672 -1.4286,0 -0.3367,0.33671 0.3368,1.09185 0,1.42857 -0.3367,0.33671 -1.0918,-0.33672 -1.4285,0 -0.3367,0.33671 0.3367,1.09185 0,1.42857 -0.3367,0.33672 -1.0027,-0.21296 -1.4286,0 -0.6023,0.30117 -0.8262,1.1274 -1.4286,1.42857 -0.4259,0.21296 -1.0918,-0.33672 -1.4285,0 -0.3368,0.33672 0.3367,1.09185 0,1.42857 -0.3368,0.33672 -0.9524,0 -1.4286,0 0,0.47619 0.3367,1.09186 0,1.42857 -0.3367,0.33672 -1.0919,-0.33671 -1.4286,0 -0.3367,0.33672 0.3367,1.09186 0,1.42857 -0.3367,0.33672 -1.0026,-0.21295 -1.4286,0 -0.9142,0.45715 -1.9428,2.4 -2.8571,2.85715 -0.4259,0.21296 -1.0919,-0.33672 -1.4286,0 -0.3367,0.33671 -0.3367,1.09185 0,1.42857 0.3367,0.33672 0.9524,0 1.4286,0"
       id="path3025"
       inkscape:connector-curvature="0"
       transform="translate(0,-10.629368)" />
    <path
       style="fill:none;stroke:#000000;stroke-width:1px;stroke-linecap:butt;stroke-linejoin:miter;stroke-opacity:1"
       d="m 1041.4286,572.99207 c 0,1.90476 -0.3736,3.84651 0,5.71428 0.132,0.66036 1.2156,0.7897 1.4285,1.42857 0.3012,0.90351 0,1.90476 0,2.85715 0,1.65952 -0.3237,5.84779 0,7.14285 0.2583,1.033 1.0919,1.84699 1.4286,2.85715 0.3012,0.9035 -0.4259,2.0053 0,2.85714 0.3012,0.60234 1.1274,0.82623 1.4286,1.42857 0.2174,0.43476 0,3.64235 0,4.28571"
       id="path3027"
       inkscape:connector-curvature="0"
       transform="translate(0,-10.629368)" />
    <path
       style="fill:none;stroke:#000000;stroke-width:1px;stroke-linecap:butt;stroke-linejoin:miter;stroke-opacity:1"
       d="m 1037.1429,567.27778 c 6.2328,-3.53406 5.5645,-2.85714 11.4285,-2.85714 0.4762,0 0.9524,0 1.4286,0 0.4762,0 1.0027,-0.21296 1.4286,0 0.6023,0.30117 0.8262,1.1274 1.4285,1.42857 0.5665,0.28321 3.9937,-0.29205 4.2858,0 0.3367,0.33672 -0.3368,1.09185 0,1.42857 1.9047,1.90476 1.4285,-2.38095 1.4285,1.42857 0,0.47619 0,0.95238 0,1.42857 0,0.47619 0.213,1.00266 0,1.42857 -0.3011,0.60234 -1.1274,0.82624 -1.4285,1.42858 -0.213,0.42591 0.3367,1.09185 0,1.42857 -0.3368,0.33671 -1.0919,-0.33672 -1.4286,0 -0.3367,0.33671 0.3367,1.09185 0,1.42857 -0.3367,0.33672 -1.0919,-0.33672 -1.4286,0 -0.3367,0.33672 0.213,1.00265 0,1.42857 -0.3012,0.60234 -0.9524,0.95238 -1.4286,1.42857 -0.4761,0.47619 -0.8262,1.1274 -1.4285,1.42857 -0.4259,0.21296 -1.0919,-0.33671 -1.4286,0 -0.3367,0.33672 0.3367,1.09186 0,1.42857 -0.3367,0.33672 -0.9524,0 -1.4286,0 0,0.47619 0.3367,1.09186 0,1.42858 -0.6734,0.67343 -2.1837,-0.67344 -2.8571,0 -0.3367,0.33671 0.3367,1.09185 0,1.42857 -0.6734,0.67343 -2.8572,-0.95238 -2.8572,0 0,2.8131 4.9287,0.64296 5.7143,1.42857 0.3367,0.33672 -0.3367,1.09185 0,1.42857 0.2921,0.29205 3.7193,-0.28321 4.2857,0 4.738,4.73797 -1.3468,-0.67344 2.8572,1.42857 1.7143,0.85714 2.5714,3.42857 4.2857,4.28572 0.4259,0.21295 1.0027,-0.21296 1.4286,0 1.5208,0.76039 1.3363,2.09674 2.8571,2.85714 0.4259,0.21296 0.9768,-0.15059 1.4286,0 1.0101,0.33672 1.847,1.09185 2.8571,1.42857 0.9035,0.30117 2.0053,-0.42592 2.8572,0 0.6023,0.30117 0.8262,1.1274 1.4285,1.42857 0.8519,0.42592 2.1838,-0.67343 2.8572,0 0.3367,0.33672 -0.3367,1.09186 0,1.42857 1.4092,1.40926 2.8571,-2.92725 2.8571,1.42857"
       id="path3029"
       inkscape:connector-curvature="0"
       transform="translate(0,-10.629368)" />
    <path
       style="fill:none;stroke:#000000;stroke-width:1px;stroke-linecap:butt;stroke-linejoin:miter;stroke-opacity:1"
       d="m 1084.2857,584.42064 c 1.9048,0 5.7143,-1.90477 5.7143,0 0,1.90476 -7.0612,1.34687 -5.7143,0 1.7169,-1.71693 4.8394,-0.66074 7.1429,-1.42857 4.459,-1.48635 -0.4762,-0.95239 1.4285,-2.85715 0.3368,-0.33671 1.0919,0.33672 1.4286,0 0.6734,-0.67343 -0.6734,-2.18371 0,-2.85714 0.3367,-0.33672 1.0919,0.33672 1.4286,0 0.3367,-0.33672 0,-0.95238 0,-1.42857 0,-0.47619 0.3367,-1.09186 0,-1.42857 -0.3367,-0.33672 -1.0919,0.33671 -1.4286,0 -0.3367,-0.33672 0.3367,-1.09186 0,-1.42857 -0.2015,-0.20147 -3.9927,-0.14652 -4.2857,0 -0.6023,0.30116 -1.1274,0.82623 -1.4286,1.42857 -0.2129,0.42591 0.3367,1.09185 0,1.42857 -0.3367,0.33672 -1.0918,-0.33672 -1.4285,0 -0.3368,0.33672 0.3367,1.09185 0,1.42857 -0.3368,0.33672 -1.2518,-0.44213 -1.4286,0 -0.9018,2.25444 -1.9048,4.7619 -1.4286,7.14286 0.5446,2.72272 3.044,4.65935 4.2857,7.14285 0.213,0.42592 -0.3367,1.09186 0,1.42858 0.3367,0.33671 1.0919,-0.33672 1.4286,0 0.3367,0.33671 -0.3367,1.09185 0,1.42857 0.3367,0.33671 1.0027,-0.21296 1.4286,0 0.6023,0.30117 0.8262,1.1274 1.4285,1.42857 0.426,0.21296 0.9524,0 1.4286,0 0.4762,0 1.0919,0.33672 1.4286,0 0.3367,-0.33672 -0.3367,-1.09186 0,-1.42857 0.6734,-0.67344 2.0053,0.42591 2.8571,0 0.6024,-0.30117 0.8263,-1.12741 1.4286,-1.42857 1.9048,-0.95239 1.4286,1.42857 1.4286,-1.42858"
       id="path3031"
       inkscape:connector-curvature="0"
       transform="translate(0,-10.629368)" />
    <path
       style="fill:none;stroke:#000000;stroke-width:1px;stroke-linecap:butt;stroke-linejoin:miter;stroke-opacity:1"
       d="m 1121.4286,555.84921 c -0.9524,1.90476 -0.9524,6.66666 -2.8572,5.71428 -1.9047,-0.95238 4.363,-7.22013 2.8572,-5.71428 -4.5307,4.53071 -4.2857,4.88422 -4.2857,8.57143 0,0.47619 0.1505,0.97681 0,1.42857 -0.3368,1.01015 -1.0919,1.84699 -1.4286,2.85714 -0.1,0.29877 -0.1,6.84409 0,7.14286 0.3367,1.01015 1.0918,1.84699 1.4286,2.85714 0.1505,0.45176 -0.213,1.00265 0,1.42857 0.3011,0.60234 0.9523,0.95238 1.4285,1.42857 1.1226,1.12253 6.6879,6.2329 7.1429,7.14286 0.2129,0.42592 -0.213,1.00265 0,1.42857 0.8571,1.71429 3.4286,2.57143 4.2857,4.28572 0.213,0.42591 -0.3367,1.09185 0,1.42857 2.102,0 1.0919,-0.33672 2.8571,1.42857"
       id="path3033"
       inkscape:connector-curvature="0"
       transform="translate(0,-10.629368)" />
    <path
       style="fill:none;stroke:#000000;stroke-width:1px;stroke-linecap:butt;stroke-linejoin:miter;stroke-opacity:1"
       d="m 1141.4286,564.42064 c 6.1762,-1.54407 3.7509,-1.42857 7.1428,-1.42857 0.4762,0 1.0027,0.21295 1.4286,0 0.6023,-0.30117 0.7551,-1.42858 1.4286,-1.42858 0.4762,0 -0.3367,1.09186 0,1.42858 0.3367,0.33671 1.0918,-0.33672 1.4285,0 0.046,0.0459 0,3.93924 0,4.28571 0,3.80952 0.4762,-0.47619 -1.4285,1.42857 -0.6735,0.67344 0.6734,2.18371 0,2.85714 -0.3367,0.33672 -1.0919,-0.33671 -1.4286,0 -0.3367,0.33672 0.213,1.00266 0,1.42858 -0.3012,0.60233 -1.1274,0.82623 -1.4286,1.42857 -0.2129,0.42591 0.213,1.00265 0,1.42857 -0.3011,0.60234 -1.1274,0.82623 -1.4285,1.42857 -0.2174,0.43476 0,3.64235 0,4.28571 0,0.47619 0,0.95238 0,1.42858 0,0.47619 -0.3368,1.09185 0,1.42857 0.3367,0.33671 0.9523,0 1.4285,0 0.7471,0 5.3387,0.18781 5.7143,0 0.6024,-0.30117 0.8262,-1.12741 1.4286,-1.42857 0.5664,-0.28321 3.9936,0.29205 4.2857,0 0.3367,-0.33672 -0.3367,-1.09186 0,-1.42858 0.3367,-0.33671 0.9524,0 1.4286,0 0.4762,0 0.9524,0 1.4285,0"
       id="path3035"
       inkscape:connector-curvature="0"
       transform="translate(0,-10.629368)" />
    <path
       style="fill:none;stroke:#000000;stroke-width:1px;stroke-linecap:butt;stroke-linejoin:miter;stroke-opacity:1"
       d="m 1140,577.27778 c 1.9048,-0.47619 3.8913,-0.69939 5.7143,-1.42857 0.6253,-0.25011 0.8262,-1.1274 1.4286,-1.42857 0.8978,-0.44895 4.8164,0.44894 5.7142,0 0.6024,-0.30117 0.8263,-1.12741 1.4286,-1.42857 0.3756,-0.18782 4.9673,0 5.7143,0"
       id="path3037"
       inkscape:connector-curvature="0"
       transform="translate(0,-10.629368)" />
    <path
       style="fill:none;stroke:#000000;stroke-width:1px;stroke-linecap:butt;stroke-linejoin:miter;stroke-opacity:1"
       d="m 1152.8571,542.99207 c 16.1905,8.09523 0,-1.42858 7.1429,5.71428 0.7529,0.75292 2.1042,0.67565 2.8571,1.42857 0.753,0.75293 0.6757,2.10422 1.4286,2.85715 0.7529,0.75292 2.1042,0.67564 2.8572,1.42857 0.7529,0.75292 0.7897,2.0053 1.4285,2.85714 0.8082,1.0775 2.049,1.77965 2.8572,2.85714 0.6388,0.85184 0.9524,1.90476 1.4285,2.85715 0.9524,1.90476 1.9048,3.80952 2.8572,5.71428 0.4762,0.95238 0.9524,1.90476 1.4286,2.85714 0.4761,0.95238 1.1703,1.82414 1.4285,2.85715 0.231,0.92394 -0.231,1.93319 0,2.85714 0.2583,1.033 1.1703,1.82414 1.4286,2.85714 0.3238,1.29507 0,5.48333 0,7.14286 0,0.95238 0,1.90476 0,2.85714 0,0.47619 0.213,1.00266 0,1.42857 -0.3012,0.60234 -0.9524,0.95238 -1.4286,1.42858"
       id="path3039"
       inkscape:connector-curvature="0"
       transform="translate(0,-10.629368)" />
    <path
       style="fill:none;stroke:#000000;stroke-width:1px;stroke-linecap:butt;stroke-linejoin:miter;stroke-opacity:1"
       d="m 670.28571,90.934126 c 1.42858,-1.904762 2.85715,-3.809524 4.28572,-5.714286 0,-0.47619 -0.21296,-1.002653 0,-1.428571 0.30117,-0.602339 1.1274,-0.826233 1.42857,-1.428572 0.21296,-0.425917 -0.21296,-1.002653 0,-1.428571 2.97269,-5.945372 -0.0986,1.527194 2.85714,-1.428571 0.33672,-0.336718 -0.21296,-1.002654 0,-1.428572 0.30117,-0.602338 1.1274,-0.826233 1.42857,-1.428571 0.42592,-0.851836 -0.42591,-2.005308 0,-2.857143 0.30117,-0.602339 1.12741,-0.826233 1.42858,-1.428572 0.21295,-0.425917 -0.21296,-1.002653 0,-1.428571 1.76528,-3.530578 1.42857,0.493111 1.42857,-2.857143 0,-0.47619 -0.47619,-1.428571 0,-1.428571 0.47619,0 -0.33672,1.091854 0,1.428571 0.33671,0.336718 1.09185,-0.336717 1.42857,0 0.33672,0.336718 0,0.952381 0,1.428572 0,0.47619 0,0.952381 0,1.428571 0,3.350254 -0.33672,-0.673435 1.42857,2.857143 0.21296,0.425918 -0.21296,1.002654 0,1.428571 0.30117,0.602339 1.1274,0.826233 1.42857,1.428572 0.42592,0.851835 -0.67343,2.183708 0,2.857143 0.33672,0.336717 1.09186,-0.336718 1.42857,0 0.67344,0.673435 -0.67343,2.183707 0,2.857142 0.33672,0.336718 1.09186,-0.336717 1.42857,0 0.71429,0.714286 -0.71428,3.571429 0,4.285715 1.90477,1.904762 1.42858,-2.380953 1.42858,1.428571"
       id="path3041"
       inkscape:connector-curvature="0" />
    <path
       style="fill:none;stroke:#000000;stroke-width:1px;stroke-linecap:butt;stroke-linejoin:miter;stroke-opacity:1"
       d="m 721.42857,70.134923 c -0.47619,1.904761 -0.69939,3.891329 -1.42857,5.714285 -0.25011,0.625269 -1.1274,0.826233 -1.42857,1.428572 -0.3777,0.75539 0.174,5.018297 0,5.714285 -0.25825,1.033003 -1.17032,1.824141 -1.42857,2.857143 -0.62009,2.480351 0.62008,6.091078 0,8.571429 -0.25825,1.033002 -1.09186,1.84699 -1.42857,2.857143 -0.15059,0.451754 0,0.952381 0,1.428571 0,0.476191 -0.21296,1.002654 0,1.428569 1.76528,3.53058 1.42857,-0.493109 1.42857,2.85715"
       id="path3043"
       inkscape:connector-curvature="0"
       transform="translate(0,-10.629368)" />
    <path
       style="fill:none;stroke:#000000;stroke-width:1px;stroke-linecap:butt;stroke-linejoin:miter;stroke-opacity:1"
       d="m 788.57143,72.992065 c 2.90436,5.476906 -4.75007,4.250221 -5.71429,7.142858 -0.30117,0.903507 0.30117,1.953635 0,2.857142 -0.21296,0.638877 -1.05501,0.86824 -1.42857,1.428572 -0.59064,0.885962 -1.03312,1.868506 -1.42857,2.857143 -4.14319,10.357973 0.0978,-0.489138 -1.42857,7.142857 -0.29532,1.476604 -1.18101,2.800356 -1.42857,4.285714 -0.23486,1.409139 0,2.857139 0,4.285719 0,0.95238 -0.23099,1.93319 0,2.85714 0.25825,1.033 0.95238,1.90476 1.42857,2.85714 0.47619,0.95238 0.95238,1.90476 1.42857,2.85714 0.35004,0.70009 1.54825,3.84942 2.85714,4.28572 0.81856,0.27285 5.80169,0 7.14286,0"
       id="path3047"
       inkscape:connector-curvature="0"
       transform="translate(0,-10.629368)" />
    <path
       style="fill:none;stroke:#000000;stroke-width:1px;stroke-linecap:butt;stroke-linejoin:miter;stroke-opacity:1"
       d="m 800,85.849208 c 6.1402,-3.070101 3.5847,-2.857143 7.14286,-2.857143 0.47619,0 1.00265,-0.212958 1.42857,0 0.60234,0.30117 0.82623,1.127403 1.42857,1.428572 1.14286,0.571428 3.14286,-0.571429 4.28571,0 0.42592,0.212959 -0.21295,1.002654 0,1.428571 2.97269,5.945372 -0.0986,-1.527193 2.85715,1.428572 0.14285,0.142857 0.14285,4.142857 0,4.285714 -0.67344,0.673435 -2.18371,-0.673435 -2.85715,0 -0.33671,0.336718 0.21296,1.002654 0,1.428571 -0.60233,1.204678 -2.2548,1.652466 -2.85714,2.857143 -0.21296,0.425918 0.21296,1.002654 0,1.428572 -0.85714,1.714285 -3.42857,2.571428 -4.28571,4.28571 -0.21296,0.42592 0.21296,1.00266 0,1.42858 -0.30117,0.60233 -1.1274,0.82623 -1.42857,1.42857 -0.21296,0.42591 0,0.95238 0,1.42857 0,0.47619 -0.21296,1.00265 0,1.42857 0.30117,0.60234 0.82623,1.1274 1.42857,1.42857 0.43476,0.21738 3.64234,0 4.28571,0 2.85714,0 5.71429,0 8.57143,0 0.47619,0 0.95238,0 1.42857,0 0.47619,0 1.09186,0.33672 1.42857,0 0.33672,-0.33672 0,-0.95238 0,-1.42857"
       id="path3049"
       inkscape:connector-curvature="0"
       transform="translate(0,-10.629368)" />
    <path
       style="fill:none;stroke:#000000;stroke-width:1px;stroke-linecap:butt;stroke-linejoin:miter;stroke-opacity:1"
       d="m 804.28571,97.27778 c 2.85715,0 5.71429,0 8.57143,0 0.47619,0 1.00266,-0.212959 1.42857,0 0.60234,0.301169 0.82624,1.127402 1.42858,1.428571 0.37563,0.187815 4.96725,0 5.71428,0"
       id="path3051"
       inkscape:connector-curvature="0"
       transform="translate(0,-10.629368)" />
    <path
       style="fill:none;stroke:#000000;stroke-width:1px;stroke-linecap:butt;stroke-linejoin:miter;stroke-opacity:1"
       d="m 822.85714,72.992065 c 1.90476,1.904762 3.80953,3.809524 5.71429,5.714286 0.95238,0.476191 2.10422,0.675648 2.85714,1.428572 0.75292,0.752923 0.95238,1.904761 1.42857,2.857142 0.47619,0.952381 0.95238,1.904762 1.42857,2.857143 0.47619,0.952381 0.95239,1.904762 1.42858,2.857143 0.47619,0.952381 1.17032,1.824141 1.42857,2.857143 0.28093,1.123738 0,7.085822 0,8.571426 0,1.48561 0.28093,7.44769 0,8.57143 -0.25825,1.033 -1.17032,1.82414 -1.42857,2.85714 -0.23099,0.92395 0.30117,1.95364 0,2.85715 -0.77048,2.31143 -2.85715,0.4454 -2.85715,4.28571"
       id="path3053"
       inkscape:connector-curvature="0"
       transform="translate(0,-10.629368)" />
    <path
       style="fill:none;stroke:#000000;stroke-width:1px;stroke-linecap:butt;stroke-linejoin:miter;stroke-opacity:1"
       d="m 864.28571,298.70635 c 0.47619,-1.90476 -0.47619,-6.19048 1.42858,-5.71428 1.90476,0.47619 -2.8169,7.1026 -1.42858,5.71428 1.81328,-1.81328 1.71033,-4.84922 2.85715,-7.14286 0.60234,-1.20467 2.2548,-1.65246 2.85714,-2.85714 0.21296,-0.42592 -0.33672,-1.09185 0,-1.42857 0.33672,-0.33672 1.09185,0.33672 1.42857,0 0.33672,-0.33672 -0.33672,-1.09185 0,-1.42857 0.33672,-0.33672 1.00266,0.21296 1.42857,0 0.60234,-0.30117 0.82624,-1.1274 1.42857,-1.42857 0.42592,-0.21296 1.09186,0.33671 1.42858,0 0.33671,-0.33672 -0.33672,-1.09186 0,-1.42857 0.33671,-0.33672 1.00265,0.21295 1.42857,0 0.60234,-0.30117 0.82623,-1.12741 1.42857,-1.42858 0.85183,-0.42591 2.18371,0.67344 2.85714,0 0.33672,-0.33671 -0.33672,-1.09185 0,-1.42857 0.33672,-0.33671 0.95238,0 1.42857,0 0.47619,0 1.09186,-0.33671 1.42857,0 0.67344,0.67344 -0.67343,2.18371 0,2.85715 0.33672,0.33671 1.09186,-0.33672 1.42858,0 0.20146,0.20146 0.14652,3.99267 0,4.28571 -0.30117,0.60234 -1.12741,0.82623 -1.42858,1.42857 -0.18781,0.37563 0,4.96726 0,5.71429 0,0.47619 -0.33671,1.09185 0,1.42857 3.80953,0 -0.47619,-0.47619 1.42858,1.42857 0.67343,0.67343 2.1837,-0.67344 2.85714,0 0.33672,0.33672 -0.33672,1.09185 0,1.42857 0.14286,0.14286 4.14286,0.14286 4.28571,0 0.33672,-0.33672 -0.33671,-1.09185 0,-1.42857 0.71429,-0.71429 3.57143,0.71429 4.28572,0 0.33671,-0.33672 -0.33672,-1.09185 0,-1.42857 0.33671,-0.33672 1.09185,0.33672 1.42857,0 0.33672,-0.33672 -0.21296,-1.00266 0,-1.42857 0.30117,-0.60234 0.95238,-0.95238 1.42857,-1.42857 0.47619,-0.4762 1.1274,-0.82624 1.42857,-1.42858 0.21296,-0.42591 -0.47619,-1.42857 0,-1.42857 0.47619,0 0.33672,1.09186 0,1.42857 -0.33672,0.33672 -1.09185,-0.33671 -1.42857,0 -0.33672,0.33672 0.21296,1.00266 0,1.42858 -0.30117,0.60233 -1.1274,0.82623 -1.42857,1.42857 -0.21296,0.42591 0.33672,1.09185 0,1.42857 -0.33672,0.33672 -1.09186,-0.33672 -1.42857,0 -0.33672,0.33672 0,0.95238 0,1.42857 0,0.47619 0,0.95238 0,1.42857 0,0.52462 -0.0575,5.6568 0,5.71429 0.33671,0.33671 1.09185,-0.33672 1.42857,0 2.95576,2.95576 -4.5168,-0.11555 1.42857,2.85714 0.85184,0.42592 2.18371,-0.67344 2.85714,0 0.33672,0.33672 -0.33671,1.09185 0,1.42857 0.67344,0.67344 2.18371,-0.67343 2.85715,0 0.33671,0.33672 0,0.95238 0,1.42857 0.47619,0 1.00265,-0.21296 1.42857,0 0.60234,0.30117 0.95238,0.95238 1.42857,1.42857 0.47619,0.47619 1.1274,0.82624 1.42857,1.42858 0.42592,0.85183 -0.67344,2.1837 0,2.85714 0.33672,0.33672 1.09185,-0.33672 1.42857,0 0.33672,0.33672 0,0.95238 0,1.42857 0,0.47619 0.21296,1.00265 0,1.42857 -0.30117,0.60234 -1.1274,0.82623 -1.42857,1.42857 -1.90476,3.80953 1.42857,-0.47619 1.42857,1.42857 0,0.47619 -1.09185,-0.33671 -1.42857,0 -0.39089,0.39089 0.38749,4.93931 0,5.71429 -0.30117,0.60234 -1.1274,0.82623 -1.42857,1.42857 -0.21296,0.42592 0.33672,1.09186 0,1.42857 -0.33672,0.33672 -1.09186,-0.33671 -1.42857,0 -0.33672,0.33672 0.33671,1.09186 0,1.42857 -0.33672,0.33672 -1.42857,0.47619 -1.42857,0 0,-0.47619 0.95238,0 1.42857,0"
       id="path3055"
       inkscape:connector-curvature="0"
       transform="translate(0,-10.629368)" />
    <path
       style="fill:none;stroke:#000000;stroke-width:1px;stroke-linecap:butt;stroke-linejoin:miter;stroke-opacity:1"
       d="m 925.71429,252.99207 c -8.19883,0.48508 -1.71033,4.84922 -2.85715,7.14285 -0.30117,0.60234 -1.1274,0.82624 -1.42857,1.42857 -0.42592,0.85184 0.42592,2.00531 0,2.85715 -0.30117,0.60234 -1.1274,0.82623 -1.42857,1.42857 -0.21296,0.42592 0.15058,0.97682 0,1.42857 -0.33672,1.01015 -1.09185,1.84699 -1.42857,2.85714 -0.1853,0.55589 0.22169,4.06402 0,4.28572 -0.33672,0.33671 -1.09186,-0.33672 -1.42857,0 -0.29205,0.29205 0.28321,3.71929 0,4.28571 -0.30117,0.60234 -1.1274,0.82623 -1.42857,1.42857 -0.21296,0.42592 0.33671,1.09186 0,1.42857 -0.33672,0.33672 -1.42858,0.47619 -1.42858,0 0,-0.47619 0.95239,0 1.42858,0"
       id="path3059"
       inkscape:connector-curvature="0"
       transform="translate(0,-10.629368)" />
    <path
       style="fill:none;stroke:#000000;stroke-width:1px;stroke-linecap:butt;stroke-linejoin:miter;stroke-opacity:1"
       d="m 918.57143,251.56349 c 0.39608,2.98084 6.64409,5.68043 8.57143,8.57143 0.59064,0.88596 0.83793,1.97118 1.42857,2.85715 0.37355,0.56033 1.1274,0.82623 1.42857,1.42857 0.21296,0.42591 -0.21296,1.00265 0,1.42857 0.60234,1.20468 2.2548,1.65246 2.85714,2.85714 0.21296,0.42592 -0.21296,1.00265 0,1.42857 2.97269,5.94537 -0.0986,-1.52719 2.85715,1.42857 0.33671,0.33672 -0.33672,1.09186 0,1.42858 0.33671,0.33671 1.09185,-0.33672 1.42857,0 0.33671,0.33671 -0.33672,1.09185 0,1.42857 1.90476,1.90476 1.42857,-2.38096 1.42857,1.42857"
       id="path3061"
       inkscape:connector-curvature="0"
       transform="translate(0,-10.629368)" />
    <path
       style="fill:none;stroke:#000000;stroke-width:1px;stroke-linecap:butt;stroke-linejoin:miter;stroke-opacity:1"
       d="m 911.42857,281.56349 c 0.53267,-2.73227 10.90416,-0.77757 12.85714,-1.42857 0.63888,-0.21296 0.82624,-1.1274 1.42858,-1.42857 0.43476,-0.21738 3.64234,0 4.28571,0 2.85714,0 5.71429,0 8.57143,0"
       id="path3063"
       inkscape:connector-curvature="0"
       transform="translate(0,-10.629368)" />
    <path
       style="fill:none;stroke:#000000;stroke-width:1px;stroke-linecap:butt;stroke-linejoin:miter;stroke-opacity:1"
       d="m 948.57143,260.13492 c 1.90476,0.47619 6.19047,-0.47619 5.71428,1.42857 -0.47619,1.90477 -7.47039,-2.30662 -5.71428,-1.42857 2.69374,1.34687 5.67561,2.02977 8.57143,2.85715 0.45787,0.13082 1.00265,-0.21296 1.42857,0 0.60234,0.30116 0.78969,1.21561 1.42857,1.42857 0.90351,0.30117 1.95363,-0.30117 2.85714,0 8.10453,2.7015 -5.24738,0.15563 2.85715,2.85714 0.9035,0.30117 1.95363,-0.30117 2.85714,0 1.27775,0.42592 1.65246,2.2548 2.85714,2.85714 0.42592,0.21296 0.95238,0 1.42857,0 0.47619,0.47619 0.82624,1.1274 1.42857,1.42857 0.85184,0.42592 2.00531,-0.42591 2.85715,0 1.20467,0.60234 1.65246,2.25481 2.85714,2.85715 0.85184,0.42591 2.18371,-0.67344 2.85714,0 1.96079,1.96078 -2.52101,1.42857 -2.85714,1.42857"
       id="path3065"
       inkscape:connector-curvature="0"
       transform="translate(0,-10.629368)" />
    <path
       style="fill:none;stroke:#000000;stroke-width:1px;stroke-linecap:butt;stroke-linejoin:miter;stroke-opacity:1"
       d="m 974.28571,252.99207 c -1.81545,4.12821 -5.75503,5.83654 -7.14285,10 -0.15059,0.45175 0.15058,0.97681 0,1.42857 -0.33672,1.01015 -1.09186,1.84699 -1.42857,2.85714 -0.15059,0.45175 0.15058,0.97682 0,1.42857 -0.33672,1.01015 -1.09186,1.84699 -1.42858,2.85714 -0.30117,0.90351 0.42592,2.00531 0,2.85715 -0.30117,0.60234 -1.1274,0.82623 -1.42857,1.42857 -0.25831,0.51662 0,6.14923 0,7.14286"
       id="path3067"
       inkscape:connector-curvature="0"
       transform="translate(0,-10.629368)" />
    <path
       style="fill:none;stroke:#000000;stroke-width:1px;stroke-linecap:butt;stroke-linejoin:miter;stroke-opacity:1"
       d="m 862.85714,907.27778 c 4.37763,1.35257 5.79707,2.93992 8.57143,5.71429 0.47619,0.47619 0.82623,1.1274 1.42857,1.42857 0.42592,0.21296 0.95238,0 1.42857,0 0.95239,0.47619 1.97118,0.83793 2.85715,1.42857 1.12066,0.74711 1.65246,2.2548 2.85714,2.85714 0.42592,0.21296 0.97682,-0.15058 1.42857,0 1.01015,0.33672 1.84699,1.09186 2.85714,1.42857 0.45176,0.15059 1.00266,-0.21296 1.42858,0 0.60233,0.30117 0.82623,1.1274 1.42857,1.42857 0.42591,0.21296 1.09185,-0.33671 1.42857,0 0.33672,0.33672 -0.33672,1.09186 0,1.42858 0.33672,0.33671 1.09185,-0.33672 1.42857,0 0.33672,0.33671 -0.33672,1.09185 0,1.42857 0.33672,0.33671 1.09185,-0.33672 1.42857,0 0.33672,0.33671 0.33672,1.09185 0,1.42857 -0.33672,0.33672 -0.95238,0 -1.42857,0"
       id="path3069"
       inkscape:connector-curvature="0"
       transform="translate(0,-10.629368)" />
    <path
       style="fill:none;stroke:#000000;stroke-width:1px;stroke-linecap:butt;stroke-linejoin:miter;stroke-opacity:1"
       d="m 885.71429,901.56349 c 2.19436,4.89072 -3.04397,4.65936 -4.28572,7.14286 -0.21296,0.42592 0.15059,0.97682 0,1.42857 -0.33672,1.01016 -0.95238,1.90476 -1.42857,2.85715 -0.95238,1.90476 -1.90476,3.80952 -2.85714,5.71428 -0.47619,0.95238 -1.17032,1.82414 -1.42857,2.85714 -0.23099,0.92395 0.30117,1.95364 0,2.85715 -0.21296,0.63887 -1.21562,0.78969 -1.42858,1.42857 -0.30117,0.90351 0,1.90476 0,2.85714 0,0.47619 0.21296,1.00265 0,1.42857 -1.76528,3.53058 -1.42857,-0.49311 -1.42857,2.85715"
       id="path3071"
       inkscape:connector-curvature="0"
       transform="translate(0,-10.629368)" />
    <path
       style="fill:none;stroke:#000000;stroke-width:1px;stroke-linecap:butt;stroke-linejoin:miter;stroke-opacity:1"
       d="m 907.14286,921.56349 c -1.42857,1.90477 -2.38096,7.14286 -4.28572,5.71429 -1.90476,-1.42857 4.28572,-8.09524 4.28572,-5.71429 0,2.77665 -3.04396,4.65936 -4.28572,7.14286 -0.42591,0.85184 0.42592,2.00531 0,2.85714 -1.76529,3.53058 -1.42857,-0.49311 -1.42857,2.85715 0,3.80952 -0.47619,-0.47619 1.42857,1.42857 0.67344,0.67343 -0.67343,2.18371 0,2.85714 0.33672,0.33672 1.09186,-0.33672 1.42857,0 0.33672,0.33672 -0.33671,1.09186 0,1.42857 0.0575,0.0575 5.18967,0 5.71429,0 0.34647,0 4.23977,0.046 4.28571,0 0.33672,-0.33671 -0.33671,-1.09185 0,-1.42857 0.33672,-0.33672 1.09186,0.33672 1.42858,0 0.33671,-0.33672 -0.21296,-1.00265 0,-1.42857 0.30117,-0.60234 1.1274,-0.82623 1.42857,-1.42857 0.0609,-0.12178 0.0609,-5.59251 0,-5.71429 -0.30117,-0.60234 -1.1274,-0.82623 -1.42857,-1.42857 -0.21296,-0.42592 0.33671,-1.09185 0,-1.42857 -0.33672,-0.33672 -1.09186,0.33672 -1.42858,0 -0.33671,-0.33672 0.37185,-1.1311 0,-1.42857 -2.16819,-1.73456 -4.7619,-2.85714 -7.14285,-4.28572 z"
       id="path3073"
       inkscape:connector-curvature="0"
       transform="translate(0,-10.629368)" />
    <path
       style="fill:none;stroke:#000000;stroke-width:1px;stroke-linecap:butt;stroke-linejoin:miter;stroke-opacity:1"
       d="m 977.14286,880.13492 c 1.90476,1.42857 7.14285,2.38095 5.71428,4.28572 -1.42857,1.90476 -7.39787,-5.96931 -5.71428,-4.28572 2.38095,1.90476 4.7619,3.80953 7.14285,5.71429 0.47619,0 1.00266,-0.21296 1.42858,0 1.20467,0.60234 1.65246,2.2548 2.85714,2.85714 0.42592,0.21296 1.00265,-0.21296 1.42857,0 0.60234,0.30117 0.82623,1.1274 1.42857,1.42857 0.42592,0.21296 1.09186,-0.33671 1.42857,0 0.33672,0.33672 -0.33671,1.09186 0,1.42857 0.67344,0.67344 2.00531,-0.42591 2.85715,0 0.60233,0.30117 0.82623,1.12741 1.42857,1.42858 4.20404,2.102 -1.88083,-3.30941 2.85714,1.42857"
       id="path3075"
       inkscape:connector-curvature="0"
       transform="translate(0,-10.629368)" />
    <path
       style="fill:none;stroke:#000000;stroke-width:1px;stroke-linecap:butt;stroke-linejoin:miter;stroke-opacity:1"
       d="m 995.71429,877.27778 c 1.4923,4.89201 -4.35069,4.41565 -5.71429,7.14286 -0.21296,0.42591 0.21296,1.00265 0,1.42857 -0.30117,0.60234 -1.1274,0.82623 -1.42857,1.42857 -0.21296,0.42592 0.21296,1.00265 0,1.42857 -0.30117,0.60234 -1.1274,0.82623 -1.42857,1.42857 -0.74563,1.49126 0.74563,1.36588 0,2.85715 -0.30117,0.60233 -1.1274,0.82623 -1.42857,1.42857 -0.42592,0.85183 0.42591,2.0053 0,2.85714 -0.30117,0.60234 -1.12741,0.82623 -1.42858,1.42857 -0.42591,0.85184 0.42592,2.00531 0,2.85714 -1.76528,3.53058 -1.42857,-0.49311 -1.42857,2.85715"
       id="path3079"
       inkscape:connector-curvature="0"
       transform="translate(0,-10.629368)" />
    <path
       style="fill:none;stroke:#000000;stroke-width:1px;stroke-linecap:butt;stroke-linejoin:miter;stroke-opacity:1"
       d="m 1012.8571,898.70635 c 1.4286,-1.90476 2.8572,-3.80952 4.2858,-5.71428 0.4761,0 1.0918,0.33671 1.4285,0 0.3367,-0.33672 -0.3367,-1.09186 0,-1.42858 0.3367,-0.33671 1.0919,0.33672 1.4286,0 0.3367,-0.33671 -0.3367,-1.09185 0,-1.42857 0.3367,-0.33671 1.0919,0.33672 1.4286,0 0.3367,-0.33671 -0.213,-1.00265 0,-1.42857 0.1859,-0.37193 1.8719,-2.41383 2.8571,-1.42857 0.3367,0.33672 0.3367,1.09185 0,1.42857 -0.3367,0.33672 -1.0918,-0.33672 -1.4286,0 -0.046,0.0459 0,3.93925 0,4.28572 0,2.38095 0,4.7619 0,7.14285 0,0.47619 -0.3367,1.09186 0,1.42857 0.3368,0.33672 1.0919,-0.33671 1.4286,0 0.7143,0.71429 -0.7143,3.57143 0,4.28572 0.3367,0.33672 1.4286,-0.47619 1.4286,0 0,0.47619 -1.0919,-0.33672 -1.4286,0 -0.3367,0.33672 0,0.95238 0,1.42857 0,0.47619 0,0.95238 0,1.42857"
       id="path3081"
       inkscape:connector-curvature="0"
       transform="translate(0,-10.629368)" />
    <path
       style="fill:none;stroke:#000000;stroke-width:1px;stroke-linecap:butt;stroke-linejoin:miter;stroke-opacity:1"
       d="m 730,85.849208 c 0,2.380953 0,4.761905 0,7.142857 0,0.476191 0.21296,1.002654 0,1.428572 -0.30117,0.602338 -1.1274,0.826233 -1.42857,1.428571 -0.45062,0.901242 0.45062,6.241612 0,7.142862 -0.30117,0.60233 -1.1274,0.82623 -1.42857,1.42857 -0.21296,0.42591 0,0.95238 0,1.42857 0,0.47619 0,0.95238 0,1.42857 0,0.47619 0,0.95238 0,1.42857 0,0.47619 0.47619,1.42857 0,1.42857 -0.47619,0 0,-0.95238 0,-1.42857 0,-0.47619 -0.33672,-1.09185 0,-1.42857 0.33671,-0.33672 1.09185,0.33672 1.42857,0 0.33672,-0.33672 -0.21296,-1.00265 0,-1.42857 0.30117,-0.60234 1.1274,-0.82623 1.42857,-1.42857 0.21296,-0.42592 -0.21296,-1.00266 0,-1.42857 0.30117,-0.60234 1.1274,-0.82624 1.42857,-1.42858 0.21296,-0.42591 -0.33672,-1.09185 0,-1.42857 0.33672,-0.336715 1.00266,0.21296 1.42857,0 0.60234,-0.301167 0.95238,-0.952378 1.42857,-1.428569 0.47619,-0.47619 1.12741,-0.826233 1.42858,-1.428571 0.21295,-0.425918 -0.21296,-1.002654 0,-1.428572 0.30117,-0.602338 0.95238,-0.952381 1.42857,-1.428571 0.47619,-0.476191 0.82623,-1.127402 1.42857,-1.428572 0.42592,-0.212958 1.09185,0.336718 1.42857,0 0.33672,-0.336717 -0.47619,-1.428571 0,-1.428571 0.67344,0 0.82623,1.127402 1.42857,1.428571 0.42592,0.212959 1.09186,-0.336717 1.42857,0 0.67344,0.673435 -0.67343,2.183708 0,2.857143 0.33672,0.336718 1.09186,-0.336717 1.42857,0 0.046,0.04594 0,3.939248 0,4.285712 0,1.42857 0,2.85715 0,4.28572 0,0.47619 0.47619,1.42857 0,1.42857 -0.47619,0 0,-0.95238 0,-1.42857 0,-3.35026 -0.33671,0.67343 1.42858,-2.85715 0.21295,-0.42591 -0.33672,-1.09185 0,-1.42857 0.33671,-0.336715 1.00265,0.21296 1.42857,0 3.15865,-1.579322 0.44331,-0.88663 1.42857,-2.85714 0.85714,-1.714286 3.42857,-2.571429 4.28571,-4.285715 0.21296,-0.425917 -0.33671,-1.091853 0,-1.428571 0.33672,-0.336718 1.09186,0.336718 1.42857,0 0.33672,-0.336718 -0.33671,-1.091854 0,-1.428571 0.33672,-0.336718 0.95239,0 1.42858,0 0.47619,0 1.09185,-0.336718 1.42857,0 0.33671,0.336717 -0.33672,1.091853 0,1.428571 0.33671,0.336718 1.09185,-0.336718 1.42857,0 0.39089,0.390889 -0.38749,4.939303 0,5.714286 0.30117,0.602338 1.1274,0.826233 1.42857,1.428571 0.18468,0.369358 0,7.558859 0,8.571429 0,0.47619 0.33672,1.09185 0,1.42857 -1.90476,1.90476 -1.42857,-2.38095 -1.42857,1.42857"
       id="path3095"
       inkscape:connector-curvature="0"
       transform="translate(0,-10.629368)" />
  </g>
</svg>
