<?xml version="1.0" encoding="UTF-8" standalone="no"?>
<!-- Created with Inkscape (http://www.inkscape.org/) -->

<svg
   xmlns:dc="http://purl.org/dc/elements/1.1/"
   xmlns:cc="http://creativecommons.org/ns#"
   xmlns:rdf="http://www.w3.org/1999/02/22-rdf-syntax-ns#"
   xmlns:svg="http://www.w3.org/2000/svg"
   xmlns="http://www.w3.org/2000/svg"
   xmlns:sodipodi="http://sodipodi.sourceforge.net/DTD/sodipodi-0.dtd"
   xmlns:inkscape="http://www.inkscape.org/namespaces/inkscape"
   width="1417.3228"
   height="1062.9921"
   id="svg2"
   version="1.1"
   inkscape:version="0.48.3.1 r9886"
   sodipodi:docname="vector_graph3.svg">
  <defs
     id="defs4" />
  <sodipodi:namedview
     id="base"
     pagecolor="#ffffff"
     bordercolor="#666666"
     borderopacity="1.0"
     inkscape:pageopacity="0.0"
     inkscape:pageshadow="2"
     inkscape:zoom="0.7"
     inkscape:cx="683.01948"
     inkscape:cy="521.55576"
     inkscape:document-units="px"
     inkscape:current-layer="layer1"
     showgrid="false"
     units="cm"
     inkscape:window-width="1535"
     inkscape:window-height="1176"
     inkscape:window-x="65"
     inkscape:window-y="24"
     inkscape:window-maximized="1" />
  <metadata
     id="metadata7">
    <rdf:RDF>
      <cc:Work
         rdf:about="">
        <dc:format>image/svg+xml</dc:format>
        <dc:type
           rdf:resource="http://purl.org/dc/dcmitype/StillImage" />
        <dc:title />
      </cc:Work>
    </rdf:RDF>
  </metadata>
  <g
     inkscape:label="Layer 1"
     inkscape:groupmode="layer"
     id="layer1"
     transform="translate(0,10.629368)">
    <path
       style="fill:none;stroke:#000000;stroke-width:1.06320488px;stroke-linecap:butt;stroke-linejoin:miter;stroke-opacity:1"
       d="m 482.18578,514.63937 c 595.02212,0 595.02212,0 595.02212,0"
       id="path3064"
       inkscape:connector-curvature="0" />
    <path
       style="fill:none;stroke:#000000;stroke-width:2.03003931px;stroke-linecap:butt;stroke-linejoin:miter;stroke-opacity:1"
       d="m 686.42548,62.23064 c 0,925.11786 0,925.11786 0,925.11786"
       id="path3066"
       inkscape:connector-curvature="0" />
    <path
       style="fill:none;stroke:#000000;stroke-width:0.63344431;stroke-linecap:butt;stroke-linejoin:miter;stroke-miterlimit:4;stroke-opacity:1;stroke-dasharray:7.60133157, 7.60133157;stroke-dashoffset:0"
       d="M 534.33482,261.27582 C 626.05346,372.1353 626.05346,372.1353 626.05346,372.1353"
       id="path3068"
       inkscape:connector-curvature="0" />
    <path
       style="fill:none;stroke:#000000;stroke-width:0.63344431;stroke-linecap:butt;stroke-linejoin:miter;stroke-miterlimit:4;stroke-opacity:1;stroke-dasharray:7.60133157, 7.60133157;stroke-dashoffset:0"
       d="m 513.25678,281.76188 c 91.71863,110.85945 91.71863,110.85945 91.71863,110.85945"
       id="path3068-2"
       inkscape:connector-curvature="0" />
    <path
       style="fill:none;stroke:#000000;stroke-width:1.18009639px;stroke-linecap:butt;stroke-linejoin:miter;stroke-opacity:1"
       d="M 635.13611,504.95763 C 411.95447,708.46459 411.95447,708.46459 411.95447,708.46459"
       id="path3903"
       inkscape:connector-curvature="0" />
    <rect
       style="opacity:0.22222224;fill:#d20000;fill-opacity:1;stroke-width:1;stroke-miterlimit:4;stroke-dasharray:12, 12;stroke-dashoffset:0"
       id="rect3943"
       width="157.41277"
       height="162.3613"
       x="582.16125"
       y="328.89987" />
    <rect
       style="opacity:0.222;fill:#0000d2;fill-opacity:1;stroke-width:1;stroke-miterlimit:4;stroke-dasharray:12, 12;stroke-dashoffset:0"
       id="rect3943-7"
       width="192.73788"
       height="200.19171"
       x="602.08008"
       y="495.98758"
       transform="matrix(0.99990666,0.01366276,0.00691594,0.99997608,0,0)" />
    <path
       style="fill:none;stroke:#000000;stroke-width:1.11534703px;stroke-linecap:butt;stroke-linejoin:miter;stroke-opacity:1"
       d="m 579.22082,534.28783 c 2.12447,0.53112 6.90453,-0.53112 6.37341,1.59336 -0.53111,2.12447 -8.56326,-1.59336 -6.37341,-1.59336 2.70818,0 5.29543,1.14814 7.96676,1.59336 1.04778,0.17463 2.12447,0 3.18671,0 2.65559,0 5.31118,0 7.96677,0 0.71758,0 4.29514,0.24246 4.78005,0 0.67182,-0.33591 0.92154,-1.25745 1.59336,-1.59336 1.10058,-0.55029 7.40747,0.5593 7.96676,0 0.37556,-0.37555 -0.47504,-1.35583 0,-1.59335 0.97791,-0.48896 6.97905,0.49386 7.96677,0 0.67181,-0.33591 0.92153,-1.25744 1.59335,-1.59335 1.27468,-0.63735 3.50538,0.63734 4.78006,0 0.67181,-0.33591 0.92154,-1.25744 1.59335,-1.59335 1.00146,-0.50074 5.37195,0.50072 6.37341,0 0.67182,-0.33591 0.92154,-1.25745 1.59335,-1.59336 1.27469,-0.63734 3.50538,0.63735 4.78007,0 0.67181,-0.3359 0.92153,-1.25744 1.59335,-1.59335 0.95009,-0.47505 2.23661,0.47504 3.1867,0 0.67182,-0.33591 0.92154,-1.25745 1.59335,-1.59335 0.47505,-0.23752 1.2178,0.37555 1.59336,0 0.37555,-0.37556 -0.37556,-1.2178 0,-1.59336 0.32574,-0.32574 4.1483,0.31588 4.78006,0 0.67182,-0.33591 0.92153,-1.25744 1.59335,-1.59335 0.9501,-0.47505 2.43559,0.75112 3.1867,0 0.37556,-0.37556 -0.37555,-1.21779 0,-1.59335 0.37556,-0.37556 1.11832,0.23752 1.59336,0 0.67181,-0.33591 0.92154,-1.25745 1.59336,-1.59335 1.27467,-0.63735 3.50536,0.63734 4.78005,0 0.67182,-0.33591 0.92153,-1.25745 1.59335,-1.59336 0.9501,-0.47504 2.23662,0.47505 3.18671,0 0.67181,-0.3359 0.92154,-1.25744 1.59336,-1.59335 0.95008,-0.47505 2.2366,0.47504 3.1867,0 0.67182,-0.33591 0.92153,-1.25745 1.59335,-1.59335 0.47505,-0.23752 1.2178,0.37555 1.59335,0 0.37556,-0.37556 -0.37555,-1.2178 0,-1.59336 0.37556,-0.37555 1.11832,0.23752 1.59335,0 0.67182,-0.33591 0.92155,-1.25744 1.59337,-1.59335 0.47503,-0.23753 1.21779,0.37556 1.59335,0 0.37555,-0.37556 -0.37556,-1.21779 0,-1.59335 0.37555,-0.37556 1.21779,0.37556 1.59335,0 0.37556,-0.37556 -0.37556,-1.2178 0,-1.59335 0.37556,-0.37556 1.21779,0.37555 1.59335,0 0.37556,-0.37556 -0.37556,-1.2178 0,-1.59336 0.37556,-0.37556 1.21779,0.37556 1.59335,0 0.37556,-0.37556 -0.37556,-1.2178 0,-1.59335 0.37556,-0.37556 1.2178,0.37555 1.59335,0 0.37556,-0.37556 -0.37555,-1.2178 0,-1.59335 0.37556,-0.37556 1.11832,0.23751 1.59335,0 0.67182,-0.33591 0.92155,-1.25745 1.59337,-1.59336 0.47503,-0.23753 1.21779,0.37556 1.59335,0 0.37555,-0.37555 -0.23753,-1.1183 0,-1.59335 0.33591,-0.67182 1.25744,-0.92154 1.59335,-1.59335 0.23752,-0.47505 -0.37556,-1.2178 0,-1.59336 0.37556,-0.37556 1.21779,0.37556 1.59335,0 0.37556,-0.37556 -0.23752,-1.1183 0,-1.59335 0.33591,-0.67182 1.25744,-0.92153 1.59335,-1.59335 0.23753,-0.47505 -0.23752,-1.11831 0,-1.59335 0.33591,-0.67182 1.25744,-0.92154 1.59335,-1.59336 0.23753,-0.47504 -0.37555,-1.21779 0,-1.59335 0.37556,-0.37556 1.21781,0.37556 1.59335,0 0.75112,-0.75111 -0.47503,-2.23662 0,-3.18671 5.2845,-5.28449 -0.7511,1.50223 1.59337,-3.1867 0.33591,-0.67182 1.25744,-0.92154 1.59335,-1.59335 0.47505,-0.9501 -0.47505,-2.23662 0,-3.18671 0.33591,-0.67182 1.25744,-0.92154 1.59335,-1.59336 0.50072,-1.00145 -0.50074,-5.37195 0,-6.3734 0.33591,-0.67182 1.25744,-0.92154 1.59335,-1.59336 0.5026,-1.0052 -0.5026,-6.96156 0,-7.96676 0.33591,-0.67182 1.25744,-0.92154 1.59335,-1.59335 0.23753,-0.47505 0,-1.06225 0,-1.59336 0,-0.53112 0,-1.06224 0,-1.59335 0,-3.18671 0,-6.37341 0,-9.56012 0,-4.24894 0,-8.49788 0,-12.74683 0,-0.71758 0.24246,-4.29514 0,-4.78005 -0.33591,-0.67182 -1.25744,-0.92153 -1.59335,-1.59335 -0.50072,-1.00146 0.50072,-5.37196 0,-6.37342 -0.33591,-0.67182 -1.25744,-0.92153 -1.59335,-1.59335 -0.47505,-0.9501 0.47505,-2.23662 0,-3.1867 -0.33591,-0.67182 -1.25744,-0.92155 -1.59335,-1.59335 -0.47505,-0.9501 0.33591,-2.17899 0,-3.18672 -0.37556,-1.12666 -1.21781,-2.06003 -1.59335,-3.1867 -0.16796,-0.50386 0.23751,-1.1183 0,-1.59335 -0.67182,-1.34364 -2.5149,-1.84308 -3.18672,-3.1867 -0.23752,-0.47505 0.23753,-1.11832 0,-1.59337 -0.33591,-0.6718 -1.25744,-0.92153 -1.59335,-1.59335 -0.23752,-0.47505 0.23753,-1.1183 0,-1.59335 -0.67182,-1.34364 -2.51488,-1.84307 -3.1867,-3.1867 -0.23753,-0.47505 0.23752,-1.11832 0,-1.59335 -0.67182,-1.34364 -2.5149,-1.84308 -3.1867,-3.18672 -0.23753,-0.47503 0.23751,-1.1183 0,-1.59335 -0.21153,-0.42305 -4.35702,-4.56853 -4.78007,-4.78005 -0.47505,-0.23753 -1.21779,0.37556 -1.59335,0 -0.37556,-0.37556 0.23752,-1.11832 0,-1.59335 -0.33591,-0.67182 -1.06223,-1.06224 -1.59335,-1.59335 -0.53112,-0.53113 -0.92154,-1.25746 -1.59335,-1.59337 -0.47505,-0.23752 -1.21781,0.37556 -1.59335,0 -3.29671,-3.2967 5.03779,0.12888 -1.59337,-3.1867 -0.47503,-0.23752 -1.1183,0.23752 -1.59335,0 -0.67182,-0.33591 -0.92153,-1.25744 -1.59335,-1.59335 -0.47505,-0.23753 -1.1183,0.23752 -1.59335,0 -0.67182,-0.33591 -0.92153,-1.25744 -1.59335,-1.59335 -0.9501,-0.47505 -2.4356,0.75111 -3.18671,0 -0.37555,-0.37556 0.37555,-1.21781 0,-1.59335 -0.43597,-0.43598 -5.50904,0.43218 -6.37341,0 -0.67182,-0.33591 -0.92153,-1.25746 -1.59335,-1.59336 -0.47505,-0.23752 -1.06224,0 -1.59335,0 -0.53112,0 -1.06224,0 -1.59336,0 -0.53111,0 -1.06224,0 -1.59336,0 -0.53112,0 -1.21779,-0.37556 -1.59335,0 -0.37555,0.37555 0.37556,1.2178 0,1.59336 -0.32574,0.32573 -4.1483,-0.31588 -4.78005,0 -0.67182,0.3359 -0.92154,1.25744 -1.59335,1.59335 -0.47505,0.23752 -1.11832,-0.23753 -1.59336,0 -0.67181,0.33591 -0.92154,1.25744 -1.59336,1.59335 -0.47504,0.23752 -1.1183,-0.23753 -1.59335,0 -0.67182,0.33591 -0.92153,1.25744 -1.59335,1.59335 -0.47505,0.23752 -1.21779,-0.37556 -1.59335,0 -0.37556,0.37556 0.37556,1.21779 0,1.59335 -3.2967,3.29671 0.12886,-5.0378 -3.18671,1.59335 -0.23752,0.47505 0.37555,1.21781 0,1.59337 -0.37556,0.37554 -1.11831,-0.23753 -1.59335,0 -3.52299,1.76149 -0.49445,0.9889 -1.59336,3.1867 -0.78394,1.5679 -5.58945,4.8055 -6.3734,6.3734 -0.23753,0.47505 0.23752,1.11832 0,1.59337 -0.33591,0.6718 -1.06224,1.06223 -1.59336,1.59335 -0.53111,0.53111 -0.92154,1.25744 -1.59335,1.59335 -0.47505,0.23752 -1.2178,-0.37556 -1.59336,0 -0.37555,0.37556 0.23752,1.1183 0,1.59335 -3.64607,7.29215 0.66041,-6.76126 -3.1867,4.78005 -0.33591,1.00773 0.47505,2.23662 0,3.18672 -0.33591,0.67182 -1.25744,0.92153 -1.59335,1.59335 -0.23753,0.47505 0.23752,1.1183 0,1.59335 -0.33591,0.67182 -1.35583,0.88078 -1.59336,1.59335 -0.24292,0.72878 0.35451,5.6644 0,6.37342 -0.3359,0.67182 -1.25744,0.92153 -1.59335,1.59335 -0.43842,0.87682 0.41522,8.31444 0,9.56012 -0.23752,0.71256 -1.25744,0.92153 -1.59335,1.59335 -0.20948,0.41896 0,5.54021 0,6.37341 0,0.89024 -0.31343,7.02648 0,7.96676 0.37555,1.12667 1.21779,2.06004 1.59335,3.18671 0.56437,1.69311 -0.56437,4.68029 0,6.37341 0.23753,0.71258 1.25745,0.92154 1.59335,1.59335 0.35451,0.70901 -0.24292,5.64464 0,6.37342 0.23753,0.71256 1.25745,0.92153 1.59336,1.59335 0.23752,0.47505 -0.23753,1.1183 0,1.59335 0.33591,0.67182 1.25744,0.92154 1.59335,1.59335 0.47505,0.9501 -0.47505,2.23662 0,3.18671 0.33591,0.67182 1.25744,0.92154 1.59335,1.59336 0.23752,0.47504 -0.23753,1.1183 0,1.59335 0.33591,0.67182 1.25745,0.92153 1.59335,1.59335 0.23752,0.47505 -0.23751,1.1183 0,1.59335 0.67182,1.34364 2.5149,1.84308 3.18671,3.18671 0.23753,0.47504 -0.23752,1.11831 0,1.59335 0.67182,1.34363 2.51489,1.84307 3.18671,3.18671 0.23752,0.47504 -0.23753,1.1183 0,1.59335 0.95601,1.91202 3.82404,2.86804 4.78005,4.78006 1.09891,2.1978 -1.92963,1.42521 1.59336,3.18671 0.47504,0.23751 1.11831,-0.23752 1.59335,0 1.91202,0.95601 2.86804,3.82405 4.78006,4.78005 0.47505,0.23753 1.11831,-0.23752 1.59335,0 0.67182,0.33591 0.92154,1.25745 1.59335,1.59336 0.47505,0.23752 1.2178,-0.37556 1.59336,0 0.37555,0.37556 -0.37556,1.21779 0,1.59335 0.37555,0.37556 1.11831,-0.23753 1.59336,0 0.67181,0.33591 0.92153,1.25744 1.59335,1.59335 0.47505,0.23752 1.1183,-0.23753 1.59335,0 0.67182,0.33591 0.92153,1.25745 1.59335,1.59336 0.63175,0.31587 4.45432,-0.32575 4.78006,0 0.37555,0.37555 -0.37556,1.21779 0,1.59335 0.43597,0.43598 5.50904,-0.43218 6.37341,0 0.67182,0.33591 0.92153,1.25744 1.59335,1.59335 0.41197,0.20599 8.43075,0 9.56012,0 0.53112,0 1.2178,0.37556 1.59335,0 0.37556,-0.37556 -0.53112,-1.59335 0,-1.59335 0.53112,0 0.53112,1.59335 0,1.59335 -0.53112,0 -0.53112,-1.59335 0,-1.59335 0.53112,0 -0.37555,1.21779 0,1.59335 0.37556,0.37556 1.59335,-0.53111 1.59335,0 0,0.53112 -1.59335,0.53112 -1.59335,0 0,-0.53111 1.2178,0.37556 1.59335,0 0.37556,-0.37556 -0.53111,-1.59335 0,-1.59335 0.53112,0 -0.37555,1.21779 0,1.59335 0.49339,0.49338 7.4734,-0.49338 7.96677,0 0.37556,0.37556 -0.37556,1.2178 0,1.59336 0.75112,0.7511 2.23662,-0.47505 3.1867,0 0.67182,0.3359 0.92155,1.25744 1.59337,1.59335 0.47503,0.23752 1.21779,-0.37556 1.59335,0 0.37555,0.37556 -0.37556,1.21779 0,1.59335 0.37555,0.37556 1.21779,-0.37556 1.59335,0 0.37556,0.37556 -0.37556,1.2178 0,1.59335 0.37556,0.37556 1.21779,-0.37555 1.59335,0 0.37556,0.37556 -0.37556,1.2178 0,1.59336 0.37556,0.37555 1.1183,-0.23752 1.59335,0 0.67182,0.3359 0.92153,1.25744 1.59335,1.59335 0.47505,0.23753 1.21781,-0.37556 1.59335,0 0.37556,0.37555 -0.37554,1.21779 0,1.59335 0.37556,0.37556 1.11832,-0.23752 1.59337,0 5.28448,5.28449 -1.50223,-0.75112 3.1867,1.59336 1.34364,0.67181 1.84307,2.51488 3.1867,3.1867 0.47505,0.23752 1.11832,-0.23753 1.59335,0 1.34364,0.67182 1.84308,2.51489 3.18672,3.18671 0.47503,0.23752 1.21779,-0.37556 1.59335,0 3.2967,3.2967 -5.0378,-0.12888 1.59335,3.1867 0.47505,0.23753 1.21779,-0.37555 1.59335,0 3.29671,3.2967 -5.0378,-0.12887 1.59335,3.18671 0.47505,0.23752 1.11832,-0.23753 1.59335,0 1.56791,0.78395 4.80551,5.58946 6.37342,6.37341 2.1978,1.0989 1.42521,-1.92964 3.1867,1.59336 0.23753,0.47504 -0.23752,1.1183 0,1.59335 1.7615,3.52299 0.9889,0.49445 3.18671,1.59335 0.67181,0.33591 1.06224,1.06223 1.59336,1.59335 0.53112,0.53112 1.25744,0.92154 1.59335,1.59335 0.23752,0.47505 -0.23752,1.11831 0,1.59336 0.33591,0.67181 1.06223,1.06224 1.59335,1.59335 0.53112,0.53112 0.92153,1.25745 1.59335,1.59336 0.47505,0.23752 1.21779,-0.37556 1.59335,0 0.37556,0.37556 -0.23752,1.1183 0,1.59335 0.95601,1.91203 3.82405,2.86803 4.78007,4.78005 0.23751,0.47505 -0.23753,1.11832 0,1.59336 3.62669,3.6267 0.42111,-0.32999 1.59335,3.18671 3.8471,11.54132 -0.45938,-2.5121 3.1867,4.78005 0.23753,0.47505 -0.23752,1.11831 0,1.59335 0.33591,0.67182 1.25744,0.92155 1.59335,1.59336 0.23753,0.47504 -0.16795,1.08949 0,1.59336 0.37556,1.12666 1.21781,2.06003 1.59336,3.1867 0.3359,1.00773 -0.47504,2.23661 0,3.1867 0.3359,0.67182 1.25745,0.92155 1.59335,1.59335 0.47505,0.9501 -0.47504,2.23662 0,3.18672 0.33591,0.67181 1.25745,0.92153 1.59336,1.59335 0.47504,0.95008 -0.47505,2.23661 0,3.1867 0.33591,0.67182 1.25744,0.92153 1.59335,1.59335 0.47505,0.9501 -0.47505,2.23662 0,3.18672 0.33591,0.6718 1.25744,0.92153 1.59335,1.59335 0.50909,1.01817 -0.4275,5.09092 0,6.3734 0.37556,1.12667 1.21779,2.06004 1.59335,3.18672 0.31669,0.95006 0,8.01636 0,9.5601 0,3.18672 0,6.37342 0,9.56012 0,1.06224 0,2.12447 0,3.18672 0,0.53111 0.23753,1.1183 0,1.59335 -0.33591,0.67182 -1.35582,0.88078 -1.59335,1.59335 -1.58717,4.76149 0.96994,1.87025 0,4.78005 -0.37556,1.12667 -1.2178,2.06004 -1.59335,3.18672 -0.33591,1.00771 0.47505,2.2366 0,3.1867 -0.33591,0.67182 -1.25744,0.92153 -1.59335,1.59335 -0.23753,0.47505 0.16795,1.08949 0,1.59335 -0.37556,1.12667 -1.2178,2.06004 -1.59336,3.18671 -0.3359,1.00772 0.47505,2.23661 0,3.18671 -3.64607,7.29215 0.6604,-6.76127 -3.18671,4.78005 -0.16795,0.50386 0.23753,1.11831 0,1.59335 -0.67181,1.34364 -2.35341,1.93678 -3.1867,3.18672 -3.51042,0.80239 -0.84224,3.27782 -1.59335,4.78005 -0.78396,1.5679 -5.58946,4.80551 -6.37342,6.37342 -0.23752,0.47504 0.23753,1.1183 0,1.59335 -0.33591,0.67182 -1.06223,1.06223 -1.59335,1.59335 -0.53112,0.53112 -1.06223,1.06224 -1.59335,1.59335 -0.83884,0.83884 -3.92908,4.35457 -4.78006,4.78006 -0.47504,0.23752 -1.2178,-0.37555 -1.59336,0 -0.37554,0.37556 0,1.06223 0,1.59336 -0.53111,0.53112 -0.96838,1.1767 -1.59335,1.59335 -0.8024,3.51041 -3.27782,0.84223 -4.78005,1.59335 -1.34364,0.67182 -1.84308,2.51489 -3.18671,3.1867 -0.47504,0.23753 -1.11831,-0.23752 -1.59336,0 -0.67181,0.33591 -0.92153,1.25745 -1.59335,1.59336 -0.47505,0.23752 -1.08949,-0.16795 -1.59335,0 -1.12667,0.37556 -2.06003,1.2178 -3.1867,1.59335 -0.50387,0.16796 -1.11832,-0.23753 -1.59335,0 -0.67182,0.33591 -0.92155,1.25745 -1.59337,1.59336 -0.47503,0.23751 -1.08948,-0.16796 -1.59335,0 -1.12666,0.37555 -2.06003,1.21779 -3.1867,1.59335 -1.00773,0.33591 -2.23662,-0.47505 -3.1867,0 -0.67182,0.33591 -0.88079,1.35583 -1.59335,1.59335 -0.41591,0.13863 -8.79083,0.25643 -9.56012,0 -1.12668,-0.37556 -2.06004,-1.2178 -3.18672,-1.59335 -1.48626,-0.49542 -6.4941,0.49088 -7.96675,0 -0.71258,-0.23752 -0.92155,-1.25745 -1.59335,-1.59335 -0.47505,-0.23752 -1.06225,0 -1.59337,0 -0.53111,-0.53113 -0.92153,-1.25745 -1.59335,-1.59336 -0.47504,-0.23753 -1.08948,0.16796 -1.59335,0 -1.12667,-0.37555 -2.06003,-1.21779 -3.1867,-1.59335 -1.00773,-0.33591 -2.23662,0.47504 -3.18671,0 -0.67181,-0.33591 -0.88078,-1.35583 -1.59336,-1.59336 -1.00771,-0.3359 -2.17897,0.33591 -3.1867,0 -0.71256,-0.23752 -0.92153,-1.25744 -1.59335,-1.59335 -0.47505,-0.23752 -1.1183,0.23753 -1.59335,0 -1.34364,-0.67181 -1.76157,-2.71166 -3.18671,-3.1867 -1.00772,-0.33591 -2.17898,0.33591 -3.18671,0 -1.42513,-0.47505 -1.84307,-2.51489 -3.1867,-3.18671 -0.47505,-0.23753 -1.1183,0.23752 -1.59335,0 -1.56791,-0.78395 -4.80551,-5.58945 -6.37342,-6.37341 -0.47504,-0.23752 -1.06223,0 -1.59335,0 -1.06224,-0.53112 -2.19855,-0.93458 -3.1867,-1.59335 -0.62497,-0.41665 -1.06224,-1.06223 -1.59336,-1.59335 -1.59335,-1.59336 -3.18671,-3.18671 -4.78006,-4.78007 -2.65559,-2.65558 -5.31117,-5.31117 -7.96676,-7.96676 -1.06224,-1.06224 -2.35342,-1.93678 -3.18671,-3.18671 -0.65877,-0.98815 -0.93458,-2.19855 -1.59335,-3.1867 -1.22566,-1.83848 -3.5544,-2.94157 -4.78006,-4.78006 -0.65877,-0.98816 -0.93458,-2.19855 -1.59335,-3.18671 -0.83328,-1.24992 -2.71166,-1.76157 -3.18671,-3.1867 -0.33591,-1.00773 0.33591,-2.17899 0,-3.1867 -0.23753,-0.71258 -1.1767,-0.96839 -1.59335,-1.59337 -0.65877,-0.98815 -0.93459,-2.19854 -1.59335,-3.1867 -0.41664,-0.62496 -1.35583,-0.88078 -1.59336,-1.59335 -0.3359,-1.00773 0.25764,-2.15619 0,-3.1867 0.96036,-2.88388 -2.58113,-2.96337 -3.1867,-4.78007 -0.33591,-1.00772 0.33591,-2.17897 0,-3.1867 -0.23752,-0.71257 -1.35584,-0.88079 -1.59336,-1.59335 -0.47801,-1.43403 0.47801,-3.34604 0,-4.78007 -0.37555,-1.12666 -1.21779,-2.06003 -1.59335,-3.1867 -0.3797,-1.13909 0,-9.36423 0,-11.15347 0,-1.38078 -0.30766,-5.45042 0,-6.3734 0.37556,-1.12668 1.2178,-2.06005 1.59335,-3.18672 0.16796,-0.50386 0,-1.06223 0,-1.59335 0,-1.06223 -0.3359,-2.17898 0,-3.1867 0.23752,-0.71258 1.25745,-0.92154 1.59336,-1.59335 0.23751,-0.47505 -0.16796,-1.0895 0,-1.59336 0.37555,-1.12667 1.21779,-2.06004 1.59335,-3.18671 0.16795,-0.50386 -0.16796,-1.08949 0,-1.59335 0.37555,-1.12667 1.21779,-2.06004 1.59335,-3.1867 0.33591,-1.00773 -0.3359,-2.17899 0,-3.18671 0.37556,-1.12667 1.2178,-2.06004 1.59336,-3.18671 0.16794,-0.50386 -0.23753,-1.1183 0,-1.59335 0.3359,-0.67182 1.25744,-0.92153 1.59335,-1.59335 0.23752,-0.47505 -0.23753,-1.11831 0,-1.59335 0.95601,-1.91203 3.82404,-2.86804 4.78006,-4.78007 0.23752,-0.47504 -0.37556,-1.21779 0,-1.59335 0.37555,-0.37556 1.1183,0.23752 1.59335,0 0.67182,-0.33591 1.06224,-1.06223 1.59335,-1.59335 0.53112,-0.53112 1.06224,-1.06224 1.59336,-1.59335 1.59335,-1.59335 3.1867,-3.18671 4.78005,-4.78006 1.06225,-1.06224 1.93678,-2.35342 3.18671,-3.18671 0.80241,-3.51041 3.27783,-0.84223 4.78006,-1.59335 1.91203,-0.95601 2.86803,-3.82405 4.78006,-4.78006 0.47504,-0.23752 1.06224,0 1.59335,0 1.06224,-0.53111 2.19855,-0.93458 3.18671,-1.59335 3.87595,-2.58398 -0.68925,-0.60274 3.1867,-3.18671 0.98816,-0.65877 2.19855,-0.93458 3.18671,-1.59335 1.46788,-0.97859 1.71883,-2.20812 3.18671,-3.18671 0.98815,-0.65876 2.19855,-0.93458 3.1867,-1.59335 0.62496,-0.41665 0.88079,-1.35583 1.59335,-1.59335 1.00773,-0.33591 2.17899,0.3359 3.18671,0 0.71257,-0.23752 0.96839,-1.17671 1.59336,-1.59336 0.98815,-0.65877 2.12446,-1.06223 3.1867,-1.59335 1.06223,-0.53112 2.06003,-1.21779 3.1867,-1.59335 0.50387,-0.16795 1.08949,0.16796 1.59335,0 1.12668,-0.37556 2.06004,-1.21779 3.18672,-1.59335 0.50385,-0.16796 1.08948,0.16794 1.59335,0 1.12667,-0.37556 2.03455,-1.30532 3.1867,-1.59336 1.03053,-0.25763 2.17899,0.33591 3.1867,0 0.71258,-0.23752 0.88079,-1.35582 1.59337,-1.59335 1.51158,-0.50387 3.26846,0.50386 4.78005,0 1.12667,-0.37556 2.03455,-1.30531 3.1867,-1.59335 1.54578,-0.38644 3.18672,0 4.78007,0 1.10024,0 5.88897,0.24221 6.3734,0 0.67182,-0.33591 0.88079,-1.35584 1.59335,-1.59336 0.52469,-0.17489 10.62879,-0.17489 11.15347,0 0.71258,0.23752 0.92155,1.25745 1.59337,1.59336 1.00144,0.50073 5.37194,-0.50073 6.3734,0 0.67182,0.3359 0.92154,1.25744 1.59335,1.59335 0.9501,0.47504 2.17899,-0.33591 3.18672,0 1.12667,0.37555 2.06003,1.21779 3.1867,1.59335 1.00773,0.33591 2.23662,-0.47504 3.1867,0 0.67182,0.33591 0.92154,1.25745 1.59335,1.59336 0.47505,0.23752 1.11832,-0.23753 1.59336,0 0.67181,0.3359 0.92154,1.25744 1.59336,1.59335 0.47504,0.23752 1.08948,-0.16795 1.59335,0 1.12667,0.37556 2.06003,1.21779 3.1867,1.59335 0.50386,0.16796 1.1183,-0.23753 1.59335,0 5.2845,5.28449 -1.50222,-0.75111 3.18671,1.59335 1.34363,0.67182 1.84307,2.5149 3.18671,3.18671 0.47505,0.23753 1.1183,-0.23752 1.59335,0 7.29215,3.64607 -6.76125,-0.6604 4.78006,3.18671 0.50386,0.16795 1.2178,-0.37556 1.59335,0 0.37556,0.37556 -0.23752,1.1183 0,1.59335 1.7615,3.52299 0.98891,0.49445 3.18671,1.59335 0.67182,0.33591 1.06223,1.06223 1.59335,1.59335 0.93712,0.93713 5.63556,6.00449 6.37341,6.37342 0.47505,0.23752 1.11831,-0.23753 1.59336,0 0.67181,0.33591 1.06223,1.06223 1.59335,1.59335 0.53112,0.53112 1.25744,0.92153 1.59335,1.59335 0.23753,0.47505 -0.23752,1.11831 0,1.59335 0.33591,0.67182 1.06224,1.06223 1.59335,1.59336 0.53112,0.53112 0.92154,1.25745 1.59336,1.59335 0.47504,0.23753 1.2178,-0.37556 1.59335,0 0.37556,0.37555 -0.23753,1.11831 0,1.59336 0.67181,1.34363 2.51489,1.84306 3.18671,3.1867 0.23751,0.47505 -0.23752,1.1183 0,1.59335 0.67181,1.34364 2.51488,1.84308 3.1867,3.18671 0.23753,0.47504 -0.23752,1.11831 0,1.59335 0.67182,1.34363 2.51489,1.84307 3.18671,3.18671 0.23752,0.47505 -0.23753,1.1183 0,1.59335 0.3359,0.67182 1.35582,0.88079 1.59335,1.59335 0.33591,1.00773 -0.33591,2.17899 0,3.18671 0.23752,0.71257 1.25745,0.92154 1.59335,1.59336 0.23752,0.47503 -0.16795,1.08948 0,1.59335 0.37556,1.12666 1.2178,2.06003 1.59336,3.1867 0.16795,0.50386 -0.23752,1.1183 0,1.59335 0.33591,0.67182 1.25744,0.92155 1.59335,1.59335 0.23753,0.47505 -0.16796,1.0895 0,1.59336 0.37555,1.12667 1.21779,2.06004 1.59335,3.18671 0.33591,1.00772 -0.47505,2.23661 0,3.1867 0.33591,0.67182 1.35583,0.88079 1.59335,1.59335 0.28553,0.8566 0,5.02441 0,6.37342 0,2.65558 0,5.31117 0,7.96677 0,1.59335 0.50386,3.26846 0,4.78005 -0.23752,0.71257 -1.35582,0.88078 -1.59335,1.59335 -0.33591,1.00773 0.33591,2.17899 0,3.1867 -0.23752,0.71258 -1.35582,0.88079 -1.59335,1.59337 -0.33591,1.00771 0.25762,2.15617 0,3.1867 -0.57607,2.30431 -2.43559,4.12007 -3.18671,6.3734 -0.16795,0.50387 0.16796,1.0895 0,1.59337 -0.75111,2.25333 -2.61063,4.0691 -3.1867,6.3734 -0.25763,1.03053 0.25763,2.15619 0,3.1867 -0.28804,1.15217 -1.2178,2.06004 -1.59336,3.18672 -0.16794,0.50386 0.16795,1.08948 0,1.59335 -3.84711,11.54132 0.45937,-2.5121 -3.1867,4.78005 -0.23752,0.47505 0.16795,1.0895 0,1.59336 -0.37556,1.12667 -1.2178,2.06003 -1.59335,3.18671 -0.16796,0.50386 0.23751,1.1183 0,1.59335 -0.33591,0.67182 -1.35584,0.88078 -1.59336,1.59335 -0.3359,1.00773 0.33591,2.17898 0,3.1867 -0.47273,1.41821 -4.30732,3.36185 -4.78006,4.78007 -0.33591,1.00772 0.58923,2.30287 0,3.1867 -0.65876,0.98816 -2.19855,0.93459 -3.1867,1.59335 -0.62496,0.41665 -1.06223,1.06224 -1.59335,1.59336 -0.53112,0.53111 -1.17671,0.96838 -1.59336,1.59335 -0.65877,0.98816 -0.93459,2.19855 -1.59335,3.18671 -0.41664,0.62496 -1.17671,0.96839 -1.59336,1.59335 -0.65876,0.98815 -0.75358,2.34694 -1.59335,3.1867 -3.86994,3.86995 -2.33972,-0.47381 -4.78005,3.18671 -0.65878,0.98816 -0.75359,2.34693 -1.59336,3.18671 -0.83977,0.83977 -2.19855,0.93458 -3.18671,1.59335 -0.62496,0.41664 -0.96838,1.1767 -1.59335,1.59335 -0.98815,0.65877 -2.34693,0.75359 -3.1867,1.59335 -0.83978,0.83977 -0.75358,2.34694 -1.59335,3.18671 -0.10206,0.10205 -6.07662,2.98885 -6.37342,3.18671 -0.62496,0.41664 -1.06223,1.06224 -1.59335,1.59335 -1.06223,0.53112 -2.19855,0.93459 -3.1867,1.59335 -0.62498,0.41664 -0.96839,1.17672 -1.59336,1.59336 -0.98816,0.65876 -2.19855,0.93458 -3.18671,1.59335 -0.62496,0.41665 -0.88078,1.35582 -1.59335,1.59335 -1.00773,0.33591 -2.15619,-0.25762 -3.1867,0 -1.15215,0.28804 -2.06004,1.2178 -3.18671,1.59336 -0.50386,0.16795 -1.08949,-0.16796 -1.59336,0 -1.12666,0.37555 -2.06003,1.21779 -3.1867,1.59335 -1.43401,0.47801 -3.34604,-0.478 -4.78005,0 -0.71258,0.23753 -0.92155,1.25744 -1.59337,1.59335 -0.47503,0.23753 -1.06223,0 -1.59335,0 -1.35933,0 -10.56145,0.29601 -11.15347,0 -0.67182,-0.33591 -0.92153,-1.25744 -1.59335,-1.59335 -0.47505,-0.23752 -1.06223,0 -1.59335,0 -1.06223,0 -2.17898,0.33591 -3.1867,0 -0.71258,-0.23752 -0.92155,-1.25745 -1.59335,-1.59335 -0.9501,-0.47505 -2.23662,0.47504 -3.18672,0 -1.34362,-0.67182 -1.76157,-2.71166 -3.1867,-3.18671 -1.00773,-0.33591 -2.17898,0.33591 -3.1867,0 -0.71258,-0.23753 -0.92155,-1.25745 -1.59335,-1.59335 -0.47505,-0.23753 -1.11832,0.23752 -1.59337,0 -0.85097,-0.4255 -3.94121,-3.94122 -4.78005,-4.78006 -3.71782,-3.71783 -7.43565,-7.43565 -11.15347,-11.15347 -4.24894,-4.24895 -8.49789,-8.49788 -12.74682,-12.74682 -0.93713,-0.93713 -6.0045,-5.63557 -6.37342,-6.37342 -0.23752,-0.47505 0.23752,-1.1183 0,-1.59335 -0.67182,-1.34364 -2.35342,-1.93678 -3.1867,-3.1867 -0.65877,-0.98817 -0.93459,-2.19856 -1.59335,-3.18672 -0.41665,-0.62496 -1.25745,-0.92153 -1.59336,-1.59335 -0.23752,-0.47505 0.23753,-1.1183 0,-1.59335 -0.67181,-1.34363 -2.71166,-1.76157 -3.18671,-3.1867 -0.3359,-1.00773 0.33591,-2.17899 0,-3.18671 -0.23751,-0.71257 -1.25744,-0.92154 -1.59335,-1.59336 -0.23752,-0.47504 0.23752,-1.1183 0,-1.59335 -0.33591,-0.67182 -1.25744,-0.92153 -1.59335,-1.59335 -0.23753,-0.47505 0.16796,-1.08949 0,-1.59335 -0.37556,-1.12667 -1.21779,-2.06003 -1.59335,-3.1867 -0.16795,-0.50387 0.16795,-1.0895 0,-1.59337 -0.37556,-1.12666 -1.21779,-2.06003 -1.59335,-3.1867 -0.16796,-0.50386 0.16794,-1.08949 0,-1.59335 -0.37556,-1.12667 -1.21781,-2.06003 -1.59336,-3.1867 -0.16796,-0.50387 0,-1.06224 0,-1.59335 0,-1.06225 0.33591,-2.17899 0,-3.18672 -0.23752,-0.71256 -1.25744,-0.92153 -1.59335,-1.59335 -0.50073,-1.00146 0.50073,-5.37196 0,-6.3734 -0.33591,-0.67182 -1.35584,-0.88079 -1.59336,-1.59337 -0.30212,-0.90639 0,-6.46608 0,-7.96675 0,-0.37864 -0.17856,-6.0163 0,-6.37342 0.33591,-0.67182 1.25745,-0.92153 1.59336,-1.59335 0.47005,-0.94012 -0.36532,-3.6841 0,-4.78005 0.37555,-1.12668 1.21779,-2.06005 1.59335,-3.18672 0.16795,-0.50386 -0.23752,-1.1183 0,-1.59335 0.33591,-0.67182 1.25745,-0.92153 1.59336,-1.59335 0.23752,-0.47505 -0.23753,-1.1183 0,-1.59335 0.3359,-0.67182 1.25744,-0.92154 1.59335,-1.59335 0.23752,-0.47505 -0.23753,-1.11832 0,-1.59336 0.33591,-0.67181 1.25744,-0.92154 1.59335,-1.59336 0.23752,-0.47504 -0.23753,-1.1183 0,-1.59335 0.67182,-1.34362 2.71166,-1.76157 3.1867,-3.1867 0.33591,-1.00773 -0.3359,-2.17899 0,-3.1867 0.47505,-1.42515 2.35343,-1.93678 3.18671,-3.18672 0.65877,-0.98815 0.93459,-2.19855 1.59336,-3.1867 0.41663,-0.62496 1.25744,-0.92153 1.59335,-1.59335 0.23752,-0.47505 -0.23753,-1.11831 0,-1.59335 0.67182,-1.34364 2.35341,-1.93678 3.1867,-3.18671 0.65877,-0.98816 0.93458,-2.19856 1.59335,-3.18671 0.9166,-1.3749 3.53552,-3.53551 4.78007,-4.78005 0.71758,-0.71759 4.5376,-4.0527 4.78005,-4.78007 0.33591,-1.00772 -0.33591,-2.17897 0,-3.1867 0.066,-0.19794 4.50671,-4.64338 4.78007,-4.78006 0.47504,-0.23752 1.1183,0.23753 1.59335,0 0.85098,-0.42549 3.94121,-3.94122 4.78005,-4.78006 2.6556,-2.65559 5.31118,-5.31117 7.96677,-7.96676 0.53112,-0.53113 1.25744,-0.92154 1.59335,-1.59336 0.23752,-0.47504 -0.37556,-1.21779 0,-1.59335 3.29671,-3.2967 -0.12887,5.0378 3.1867,-1.59335 0.23753,-0.47505 -0.37555,-1.21779 0,-1.59335 0.37556,-0.37556 1.11832,0.23752 1.59337,0 0.6718,-0.33591 0.92153,-1.25745 1.59335,-1.59336 0.47505,-0.23752 1.59335,-0.53111 1.59335,0 0,0.53112 -1.59335,0.53112 -1.59335,0 0,-0.75112 0.84223,-1.59335 1.59335,-1.59335 0.53112,0 0.53112,1.59335 0,1.59335 -0.53112,0 -0.53112,-1.59335 0,-1.59335 0.53112,0 0.53112,1.59335 0,1.59335 -0.53112,0 -0.53112,-1.59335 0,-1.59335 0.53112,0 -0.37556,1.21779 0,1.59335 0.37556,0.37556 1.06223,0 1.59335,0 0.53112,0 1.21779,0.37556 1.59335,0 0.37556,-0.37556 -0.53112,-1.59335 0,-1.59335 0.53112,0 -0.53112,1.59335 0,1.59335 0.75112,0 0.92153,-1.25744 1.59335,-1.59335 0.47505,-0.23752 1.06224,0 1.59335,0 0.53112,0 1.59337,-0.53111 1.59337,0 0,0.53112 -1.59337,0.53112 -1.59337,0 0,-1.06223 2.4356,0.75111 3.18672,0 0.37555,-0.37556 -0.37556,-1.2178 0,-1.59335 0.37555,-0.37556 1.21779,0.37555 1.59335,0 0.37556,-0.37556 -0.37556,-1.2178 0,-1.59336 0.37556,-0.37555 1.21779,0.37556 1.59335,0 0.37556,-0.37555 -0.37556,-1.21779 0,-1.59335 0.37556,-0.37556 1.21779,0.37556 1.59335,0 0.37556,-0.37556 -0.37556,-1.21779 0,-1.59335 0.37556,-0.37556 1.2178,0.37556 1.59335,0 0.37556,-0.37556 -0.37555,-1.2178 0,-1.59335 0.75112,-0.75112 2.4356,0.7511 3.18672,0 0.37554,-0.37556 -0.37556,-1.2178 0,-1.59336 0.37554,-0.37556 1.21779,0.37556 1.59335,0 0.37555,-0.37556 -0.37556,-1.2178 0,-1.59335 0.37555,-0.37556 1.21779,0.37555 1.59335,0 0.37556,-0.37556 -0.37556,-1.2178 0,-1.59335 0.37556,-0.37556 1.21779,0.37555 1.59335,0 0.37556,-0.37556 -0.37556,-1.2178 0,-1.59336 0.37556,-0.37555 1.21779,0.37556 1.59335,0 0.37556,-0.37555 -0.37556,-1.21779 0,-1.59335 0.37556,-0.37556 1.2178,0.37556 1.59335,0 0.75112,-0.75111 -0.75111,-2.4356 0,-3.18671 0.37556,-0.37556 1.21781,0.37556 1.59335,0 0.37556,-0.37556 -0.37554,-1.21779 0,-1.59335 0.37556,-0.37556 1.21781,0.37556 1.59337,0 0.37555,-0.37556 -0.37556,-1.2178 0,-1.59335 0.37555,-0.37556 1.21779,0.37555 1.59335,0 0.37555,-0.37556 -0.37556,-1.2178 0,-1.59335 0.37555,-0.37556 1.21779,0.37555 1.59335,0 3.2967,-3.29671 -5.0378,0.12887 1.59335,-3.18671 0.47505,-0.23753 1.21779,0.37556 1.59335,0 0.37556,-0.37556 -0.23752,-1.11831 0,-1.59335 0.95601,-1.91202 3.82405,-2.86804 4.78007,-4.78006 0.23751,-0.47505 -0.37556,-1.2178 0,-1.59335 0.37555,-0.37556 1.21779,0.37555 1.59335,0 0.37555,-0.37556 -0.37556,-1.2178 0,-1.59336 0.37555,-0.37555 1.21779,0.37556 1.59335,0 0.75111,-0.75111 -0.75112,-2.43559 0,-3.18671 0.37556,-0.37555 1.21779,0.37556 1.59335,0 0.75112,-0.7511 -0.47505,-2.23661 0,-3.1867 0.33591,-0.67182 1.25744,-0.92153 1.59335,-1.59335 0.47505,-0.9501 -0.75111,-2.43559 0,-3.18671 0.37556,-0.37555 1.21781,0.37556 1.59335,0 0.37556,-0.37555 0,-1.06224 0,-1.59335 0,-3.18671 0,-6.37341 0,-9.56012 0,-0.53112 -0.37554,-1.2178 0,-1.59335 0.37556,-0.37556 1.21781,0.37555 1.59336,0 0.0513,-0.0512 0,-4.39364 0,-4.78006 0,-3.71783 0,-7.43565 0,-11.15347 0,-0.71758 0.24246,-4.29515 0,-4.78006 -0.3359,-0.67181 -1.25745,-0.92154 -1.59336,-1.59336 -0.23752,-0.47504 0,-1.06223 0,-1.59335 0,-0.53111 0,-1.06223 0,-1.59335 0,-3.1867 0,-6.37342 0,-9.56012 0,-0.53112 0,-1.06223 0,-1.59335 0,-0.53112 0.37556,-1.21779 0,-1.59335 -0.37554,-0.37556 -1.21779,0.37556 -1.59335,0 -0.37556,-0.37556 0,-1.06223 0,-1.59335 0,-3.18672 0,-6.37342 0,-9.56012 0,-0.53112 0.37556,-1.2178 0,-1.59335 -0.37556,-0.37556 -1.21779,0.37555 -1.59335,0 -0.38341,-0.38341 0.38341,-5.99001 0,-6.37342 -0.37556,-0.37556 -1.21779,0.37556 -1.59335,0 -0.75112,-0.75111 0.47505,-2.23662 0,-3.1867 -0.33591,-0.67182 -1.25744,-0.92153 -1.59335,-1.59335 -0.23753,-0.47505 0.23752,-1.11832 0,-1.59335 -0.33591,-0.67182 -1.25744,-0.92155 -1.59335,-1.59337 -0.47505,-0.95008 0.75111,-2.43558 0,-3.1867 -0.37556,-0.37556 -1.21781,0.37556 -1.59336,0 -0.75111,-0.75111 0.75111,-2.43559 0,-3.1867 -0.37555,-0.37556 -1.2178,0.37556 -1.59336,0 -0.37554,-0.37556 0.23753,-1.11832 0,-1.59335 -0.33591,-0.67182 -1.25744,-0.92155 -1.59335,-1.59335 -0.23752,-0.47505 0.37556,-1.21781 0,-1.59337 -0.37556,-0.37555 -1.21779,0.37556 -1.59335,0 -1.0654,-1.0654 1.0654,-2.1213 0,-3.1867 -4.24894,0 0.53112,0.53112 -1.59335,-1.59335 -0.37556,-0.37556 -1.2178,0.37556 -1.59335,0 -0.37556,-0.37556 0.23752,-1.1183 0,-1.59335 -0.33591,-0.67182 -1.25744,-0.92154 -1.59335,-1.59335 -0.23753,-0.47505 0.37555,-1.21781 0,-1.59336 -0.37556,-0.37556 -1.21781,0.37555 -1.59337,0 -0.37554,-0.37556 0.37556,-1.2178 0,-1.59336 -0.37554,-0.37555 -1.21779,0.37556 -1.59335,0 -0.37555,-0.37555 0.37556,-1.21779 0,-1.59335 -0.37555,-0.37556 -1.21779,0.37556 -1.59335,0 -0.37556,-0.37556 0.37556,-1.21779 0,-1.59335 -0.37556,-0.37556 -1.1183,0.23752 -1.59335,0 -1.34364,-0.67182 -1.84308,-2.51489 -3.1867,-3.1867 -0.47505,-0.23753 -1.21781,0.37556 -1.59335,0 -0.37556,-0.37556 0.37554,-1.21781 0,-1.59335 -0.37556,-0.37556 -1.21781,0.37554 -1.59337,0 -0.37554,-0.37556 0.37556,-1.21781 0,-1.59336 -0.37554,-0.37556 -1.21779,0.37555 -1.59335,0 -0.37555,-0.37556 0.37556,-1.2178 0,-1.59336 -0.75111,-0.75111 -2.43558,0.75112 -3.1867,0 -0.37556,-0.37555 0.37556,-1.21779 0,-1.59335 -0.37556,-0.37556 -1.1183,0.23752 -1.59335,0 -0.67182,-0.33591 -0.92153,-1.25744 -1.59335,-1.59335 -0.47505,-0.23753 -1.21781,0.37556 -1.59335,0 -0.37556,-0.37556 0.37554,-1.21779 0,-1.59335 -0.37556,-0.37556 -1.11832,0.23752 -1.59337,0 -0.6718,-0.33591 -0.92153,-1.25744 -1.59335,-1.59335 -0.47504,-0.23753 -1.21779,0.37556 -1.59335,0 -0.37556,-0.37556 0.37556,-1.21781 0,-1.59336 -0.75111,-0.75111 -2.43559,0.75111 -3.1867,0 -0.37556,-0.37555 0.37556,-1.2178 0,-1.59335 -0.37556,-0.37556 -1.1183,0.23752 -1.59335,0 -0.67182,-0.33591 -0.92155,-1.25745 -1.59335,-1.59336 -0.47505,-0.23752 -1.06225,0 -1.59337,0 -0.53111,-0.53112 -0.92153,-1.25744 -1.59335,-1.59335 -0.95008,-0.47505 -2.43558,0.75112 -3.1867,0 -0.37556,-0.37556 0.37556,-1.21779 0,-1.59335 -0.75111,-0.75111 -2.4356,0.75112 -3.1867,0 -0.37556,-0.37556 0.37554,-1.21779 0,-1.59335 -0.79669,-0.79668 -3.98339,0.79668 -4.78007,0 -0.37555,-0.37556 0.37556,-1.21779 0,-1.59335 -0.38341,-0.38342 -5.98999,0.38341 -6.3734,0 -0.37556,-0.37556 0.37554,-1.21781 0,-1.59336 -0.43598,-0.43597 -5.50905,0.43219 -6.37342,0 -0.67182,-0.3359 -0.92153,-1.25745 -1.59335,-1.59335 -0.41197,-0.20598 -8.43074,0 -9.56012,0 -1.12937,0 -9.14816,-0.20598 -9.56012,0 -0.67182,0.3359 -0.92153,1.25745 -1.59335,1.59335 -0.95009,0.47504 -2.4356,-0.75111 -3.1867,0 -0.37556,0.37555 0.37556,1.2178 0,1.59336 -0.75112,0.7511 -2.4356,-0.75112 -3.18671,0 -0.37556,0.37556 0.37555,1.21779 0,1.59335 -0.75112,0.75111 -2.43559,-0.75112 -3.18671,0 -0.37555,0.37556 0.37556,1.21779 0,1.59335 -0.37555,0.37556 -1.1183,-0.23753 -1.59335,0 -0.67182,0.33591 -0.92154,1.25744 -1.59335,1.59335 -0.47505,0.23752 -1.2178,-0.37556 -1.59336,0 -0.37555,0.37556 0.37556,1.2178 0,1.59335 -0.37555,0.37556 -1.2178,-0.37555 -1.59335,0 -0.37556,0.37556 0.37555,1.2178 0,1.59336 -0.37556,0.37555 -1.2178,-0.37556 -1.59335,0 -0.37556,0.37555 0.37555,1.2178 0,1.59335 -0.37556,0.37555 -1.2178,-0.37555 -1.59336,0 -0.37555,0.37555 0.23752,1.11831 0,1.59336 -0.95601,1.91201 -3.82405,2.86803 -4.78005,4.78005 -0.23753,0.47505 0.23752,1.11831 0,1.59335 -0.67182,1.34364 -2.51489,1.84308 -3.18671,3.18672 -0.23752,0.47503 0.37555,1.21779 0,1.59335 -0.37556,0.37556 -1.2178,-0.37556 -1.59335,0 -0.37556,0.37556 0.23751,1.1183 0,1.59335 -0.33591,0.67182 -1.25745,0.92153 -1.59336,1.59335 -0.23751,0.47505 0.37556,1.21779 0,1.59335 -0.37555,0.37556 -1.21779,-0.37556 -1.59335,0 -0.75111,0.75112 0.75112,2.4356 0,3.18671 -0.37555,0.37555 -1.21779,-0.37556 -1.59335,0 -0.37556,0.37555 0.23752,1.11831 0,1.59336 -0.33591,0.67181 -1.25745,0.92153 -1.59335,1.59335 -0.23753,0.47505 0.23752,1.1183 0,1.59335 -0.33591,0.67182 -1.25745,0.92153 -1.59336,1.59335 -0.47504,0.9501 0.75111,2.43559 0,3.1867 -0.37556,0.37556 -1.2178,-0.37555 -1.59335,0 -0.79668,0.79668 0.79667,3.98339 0,4.78007 -0.37556,0.37556 -1.2178,-0.37556 -1.59335,0 -0.75112,0.75111 0.47504,2.23661 0,3.1867 -0.33591,0.67182 -1.25745,0.92153 -1.59336,1.59335 -0.47504,0.9501 0.47505,2.23662 0,3.18672 -0.3359,0.6718 -1.25744,0.92153 -1.59335,1.59335 -0.47504,0.95008 0.47505,2.2366 0,3.1867 -0.33591,0.67182 -1.25744,0.92153 -1.59335,1.59335 -0.63735,1.27469 0.63734,3.50538 0,4.78007 -0.33591,0.6718 -1.25745,0.92153 -1.59336,1.59335 -0.50072,1.00146 0.50073,5.37194 0,6.3734 -0.3359,0.67182 -1.25744,0.92155 -1.59335,1.59335 -0.20948,0.41896 0,5.54022 0,6.37342 0,4.24894 0,8.49789 0,12.74682 0,1.12938 -0.20598,9.14816 0,9.56012 0.33591,0.67182 1.25745,0.92153 1.59335,1.59335 0.47505,0.9501 -0.47504,2.23662 0,3.18671 0.33591,0.67181 1.25745,0.92154 1.59336,1.59336 0.47504,0.95008 -0.47505,2.2366 0,3.1867 0.33591,0.67182 1.25744,0.92153 1.59335,1.59335 0.23752,0.47505 -0.23753,1.11831 0,1.59335 0.33591,0.67182 1.25745,0.92154 1.59335,1.59336 0.47505,0.95009 -0.47504,2.23661 0,3.18671 0.33591,0.67181 1.25745,0.92153 1.59336,1.59335 0.23751,0.47504 -0.23752,1.1183 0,1.59335 5.28448,5.28448 -0.75112,-1.50223 1.59335,3.1867 0.33591,0.67182 1.25744,0.92154 1.59335,1.59336 0.23753,0.47504 -0.23752,1.11831 0,1.59335 0.67182,1.34363 2.51489,1.84307 3.18671,3.18671 0.23752,0.47504 -0.37556,1.21779 0,1.59335 0.37556,0.37556 1.2178,-0.37556 1.59335,0 0.37556,0.37556 -0.37555,1.21779 0,1.59335 0.37556,0.37556 1.2178,-0.37556 1.59335,0 0.37556,0.37556 -0.23751,1.11831 0,1.59335 0.50746,1.01493 6.71477,6.71476 7.96677,7.96677 1.25201,1.252 6.95184,7.45931 7.96676,7.96677 0.47505,0.23751 1.2178,-0.37556 1.59336,0 0.37556,0.37555 -0.37556,1.21779 0,1.59335 0.37556,0.37555 1.21779,-0.37556 1.59335,0 0.37556,0.37555 -0.37556,1.21779 0,1.59335 0.37556,0.37556 1.11831,-0.23752 1.59335,0 0.67182,0.33591 0.92154,1.25745 1.59335,1.59335 0.47505,0.23753 1.2178,-0.37556 1.59336,0 0.37555,0.37556 -0.37556,1.2178 0,1.59336 0.37555,0.37556 1.06224,0 1.59335,0 0,0.53111 -0.37556,1.21779 0,1.59335 0.37555,0.37556 1.11831,-0.23753 1.59336,0 0.67181,0.33591 0.92153,1.25744 1.59335,1.59335 0.47505,0.23752 1.21779,-0.37555 1.59335,0 0.37556,0.37556 -0.37556,1.2178 0,1.59336 0.37556,0.37555 1.11831,-0.23752 1.59335,0 0.67182,0.3359 0.92154,1.25744 1.59335,1.59335 0.47505,0.23753 1.2178,-0.37556 1.59336,0 0.37555,0.37555 -0.37556,1.21779 0,1.59335 0.37555,0.37556 1.11831,-0.23752 1.59335,0 0.67182,0.33591 0.92154,1.25745 1.59336,1.59336 0.95008,0.47504 2.43559,-0.75112 3.1867,0 0.37556,0.37555 -0.37556,1.21779 0,1.59335 0.75112,0.75112 2.43559,-0.75111 3.1867,0 0.37556,0.37556 -0.37555,1.21779 0,1.59335 0.75112,0.75112 2.23662,-0.47505 3.18672,0 0.67181,0.33591 0.92153,1.25744 1.59335,1.59335 0.4849,0.24246 4.06247,0 4.78005,0 4.24895,0 8.49789,0 12.74682,0 0.53112,0 1.06225,0 1.59336,0 0.53112,0 1.59336,-0.53112 1.59336,0 0,0.53112 -1.21781,-0.37555 -1.59336,0 -0.37555,0.37556 0,1.06223 0,1.59336"
       id="path4072"
       inkscape:connector-curvature="0" />
    <path
       style="fill:none;stroke:#000000;stroke-width:1.15827703px;stroke-linecap:butt;stroke-linejoin:miter;stroke-opacity:1"
       d="M 699.13607,491.77643 C 918.19118,691.52066 918.19118,691.52066 918.19118,691.52066"
       id="path3903-6"
       inkscape:connector-curvature="0" />
    <path
       style="fill:none;stroke:#000000;stroke-width:1px;stroke-linecap:butt;stroke-linejoin:miter;stroke-opacity:1"
       d="m 914.28571,709.21984 c 1.90477,0.95238 6.66667,0.95238 5.71429,2.85714 -0.95238,1.90476 -7.22013,-4.36299 -5.71429,-2.85714 1.96339,1.96338 4.83255,2.74551 7.14286,4.28571 1.30045,0.86697 3.01952,3.65262 4.28572,4.28572 0.42591,0.21296 1.00265,-0.21296 1.42857,0 1.71428,0.85714 2.57143,3.42857 4.28571,4.28571 0.42592,0.21296 1.00266,-0.21296 1.42857,0 1.20468,0.60234 1.65247,2.25481 2.85715,2.85714 0.42591,0.21296 1.09185,-0.33671 1.42857,0 2.95576,2.95577 -4.5168,-0.11554 1.42857,2.85715 1.97051,0.98525 1.27782,-1.73008 2.85714,1.42857 0.21296,0.42592 -0.33672,1.09185 0,1.42857 0.67344,0.67343 2.18371,-0.67344 2.85714,0 0.33672,0.33672 -0.33671,1.09185 0,1.42857 0.33672,0.33672 1.09186,-0.33672 1.42858,0 1.90476,1.90476 -2.38096,1.42857 1.42857,1.42857"
       id="path3018"
       inkscape:connector-curvature="0" />
    <path
       style="fill:none;stroke:#000000;stroke-width:1px;stroke-linecap:butt;stroke-linejoin:miter;stroke-opacity:1"
       d="m 941.42857,704.93412 c -1.90476,2.38096 -3.80952,4.76191 -5.71428,7.14286 0,0.47619 0.21295,1.00265 0,1.42857 -3.26901,6.53801 0.5921,-6.06202 -2.85715,4.28572 -0.15058,0.45175 0,0.95238 0,1.42857 -0.47619,0.95238 -1.09185,1.84699 -1.42857,2.85714 -0.15058,0.45176 0.21296,1.00265 0,1.42857 -0.30117,0.60234 -1.1274,0.82624 -1.42857,1.42857 -0.21296,0.42592 0,0.95238 0,1.42858 -0.47619,0.47619 -1.1274,0.82623 -1.42857,1.42857 -0.21296,0.42591 0.21296,1.00265 0,1.42857 -0.30117,0.60234 -1.1274,0.82623 -1.42857,1.42857 -0.42592,0.85184 0.67343,2.18371 0,2.85714 -0.33672,0.33672 -1.09186,-0.33671 -1.42857,0 -0.33672,0.33672 -0.33672,1.09186 0,1.42857 0.33671,0.33672 1.09185,-0.33671 1.42857,0 0.33671,0.33672 0,0.95238 0,1.42858"
       id="path3020"
       inkscape:connector-curvature="0" />
    <path
       style="fill:none;stroke:#000000;stroke-width:1px;stroke-linecap:butt;stroke-linejoin:miter;stroke-opacity:1"
       d="m 960,729.21984 c -0.47619,1.90476 0.47619,6.19047 -1.42857,5.71428 -1.90476,-0.47619 2.81689,-7.1026 1.42857,-5.71428 -3.034,3.03399 -2.85714,5.42359 -2.85714,8.57143 0,0.34646 -0.046,4.23977 0,4.28571 0.33671,0.33672 1.09185,-0.33672 1.42857,0 0.67343,0.67344 -0.67344,2.18371 0,2.85714 0.33672,0.33672 0.95238,0 1.42857,0 0,0.47619 -0.21296,1.00266 0,1.42858 2.97269,5.94537 -0.0986,-1.5272 2.85714,1.42857 0.33672,0.33671 -0.33671,1.09185 0,1.42857 0.33672,0.33672 1.09186,0.33672 1.42857,0 0.33672,-0.33672 -0.33671,-1.09186 0,-1.42857 0.33672,-0.33672 0.95239,0 1.42858,0 0,-0.47619 -0.33672,-1.09186 0,-1.42857 0.33671,-0.33672 1.09185,0.33671 1.42857,0 0.33671,-0.33672 -0.21296,-1.00266 0,-1.42858 0.30117,-0.60233 1.1274,-0.82623 1.42857,-1.42857 0.74563,-1.49126 -0.74563,-1.36588 0,-2.85714 0.30117,-0.60234 1.1274,-0.82623 1.42857,-1.42857 0.14652,-0.29304 0.20147,-4.08425 0,-4.28572 -0.33672,-0.33671 -1.09185,0.33672 -1.42857,0 -0.33672,-0.33671 0.21296,-1.00265 0,-1.42857 -1.2157,-2.43139 -8.51868,-4.26461 -8.57143,-4.28571 z"
       id="path3022"
       inkscape:connector-curvature="0" />
    <path
       style="fill:none;stroke:#000000;stroke-width:1px;stroke-linecap:butt;stroke-linejoin:miter;stroke-opacity:1"
       d="m 384.28571,714.93412 c 1.42858,1.90477 2.85715,3.80953 4.28572,5.71429 0,0.47619 -0.21296,1.00265 0,1.42857 1.31501,2.63002 2.9707,0.22712 4.28571,2.85714 0.21296,0.42592 -0.21296,1.00266 0,1.42858 0.33077,0.66154 4.87408,4.87408 5.71429,5.71428 0.47619,0.47619 1.1274,0.82623 1.42857,1.42857 0.21296,0.42592 -0.33672,1.09186 0,1.42857 0.33672,0.33672 1.09185,-0.33671 1.42857,0 0.33672,0.33672 -0.21296,1.00266 0,1.42858 0.38149,0.76297 3.53362,3.53362 4.28572,4.28571"
       id="path3024"
       inkscape:connector-curvature="0" />
    <path
       style="fill:none;stroke:#000000;stroke-width:1px;stroke-linecap:butt;stroke-linejoin:miter;stroke-opacity:1"
       d="m 402.85714,713.50555 c 1.49231,4.89201 -4.35068,4.41566 -5.71428,7.14286 -0.21296,0.42592 0.21296,1.00265 0,1.42857 -0.30117,0.60234 -1.1274,0.82623 -1.42857,1.42857 -0.21296,0.42592 0.21295,1.00266 0,1.42857 -0.30117,0.60234 -1.12741,0.82624 -1.42858,1.42858 -0.42591,0.85183 0.42592,2.0053 0,2.85714 -0.60233,1.20468 -2.2548,1.65246 -2.85714,2.85714 -0.21296,0.42592 0.21296,1.00265 0,1.42857 -0.30117,0.60234 -1.1274,0.82624 -1.42857,1.42857 -0.21296,0.42592 0.21296,1.00266 0,1.42858 -0.30117,0.60233 -1.1274,0.82623 -1.42857,1.42857 -0.21296,0.42591 0.33672,1.09185 0,1.42857 -1.90476,1.90476 -1.42857,-2.38095 -1.42857,1.42857"
       id="path3026"
       inkscape:connector-curvature="0" />
    <path
       style="fill:none;stroke:#000000;stroke-width:1px;stroke-linecap:butt;stroke-linejoin:miter;stroke-opacity:1"
       d="m 414.28571,742.07698 c 0.95239,-1.90476 0.95239,-6.66667 2.85715,-5.71428 1.90476,0.95238 -2.85715,7.84387 -2.85715,5.71428 0.95239,-2.38095 1.90477,-4.7619 2.85715,-7.14286 0.47619,0 1.09185,0.33672 1.42857,0 0.33672,-0.33671 -0.33672,-1.09185 0,-1.42857 0.33672,-0.33671 1.09185,0.33672 1.42857,0 0.33672,-0.33671 -0.33672,-1.09185 0,-1.42857 0.33672,-0.33672 1.09185,0.33672 1.42857,0 0.33672,-0.33672 -0.47619,-1.42857 0,-1.42857 0.47619,0 0,0.95238 0,1.42857 0,0.52462 -0.0575,5.6568 0,5.71429 0.33672,0.33671 1.09186,-0.33672 1.42857,0 0.33672,0.33671 0,0.95238 0,1.42857 0,0.47619 0,0.95238 0,1.42857 0,5.71429 0,11.42857 0,17.14286"
       id="path3028"
       inkscape:connector-curvature="0" />
    <path
       style="fill:none;stroke:#000000;stroke-width:1px;stroke-linecap:butt;stroke-linejoin:miter;stroke-opacity:1"
       d="m 1055.7143,506.3627 c 4.7619,0 9.5238,0 14.2857,0 0.4762,0 0.9524,0 1.4286,0 0.4762,0 1.0026,-0.21296 1.4285,0 0.6024,0.30116 0.8263,1.1274 1.4286,1.42857 0.4348,0.21738 3.6424,0 4.2857,0 3.8096,0 -0.4762,-0.47619 1.4286,1.42857 0.3367,0.33672 1.4286,-0.47619 1.4286,0 0,0.47619 -1.0919,-0.33672 -1.4286,0 -0.3367,0.33672 0,0.95238 0,1.42857 -0.4762,0 -1.0919,-0.33672 -1.4286,0 -0.6734,0.67343 0.6735,2.18371 0,2.85714 -0.3367,0.33672 -1.0918,-0.33671 -1.4285,0 -0.3368,0.33672 0.2129,1.00266 0,1.42857 -0.3012,0.60234 -1.1274,0.82624 -1.4286,1.42858 -0.213,0.42591 0.2129,1.00265 0,1.42857 -2.9727,5.94537 0.099,-1.5272 -2.8572,1.42857 -0.3367,0.33672 0.3368,1.09185 0,1.42857 -0.3367,0.33672 -1.0918,-0.33672 -1.4285,0 -0.3367,0.33672 0.3367,1.09185 0,1.42857 -0.3367,0.33672 -1.0919,-0.33672 -1.4286,0 -0.3367,0.33672 0.3367,1.09186 0,1.42857 -0.3367,0.33672 -1.0919,-0.33671 -1.4286,0 -0.3367,0.33672 -0.4762,1.42857 0,1.42857 0.6735,0 0.9524,-0.95238 1.4286,-1.42857"
       id="path3030"
       inkscape:connector-curvature="0" />
    <path
       style="fill:none;stroke:#000000;stroke-width:1px;stroke-linecap:butt;stroke-linejoin:miter;stroke-opacity:1"
       d="m 1020,450.64841 c 0,1.90476 -0.3736,3.84651 0,5.71429 0.1321,0.66035 1.2156,0.78969 1.4286,1.42857 0.3011,0.9035 -0.231,1.93319 0,2.85714 0.2582,1.033 1.1703,1.82414 1.4285,2.85714 0.231,0.92395 -0.2309,1.9332 0,2.85715 0.2583,1.033 1.0919,1.84699 1.4286,2.85714 0.4518,1.35526 -0.3465,2.89979 0,4.28571 0.2583,1.033 1.0919,1.84699 1.4286,2.85715 0.3012,0.9035 -0.4259,2.0053 0,2.85714 0.3012,0.60234 1.1274,0.82623 1.4286,1.42857 0.2129,0.42592 0.4761,1.42857 0,1.42857 -0.4762,0 0,-0.95238 0,-1.42857"
       id="path3032"
       inkscape:connector-curvature="0" />
    <path
       style="fill:none;stroke:#000000;stroke-width:1px;stroke-linecap:butt;stroke-linejoin:miter;stroke-opacity:1"
       d="m 1011.4286,447.79127 c 0.9524,-1.90477 0.9524,-6.66667 2.8571,-5.71429 1.9048,0.95238 -4.7619,6.66667 -2.8571,5.71429 2.7272,-1.36361 3.3719,-5.19087 5.7143,-7.14286 0.7316,-0.6097 1.9536,0.30117 2.8571,0 0.6389,-0.21296 0.8262,-1.1274 1.4286,-1.42857 0.8518,-0.42592 2.0053,0.42592 2.8571,0 0.6024,-0.30117 0.8262,-1.1274 1.4286,-1.42857 1.6751,-0.83757 1.6955,0.84777 2.8571,1.42857 0.4259,0.21296 1.0027,-0.21296 1.4286,0 0.3793,0.18965 4.0961,3.90641 4.2857,4.28571 0.4259,0.85184 -0.4259,2.00531 0,2.85715 0.5808,1.16159 2.2661,1.18201 1.4286,2.85714 -0.3012,0.60234 -1.1274,0.82623 -1.4286,1.42857 -0.2129,0.42592 0.213,1.00265 0,1.42857 -0.6023,1.20468 -2.2548,1.65247 -2.8571,2.85714 -0.213,0.42592 0.2129,1.00266 0,1.42858 -0.3012,0.60233 -0.9524,0.95238 -1.4286,1.42857 -0.4762,0.47619 -0.8262,1.1274 -1.4286,1.42857 -0.4259,0.21296 -1.0918,-0.33672 -1.4285,0 -0.3368,0.33672 0.3367,1.09185 0,1.42857 -0.3368,0.33672 -1.0919,-0.33672 -1.4286,0 -0.3367,0.33672 0.3367,1.09185 0,1.42857 -0.1429,0.14286 -4.9524,-0.66667 -2.8572,1.42857 0.3368,0.33672 0.9524,0 1.4286,0 0.4762,0 1.0919,0.33672 1.4286,0 0.3367,-0.33671 -0.3367,-1.09185 0,-1.42857 0.2015,-0.20146 3.9927,-0.14652 4.2857,0 1.2047,0.60234 1.6525,2.25481 2.8571,2.85714 0.426,0.21296 1.0919,-0.33671 1.4286,0 2.9558,2.95577 -4.5168,-0.11554 1.4286,2.85715 0.8518,0.42591 2.1837,-0.67344 2.8571,0 0.3367,0.33671 -0.3367,1.09185 0,1.42857 0.6735,0.67343 2.1837,-0.67344 2.8572,0 0.3367,0.33672 0,0.95238 0,1.42857 0.4762,0 1.0026,-0.21296 1.4285,0 0.6024,0.30117 0.8263,1.1274 1.4286,1.42857 0.4259,0.21296 1.0027,-0.21296 1.4286,0 0.6023,0.30117 0.8262,1.1274 1.4286,1.42857 0.4259,0.21296 1.0918,-0.33671 1.4285,0 0.3367,0.33672 -0.3367,1.09186 0,1.42857 0.3367,0.33672 0.9524,0 1.4286,0 0.4762,0 1.0919,0.33672 1.4286,0 0.3367,-0.33671 0,-0.95238 0,-1.42857"
       id="path3034"
       inkscape:connector-curvature="0" />
    <path
       style="fill:none;stroke:#000000;stroke-width:1px;stroke-linecap:butt;stroke-linejoin:miter;stroke-opacity:1"
       d="m 1058.5714,464.93412 c 1.9048,-0.95238 3.8882,-1.76147 5.7143,-2.85714 0.4591,-0.27545 5.5148,-5.31535 5.7143,-5.71428 0.1878,-0.37564 0,-4.96726 0,-5.71429 0,-0.47619 0.3367,-1.09185 0,-1.42857 -0.3367,-0.33672 -0.9524,0 -1.4286,0 -0.4762,0 -1.0026,-0.21296 -1.4285,0 -0.6024,0.30117 -0.8263,1.1274 -1.4286,1.42857 -0.4259,0.21296 -1.0919,-0.33672 -1.4286,0 -0.3367,0.33672 0.3367,1.09185 0,1.42857 -0.3367,0.33672 -1.0918,-0.33672 -1.4286,0 -0.3367,0.33672 0.3368,1.09186 0,1.42857 -0.3367,0.33672 -1.0918,-0.33671 -1.4285,0 -0.3367,0.33672 0.2129,1.00266 0,1.42857 -0.3012,0.60234 -1.1274,0.82624 -1.4286,1.42858 -0.213,0.42591 0.078,0.95886 0,1.42857 -0.3992,2.39506 -2.2811,4.86935 -1.4286,7.14285 0.836,2.22936 3.8551,2.79835 5.7143,4.28572 0.5259,0.42069 0.8262,1.1274 1.4286,1.42857 0.4347,0.21738 3.6423,0 4.2857,0 0.4762,0 0.9524,0 1.4286,0 0.4762,0 1.0026,0.21296 1.4285,0 0.6024,-0.30117 0.8263,-1.1274 1.4286,-1.42857 0.4259,-0.21296 1.0027,0.21296 1.4286,0 0.6023,-0.30117 0.9524,-0.95238 1.4286,-1.42857 0.4761,-0.47619 0.9523,-0.95238 1.4285,-1.42857"
       id="path3036"
       inkscape:connector-curvature="0" />
    <path
       style="fill:none;stroke:#000000;stroke-width:1px;stroke-linecap:butt;stroke-linejoin:miter;stroke-opacity:1"
       d="m 1092.8571,432.07698 c -1.4285,1.90476 -3.0607,3.67264 -4.2857,5.71429 -0.1062,0.17706 0,5.39354 0,5.71428 0,1.19627 -0.2716,6.05648 0,7.14286 0.2583,1.033 1.1703,1.82414 1.4286,2.85714 0.231,0.92395 -0.3012,1.95364 0,2.85715 0.213,0.63887 1.2156,0.78969 1.4286,1.42857 0.3011,0.9035 -0.3012,1.95363 0,2.85714 0.059,0.17747 4.0406,4.16317 4.2857,4.28571 0.4259,0.21296 0.9768,-0.15058 1.4286,0 10.3477,3.44925 -2.2523,-0.41186 4.2857,2.85715 0.8518,0.42591 2.0053,-0.42592 2.8571,0 0.6024,0.30117 0.9524,0.95238 1.4286,1.42857"
       id="path3038"
       inkscape:connector-curvature="0" />
    <path
       style="fill:none;stroke:#000000;stroke-width:1px;stroke-linecap:butt;stroke-linejoin:miter;stroke-opacity:1"
       d="m 1102.8571,442.07698 c -0.4085,-6.73435 5.4593,1.68359 7.1429,0 1.9048,-1.90476 -2.381,-1.42857 1.4286,-1.42857 0.5246,0 5.6568,0.0575 5.7143,0 0.3367,-0.33672 -0.3368,-1.09185 0,-1.42857 0.046,-0.0459 3.9392,0 4.2857,0 0.4762,0 0.9524,0 1.4285,0 0.4762,0 1.4286,-0.47619 1.4286,0 0,0.47619 -1.0918,-0.33672 -1.4286,0 -0.3367,0.33672 0.213,1.00265 0,1.42857 -0.3011,0.60234 -1.1274,0.82623 -1.4285,1.42857 -0.4259,0.85184 0.4259,2.00531 0,2.85714 -0.3012,0.60234 -1.1274,0.82624 -1.4286,1.42858 -0.4259,0.85183 0.6734,2.1837 0,2.85714 -0.3367,0.33672 -1.0919,-0.33672 -1.4286,0 -0.6734,0.67343 0.4259,2.00531 0,2.85714 -0.3011,0.60234 -1.1274,0.82623 -1.4285,1.42857 -0.213,0.42592 0.3367,1.09186 0,1.42857 -0.3368,0.33672 -1.0919,-0.33671 -1.4286,0 -0.3367,0.33672 0,0.95238 0,1.42858 0,0.47619 -0.3367,1.09185 0,1.42857 0.3367,0.33671 0.9524,0 1.4286,0 0.4761,0 0.9523,0 1.4285,0 2.381,0 4.7619,0 7.1429,0 0.4762,0 0.9524,0 1.4286,0 0.4761,0 1.0026,0.21296 1.4285,0 3.5306,-1.76529 -0.4931,-1.42857 2.8572,-1.42857"
       id="path3056"
       inkscape:connector-curvature="0" />
    <path
       style="fill:none;stroke:#000000;stroke-width:1px;stroke-linecap:butt;stroke-linejoin:miter;stroke-opacity:1"
       d="m 1111.4286,449.21984 c 1.9047,0 3.8465,0.37355 5.7143,0 0.6603,-0.13207 0.8262,-1.1274 1.4285,-1.42857 0.775,-0.38749 5.3234,0.39089 5.7143,0 0.3367,-0.33672 -0.3367,-1.09186 0,-1.42857 0.3438,-0.34376 5.3705,0.34375 5.7143,0 1.9048,-1.90477 -2.381,-1.42858 1.4286,-1.42858"
       id="path3058"
       inkscape:connector-curvature="0" />
    <path
       style="fill:none;stroke:#000000;stroke-width:1px;stroke-linecap:butt;stroke-linejoin:miter;stroke-opacity:1"
       d="m 1121.4286,420.64841 c 3.6816,-1.94452 6.2214,4.53927 8.5714,5.71429 0.4259,0.21295 1.0919,-0.33672 1.4286,0 0.3367,0.33671 -0.213,1.00265 0,1.42857 0.6331,1.26619 3.4187,2.98526 4.2857,4.28571 0.5906,0.88596 0.8379,1.97118 1.4286,2.85714 0.3735,0.56034 1.1274,0.82624 1.4285,1.42858 0.213,0.42591 -0.2129,1.00265 0,1.42857 0.6024,1.20467 2.2548,1.65246 2.8572,2.85714 0.4259,0.85184 -0.4259,2.00531 0,2.85714 0.3011,0.60234 1.1274,0.82624 1.4285,1.42857 0.213,0.42592 0,0.95238 0,1.42858 0,0.47619 0,0.95238 0,1.42857 0,2.38095 0,4.7619 0,7.14285"
       id="path3060"
       inkscape:connector-curvature="0" />
    <path
       style="fill:none;stroke:#000000;stroke-width:1px;stroke-linecap:butt;stroke-linejoin:miter;stroke-opacity:1"
       d="m 674.28571,80.64841 c 0.95239,-1.90476 0.95239,-6.66667 2.85715,-5.71429 1.90476,0.95238 -4.36299,7.22014 -2.85715,5.71429 1.96339,-1.96338 2.74551,-4.83255 4.28572,-7.14286 0.74711,-1.12066 2.2548,-1.65246 2.85714,-2.85714 0.21296,-0.42592 -0.21296,-1.00265 0,-1.42857 0.60234,-1.20468 2.25481,-1.65247 2.85714,-2.85714 0.21296,-0.42592 -0.21295,-1.00266 0,-1.42858 0.60234,-1.20467 2.25481,-1.65246 2.85715,-2.85714 0.21296,-0.42592 -0.33672,-1.09185 0,-1.42857 0.33671,-0.33672 1.09185,0.33672 1.42857,0 0.14286,-0.14286 -0.66667,-4.95238 1.42857,-2.85714 0.33672,0.33671 0,0.95238 0,1.42857 0,1.01257 -0.18468,8.20207 0,8.57143 0.30117,0.60234 1.1274,0.82623 1.42857,1.42857 0.42592,0.85183 -0.42592,2.00531 0,2.85714 0.30117,0.60234 1.1274,0.82623 1.42857,1.42857 0.21296,0.42592 -0.21296,1.00266 0,1.42857 0.30117,0.60234 1.1274,0.82624 1.42857,1.42858 0.21296,0.42591 -0.21295,1.00265 0,1.42857 0.30117,0.60234 1.12741,0.82623 1.42858,1.42857 0.8985,1.79701 -2.05171,2.85714 1.42857,2.85714"
       id="path3062"
       inkscape:connector-curvature="0" />
    <path
       style="fill:none;stroke:#000000;stroke-width:1px;stroke-linecap:butt;stroke-linejoin:miter;stroke-opacity:1"
       d="m 715.71429,106.3627 c 1.22259,1.70521 -0.60762,7.56955 0,10 0.25825,1.033 1.17032,1.82414 1.42857,2.85714 0.23098,0.92394 -0.30117,1.95363 0,2.85714 0.21296,0.63888 1.21561,0.7897 1.42857,1.42857 0.30117,0.90351 -0.23099,1.9332 0,2.85715 0.25825,1.033 1.17032,1.82414 1.42857,2.85714 0.23099,0.92394 0,1.90476 0,2.85714 0.47619,0.95238 1.09185,1.84699 1.42857,2.85714 0.15059,0.45176 -0.21296,1.00266 0,1.42858 0.30117,0.60233 1.1274,0.82623 1.42857,1.42857 0.21296,0.42591 -0.21296,1.00265 0,1.42857 0.30117,0.60234 1.1274,0.82623 1.42857,1.42857 0.21296,0.42592 -0.33671,1.09185 0,1.42857 1.90477,1.90476 1.42858,-2.38095 1.42858,1.42857"
       id="path3065"
       inkscape:connector-curvature="0" />
    <path
       style="fill:none;stroke:#000000;stroke-width:1px;stroke-linecap:butt;stroke-linejoin:miter;stroke-opacity:1"
       d="m 738.57143,122.07698 c 0,1.90476 1.90476,5.71429 0,5.71429 -1.90476,0 0,-7.61905 0,-5.71429 0,18.81944 -1.68359,2.34711 1.42857,8.57143 0.21296,0.42592 -0.21296,1.00265 0,1.42857 0.30117,0.60234 1.1274,0.82623 1.42857,1.42857 0.42592,0.85184 -0.67343,2.18371 0,2.85715 0.33672,0.33671 1.09186,-0.33672 1.42857,0 0.34376,0.34375 -0.34376,5.37052 0,5.71428 0.33672,0.33672 1.09186,-0.33672 1.42857,0 0.33672,0.33672 0,0.95238 0,1.42857 0,0.47619 0.33672,1.09186 0,1.42857 -0.33671,0.33672 -1.09185,0.33672 -1.42857,0 -0.33671,-0.33671 0,-0.95238 0,-1.42857 0,-0.99363 -0.25831,-6.62624 0,-7.14285 0.30117,-0.60234 1.1274,-0.82624 1.42857,-1.42858 0.21296,-0.42591 -0.21295,-1.00265 0,-1.42857 0.30117,-0.60234 1.12741,-0.82623 1.42858,-1.42857 0.21295,-0.42592 -0.21296,-1.00265 0,-1.42857 0.60233,-1.20468 2.2548,-1.65247 2.85714,-2.85714 0.21296,-0.42592 -0.33672,-1.09186 0,-1.42857 0.33672,-0.33672 1.09185,0.33671 1.42857,0 0.33672,-0.33672 -0.33672,-1.09186 0,-1.42858 0.14286,-0.14285 4.14286,-0.14285 4.28571,0 0.33672,0.33672 -0.33671,1.09186 0,1.42858 0.33672,0.33671 1.09186,-0.33672 1.42858,0 0.95522,0.95522 -0.95523,1.90191 0,2.85714 0.33671,0.33672 1.09185,-0.33672 1.42857,0 0.67343,0.67343 -0.42592,2.00531 0,2.85714 0.30117,0.60234 1.1274,0.82623 1.42857,1.42857 0.21296,0.42592 0.47619,1.42857 0,1.42857 -0.47619,0 0,-0.95238 0,-1.42857 0,-0.47619 0,-0.95238 0,-1.42857 0,-0.47619 -0.33672,-1.09185 0,-1.42857 0.33672,-0.33672 1.09185,0.33672 1.42857,0 0.29205,-0.29205 -0.28321,-3.7193 0,-4.28571 0.30117,-0.60234 1.1274,-0.82624 1.42857,-1.42858 0.21296,-0.42591 -0.21296,-1.00265 0,-1.42857 0.30117,-0.60234 0.95238,-0.95238 1.42857,-1.42857 0.47619,-0.47619 0.95238,-0.95238 1.42857,-1.42857 0.7521,-0.75209 3.52274,-3.90423 4.28572,-4.28571 0.42592,-0.21296 1.09185,0.33671 1.42857,0 0.33672,-0.33672 -0.33672,-1.09186 0,-1.42858 0.33672,-0.33671 1.09185,-0.33671 1.42857,0 0.33672,0.33672 -0.33672,1.09186 0,1.42858 0.33672,0.33671 1.09186,-0.33672 1.42857,0 0,3.80952 -0.47619,-0.4762 1.42857,1.42857 0.71429,0.71428 -0.71428,3.57143 0,4.28571 0.33672,0.33672 1.09186,-0.33672 1.42858,0 0.71428,0.71429 -0.71429,3.57143 0,4.28572 0.33671,0.33671 1.09185,-0.33672 1.42857,0 0.67343,0.67343 -0.42592,2.0053 0,2.85714 0.30117,0.60234 1.1274,0.82623 1.42857,1.42857 0.42592,0.85184 -0.67344,2.18371 0,2.85714 0.33672,0.33672 1.09185,0.33672 1.42857,0 0.33672,-0.33671 0,-0.95238 0,-1.42857"
       id="path3071"
       inkscape:connector-curvature="0" />
    <path
       style="fill:none;stroke:#000000;stroke-width:1px;stroke-linecap:butt;stroke-linejoin:miter;stroke-opacity:1"
       d="m 798.57143,93.50555 c -0.47619,1.90476 -0.95238,3.80953 -1.42857,5.71429 -0.47619,0.47619 -1.21562,0.78969 -1.42857,1.42857 -0.26252,0.78754 0,7.35908 0,8.57143 0,3.33333 0,6.66666 0,10 0,0.95238 -0.23099,1.9332 0,2.85714 0.5165,2.06601 2.34064,3.64828 2.85714,5.71429 0.23098,0.92394 -0.30117,1.95363 0,2.85714 0.21296,0.63888 1.05502,0.86824 1.42857,1.42857 0.59064,0.88596 0.83793,1.97118 1.42857,2.85714 0.37356,0.56034 0.95238,0.95238 1.42857,1.42858 0.47619,0.47619 0.82624,1.1274 1.42857,1.42857 0.42592,0.21296 1.00266,-0.21296 1.42858,0 0.60233,0.30117 0.82623,1.1274 1.42857,1.42857 0.42591,0.21296 0.95238,0 1.42857,0 0.47619,0 0.95238,0 1.42857,0"
       id="path3073"
       inkscape:connector-curvature="0" />
    <path
       style="fill:none;stroke:#000000;stroke-width:1px;stroke-linecap:butt;stroke-linejoin:miter;stroke-opacity:1"
       d="m 817.14286,102.07698 c 4.08442,2.59751 4.91432,-3.17145 7.14285,-4.28571 0.43477,-0.21738 3.64235,0 4.28572,0 0.47619,0 0.95238,0 1.42857,0 0.47619,0 1.09185,-0.33672 1.42857,0 0.33672,0.33671 0,0.95238 0,1.42857 0,0.47619 0,0.95238 0,1.42857 0,0.47619 0,0.95238 0,1.42857 0,0.47619 0.21296,1.00265 0,1.42857 -0.30117,0.60234 -1.1274,0.82624 -1.42857,1.42857 -0.21296,0.42592 0.21296,1.00266 0,1.42858 -0.30117,0.60233 -1.1274,0.82623 -1.42857,1.42857 -0.21296,0.42591 0.21296,1.00265 0,1.42857 -0.30117,0.60234 -1.21561,0.78969 -1.42857,1.42857 -0.30117,0.90351 0.30117,1.95363 0,2.85714 -0.21296,0.63888 -1.1274,0.82624 -1.42857,1.42857 -0.21296,0.42592 0,0.95238 0,1.42858 0,0.47619 0,0.95238 0,1.42857 0,0.34646 -0.046,4.23977 0,4.28571 0.33671,0.33672 0.95238,0 1.42857,0 0.64337,0 3.85095,0.21738 4.28571,0 0.60234,-0.30117 0.82623,-1.1274 1.42857,-1.42857 0.42592,-0.21296 1.00266,0.21296 1.42857,0 0.60234,-0.30117 0.82624,-1.1274 1.42858,-1.42857 0.56641,-0.28321 3.99366,0.29205 4.28571,0 0.33672,-0.33672 -0.33672,-1.09186 0,-1.42857 0.33672,-0.33672 0.95238,0 1.42857,0 0.47619,0 1.09186,-0.33672 1.42857,0 0.33672,0.33671 -0.33671,1.09185 0,1.42857 0.33672,0.33672 0.95238,0 1.42857,0"
       id="path3075"
       inkscape:connector-curvature="0" />
    <path
       style="fill:none;stroke:#000000;stroke-width:1px;stroke-linecap:butt;stroke-linejoin:miter;stroke-opacity:1"
       d="m 817.14286,112.07698 c 6.17626,-1.54406 3.7509,-1.42857 7.14285,-1.42857 0.47619,0 1.00266,0.21296 1.42858,0 0.60233,-0.30117 0.82623,-1.1274 1.42857,-1.42857 0.85183,-0.42592 2.0053,0.42592 2.85714,0 0.60234,-0.30117 0.82623,-1.1274 1.42857,-1.42857 0.37563,-0.18782 4.96726,0 5.71429,0"
       id="path3077"
       inkscape:connector-curvature="0" />
    <path
       style="fill:none;stroke:#000000;stroke-width:1px;stroke-linecap:butt;stroke-linejoin:miter;stroke-opacity:1"
       d="m 832.85714,77.79127 c 2.38096,1.90476 4.76191,3.80952 7.14286,5.71428 0.47619,0.95238 0.67565,2.10422 1.42857,2.85715 0.75292,0.75292 2.10422,0.67564 2.85714,1.42857 2.63275,2.63274 2.59478,4.32462 4.28572,7.14285 0.88335,1.47226 2.08931,2.75005 2.85714,4.28572 0.67344,1.34687 0.95238,2.85714 1.42857,4.28571 0.47619,1.42857 1.18101,2.80036 1.42857,4.28572 0.23486,1.40913 -0.23485,2.87658 0,4.28571 0.63086,3.78515 2.12357,3.66788 1.42858,7.14286 -0.29533,1.4766 -1.13325,2.80911 -1.42858,4.28571 -0.18677,0.93389 0.23099,1.9332 0,2.85715 0.86104,2.58562 -2.3142,2.65689 -2.85714,4.28571 -0.30117,0.90351 0,1.90476 0,2.85714"
       id="path3079"
       inkscape:connector-curvature="0" />
    <path
       style="fill:none;stroke:#000000;stroke-width:1px;stroke-linecap:butt;stroke-linejoin:miter;stroke-opacity:1"
       d="m 502.85714,273.50555 c -1.90476,0 -5.71428,1.90476 -5.71428,0 0,-1.90476 6.56612,1.70367 5.71428,0 -1.14682,-2.29363 -4.94393,-1.53779 -7.14285,-2.85714 -0.81666,-0.49 0.67343,-2.18371 0,-2.85714 -0.33672,-0.33672 -1.09186,0.33671 -1.42858,0 -0.33671,-0.33672 0,-0.95238 0,-1.42857 0,-2.38096 0,-4.76191 0,-7.14286 0,-0.47619 -0.33671,-1.09186 0,-1.42857 0.34376,-0.34376 5.37053,0.34376 5.71429,0 0.33672,-0.33672 -0.33672,-1.09186 0,-1.42857 0.33672,-0.33672 1.09185,0.33671 1.42857,0 0.33672,-0.33672 -0.21296,-1.00266 0,-1.42858 0.30117,-0.60233 1.1274,-0.82623 1.42857,-1.42857 0.21296,-0.42592 0,-0.95238 0,-1.42857 0,-0.47619 0,-0.95238 0,-1.42857 0,-3.80952 0.47619,0.47619 -1.42857,-1.42857 -0.67343,-0.67344 0.67344,-2.18371 0,-2.85714 -0.33672,-0.33672 -1.09185,0.33671 -1.42857,0 -0.33672,-0.33672 0,-0.95239 0,-1.42858 -0.47619,0 -1.09185,0.33672 -1.42857,0 -0.33672,-0.33671 0,-0.95238 0,-1.42857 0,-0.47619 -0.47619,-1.42857 0,-1.42857 0.47619,0 -0.21296,1.00265 0,1.42857 0.30117,0.60234 1.1274,0.82624 1.42857,1.42857 0.21296,0.42592 -0.33672,1.09186 0,1.42858 0.33672,0.33671 1.09185,-0.33672 1.42857,0 0.33672,0.33671 -0.33672,1.09185 0,1.42857 0.33672,0.33671 1.09186,-0.33672 1.42857,0 0.33672,0.33671 -0.33671,1.09185 0,1.42857 0.33672,0.33672 1.09186,-0.33672 1.42857,0 0.33672,0.33672 -0.33671,1.09185 0,1.42857 0.33672,0.33672 1.09186,-0.33672 1.42858,0 0.33671,0.33672 -0.33672,1.09185 0,1.42857 0.33671,0.33672 1.09185,0.33672 1.42857,0 0.33671,-0.33672 -0.33672,-1.09185 0,-1.42857 0.67343,-0.67344 2.1837,0.67343 2.85714,0 0.67344,-0.67344 -0.42592,-2.00531 0,-2.85714 0.30117,-0.60234 0.95238,-0.95238 1.42857,-1.42857 0.47619,-0.4762 0.82623,-1.12741 1.42857,-1.42858 0.0747,-0.0374 4.21098,-0.0374 4.28572,0 0.60234,0.30117 1.1274,0.82624 1.42857,1.42858 0.21296,0.42591 -0.33672,1.09185 0,1.42857 0.33672,0.33671 1.09185,-0.33672 1.42857,0 0.33672,0.33671 -0.33672,1.09185 0,1.42857 0.33672,0.33672 1.09185,-0.33672 1.42857,0 0.33672,0.33672 -0.21296,1.00265 0,1.42857 0.88265,1.76529 1.37926,1.42857 2.85714,1.42857"
       id="path3083"
       inkscape:connector-curvature="0" />
    <path
       style="fill:none;stroke:#000000;stroke-width:1px;stroke-linecap:butt;stroke-linejoin:miter;stroke-opacity:1"
       d="m 457.14286,237.79127 c 0,-4.76191 0,-9.52381 0,-14.28572 0,-1.66957 0.31765,-4.12601 0,-5.71428 -0.38505,-1.92526 -0.95238,-3.80953 -1.42857,-5.71429 6.17147,6.17148 3.81277,3.81277 7.14285,7.14286 0.47619,0.47619 0.82624,1.1274 1.42857,1.42857 0.42592,0.21296 1.09186,-0.33672 1.42858,0 0.33671,0.33672 -0.21296,1.00265 0,1.42857 1.57932,3.15865 0.88663,0.44332 2.85714,1.42857 1.20468,0.60234 1.65246,2.25481 2.85714,2.85715 0.42592,0.21295 0.95238,0 1.42857,0 0.47619,0 0.95238,0 1.42857,0 -2.38095,1.90476 -4.66169,3.94203 -7.14285,5.71428 -3.12406,2.23147 -7.72424,2.02513 -10,5.71429 z"
       id="path3095"
       inkscape:connector-curvature="0" />
    <path
       style="fill:none;stroke:#000000;stroke-width:1px;stroke-linecap:butt;stroke-linejoin:miter;stroke-opacity:1"
       d="m 490,207.79127 c 0,4.28571 0,8.57143 0,12.85714 0,0.95238 -0.30117,1.95363 0,2.85714 0.21296,0.63888 1.1274,0.82624 1.42857,1.42857 0.18782,0.37563 0,4.96726 0,5.71429"
       id="path3101"
       inkscape:connector-curvature="0" />
    <path
       style="fill:none;stroke:#000000;stroke-width:1px;stroke-linecap:butt;stroke-linejoin:miter;stroke-opacity:1"
       d="m 477.14286,214.93412 c 1.90476,0.47619 3.80952,0.95238 5.71428,1.42858 0.95238,0.47619 1.84699,1.09185 2.85715,1.42857 0.45175,0.15058 1.00265,-0.21296 1.42857,0 0.60234,0.30117 0.86824,1.05501 1.42857,1.42857 7.21686,4.81124 0.0331,0.011 4.28571,1.42857 1.01016,0.33672 1.84699,1.09185 2.85715,1.42857 0.9035,0.30117 2.0053,-0.42592 2.85714,0 0.60234,0.30117 0.82623,1.1274 1.42857,1.42857 1.24668,0.62334 3.79032,-1.18087 4.28571,-1.42857"
       id="path3103"
       inkscape:connector-curvature="0" />
  </g>
</svg>
